<svg fill="none" height="44" viewBox="0 0 44 44" width="44" xmlns="http://www.w3.org/2000/svg" xmlns:xlink="http://www.w3.org/1999/xlink"><clipPath id="a"><path d="m10.5527 12h24.6833v20h-24.6833z"/></clipPath><rect fill="#f1f1f1" height="44" rx="22" width="44"/><g clip-path="url(#a)"><path d="m32.4944 26.9333-.3833-1.6666c-.0167-.0771-.0486-.15-.0939-.2146-.0453-.0645-.103-.1193-.1698-.1613-.0667-.0419-.1412-.07-.219-.0828-.0778-.0127-.1573-.0098-.234.0087l-1.6667.375c-.077.0167-.1499.0486-.2145.0938-.0645.0453-.1194.103-.1613.1698s-.0701.1412-.0828.219-.0098.1574.0086.234c.0358.1545.1312.2886.2655.3729s.2965.112.4512.0771l.2667-.0583c-.8674 1.2037-2.0365 2.1578-3.3896 2.7663-1.3532.6086-2.8427.8501-4.3188.7004-.0784-.0093-.1579-.0027-.2337.0193-.0758.0219-.1465.0588-.2079.1085-.0613.0497-.1121.1112-.1493.1809-.0372.0696-.0602.146-.0674.2246-.0163.158.0306.316.1306.4394s.2448.2021.4027.2189c.3295.0333.6605.05.9917.05 1.5384-.0049 3.0534-.3773 4.4189-1.0861 1.3654-.7088 2.5418-1.7335 3.4311-2.9889l.0583.2667c.0304.1315.1049.2486.2109.3319.1061.0834.2375.128.3725.1264h.1333c.1551-.0376.2893-.1347.3734-.2703.0842-.1357.1117-.2989.0766-.4547zm-14.5417-1.7166h-4.5333c-.7377-.0202-1.4533.2524-1.9905.7584-.5372.5059-.8522 1.204-.8762 1.9416v2.5583c0 .201.0398.4.1169.5855.0772.1856.1902.3541.3327.4958s.3116.2539.4976.33c.186.0762.3852.1148.5862.1137h7.2c.4044 0 .7923-.1607 1.0783-.4467s.4467-.6738.4467-1.0783v-2.5583c-.024-.7361-.3378-1.4329-.8732-1.9386s-1.2489-.7794-1.9852-.7614zm1.6667 5.2583c0 .0884-.0351.1732-.0976.2357s-.1473.0976-.2357.0976h-7.2c-.0445.0011-.0887-.0067-.1302-.0229-.0414-.0163-.0791-.0406-.1109-.0717-.0319-.0311-.0572-.0682-.0745-.1092-.0172-.041-.0261-.085-.0261-.1295v-2.5583c.0258-.4186.2149-.8103.5266-1.0908.3117-.2806.7211-.4275 1.1401-.4092h4.5416c.4195-.0205.8301.1257 1.1423.4067.3122.2809.5007.6739.5244 1.0933zm-3.9333-11.575c-.7205 0-1.4115.2862-1.921.7957s-.7957 1.2005-.7957 1.921c-.0018.7571.2028 1.5004.5917 2.15.2149.3757.5237.6893.8962.9098.3725.2206.7959.3407 1.2288.3485 1.7583 0 2.7083-1.7583 2.7083-3.4083 0-.7191-.2851-1.4088-.7927-1.9181-.5077-.5092-1.1966-.7964-1.9156-.7986zm0 4.925c-1.15 0-1.5167-1.4917-1.5167-2.2083 0-.4023.1598-.788.4442-1.0725.2845-.2844.6702-.4442 1.0725-.4442.4022 0 .788.1598 1.0724.4442.2844.2845.4442.6702.4442 1.0725.0167.9166-.475 2.2083-1.5166 2.2083z" fill="#1a1a1a"/><path d="m26.3362 13.1333c-.0445.1523-.1475.2808-.2865.3573s-.3027.0949-.4551.0511c-1.4937-.4473-3.083-.4665-4.587-.0555-1.5041.411-2.8627 1.2358-3.9214 2.3805h.3084c.0866-.0389.1812-.0567.276-.0519s.1872.0321.2694.0795c.0823.0474.1521.1137.2037.1934.0517.0797.0837.1705.0934.2649.0097.0945-.0031.1899-.0374.2784-.0344.0885-.0892.1676-.1601.2308-.0708.0632-.1557.1087-.2475.1327-.0919.024-.1882.0259-.2809.0055l-1.6666.1667h-.0917c-.1479.0026-.2912-.051-.4011-.15-.1098-.099-.1779-.236-.1906-.3834l-.175-1.6666c-.0092-.0815-.0016-.164.0223-.2424.0239-.0785.0637-.1511.1168-.2136s.1184-.1134.192-.1497c.0735-.0362.1537-.057.2356-.061.1566-.014.3125.034.434.1338.1216.0997.1991.2432.216.3995v.2334c1.2132-1.3042 2.7654-2.2452 4.4829-2.7176s3.5325-.4577 5.2421.0426c.1523.0445.2808.1475.3573.2865s.0949.3026.051.4551z" fill="#1a1a1a"/><g fill="#2667ff"><path d="m29.877 13.1417c-1.0618-.0017-2.1002.3117-2.9839.9004-.8836.5887-1.5728 1.4262-1.9802 2.4067-.4075.9805-.515 2.0598-.3088 3.1014.2061 1.0416.7166 1.9986 1.4668 2.75s1.7064 1.2633 2.7477 1.4711c1.0412.2077 2.1207.1019 3.1018-.304.9811-.406 1.8198-1.0938 2.4099-1.9765.59-.8828.905-1.9207.905-2.9825 0-1.4219-.5643-2.7856-1.5689-3.7918-1.0047-1.0062-2.3676-1.5726-3.7894-1.5748zm0 9.525c-.8241 0-1.6297-.2444-2.3149-.7022-.6852-.4579-1.2193-1.1086-1.5346-1.87-.3154-.7613-.3979-1.5991-.2371-2.4074.1607-.8082.5576-1.5507 1.1403-2.1334s1.3251-.9795 2.1334-1.1403c.8082-.1608 1.646-.0783 2.4074.2371.7613.3154 1.4121.8494 1.8699 1.5346.4579.6852.7022 1.4908.7022 2.3149 0 .5472-.1078 1.089-.3171 1.5945-.2094.5055-.5164.9649-.9033 1.3518s-.8462.6938-1.3517.9032c-.5056.2094-1.0474.3172-1.5945.3172z"/><path d="m31.7023 19.5917c-.0146.3574-.1405.7013-.3601.9837-.2197.2824-.522.4891-.8649.5913v.1583c0 .1591-.0632.3117-.1757.4243-.1125.1125-.2651.1757-.4243.1757-.1591 0-.3117-.0632-.4242-.1757-.1125-.1126-.1758-.2652-.1758-.4243v-.1583c-.3918-.1226-.7299-.3755-.9583-.7167-.0432-.0651-.0732-.1381-.0882-.2148s-.0148-.1556.0007-.2322.0459-.1494.0895-.2143c.0436-.0648.0996-.1205.1647-.1637s.1381-.0732.2148-.0882.1556-.0148.2322.0007c.0766.0154.1494.0459.2143.0895.0648.0436.1205.0996.1637.1647.0659.0869.1518.1566.2505.203s.2072.0683.3161.0636c.3417 0 .6334-.2166.6334-.4833s0-.35-.7584-.5c-.3689-.0592-.7244-.1833-1.05-.3667-.2101-.1414-.3802-.3345-.4941-.5607-.1138-.2262-.1675-.4779-.1559-.7309.0052-.361.1274-.7106.3483-.9961.221-.2855.5286-.4916.8767-.5873v-.1666c0-.1592.0633-.3118.1758-.4243s.2651-.1757.4242-.1757c.1592 0 .3118.0632.4243.1757s.1757.2651.1757.4243v.1583c.3919.1226.73.3755.9584.7167.0873.1315.1188.2923.0875.447-.0312.1547-.1227.2907-.2542.378s-.2923.1188-.447.0875-.2907-.1227-.378-.2542c-.0668-.0859-.1529-.1548-.2514-.2011-.0985-.0464-.2065-.0688-.3153-.0656-.3416 0-.6333.225-.6333.4834 0 .2583 0 .35.7583.5.3686.0605.7239.1845 1.05.3666.2115.1441.3823.3401.4962.5692.1138.2291.1668.4837.1538.7392z"/></g></g></svg>