<svg width="177" height="104" viewBox="0 0 177 104" fill="none" xmlns="http://www.w3.org/2000/svg">
<path d="M111.5 2C111.5 0.89543 112.395 0 113.5 0H162.5C163.605 0 164.5 0.895431 164.5 2V14H111.5V2Z" fill="#004BFF"/>
<path d="M121.864 6.0625C121.824 5.92424 121.768 5.80208 121.696 5.69602C121.624 5.58807 121.536 5.49716 121.432 5.4233C121.33 5.34754 121.212 5.28977 121.08 5.25C120.949 5.21023 120.804 5.19034 120.645 5.19034C120.348 5.19034 120.086 5.2642 119.861 5.41193C119.637 5.55966 119.463 5.77462 119.338 6.05682C119.213 6.33712 119.151 6.67992 119.151 7.08523C119.151 7.49053 119.212 7.83523 119.335 8.11932C119.458 8.40341 119.633 8.62027 119.858 8.76989C120.083 8.91761 120.349 8.99148 120.656 8.99148C120.935 8.99148 121.172 8.94223 121.369 8.84375C121.568 8.74337 121.72 8.60227 121.824 8.42045C121.93 8.23864 121.983 8.02367 121.983 7.77557L122.233 7.8125H120.733V6.88636H123.168V7.61932C123.168 8.13068 123.06 8.57008 122.844 8.9375C122.628 9.30303 122.33 9.58523 121.952 9.78409C121.573 9.98106 121.139 10.0795 120.651 10.0795C120.105 10.0795 119.626 9.95928 119.213 9.71875C118.8 9.47633 118.478 9.13258 118.247 8.6875C118.018 8.24053 117.903 7.71023 117.903 7.09659C117.903 6.625 117.972 6.20455 118.108 5.83523C118.246 5.46402 118.439 5.14962 118.688 4.89205C118.936 4.63447 119.224 4.43845 119.554 4.30398C119.884 4.16951 120.241 4.10227 120.625 4.10227C120.955 4.10227 121.261 4.15057 121.545 4.24716C121.83 4.34186 122.081 4.47633 122.301 4.65057C122.523 4.82481 122.704 5.0322 122.844 5.27273C122.984 5.51136 123.074 5.77462 123.114 6.0625H121.864ZM126.058 10.0852C125.609 10.0852 125.222 9.99432 124.898 9.8125C124.576 9.62879 124.328 9.36932 124.154 9.03409C123.98 8.69697 123.893 8.2983 123.893 7.83807C123.893 7.3892 123.98 6.99527 124.154 6.65625C124.328 6.31723 124.574 6.05303 124.89 5.86364C125.208 5.67424 125.581 5.57955 126.009 5.57955C126.297 5.57955 126.565 5.62595 126.813 5.71875C127.063 5.80966 127.281 5.94697 127.467 6.13068C127.654 6.31439 127.8 6.54545 127.904 6.82386C128.008 7.10038 128.06 7.42424 128.06 7.79545V8.12784H124.376V7.37784H126.921C126.921 7.2036 126.883 7.04924 126.808 6.91477C126.732 6.7803 126.627 6.67519 126.492 6.59943C126.36 6.52178 126.205 6.48295 126.029 6.48295C125.845 6.48295 125.683 6.52557 125.54 6.6108C125.4 6.69413 125.29 6.80682 125.211 6.94886C125.131 7.08902 125.091 7.24527 125.089 7.41761V8.13068C125.089 8.34659 125.129 8.53314 125.208 8.69034C125.29 8.84754 125.404 8.96875 125.552 9.05398C125.7 9.1392 125.875 9.18182 126.077 9.18182C126.212 9.18182 126.335 9.16288 126.447 9.125C126.558 9.08712 126.654 9.0303 126.734 8.95455C126.813 8.87879 126.874 8.78598 126.915 8.67614L128.035 8.75C127.978 9.01894 127.862 9.25379 127.685 9.45455C127.511 9.65341 127.286 9.80871 127.009 9.92045C126.735 10.0303 126.417 10.0852 126.058 10.0852ZM131.171 5.63636V6.54545H128.543V5.63636H131.171ZM129.14 4.59091H130.35V8.65909C130.35 8.77083 130.367 8.85795 130.401 8.92045C130.435 8.98106 130.483 9.02367 130.543 9.0483C130.606 9.07292 130.678 9.08523 130.759 9.08523C130.816 9.08523 130.873 9.08049 130.93 9.07102C130.987 9.05966 131.03 9.05114 131.06 9.04545L131.251 9.94602C131.19 9.96496 131.105 9.98674 130.995 10.0114C130.885 10.0379 130.752 10.054 130.594 10.0597C130.303 10.071 130.047 10.0322 129.827 9.94318C129.61 9.85417 129.44 9.71591 129.319 9.52841C129.198 9.34091 129.138 9.10417 129.14 8.81818V4.59091ZM133.493 4.18182H134.871L136.197 6.6875H136.254L137.581 4.18182H138.959L136.837 7.94318V10H135.615V7.94318L133.493 4.18182ZM141.482 10V4.18182H145.335V5.19602H142.712V6.58239H145.079V7.59659H142.712V10H141.482ZM146.069 10V5.63636H147.242V6.39773H147.288C147.367 6.12689 147.501 5.92235 147.688 5.78409C147.876 5.64394 148.092 5.57386 148.336 5.57386C148.397 5.57386 148.462 5.57765 148.532 5.58523C148.602 5.5928 148.664 5.60322 148.717 5.61648V6.69034C148.66 6.6733 148.581 6.65814 148.481 6.64489C148.38 6.63163 148.289 6.625 148.205 6.625C148.027 6.625 147.868 6.66383 147.728 6.74148C147.59 6.81723 147.48 6.9233 147.398 7.05966C147.319 7.19602 147.279 7.35322 147.279 7.53125V10H146.069ZM151.128 10.0852C150.679 10.0852 150.293 9.99432 149.969 9.8125C149.647 9.62879 149.399 9.36932 149.224 9.03409C149.05 8.69697 148.963 8.2983 148.963 7.83807C148.963 7.3892 149.05 6.99527 149.224 6.65625C149.399 6.31723 149.644 6.05303 149.96 5.86364C150.278 5.67424 150.652 5.57955 151.08 5.57955C151.367 5.57955 151.635 5.62595 151.884 5.71875C152.134 5.80966 152.351 5.94697 152.537 6.13068C152.724 6.31439 152.87 6.54545 152.974 6.82386C153.079 7.10038 153.131 7.42424 153.131 7.79545V8.12784H149.446V7.37784H151.991C151.991 7.2036 151.954 7.04924 151.878 6.91477C151.802 6.7803 151.697 6.67519 151.562 6.59943C151.43 6.52178 151.276 6.48295 151.099 6.48295C150.916 6.48295 150.753 6.52557 150.611 6.6108C150.471 6.69413 150.361 6.80682 150.281 6.94886C150.202 7.08902 150.161 7.24527 150.159 7.41761V8.13068C150.159 8.34659 150.199 8.53314 150.278 8.69034C150.36 8.84754 150.474 8.96875 150.622 9.05398C150.77 9.1392 150.945 9.18182 151.148 9.18182C151.282 9.18182 151.405 9.16288 151.517 9.125C151.629 9.08712 151.724 9.0303 151.804 8.95455C151.884 8.87879 151.944 8.78598 151.986 8.67614L153.105 8.75C153.048 9.01894 152.932 9.25379 152.756 9.45455C152.581 9.65341 152.356 9.80871 152.08 9.92045C151.805 10.0303 151.488 10.0852 151.128 10.0852ZM155.909 10.0852C155.46 10.0852 155.074 9.99432 154.75 9.8125C154.428 9.62879 154.18 9.36932 154.006 9.03409C153.831 8.69697 153.744 8.2983 153.744 7.83807C153.744 7.3892 153.831 6.99527 154.006 6.65625C154.18 6.31723 154.425 6.05303 154.741 5.86364C155.06 5.67424 155.433 5.57955 155.861 5.57955C156.149 5.57955 156.417 5.62595 156.665 5.71875C156.915 5.80966 157.133 5.94697 157.318 6.13068C157.506 6.31439 157.652 6.54545 157.756 6.82386C157.86 7.10038 157.912 7.42424 157.912 7.79545V8.12784H154.227V7.37784H156.773C156.773 7.2036 156.735 7.04924 156.659 6.91477C156.583 6.7803 156.478 6.67519 156.344 6.59943C156.211 6.52178 156.057 6.48295 155.881 6.48295C155.697 6.48295 155.534 6.52557 155.392 6.6108C155.252 6.69413 155.142 6.80682 155.062 6.94886C154.983 7.08902 154.942 7.24527 154.94 7.41761V8.13068C154.94 8.34659 154.98 8.53314 155.06 8.69034C155.141 8.84754 155.256 8.96875 155.403 9.05398C155.551 9.1392 155.726 9.18182 155.929 9.18182C156.063 9.18182 156.187 9.16288 156.298 9.125C156.41 9.08712 156.506 9.0303 156.585 8.95455C156.665 8.87879 156.725 8.78598 156.767 8.67614L157.886 8.75C157.83 9.01894 157.713 9.25379 157.537 9.45455C157.363 9.65341 157.137 9.80871 156.861 9.92045C156.586 10.0303 156.269 10.0852 155.909 10.0852Z" fill="white"/>
<rect x="99.5" y="13.5" width="77" height="90" rx="5.5" fill="white"/>
<rect x="99.5" y="13.5" width="77" height="90" rx="5.5" stroke="#DEDEDE"/>
<rect x="115.5" y="78" width="18" height="4" rx="0.8" fill="#DADBDD"/>
<rect x="115.5" y="85" width="42" height="4" rx="0.8" fill="#E9E9E9"/>
<rect x="115" y="28" width="46" height="46" rx="4" fill="#F1F1F1"/>
<path d="M148.861 51.0317C148.496 49.9044 148.283 49.5114 147.92 49.4739C146.664 49.3427 143.571 49.2662 140.988 49.7852C139.375 50.1084 138.511 50.2884 138 50.2884C137.488 50.2884 136.625 50.1084 135.011 49.7852C132.429 49.2662 129.336 49.3427 128.079 49.4739C127.718 49.5114 127.503 49.9044 127.138 51.0317C126.818 52.0179 127.382 52.3599 127.863 54.2687C128.618 57.2582 132.028 57.8724 134.411 57.2544C137.002 56.5839 136.894 53.5127 137.075 53.0094C137.254 52.5054 137.487 52.1822 138 52.1822C138.513 52.1822 138.746 52.5054 138.925 53.0094C139.106 53.5127 138.998 56.5847 141.588 57.2544C143.972 57.8717 147.381 57.2582 148.137 54.2687C148.619 52.3599 149.182 52.0179 148.861 51.0317Z" fill="#7BA2FE"/>
<path d="M131.278 48.3047C132.562 46.8902 133.504 45.8702 134.351 45.6594C134.718 45.5679 135.532 45.8327 135.85 46.0074C136.705 46.4754 137.427 45.6054 136.552 45.0362C135.586 44.4062 134.367 44.3537 133.555 44.9334C132.652 45.5784 130.498 47.2869 129.214 48.3122C129.572 48.2987 129.949 48.2904 130.331 48.2904C130.617 48.2904 130.938 48.2949 131.278 48.3047Z" fill="#004BFF"/>
<path d="M140.148 46.0074C140.467 45.8327 141.28 45.5687 141.648 45.6594C142.495 45.8709 143.437 46.8909 144.72 48.3047C145.061 48.2949 145.381 48.2897 145.668 48.2897C146.05 48.2897 146.427 48.2979 146.785 48.3114C145.501 47.2862 143.347 45.5777 142.444 44.9327C141.632 44.3529 140.413 44.4054 139.447 45.0354C138.571 45.6054 139.294 46.4747 140.148 46.0074Z" fill="#004BFF"/>
<path d="M21 2C21 0.89543 21.8954 0 23 0H55C56.1046 0 57 0.895431 57 2V14H21V2Z" fill="#6678A6"/>
<path d="M28.0739 9V3.18182H30.3011C30.7216 3.18182 31.071 3.24811 31.3494 3.38068C31.6297 3.51136 31.839 3.69034 31.9773 3.91761C32.1174 4.14489 32.1875 4.40246 32.1875 4.69034C32.1875 4.92708 32.142 5.12973 32.0511 5.2983C31.9602 5.46496 31.8381 5.60038 31.6847 5.70455C31.5312 5.80871 31.3598 5.88352 31.1705 5.92898V5.9858C31.3769 5.99716 31.5748 6.06061 31.7642 6.17614C31.9555 6.28977 32.1117 6.45076 32.233 6.65909C32.3542 6.86742 32.4148 7.11932 32.4148 7.41477C32.4148 7.71591 32.3419 7.98674 32.196 8.22727C32.0502 8.46591 31.8305 8.65436 31.5369 8.79261C31.2434 8.93087 30.8741 9 30.429 9H28.0739ZM29.1278 8.11932H30.2614C30.6439 8.11932 30.9195 8.0464 31.0881 7.90057C31.2585 7.75284 31.3438 7.56345 31.3438 7.33239C31.3438 7.16004 31.3011 7.00473 31.2159 6.86648C31.1307 6.72633 31.0095 6.61648 30.8523 6.53693C30.6951 6.45549 30.5076 6.41477 30.2898 6.41477H29.1278V8.11932ZM29.1278 5.65625H30.1705C30.3523 5.65625 30.5161 5.62311 30.6619 5.55682C30.8078 5.48864 30.9223 5.39299 31.0057 5.26989C31.0909 5.14489 31.1335 4.99716 31.1335 4.8267C31.1335 4.60133 31.054 4.41572 30.8949 4.26989C30.7377 4.12405 30.5038 4.05114 30.1932 4.05114H29.1278V5.65625ZM36.0675 7.16477V4.63636H37.0959V9H36.0987V8.22443H36.0533C35.9548 8.46875 35.7929 8.66856 35.5675 8.82386C35.344 8.97917 35.0684 9.05682 34.7408 9.05682C34.4548 9.05682 34.2019 8.99337 33.9822 8.86648C33.7644 8.73769 33.594 8.55114 33.4709 8.30682C33.3478 8.06061 33.2862 7.76326 33.2862 7.41477V4.63636H34.3146V7.25568C34.3146 7.5322 34.3904 7.75189 34.5419 7.91477C34.6934 8.07765 34.8923 8.15909 35.1385 8.15909C35.29 8.15909 35.4368 8.12216 35.5788 8.0483C35.7209 7.97443 35.8374 7.86458 35.9283 7.71875C36.0211 7.57102 36.0675 7.38636 36.0675 7.16477ZM38.7926 10.6364C38.6525 10.6364 38.5227 10.625 38.4034 10.6023C38.286 10.5814 38.1922 10.5568 38.1222 10.5284L38.3608 9.72727C38.5104 9.77083 38.6439 9.79167 38.7614 9.78977C38.8788 9.78788 38.982 9.75095 39.071 9.67898C39.1619 9.6089 39.2386 9.49148 39.3011 9.3267L39.3892 9.09091L37.8068 4.63636H38.8977L39.9034 7.93182H39.9489L40.9574 4.63636H42.0511L40.304 9.52841C40.2225 9.75947 40.1146 9.95739 39.9801 10.1222C39.8456 10.2888 39.6809 10.4157 39.4858 10.5028C39.2926 10.5919 39.0616 10.6364 38.7926 10.6364ZM45.6733 3.18182L46.9545 5.3125H47L48.2869 3.18182H49.4886L47.696 6.09091L49.517 9H48.2955L47 6.88352H46.9545L45.6591 9H44.4432L46.2812 6.09091L44.4659 3.18182H45.6733Z" fill="white"/>
<rect x="0.5" y="13.5" width="77" height="90" rx="5.5" fill="white"/>
<rect x="0.5" y="13.5" width="77" height="90" rx="5.5" stroke="#DEDEDE"/>
<rect x="16.5" y="85" width="42" height="4" rx="0.8" fill="#E9E9E9"/>
<rect x="16.5" y="78" width="18" height="4" rx="0.8" fill="#DADBDD"/>
<rect x="16" y="28" width="46" height="46" rx="4" fill="#F1F1F1"/>
<path d="M38.2723 44.3398L34.5704 44.2891C34.5462 44.2887 34.5231 44.2794 34.5054 44.2629C34.4878 44.2464 34.477 44.2238 34.475 44.1997L34.2215 41.1074C34.2201 41.0907 34.2229 41.0738 34.2296 41.0583C34.2677 41.0335 34.3102 41.0162 34.3547 41.0072L34.8863 41.4245L37.0467 43.1415L38.3343 44.1647C38.3508 44.1772 38.3629 44.1946 38.3689 44.2144C38.3748 44.2342 38.3743 44.2554 38.3674 44.2749C38.3605 44.2945 38.3476 44.3113 38.3305 44.3229C38.3134 44.3346 38.293 44.3405 38.2723 44.3398Z" fill="#004BFF"/>
<path d="M43.7778 41.1058L43.5227 44.1981C43.5208 44.2223 43.5099 44.2449 43.4922 44.2614C43.4744 44.2779 43.4512 44.2872 43.4269 44.2875L39.725 44.3382C39.7047 44.3384 39.6849 44.3323 39.6682 44.3207C39.6516 44.3091 39.639 44.2926 39.6321 44.2736C39.6253 44.2545 39.6246 44.2337 39.6302 44.2142C39.6357 44.1947 39.6472 44.1774 39.663 44.1647L40.9507 43.1415L43.111 41.4245L43.6458 41.0068C43.6895 41.0154 43.7312 41.0319 43.7689 41.0555C43.7763 41.0712 43.7794 41.0886 43.7778 41.1058Z" fill="#004BFF"/>
<path d="M51.8644 48.6589L44.4711 41.7062L44.2618 44.2593C44.2455 44.4672 44.152 44.6614 43.9996 44.8037C43.8472 44.9461 43.6471 45.0262 43.4385 45.0282L39.7258 45.0789C39.5788 45.0786 39.4345 45.0396 39.3074 44.9659C39.1802 44.8921 39.0747 44.7863 39.0015 44.6589C38.9282 44.7863 38.8227 44.8922 38.6956 44.9659C38.5685 45.0397 38.4242 45.0786 38.2772 45.0789L34.564 45.0282C34.3549 45.027 34.154 44.9472 34.0009 44.8048C33.8479 44.6624 33.7539 44.4677 33.7375 44.2593L33.5287 41.7078L26.1349 48.6589C26.0636 48.7264 26.022 48.8193 26.0192 48.9174C26.0164 49.0155 26.0527 49.1107 26.12 49.182L30.5655 53.8629C30.6332 53.934 30.7263 53.9754 30.8243 53.9778C30.9224 53.9803 31.0175 53.9438 31.0886 53.8762L32.3763 52.653V60.6298C32.3764 60.728 32.4154 60.8221 32.4848 60.8915C32.5542 60.9609 32.6483 60.9999 32.7464 61H45.2525C45.3506 60.9999 45.4447 60.9609 45.5141 60.8915C45.5835 60.8221 45.6226 60.728 45.6227 60.6298V52.653L46.9103 53.8762C46.9815 53.9438 47.0765 53.9803 47.1746 53.9778C47.2727 53.9754 47.3658 53.934 47.4334 53.8629L51.8765 49.1832C51.9439 49.1119 51.9801 49.0167 51.9773 48.9186C51.9745 48.8205 51.9329 48.7276 51.8616 48.6601L51.8644 48.6589ZM38.9995 47.8055C38.9177 47.8054 38.8377 47.7811 38.7698 47.7356C38.7018 47.6901 38.6488 47.6254 38.6176 47.5499C38.5863 47.4743 38.5782 47.3911 38.5942 47.3109C38.6102 47.2307 38.6497 47.157 38.7075 47.0992C38.7654 47.0414 38.8391 47.002 38.9193 46.9861C38.9995 46.9702 39.0827 46.9784 39.1583 47.0097C39.2338 47.041 39.2984 47.0941 39.3438 47.1621C39.3893 47.2301 39.4135 47.31 39.4135 47.3918C39.4135 47.4462 39.4028 47.5 39.382 47.5502C39.3612 47.6004 39.3307 47.6461 39.2922 47.6845C39.2538 47.7229 39.2081 47.7534 39.1579 47.7741C39.1077 47.7949 39.0538 47.8055 38.9995 47.8055ZM38.9995 46.1795C38.9177 46.1794 38.8377 46.1551 38.7698 46.1096C38.7018 46.0641 38.6488 45.9994 38.6176 45.9238C38.5863 45.8482 38.5782 45.7651 38.5942 45.6849C38.6102 45.6047 38.6497 45.531 38.7075 45.4732C38.7654 45.4154 38.8391 45.376 38.9193 45.3601C38.9995 45.3442 39.0827 45.3524 39.1583 45.3837C39.2338 45.415 39.2984 45.468 39.3438 45.536C39.3893 45.6041 39.4135 45.684 39.4135 45.7658C39.4136 45.8202 39.4029 45.874 39.3821 45.9243C39.3613 45.9745 39.3308 46.0201 39.2923 46.0586C39.2539 46.097 39.2082 46.1275 39.1579 46.1482C39.1077 46.1689 39.0538 46.1796 38.9995 46.1795ZM44.7745 49.8122C44.7745 50.3952 44.5429 50.9543 44.1306 51.3665C43.7184 51.7788 43.1592 52.0104 42.5762 52.0104H42.507C41.9241 52.0103 41.3651 51.7786 40.9529 51.3664C40.5408 50.9542 40.3092 50.3951 40.3092 49.8122V47.6558C40.3092 47.5848 40.3374 47.5168 40.3876 47.4666C40.4378 47.4164 40.5058 47.3882 40.5768 47.3882H44.5065C44.5775 47.3882 44.6456 47.4164 44.6958 47.4666C44.7461 47.5167 44.7743 47.5848 44.7745 47.6558V49.8122ZM41.0496 49.8122C41.0496 50.1987 41.2031 50.5695 41.4764 50.8429C41.7498 51.1163 42.1205 51.2699 42.507 51.27H42.5762C42.9629 51.27 43.3337 51.1164 43.6071 50.843C43.8805 50.5696 44.0341 50.1988 44.0341 49.8122V48.1302H41.0496V49.8122Z" fill="#7BA2FE"/>
<path d="M34.3549 41.0072C34.3109 41.0159 34.2688 41.0326 34.231 41.0567C34.2414 41.0342 34.26 41.0165 34.2831 41.0073C34.3061 40.9981 34.3318 40.9981 34.3549 41.0072Z" fill="#7BA2FE"/>
<path d="M34.3549 41.0072C34.3109 41.0159 34.2688 41.0326 34.231 41.0567C34.2414 41.0342 34.26 41.0165 34.2831 41.0073C34.3061 40.9981 34.3318 40.9981 34.3549 41.0072Z" fill="#7BA2FE"/>
<path d="M34.8865 41.4245L34.3549 41.0072C34.3639 41.0107 34.3725 41.0156 34.3799 41.0217L34.8865 41.4245Z" fill="#7BA2FE"/>
<path d="M43.7686 41.0555C43.7309 41.0319 43.6892 41.0154 43.6455 41.0068C43.6684 40.9979 43.6938 40.998 43.7166 41.007C43.7395 41.0161 43.758 41.0334 43.7686 41.0555Z" fill="#7BA2FE"/>
<path d="M43.6455 41.0068L43.1138 41.4245L43.6204 41.0221C43.628 41.0158 43.6364 41.0107 43.6455 41.0068Z" fill="#7BA2FE"/>
<path d="M43.7686 41.0555C43.7309 41.0319 43.6892 41.0154 43.6455 41.0068C43.6684 40.9979 43.6938 40.998 43.7166 41.007C43.7395 41.0161 43.758 41.0334 43.7686 41.0555Z" fill="#7BA2FE"/>
<path d="M44.0343 48.1286V49.8122C44.0343 50.1988 43.8807 50.5696 43.6073 50.843C43.3339 51.1164 42.9631 51.27 42.5764 51.27H42.5072C42.1207 51.2699 41.75 51.1163 41.4767 50.8429C41.2033 50.5695 41.0498 50.1987 41.0498 49.8122V48.1302L44.0343 48.1286Z" fill="#3DB5F2"/>
<path d="M44.0343 48.1286V49.8122C44.0343 50.1988 43.8807 50.5696 43.6073 50.843C43.3339 51.1164 42.9631 51.27 42.5764 51.27H42.5072C42.1207 51.2699 41.75 51.1163 41.4767 50.8429C41.2033 50.5695 41.0498 50.1987 41.0498 49.8122V48.1302L44.0343 48.1286Z" fill="#004BFF"/>
<rect x="82.5" y="45.5" width="12" height="12" rx="6" fill="#6678A6"/>
<path d="M88.5 49.5V53.5M86.5 51.5H90.5" stroke="white" stroke-width="1.33333" stroke-linecap="round" stroke-linejoin="round"/>
</svg>
