<svg fill="none" height="44" viewBox="0 0 44 44" width="44" xmlns="http://www.w3.org/2000/svg"><rect fill="#d5ebff" height="44" rx="6" width="44"/><path clip-rule="evenodd" d="m16.2604 17.44c-.2364.2232-.2604.366-.2604.42s.024.1968.2604.42c.24.2268.6336.4716 1.1952.696 1.1172.4476 2.724.744 4.5444.744s3.426-.2964 4.5444-.744c.5616-.2244.9564-.4692 1.1952-.696.2364-.2232.2604-.366.2604-.42s-.024-.1968-.2604-.42c-.24-.2268-.6336-.4716-1.1952-.696-1.1184-.4476-2.724-.744-4.5444-.744s-3.4272.2964-4.5444.744c-.5616.2244-.9564.4692-1.1952.696zm11.7396 2.8404c-.2548.1381-.5177.2607-.7872.3672-1.3788.552-3.222.8724-5.2128.8724s-3.834-.3216-5.2128-.8724c-.2696-.1065-.5325-.2291-.7872-.3672v1.6956c0 .054.024.1968.2604.42.24.2268.6336.4716 1.1952.696 1.1172.4476 2.724.744 4.5444.744s3.426-.2964 4.5444-.744c.5616-.2244.9564-.4692 1.1952-.696.2364-.2232.2604-.366.2604-.42zm0 4.116c-.2548.1381-.5177.2607-.7872.3672-1.3788.552-3.222.8724-5.2128.8724s-3.834-.3216-5.2128-.8724c-.2696-.1065-.5325-.2291-.7872-.3672v1.7436c0 .054.024.1968.2604.42.24.2268.6336.4716 1.1952.696 1.1172.4476 2.724.744 4.5444.744s3.426-.2964 4.5444-.744c.5616-.2244.9564-.4692 1.1952-.696.2364-.2244.2604-.366.2604-.42zm1.8 1.7436c0 .708-.3624 1.2924-.8244 1.728-.4584.4344-1.0752.7848-1.7628 1.0596-1.3788.552-3.222.8724-5.2128.8724s-3.834-.3216-5.2128-.8724c-.6876-.276-1.3044-.624-1.764-1.0596-.4608-.4356-.8232-1.02-.8232-1.728v-8.28c0-.708.3624-1.2924.8244-1.728.4584-.4344 1.0752-.7848 1.7628-1.0596 1.3788-.552 3.222-.8724 5.2128-.8724s3.834.3216 5.2128.8724c.6876.276 1.3044.624 1.764 1.0596.4608.4356.8232 1.02.8232 1.728z" fill="#005bd3" fill-rule="evenodd" opacity=".92"/></svg>