<svg width="177" height="104" viewBox="0 0 177 104" fill="none" xmlns="http://www.w3.org/2000/svg">
<path d="M109 2C109 0.89543 109.895 0 111 0H165C166.105 0 167 0.895431 167 2V14H109V2Z" fill="#004BFF"/>
<path d="M119.364 6.0625C119.324 5.92424 119.268 5.80208 119.196 5.69602C119.124 5.58807 119.036 5.49716 118.932 5.4233C118.83 5.34754 118.712 5.28977 118.58 5.25C118.449 5.21023 118.304 5.19034 118.145 5.19034C117.848 5.19034 117.586 5.2642 117.361 5.41193C117.137 5.55966 116.963 5.77462 116.838 6.05682C116.713 6.33712 116.651 6.67992 116.651 7.08523C116.651 7.49053 116.712 7.83523 116.835 8.11932C116.958 8.40341 117.133 8.62027 117.358 8.76989C117.583 8.91761 117.849 8.99148 118.156 8.99148C118.435 8.99148 118.672 8.94223 118.869 8.84375C119.068 8.74337 119.22 8.60227 119.324 8.42045C119.43 8.23864 119.483 8.02367 119.483 7.77557L119.733 7.8125H118.233V6.88636H120.668V7.61932C120.668 8.13068 120.56 8.57008 120.344 8.9375C120.128 9.30303 119.83 9.58523 119.452 9.78409C119.073 9.98106 118.639 10.0795 118.151 10.0795C117.605 10.0795 117.126 9.95928 116.713 9.71875C116.3 9.47633 115.978 9.13258 115.747 8.6875C115.518 8.24053 115.403 7.71023 115.403 7.09659C115.403 6.625 115.472 6.20455 115.608 5.83523C115.746 5.46402 115.939 5.14962 116.188 4.89205C116.436 4.63447 116.724 4.43845 117.054 4.30398C117.384 4.16951 117.741 4.10227 118.125 4.10227C118.455 4.10227 118.761 4.15057 119.045 4.24716C119.33 4.34186 119.581 4.47633 119.801 4.65057C120.023 4.82481 120.204 5.0322 120.344 5.27273C120.484 5.51136 120.574 5.77462 120.614 6.0625H119.364ZM123.558 10.0852C123.109 10.0852 122.722 9.99432 122.398 9.8125C122.076 9.62879 121.828 9.36932 121.654 9.03409C121.48 8.69697 121.393 8.2983 121.393 7.83807C121.393 7.3892 121.48 6.99527 121.654 6.65625C121.828 6.31723 122.074 6.05303 122.39 5.86364C122.708 5.67424 123.081 5.57955 123.509 5.57955C123.797 5.57955 124.065 5.62595 124.313 5.71875C124.563 5.80966 124.781 5.94697 124.967 6.13068C125.154 6.31439 125.3 6.54545 125.404 6.82386C125.508 7.10038 125.56 7.42424 125.56 7.79545V8.12784H121.876V7.37784H124.421C124.421 7.2036 124.383 7.04924 124.308 6.91477C124.232 6.7803 124.127 6.67519 123.992 6.59943C123.86 6.52178 123.705 6.48295 123.529 6.48295C123.345 6.48295 123.183 6.52557 123.04 6.6108C122.9 6.69413 122.79 6.80682 122.711 6.94886C122.631 7.08902 122.591 7.24527 122.589 7.41761V8.13068C122.589 8.34659 122.629 8.53314 122.708 8.69034C122.79 8.84754 122.904 8.96875 123.052 9.05398C123.2 9.1392 123.375 9.18182 123.577 9.18182C123.712 9.18182 123.835 9.16288 123.947 9.125C124.058 9.08712 124.154 9.0303 124.234 8.95455C124.313 8.87879 124.374 8.78598 124.415 8.67614L125.535 8.75C125.478 9.01894 125.362 9.25379 125.185 9.45455C125.011 9.65341 124.786 9.80871 124.509 9.92045C124.235 10.0303 123.917 10.0852 123.558 10.0852ZM128.671 5.63636V6.54545H126.043V5.63636H128.671ZM126.64 4.59091H127.85V8.65909C127.85 8.77083 127.867 8.85795 127.901 8.92045C127.935 8.98106 127.983 9.02367 128.043 9.0483C128.106 9.07292 128.178 9.08523 128.259 9.08523C128.316 9.08523 128.373 9.08049 128.43 9.07102C128.487 9.05966 128.53 9.05114 128.56 9.04545L128.751 9.94602C128.69 9.96496 128.605 9.98674 128.495 10.0114C128.385 10.0379 128.252 10.054 128.094 10.0597C127.803 10.071 127.547 10.0322 127.327 9.94318C127.11 9.85417 126.94 9.71591 126.819 9.52841C126.698 9.34091 126.638 9.10417 126.64 8.81818V4.59091ZM130.993 4.18182H132.371L133.697 6.6875H133.754L135.081 4.18182H136.459L134.337 7.94318V10H133.115V7.94318L130.993 4.18182ZM144.329 7.09091C144.329 7.72538 144.209 8.26515 143.968 8.71023C143.729 9.1553 143.404 9.49527 142.991 9.73011C142.58 9.96307 142.118 10.0795 141.604 10.0795C141.087 10.0795 140.623 9.96212 140.212 9.72727C139.801 9.49242 139.477 9.15246 139.238 8.70739C138.999 8.26231 138.88 7.72348 138.88 7.09091C138.88 6.45644 138.999 5.91667 139.238 5.47159C139.477 5.02652 139.801 4.6875 140.212 4.45455C140.623 4.2197 141.087 4.10227 141.604 4.10227C142.118 4.10227 142.58 4.2197 142.991 4.45455C143.404 4.6875 143.729 5.02652 143.968 5.47159C144.209 5.91667 144.329 6.45644 144.329 7.09091ZM143.082 7.09091C143.082 6.67992 143.02 6.33333 142.897 6.05114C142.776 5.76894 142.604 5.55492 142.383 5.40909C142.161 5.26326 141.902 5.19034 141.604 5.19034C141.307 5.19034 141.048 5.26326 140.826 5.40909C140.604 5.55492 140.432 5.76894 140.309 6.05114C140.188 6.33333 140.127 6.67992 140.127 7.09091C140.127 7.50189 140.188 7.84848 140.309 8.13068C140.432 8.41288 140.604 8.62689 140.826 8.77273C141.048 8.91856 141.307 8.99148 141.604 8.99148C141.902 8.99148 142.161 8.91856 142.383 8.77273C142.604 8.62689 142.776 8.41288 142.897 8.13068C143.02 7.84848 143.082 7.50189 143.082 7.09091ZM147.564 5.63636V6.54545H144.871V5.63636H147.564ZM145.487 10V5.32102C145.487 5.00473 145.549 4.74242 145.672 4.53409C145.797 4.32576 145.967 4.16951 146.183 4.06534C146.399 3.96117 146.644 3.90909 146.919 3.90909C147.105 3.90909 147.274 3.9233 147.428 3.9517C147.583 3.98011 147.698 4.00568 147.774 4.02841L147.558 4.9375C147.511 4.92235 147.452 4.90814 147.382 4.89489C147.314 4.88163 147.244 4.875 147.172 4.875C146.994 4.875 146.87 4.91667 146.8 5C146.73 5.08144 146.695 5.19602 146.695 5.34375V10H145.487ZM150.65 5.63636V6.54545H147.957V5.63636H150.65ZM148.573 10V5.32102C148.573 5.00473 148.635 4.74242 148.758 4.53409C148.883 4.32576 149.053 4.16951 149.269 4.06534C149.485 3.96117 149.73 3.90909 150.005 3.90909C150.191 3.90909 150.36 3.9233 150.513 3.9517C150.669 3.98011 150.784 4.00568 150.86 4.02841L150.644 4.9375C150.597 4.92235 150.538 4.90814 150.468 4.89489C150.4 4.88163 150.33 4.875 150.258 4.875C150.08 4.875 149.956 4.91667 149.886 5C149.816 5.08144 149.781 5.19602 149.781 5.34375V10H148.573ZM153.222 10.0852C152.773 10.0852 152.386 9.99432 152.062 9.8125C151.741 9.62879 151.492 9.36932 151.318 9.03409C151.144 8.69697 151.057 8.2983 151.057 7.83807C151.057 7.3892 151.144 6.99527 151.318 6.65625C151.492 6.31723 151.738 6.05303 152.054 5.86364C152.372 5.67424 152.745 5.57955 153.173 5.57955C153.461 5.57955 153.729 5.62595 153.977 5.71875C154.227 5.80966 154.445 5.94697 154.631 6.13068C154.818 6.31439 154.964 6.54545 155.068 6.82386C155.172 7.10038 155.224 7.42424 155.224 7.79545V8.12784H151.54V7.37784H154.085C154.085 7.2036 154.047 7.04924 153.972 6.91477C153.896 6.7803 153.791 6.67519 153.656 6.59943C153.524 6.52178 153.369 6.48295 153.193 6.48295C153.009 6.48295 152.847 6.52557 152.705 6.6108C152.564 6.69413 152.455 6.80682 152.375 6.94886C152.295 7.08902 152.255 7.24527 152.253 7.41761V8.13068C152.253 8.34659 152.293 8.53314 152.372 8.69034C152.454 8.84754 152.568 8.96875 152.716 9.05398C152.864 9.1392 153.039 9.18182 153.241 9.18182C153.376 9.18182 153.499 9.16288 153.611 9.125C153.723 9.08712 153.818 9.0303 153.898 8.95455C153.977 8.87879 154.038 8.78598 154.08 8.67614L155.199 8.75C155.142 9.01894 155.026 9.25379 154.849 9.45455C154.675 9.65341 154.45 9.80871 154.173 9.92045C153.899 10.0303 153.581 10.0852 153.222 10.0852ZM156.014 10V5.63636H157.188V6.39773H157.233C157.313 6.12689 157.446 5.92235 157.634 5.78409C157.821 5.64394 158.037 5.57386 158.281 5.57386C158.342 5.57386 158.407 5.57765 158.477 5.58523C158.547 5.5928 158.609 5.60322 158.662 5.61648V6.69034C158.605 6.6733 158.527 6.65814 158.426 6.64489C158.326 6.63163 158.234 6.625 158.151 6.625C157.973 6.625 157.813 6.66383 157.673 6.74148C157.535 6.81723 157.425 6.9233 157.344 7.05966C157.264 7.19602 157.224 7.35322 157.224 7.53125V10H156.014ZM160.734 4.18182L160.623 8.25568H159.583L159.469 4.18182H160.734ZM160.103 10.0739C159.915 10.0739 159.754 10.0076 159.62 9.875C159.486 9.74053 159.419 9.57955 159.421 9.39205C159.419 9.20644 159.486 9.04735 159.62 8.91477C159.754 8.7822 159.915 8.71591 160.103 8.71591C160.283 8.71591 160.441 8.7822 160.577 8.91477C160.714 9.04735 160.783 9.20644 160.785 9.39205C160.783 9.51705 160.75 9.63163 160.685 9.7358C160.623 9.83807 160.54 9.92045 160.438 9.98295C160.336 10.0436 160.224 10.0739 160.103 10.0739Z" fill="white"/>
<rect x="99.5" y="13.5" width="77" height="90" rx="5.5" fill="white"/>
<rect x="99.5" y="13.5" width="77" height="90" rx="5.5" stroke="#DEDEDE"/>
<rect x="115.5" y="78" width="18" height="4" rx="0.8" fill="#DADBDD"/>
<rect x="115.5" y="85" width="42" height="4" rx="0.8" fill="#E9E9E9"/>
<rect x="115" y="28" width="46" height="46" rx="4" fill="#F1F1F1"/>
<path d="M147.21 54.8352L144.337 53.3352C144.038 53.1784 143.669 53.2422 143.439 53.4908C143.432 53.4982 142.736 54.2233 141.813 54.2233C141.271 54.2233 140.728 53.9658 140.197 53.4583C140.17 53.4312 140.14 53.4067 140.107 53.3843C139.518 52.9745 137.57 50.7359 136.148 49.1015C135.269 48.0922 134.51 47.2203 134.074 46.7665C132.174 44.512 129.39 42.9146 129.273 42.8479C129.083 42.7396 128.856 42.7209 128.649 42.7938C128.443 42.8674 128.28 43.0274 128.202 43.2314C127.266 45.6726 127.266 48.8271 128.202 51.2683C128.273 51.4536 128.414 51.6034 128.596 51.6843L131.35 52.9166C132.786 53.5589 134.111 54.4298 135.288 55.5046L137.228 57.2767C138.62 58.5493 140.409 59.2499 142.264 59.2499H143.155C144.746 59.2499 146.318 58.9837 147.828 58.4581C148.017 58.3926 148.171 58.2541 148.258 58.074C148.828 56.8863 148.357 55.4332 147.21 54.8352Z" fill="#7BA2FE"/>
<path d="M130.738 53.5126L128.474 52.4998L129.004 57.8013C129.042 58.1848 129.365 58.4767 129.75 58.4767H131.25C131.665 58.4767 132 58.1408 132 57.7267V54.173C131.59 53.9329 131.172 53.7069 130.738 53.5126Z" fill="#004BFF"/>
<path d="M21 2C21 0.89543 21.8954 0 23 0H55C56.1046 0 57 0.895431 57 2V14H21V2Z" fill="#6678A6"/>
<path d="M28.0739 9V3.18182H30.3011C30.7216 3.18182 31.071 3.24811 31.3494 3.38068C31.6297 3.51136 31.839 3.69034 31.9773 3.91761C32.1174 4.14489 32.1875 4.40246 32.1875 4.69034C32.1875 4.92708 32.142 5.12973 32.0511 5.2983C31.9602 5.46496 31.8381 5.60038 31.6847 5.70455C31.5312 5.80871 31.3598 5.88352 31.1705 5.92898V5.9858C31.3769 5.99716 31.5748 6.06061 31.7642 6.17614C31.9555 6.28977 32.1117 6.45076 32.233 6.65909C32.3542 6.86742 32.4148 7.11932 32.4148 7.41477C32.4148 7.71591 32.3419 7.98674 32.196 8.22727C32.0502 8.46591 31.8305 8.65436 31.5369 8.79261C31.2434 8.93087 30.8741 9 30.429 9H28.0739ZM29.1278 8.11932H30.2614C30.6439 8.11932 30.9195 8.0464 31.0881 7.90057C31.2585 7.75284 31.3438 7.56345 31.3438 7.33239C31.3438 7.16004 31.3011 7.00473 31.2159 6.86648C31.1307 6.72633 31.0095 6.61648 30.8523 6.53693C30.6951 6.45549 30.5076 6.41477 30.2898 6.41477H29.1278V8.11932ZM29.1278 5.65625H30.1705C30.3523 5.65625 30.5161 5.62311 30.6619 5.55682C30.8078 5.48864 30.9223 5.39299 31.0057 5.26989C31.0909 5.14489 31.1335 4.99716 31.1335 4.8267C31.1335 4.60133 31.054 4.41572 30.8949 4.26989C30.7377 4.12405 30.5038 4.05114 30.1932 4.05114H29.1278V5.65625ZM36.0675 7.16477V4.63636H37.0959V9H36.0987V8.22443H36.0533C35.9548 8.46875 35.7929 8.66856 35.5675 8.82386C35.344 8.97917 35.0684 9.05682 34.7408 9.05682C34.4548 9.05682 34.2019 8.99337 33.9822 8.86648C33.7644 8.73769 33.594 8.55114 33.4709 8.30682C33.3478 8.06061 33.2862 7.76326 33.2862 7.41477V4.63636H34.3146V7.25568C34.3146 7.5322 34.3904 7.75189 34.5419 7.91477C34.6934 8.07765 34.8923 8.15909 35.1385 8.15909C35.29 8.15909 35.4368 8.12216 35.5788 8.0483C35.7209 7.97443 35.8374 7.86458 35.9283 7.71875C36.0211 7.57102 36.0675 7.38636 36.0675 7.16477ZM38.7926 10.6364C38.6525 10.6364 38.5227 10.625 38.4034 10.6023C38.286 10.5814 38.1922 10.5568 38.1222 10.5284L38.3608 9.72727C38.5104 9.77083 38.6439 9.79167 38.7614 9.78977C38.8788 9.78788 38.982 9.75095 39.071 9.67898C39.1619 9.6089 39.2386 9.49148 39.3011 9.3267L39.3892 9.09091L37.8068 4.63636H38.8977L39.9034 7.93182H39.9489L40.9574 4.63636H42.0511L40.304 9.52841C40.2225 9.75947 40.1146 9.95739 39.9801 10.1222C39.8456 10.2888 39.6809 10.4157 39.4858 10.5028C39.2926 10.5919 39.0616 10.6364 38.7926 10.6364ZM45.6733 3.18182L46.9545 5.3125H47L48.2869 3.18182H49.4886L47.696 6.09091L49.517 9H48.2955L47 6.88352H46.9545L45.6591 9H44.4432L46.2812 6.09091L44.4659 3.18182H45.6733Z" fill="white"/>
<rect x="0.5" y="13.5" width="77" height="90" rx="5.5" fill="white"/>
<rect x="0.5" y="13.5" width="77" height="90" rx="5.5" stroke="#DEDEDE"/>
<rect x="16.5" y="85" width="42" height="4" rx="0.8" fill="#E9E9E9"/>
<rect x="16.5" y="78" width="18" height="4" rx="0.8" fill="#DADBDD"/>
<rect x="16" y="28" width="46" height="46" rx="4" fill="#F1F1F1"/>
<path d="M44.2931 42.0585V38.7493H42.5366C42.3585 39.99 41.4747 41.7859 38.9994 41.7859C36.524 41.7859 35.6407 39.99 35.4626 38.7493H33.7061V42.0585C33.7061 43.2603 34.6826 44.2381 35.8839 44.2408C35.8861 44.2408 35.8883 44.2394 35.8909 44.2394H42.1122C42.1122 44.2394 42.1157 44.2408 42.1179 44.2408C43.3184 44.2364 44.2931 43.2594 44.2931 42.0585Z" fill="#7BA2FE"/>
<path d="M31.3905 61.1838C31.8437 61.7206 32.4908 61.9849 33.168 61.9035C33.189 61.8987 33.2109 61.8948 33.2324 61.8917C33.2429 61.8891 33.2853 61.8821 33.2958 61.8803C34.2172 61.7486 35.1512 62.0413 35.8525 62.6818C36.4357 63.2204 37.1104 63.3753 37.858 63.1464C38.5974 62.9343 39.4015 62.9347 40.1282 63.1443C40.8965 63.3788 41.5549 63.2265 42.1482 62.6823C42.8412 62.0409 43.7726 61.7482 44.7019 61.8803C44.7062 61.8812 44.7666 61.8926 44.7705 61.893C44.7972 61.8978 44.8239 61.9022 44.8515 61.9088C45.4955 61.9862 46.1487 61.7281 46.605 61.1895C47.0819 60.6278 47.242 59.8739 47.0337 59.1744L43.5464 47.5168H34.449L30.9679 59.1744C30.7574 59.8709 30.9154 60.6216 31.3905 61.1838Z" fill="#7BA2FE"/>
<path d="M35.8895 45.1166C35.6489 45.1166 35.4157 45.086 35.1908 45.0331L34.7104 46.6418H43.2846L42.8038 45.0344C42.5802 45.0864 42.3488 45.1171 42.1094 45.1171H35.8891L35.8895 45.1166Z" fill="#004BFF"/>
<rect x="82.5" y="45.5" width="12" height="12" rx="6" fill="#6678A6"/>
<path d="M88.5 49.5V53.5M86.5 51.5H90.5" stroke="white" stroke-width="1.33333" stroke-linecap="round" stroke-linejoin="round"/>
</svg>
