<svg width="135" height="60" viewBox="0 0 135 60" fill="none" xmlns="http://www.w3.org/2000/svg">
    <rect x="1.5" y="8.5" width="54" height="50" rx="5" stroke="#8C9196" stroke-width="2"/>
    <path d="M41.4231 41H15.5769C13.8776 41 12.5 39.6224 12.5 37.9231C12.5 36.0354 13.5603 34.3076 15.2434 33.4528L20.8302 30.6154L23.3487 29.3363L25.8671 28.0572L29.7816 26.0691C29.8439 26.0375 29.9177 26.0828 29.9177 26.1527C29.9177 27.3429 30.8826 28.3077 32.0727 28.3077H38.1994C39.442 28.3077 40.4494 27.3003 40.4494 26.0577C40.4494 26.0258 40.4752 26 40.5071 26H40.7869C42.8376 26 44.5 27.6624 44.5 29.7131V32.9231V37.9231C44.5 39.6224 43.1224 41 41.4231 41Z" fill="#E6FFFA"/>
    <path d="M25.8671 28.0572L29.7816 26.0691C29.8439 26.0375 29.9177 26.0828 29.9177 26.1527V26.1527C29.9177 27.3429 30.8826 28.3077 32.0727 28.3077H38.1994C39.442 28.3077 40.4494 27.3003 40.4494 26.0577V26.0577C40.4494 26.0258 40.4752 26 40.5071 26H40.7869C42.8376 26 44.5 27.6624 44.5 29.7131V32.9231M25.8671 28.0572L28.7025 31M25.8671 28.0572L23.3487 29.3363M22.6266 32.1538L20.8302 30.6154M20.8302 30.6154L15.2434 33.4528C13.5603 34.3076 12.5 36.0354 12.5 37.9231V37.9231M20.8302 30.6154L23.3487 29.3363M25.8671 31.7692L23.3487 29.3363M44.5 37.9231V37.9231C44.5 39.6224 43.1224 41 41.4231 41H15.5769C13.8776 41 12.5 39.6224 12.5 37.9231V37.9231M44.5 37.9231H37.6139M44.5 37.9231V32.9231M12.5 37.9231H37.6139M37.6139 37.9231C37.6139 34.8462 40.8544 32.9231 44.5 32.9231" stroke="#202223" stroke-width="1.2" stroke-linecap="round" stroke-linejoin="round"/>
    <rect width="35" height="11" transform="translate(8.66699 0.5)" fill="#F6F6F7"/>
    <path d="M13.34 7.09V9.026C13.34 9.092 13.373 9.13233 13.439 9.147C13.593 9.17633 13.78 9.191 14 9.191C14.5207 9.191 14.902 9.09567 15.144 8.905C15.386 8.707 15.507 8.40633 15.507 8.003C15.507 7.32833 14.957 6.991 13.857 6.991H13.428C13.3693 6.991 13.34 7.024 13.34 7.09ZM13.34 3.944V5.561C13.34 5.61967 13.3693 5.649 13.428 5.649H13.703C14.7737 5.649 15.309 5.33 15.309 4.692C15.309 4.08333 14.8617 3.779 13.967 3.779C13.7543 3.779 13.5747 3.79367 13.428 3.823C13.3693 3.83767 13.34 3.878 13.34 3.944ZM12.119 10.522C11.943 10.5073 11.7963 10.4303 11.679 10.291C11.5617 10.1517 11.503 9.994 11.503 9.818V3.152C11.503 2.96867 11.5617 2.811 11.679 2.679C11.8037 2.53967 11.954 2.46267 12.13 2.448C12.702 2.38933 13.263 2.36 13.813 2.36C15.9397 2.36 17.003 3.04567 17.003 4.417C17.003 4.879 16.8527 5.27133 16.552 5.594C16.2587 5.91667 15.8627 6.122 15.364 6.21C15.3567 6.21 15.353 6.21733 15.353 6.232C15.353 6.23933 15.3603 6.243 15.375 6.243C15.9543 6.32367 16.4127 6.54367 16.75 6.903C17.0947 7.26233 17.267 7.69133 17.267 8.19C17.267 9.004 16.9957 9.61267 16.453 10.016C15.9177 10.412 15.0743 10.61 13.923 10.61C13.3437 10.61 12.7423 10.5807 12.119 10.522ZM20.1144 10.61C19.4691 10.61 18.9998 10.4303 18.7064 10.071C18.4204 9.71167 18.2774 9.09567 18.2774 8.223V5.407C18.2774 5.23833 18.3398 5.09167 18.4644 4.967C18.5891 4.84233 18.7358 4.78 18.9044 4.78H19.3884C19.5571 4.78 19.7038 4.84233 19.8284 4.967C19.9531 5.09167 20.0154 5.23833 20.0154 5.407V8.102C20.0154 8.52733 20.0704 8.82067 20.1804 8.982C20.2978 9.136 20.4958 9.213 20.7744 9.213C21.0311 9.213 21.2658 9.11033 21.4784 8.905C21.6911 8.69233 21.7974 8.465 21.7974 8.223V5.407C21.7974 5.23833 21.8598 5.09167 21.9844 4.967C22.1091 4.84233 22.2558 4.78 22.4244 4.78H22.9524C23.1211 4.78 23.2678 4.84233 23.3924 4.967C23.5171 5.09167 23.5794 5.23833 23.5794 5.407V9.873C23.5794 10.0417 23.5171 10.1883 23.3924 10.313C23.2678 10.4377 23.1211 10.5 22.9524 10.5H22.5014C22.3254 10.5 22.1751 10.4413 22.0504 10.324C21.9331 10.1993 21.8708 10.049 21.8634 9.873V9.785C21.8634 9.77767 21.8598 9.774 21.8524 9.774L21.8304 9.796C21.3538 10.3387 20.7818 10.61 20.1144 10.61ZM26.5646 10.412L24.7056 5.363C24.6469 5.22367 24.6616 5.09167 24.7496 4.967C24.8376 4.84233 24.9586 4.78 25.1126 4.78H25.8056C25.9816 4.78 26.1429 4.83867 26.2896 4.956C26.4362 5.066 26.5316 5.209 26.5756 5.385L27.4116 8.806C27.4116 8.81333 27.4152 8.817 27.4226 8.817C27.4299 8.817 27.4336 8.81333 27.4336 8.806L28.4346 5.374C28.4786 5.198 28.5739 5.055 28.7206 4.945C28.8746 4.835 29.0469 4.78 29.2376 4.78H29.8426C29.9892 4.78 30.1066 4.84233 30.1946 4.967C30.2826 5.09167 30.3009 5.22367 30.2496 5.363L27.6536 12.337C27.5876 12.513 27.4776 12.6523 27.3236 12.755C27.1696 12.865 27.0009 12.92 26.8176 12.92H26.2126C26.0586 12.92 25.9412 12.8577 25.8606 12.733C25.7799 12.6157 25.7689 12.4873 25.8276 12.348L26.5646 10.588C26.5719 10.5587 26.5756 10.5293 26.5756 10.5C26.5756 10.4707 26.5719 10.4413 26.5646 10.412ZM34.6558 10.5C34.5091 10.5 34.3991 10.4377 34.3258 10.313C34.2524 10.1883 34.2488 10.0637 34.3148 9.939L36.0418 6.518C36.0638 6.45933 36.0638 6.40067 36.0418 6.342L34.3698 3.031C34.3038 2.90633 34.3074 2.78167 34.3808 2.657C34.4541 2.53233 34.5641 2.47 34.7108 2.47H35.5138C35.7044 2.47 35.8768 2.52133 36.0308 2.624C36.1921 2.72667 36.3094 2.866 36.3828 3.042L37.3398 5.341C37.3398 5.34833 37.3434 5.352 37.3508 5.352C37.3581 5.352 37.3618 5.34833 37.3618 5.341L38.3188 3.042C38.3921 2.866 38.5058 2.72667 38.6598 2.624C38.8211 2.52133 38.9971 2.47 39.1878 2.47H39.9468C40.0861 2.47 40.1924 2.53233 40.2658 2.657C40.3464 2.78167 40.3538 2.90633 40.2878 3.031L38.6158 6.342C38.5938 6.40067 38.5938 6.45933 38.6158 6.518L40.3428 9.939C40.4088 10.0637 40.4014 10.1883 40.3208 10.313C40.2474 10.4377 40.1411 10.5 40.0018 10.5H39.1548C38.9641 10.5 38.7918 10.4487 38.6378 10.346C38.4838 10.236 38.3701 10.093 38.2968 9.917L37.3178 7.519C37.3178 7.51167 37.3141 7.508 37.3068 7.508C37.2994 7.508 37.2958 7.51167 37.2958 7.519L36.3168 9.917C36.2434 10.093 36.1261 10.236 35.9648 10.346C35.8108 10.4487 35.6421 10.5 35.4588 10.5H34.6558Z" fill="black"/>
    <path d="M66.1515 29.3485V32.1515H63.3485C62.6037 32.1515 62 32.7553 62 33.5C62 34.2447 62.6037 34.8485 63.3485 34.8485H66.1515V37.6515C66.1515 38.3963 66.7553 39 67.5 39C68.2447 39 68.8485 38.3963 68.8485 37.6515V34.8485H71.6515C72.3963 34.8485 73 34.2447 73 33.5C73 32.7553 72.3963 32.1515 71.6515 32.1515H68.8485V29.3485C68.8485 28.6037 68.2447 28 67.5 28C66.7553 28 66.1515 28.6037 66.1515 29.3485Z" fill="white" stroke="black"/>
    <rect x="79.5" y="8.5" width="54" height="50" rx="5" stroke="#8C9196" stroke-width="2"/>
    <path d="M117.667 20.5V24.365C117.667 24.7421 117.361 25.0477 116.984 25.0477V33.5V37.1758C116.984 38.0514 116.602 38.8833 115.937 39.4532L114.167 40.971L106.543 47.5086C104.054 49.6424 100.266 49.152 98.4025 46.4549C96.8347 44.1853 97.1816 41.107 99.2153 39.2433L105.326 33.6431C105.601 33.3918 105.757 33.037 105.757 32.665V25.0477C105.296 25.0477 104.922 24.6741 104.922 24.2133V20.5C104.922 19.9477 105.37 19.5 105.922 19.5H116.667C117.219 19.5 117.667 19.9477 117.667 20.5Z" fill="#E6FFFA"/>
    <path d="M105.757 25.0477V25.0477C105.296 25.0477 104.922 24.6741 104.922 24.2133V20.5C104.922 19.9477 105.37 19.5 105.922 19.5H116.667C117.219 19.5 117.667 19.9477 117.667 20.5V24.365C117.667 24.7421 117.361 25.0477 116.984 25.0477V25.0477M105.757 25.0477V32.665C105.757 33.037 105.601 33.3918 105.326 33.6431L99.2153 39.2433C97.1816 41.107 96.8347 44.1853 98.4025 46.4549V46.4549C100.266 49.152 104.054 49.6424 106.543 47.5086L114.167 40.971M105.757 25.0477H116.984M116.984 25.0477V33.5M116.984 33.5V37.1758C116.984 38.0514 116.602 38.8833 115.937 39.4532L114.167 40.971M116.984 33.5V33.5C113.647 33.5 111.658 37.2228 113.515 39.9966L114.167 40.971" stroke="#202223"/>
    <path d="M114.667 18.5V22.365C114.667 22.7421 114.361 23.0477 113.984 23.0477V31.5V35.1758C113.984 36.0514 113.602 36.8833 112.937 37.4532L111.167 38.971L103.543 45.5086C101.054 47.6424 97.2657 47.152 95.4025 44.4549C93.8347 42.1853 94.1816 39.107 96.2153 37.2433L102.326 31.6431C102.601 31.3918 102.757 31.037 102.757 30.665V23.0477C102.296 23.0477 101.922 22.6741 101.922 22.2133V18.5C101.922 17.9477 102.37 17.5 102.922 17.5H113.667C114.219 17.5 114.667 17.9477 114.667 18.5Z" fill="#E6FFFA"/>
    <path d="M102.757 23.0477V23.0477C102.296 23.0477 101.922 22.6741 101.922 22.2133V18.5C101.922 17.9477 102.37 17.5 102.922 17.5H113.667C114.219 17.5 114.667 17.9477 114.667 18.5V22.365C114.667 22.7421 114.361 23.0477 113.984 23.0477V23.0477M102.757 23.0477V30.665C102.757 31.037 102.601 31.3918 102.326 31.6431L96.2153 37.2433C94.1816 39.107 93.8347 42.1853 95.4025 44.4549V44.4549C97.2657 47.152 101.054 47.6424 103.543 45.5086L111.167 38.971M102.757 23.0477H113.984M113.984 23.0477V31.5M113.984 31.5V35.1758C113.984 36.0514 113.602 36.8833 112.937 37.4532L111.167 38.971M113.984 31.5V31.5C110.647 31.5 108.658 35.2228 110.515 37.9966L111.167 38.971" stroke="#202223"/>
    <rect width="35" height="11" transform="translate(86.667 0.5)" fill="#F6F6F7"/>
    <path d="M93.078 10.61C91.846 10.61 90.8597 10.247 90.119 9.521C89.3783 8.78767 89.008 7.77567 89.008 6.485C89.008 5.187 89.371 4.175 90.097 3.449C90.823 2.723 91.8423 2.36 93.155 2.36C93.6977 2.36 94.222 2.404 94.728 2.492C94.904 2.52133 95.047 2.60933 95.157 2.756C95.2743 2.89533 95.333 3.05667 95.333 3.24V3.537C95.333 3.691 95.2707 3.81567 95.146 3.911C95.0213 4.00633 94.882 4.03567 94.728 3.999C94.2733 3.89633 93.8223 3.845 93.375 3.845C91.7323 3.845 90.911 4.725 90.911 6.485C90.911 7.365 91.1053 8.025 91.494 8.465C91.89 8.905 92.4547 9.125 93.188 9.125C93.4153 9.125 93.6463 9.09567 93.881 9.037C93.947 9.02233 93.98 8.982 93.98 8.916V7.123C93.98 7.06433 93.947 7.035 93.881 7.035H92.858C92.6893 7.035 92.5427 6.97267 92.418 6.848C92.2933 6.72333 92.231 6.57667 92.231 6.408V6.243C92.231 6.07433 92.2933 5.92767 92.418 5.803C92.5427 5.67833 92.6893 5.616 92.858 5.616H95.135C95.3037 5.616 95.4467 5.67833 95.564 5.803C95.6887 5.92767 95.751 6.07433 95.751 6.243V9.532C95.751 9.72267 95.696 9.895 95.586 10.049C95.476 10.1957 95.333 10.2947 95.157 10.346C94.497 10.522 93.804 10.61 93.078 10.61ZM99.7093 5.869C99.3793 5.869 99.1299 5.957 98.9613 6.133C98.7926 6.30167 98.6863 6.595 98.6423 7.013C98.6423 7.07167 98.6679 7.101 98.7193 7.101H100.578C100.644 7.101 100.677 7.068 100.677 7.002C100.648 6.24667 100.325 5.869 99.7093 5.869ZM99.9843 10.61C98.9869 10.61 98.2169 10.357 97.6743 9.851C97.1389 9.345 96.8713 8.608 96.8713 7.64C96.8713 6.67933 97.1096 5.946 97.5863 5.44C98.0703 4.92667 98.7669 4.67 99.6763 4.67C101.422 4.67 102.309 5.62333 102.338 7.53C102.338 7.706 102.269 7.85633 102.129 7.981C101.997 8.09833 101.843 8.157 101.667 8.157H98.7303C98.6569 8.157 98.6276 8.19 98.6423 8.256C98.7009 8.65933 98.8549 8.949 99.1043 9.125C99.3609 9.29367 99.7423 9.378 100.248 9.378C100.578 9.378 100.934 9.33033 101.315 9.235C101.469 9.19833 101.605 9.22767 101.722 9.323C101.847 9.41833 101.909 9.543 101.909 9.697V9.719C101.909 9.90233 101.851 10.071 101.733 10.225C101.623 10.3717 101.48 10.4597 101.304 10.489C100.879 10.5697 100.439 10.61 99.9843 10.61ZM103.71 6.243C103.541 6.243 103.395 6.18433 103.27 6.067C103.145 5.94233 103.083 5.79567 103.083 5.627C103.083 5.45833 103.145 5.31167 103.27 5.187C103.395 5.06233 103.541 5 103.71 5H104.15C104.209 5 104.238 4.967 104.238 4.901V3.537C104.238 3.36833 104.3 3.22167 104.425 3.097C104.55 2.97233 104.696 2.91 104.865 2.91H105.393C105.562 2.91 105.708 2.97233 105.833 3.097C105.958 3.22167 106.02 3.36833 106.02 3.537V4.901C106.02 4.967 106.053 5 106.119 5H107.197C107.366 5 107.509 5.06233 107.626 5.187C107.751 5.31167 107.813 5.45833 107.813 5.627C107.813 5.79567 107.751 5.94233 107.626 6.067C107.509 6.18433 107.366 6.243 107.197 6.243H106.119C106.053 6.243 106.02 6.276 106.02 6.342V8.223C106.02 8.685 106.06 8.97833 106.141 9.103C106.229 9.22767 106.42 9.29 106.713 9.29C106.867 9.29 106.988 9.28267 107.076 9.268C107.237 9.246 107.38 9.28267 107.505 9.378C107.63 9.47333 107.692 9.598 107.692 9.752V9.84C107.692 10.0233 107.633 10.1847 107.516 10.324C107.399 10.4633 107.248 10.544 107.065 10.566C106.838 10.5953 106.574 10.61 106.273 10.61C105.525 10.61 104.997 10.4523 104.689 10.137C104.388 9.81433 104.238 9.23867 104.238 8.41V6.342C104.238 6.276 104.209 6.243 104.15 6.243H103.71ZM114.392 7.332L112.104 3.02C112.038 2.89533 112.042 2.77433 112.115 2.657C112.189 2.53233 112.299 2.47 112.445 2.47H113.336C113.527 2.47 113.699 2.52133 113.853 2.624C114.007 2.72667 114.121 2.866 114.194 3.042L115.404 5.902C115.404 5.90933 115.408 5.913 115.415 5.913C115.423 5.913 115.426 5.90933 115.426 5.902L116.636 3.042C116.71 2.866 116.823 2.72667 116.977 2.624C117.131 2.52133 117.304 2.47 117.494 2.47H118.341C118.481 2.47 118.587 2.53233 118.66 2.657C118.741 2.77433 118.748 2.89533 118.682 3.02L116.394 7.332C116.365 7.38333 116.35 7.44567 116.35 7.519V9.873C116.35 10.0417 116.288 10.1883 116.163 10.313C116.046 10.4377 115.903 10.5 115.734 10.5H115.052C114.884 10.5 114.737 10.4377 114.612 10.313C114.488 10.1883 114.425 10.0417 114.425 9.873V7.519C114.425 7.431 114.414 7.36867 114.392 7.332Z" fill="#D40707"/>
</svg>
