<svg width="44" height="44" viewBox="0 0 44 44" fill="none" xmlns="http://www.w3.org/2000/svg">
<rect width="44" height="44" rx="22" fill="#F1F1F1"/>
<path d="M22.8484 22.1228C22.8484 22.2791 22.8484 22.4466 22.8484 22.6252V24.7801C22.8484 24.8359 22.8484 24.8917 22.8484 24.9476V22.6364C22.8601 22.4654 22.8601 22.2938 22.8484 22.1228ZM22.3013 20.5485C22.4544 20.7105 22.5756 20.8999 22.6586 21.1068C22.5869 20.8943 22.4642 20.7027 22.3013 20.5485Z" fill="#1A1A1A"/>
<path d="M25.5504 14.2403H22.6252C19.7558 14.2403 18.4271 15.5801 18.416 18.416C15.5689 18.416 14.2402 19.767 14.2402 22.6252V25.5393C14.2402 28.4199 15.58 29.7597 18.4494 29.7597H21.3747C24.2329 29.7597 25.5728 28.4311 25.5951 25.584C28.4422 25.584 29.7485 24.2218 29.7596 21.3859V18.4607C29.7596 15.5801 28.4198 14.2403 25.5504 14.2403ZM23.9873 25.5505C23.9873 27.549 23.3732 28.1631 21.3747 28.1631H18.4494C16.4509 28.1631 15.848 27.549 15.848 25.5505V22.6364C15.848 20.6267 16.4509 20.0238 18.4494 20.0238H21.3747C21.7722 20.015 22.1694 20.0524 22.5582 20.1354C22.8817 20.1919 23.181 20.3435 23.4179 20.5709C23.5808 20.725 23.7034 20.9167 23.7752 21.1291C23.8079 21.2087 23.834 21.2909 23.8533 21.3748C23.8708 21.4707 23.882 21.5677 23.8868 21.665C23.8868 21.8102 23.8868 21.9665 23.9427 22.134C23.9543 22.305 23.9543 22.4766 23.9427 22.6476L23.9873 25.5505ZM28.163 21.3859C28.163 23.3733 27.5601 23.9762 25.5951 23.9874V22.6364C25.5951 19.7558 24.2441 18.416 21.3747 18.416H20.0126C20.0126 16.451 20.6378 15.8481 22.6252 15.8481H25.5504C27.549 15.8481 28.163 16.4621 28.163 18.4607V21.3859Z" fill="#1A1A1A"/>
<path d="M33.5111 25.2044C33.5023 27.4037 32.6239 29.5103 31.0677 31.0644C29.5114 32.6186 27.4037 33.4941 25.2043 33.5C25.0628 33.4985 24.9242 33.4597 24.8026 33.3875C24.6809 33.3153 24.5804 33.2122 24.5113 33.0887C24.4422 32.9653 24.4069 32.8258 24.409 32.6843C24.4111 32.5428 24.4505 32.4044 24.5232 32.283L25.6397 30.4073C25.694 30.3164 25.7656 30.237 25.8505 30.1738C25.9354 30.1106 26.032 30.0647 26.1346 30.0388C26.2372 30.0129 26.344 30.0074 26.4487 30.0228C26.5535 30.0381 26.6542 30.0739 26.7451 30.1282C26.836 30.1824 26.9153 30.254 26.9785 30.3389C27.0418 30.4238 27.0876 30.5204 27.1136 30.623C27.1395 30.7257 27.1449 30.8324 27.1296 30.9371C27.1143 31.0419 27.0785 31.1426 27.0242 31.2335L26.7339 31.7136C28.2026 31.3691 29.5121 30.539 30.4503 29.3577C31.3885 28.1764 31.9004 26.7129 31.9033 25.2044C31.9033 24.9912 31.988 24.7867 32.1388 24.6359C32.2895 24.4852 32.494 24.4005 32.7072 24.4005C32.9204 24.4005 33.1249 24.4852 33.2756 24.6359C33.4264 24.7867 33.5111 24.9912 33.5111 25.2044Z" fill="#2667FF"/>
<path d="M19.4208 11.717L18.3043 13.5927C18.1755 13.7305 18.0024 13.8186 17.8152 13.8416C17.628 13.8646 17.4387 13.8211 17.2804 13.7187C17.122 13.6162 17.0047 13.4613 16.949 13.2812C16.8933 13.101 16.9028 12.9069 16.9757 12.733L17.266 12.2529C15.7916 12.5987 14.478 13.4337 13.5392 14.6219C12.6004 15.8101 12.0919 17.2813 12.0965 18.7956C12.0965 19.0088 12.0118 19.2133 11.8611 19.3641C11.7103 19.5148 11.5059 19.5995 11.2927 19.5995C11.0794 19.5995 10.875 19.5148 10.7242 19.3641C10.5735 19.2133 10.4888 19.0088 10.4888 18.7956C10.4917 16.5964 11.3667 14.4881 12.9218 12.933C14.4769 11.3779 16.5852 10.503 18.7844 10.5C18.9251 10.4996 19.0633 10.5365 19.185 10.6072C19.3066 10.6778 19.4073 10.7796 19.4766 10.9019C19.5422 11.0301 19.5716 11.1736 19.5618 11.3172C19.552 11.4608 19.5032 11.599 19.4208 11.717Z" fill="#2667FF"/>
</svg>
