<svg fill="none" height="44" viewBox="0 0 44 44" width="44" xmlns="http://www.w3.org/2000/svg"><rect fill="#f1f1f1" height="44" rx="22" width="44"/><path d="m23.0159 22.1228v.5024 2.1549.1675-2.3112c.0116-.171.0116-.3426 0-.5136zm-.5471-1.5743c.1531.162.2743.3514.3573.5583-.0717-.2125-.1944-.4041-.3573-.5583z" fill="#1a1a1a"/><path d="m25.7179 14.2403h-2.9252c-2.8695 0-4.1981 1.3398-4.2093 4.1757-2.8471 0-4.1757 1.351-4.1757 4.2092v2.9141c0 2.8806 1.3398 4.2204 4.2092 4.2204h2.9253c2.8582 0 4.198-1.3286 4.2204-4.1757 2.847 0 4.1534-1.3622 4.1645-4.1981v-2.9252c0-2.8806-1.3398-4.2204-4.2092-4.2204zm-1.5631 11.3102c0 1.9985-.6141 2.6126-2.6126 2.6126h-2.9253c-1.9985 0-2.6014-.6141-2.6014-2.6126v-2.9141c0-2.0097.6029-2.6126 2.6014-2.6126h2.9253c.3975-.0088.7946.0286 1.1835.1116.3234.0565.6227.2081.8597.4355.1629.1541.2855.3458.3573.5582.0326.0796.0588.1618.0781.2457.0175.0959.0287.1929.0335.2902 0 .1452 0 .3015.0558.469.0117.171.0117.3426 0 .5136zm4.1757-4.1646c0 1.9874-.6029 2.5903-2.5679 2.6015v-1.351c0-2.8806-1.351-4.2204-4.2204-4.2204h-1.3622c0-1.965.6253-2.5679 2.6127-2.5679h2.9252c1.9985 0 2.6126.614 2.6126 2.6126z" fill="#1a1a1a"/><g fill="#2667ff"><path d="m33.6786 25.2044c-.0089 2.1993-.8872 4.3059-2.4435 5.86-1.5562 1.5542-3.664 2.4297-5.8633 2.4356-.1415-.0015-.2801-.0403-.4018-.1125-.1216-.0722-.2221-.1753-.2912-.2988-.0691-.1234-.1044-.2629-.1023-.4044s.0415-.2799.1142-.4013l1.1165-1.8757c.0543-.0909.1259-.1703.2108-.2335s.1814-.1091.2841-.135c.1026-.0259.2094-.0314.3141-.016.1048.0153.2055.0511.2964.1054.0909.0542.1702.1258.2334.2107s.1091.1815.135.2841c.026.1027.0314.2094.0161.3141-.0153.1048-.0512.2055-.1054.2964l-.2903.4801c1.4687-.3445 2.7782-1.1746 3.7164-2.3559.9381-1.1813 1.4501-2.6448 1.453-4.1533 0-.2132.0847-.4177.2355-.5685.1507-.1507.3552-.2354.5684-.2354s.4177.0847.5684.2354c.1508.1508.2355.3553.2355.5685z"/><path d="m19.5883 11.717-1.1165 1.8757c-.1288.1378-.3019.2259-.4891.2489s-.3765-.0205-.5349-.1229c-.1583-.1025-.2756-.2574-.3313-.4375-.0557-.1802-.0463-.3743.0266-.5482l.2903-.4801c-1.4743.3458-2.7879 1.1808-3.7267 2.369s-1.4474 2.6594-1.4427 4.1737c0 .2132-.0847.4177-.2354.5685-.1508.1507-.3553.2354-.5685.2354s-.4176-.0847-.5684-.2354c-.1508-.1508-.2354-.3553-.2355-.5685.003-2.1992.878-4.3075 2.433-5.8626 1.5551-1.5551 3.6634-2.43 5.8627-2.433.1407-.0004.2789.0365.4006.1072.1216.0706.2223.1724.2916.2947.0656.1282.095.2717.0852.4153-.0099.1436-.0586.2818-.141.3998z"/></g></svg>