<svg width="20" height="20" viewBox="0 0 20 20" fill="none" xmlns="http://www.w3.org/2000/svg">
<rect width="20" height="20" rx="10" fill="#FFE1E1"/>
<path d="M15.2628 11.5067L11.4217 4.8536C10.7943 3.75453 9.20772 3.75453 8.58258 4.8536L4.73922 11.5067C4.11182 12.6058 4.89268 13.9711 6.15876 13.9711H13.8297C15.0958 13.9711 15.8902 12.5922 15.2628 11.5067ZM9.99986 12.4952C9.66585 12.4952 9.38826 12.2176 9.38826 11.8836C9.38826 11.5496 9.66585 11.272 9.99986 11.272C10.3339 11.272 10.6115 11.5496 10.5979 11.8994C10.6137 12.2176 10.3203 12.4952 9.99986 12.4952ZM10.5573 8.54124C10.5302 9.01517 10.5009 9.48685 10.4738 9.96078C10.4603 10.1142 10.4603 10.2542 10.4603 10.4054C10.4467 10.6559 10.2504 10.85 9.99986 10.85C9.74935 10.85 9.55527 10.6694 9.53947 10.4189C9.49885 9.68093 9.45597 8.95649 9.41535 8.21852C9.4018 8.02443 9.38826 7.82809 9.37247 7.634C9.37247 7.31353 9.55301 7.04948 9.8464 6.96598C10.1398 6.89602 10.4309 7.03594 10.5573 7.31353C10.6002 7.41057 10.6137 7.50762 10.6137 7.62046C10.6002 7.92964 10.5708 8.23657 10.5573 8.54124Z" fill="#ED003B"/>
</svg>
