<svg width="17" height="15" viewBox="0 0 17 15" fill="none" xmlns="http://www.w3.org/2000/svg">
<path fill-rule="evenodd" clip-rule="evenodd" d="M3.3 1.8C2.472 1.8 1.8 2.472 1.8 3.3V11.1C1.8 11.928 2.472 12.6 3.3 12.6H13.5C14.328 12.6 15 11.928 15 11.1V5.7C15 4.872 14.328 4.2 13.5 4.2H9.4416C9.0517 4.19999 8.66951 4.09143 8.33782 3.88648C8.00613 3.68153 7.73805 3.38829 7.5636 3.0396L7.3584 2.6292C7.23383 2.38004 7.04233 2.1705 6.80538 2.02404C6.56842 1.87759 6.29536 1.80001 6.0168 1.8H3.3ZM0 3.3C0 2.42479 0.347678 1.58542 0.966548 0.966548C1.58542 0.347678 2.42479 0 3.3 0H6.0168C7.2672 0 8.4096 0.7068 8.9688 1.824L9.1728 2.2344C9.2244 2.3352 9.3288 2.4 9.4416 2.4H13.5C14.3752 2.4 15.2146 2.74768 15.8335 3.36655C16.4523 3.98542 16.8 4.82479 16.8 5.7V11.1C16.8 11.9752 16.4523 12.8146 15.8335 13.4335C15.2146 14.0523 14.3752 14.4 13.5 14.4H3.3C2.42479 14.4 1.58542 14.0523 0.966548 13.4335C0.347678 12.8146 0 11.9752 0 11.1V3.3Z" fill="#00C36E"/>
</svg>
