<svg width="17" height="14" viewBox="0 0 17 14" fill="none" xmlns="http://www.w3.org/2000/svg">
<path fill-rule="evenodd" clip-rule="evenodd" d="M3.3 0C2.42479 0 1.58542 0.347678 0.966548 0.966548C0.347678 1.58542 0 2.42479 0 3.3V9.9C0 10.7752 0.347678 11.6146 0.966548 12.2335C1.58542 12.8523 2.42479 13.2 3.3 13.2H13.5C14.3752 13.2 15.2146 12.8523 15.8335 12.2335C16.4523 11.6146 16.8 10.7752 16.8 9.9V3.3C16.8 2.42479 16.4523 1.58542 15.8335 0.966548C15.2146 0.347678 14.3752 0 13.5 0H3.3ZM1.8 3.3C1.8 2.472 2.472 1.8 3.3 1.8H13.5C14.328 1.8 15 2.472 15 3.3V9.9C15 10.728 14.328 11.4 13.5 11.4H3.3C2.472 11.4 1.8 10.728 1.8 9.9V3.3ZM4.2804 3.684C4.17324 3.63405 4.05729 3.60569 3.93917 3.60054C3.82106 3.5954 3.70308 3.61357 3.59198 3.65402C3.48089 3.69447 3.37885 3.7564 3.29169 3.83629C3.20453 3.91617 3.13395 4.01244 3.084 4.1196C3.03405 4.22676 3.00569 4.34271 3.00054 4.46083C2.9954 4.57894 3.01357 4.69692 3.05402 4.80802C3.13571 5.03238 3.30318 5.21511 3.5196 5.316L7.7652 7.2972C8.1672 7.4844 8.6328 7.4844 9.0348 7.2972L13.2804 5.316C13.4968 5.21511 13.6643 5.03238 13.746 4.80802C13.8277 4.58365 13.8169 4.33602 13.716 4.1196C13.6151 3.90318 13.4324 3.73571 13.208 3.65402C12.9836 3.57233 12.736 3.58311 12.5196 3.684L8.4 5.6064L4.2804 3.684Z" fill="#694FD8"/>
</svg>
