<svg width="148" height="50" viewBox="0 0 148 50" fill="none" xmlns="http://www.w3.org/2000/svg">
    <rect x="0.993" y="7.0208" width="146.014" height="41.958" rx="4.1958" stroke="#8C9196" stroke-width="1.67832" />
    <path
        d="M47.986 17.0144L47.5664 14.5732H59.3147V17.0144V28.4067L64.3496 23.9312L69.8042 29.6273L59.3147 41.4264H47.986L44.6294 24.7449L47.986 17.0144Z"
        fill="#E6FFFA" />
    <path
        d="M47.986 17.0144C47.8222 16.0611 47.5664 14.5732 47.5664 14.5732H59.3147V17.0144M47.986 17.0144C52.4101 17.0144 59.3147 17.0144 59.3147 17.0144M47.986 17.0144C46.6752 20.0334 44.6294 24.7449 44.6294 24.7449L47.986 41.4264H59.3147L69.8042 29.6273L64.3496 23.9312L59.3147 28.4067M59.3147 17.0144V28.4067M59.3147 28.4067V38.1715M48.9651 36.811L49.3847 39.3285H51.4826M52.7413 39.3285H53.5805M49.2447 21.0831V25.9655L52.6014 27.9998L55.5385 25.9655V21.0831H49.2447Z"
        stroke="#202223" stroke-width="0.839161" stroke-linecap="round" stroke-linejoin="round" />
    <path
        d="M11.9021 40.5872V19.1718C11.9021 18.7084 12.2778 18.3327 12.7412 18.3327H16.7082L18.8442 14.5732H28.9904L30.5925 18.3327H34.5594C35.0229 18.3327 35.3986 18.7084 35.3986 19.1718V25.8516V28.5369V33.3704V40.5872C35.3986 41.0507 35.0229 41.4264 34.5594 41.4264H23.6503H12.7412C12.2778 41.4264 11.9021 41.0507 11.9021 40.5872Z"
        fill="#E6FFFA" />
    <path
        d="M16.7082 18.3327H12.7412C12.2778 18.3327 11.9021 18.7084 11.9021 19.1718V40.5872C11.9021 41.0507 12.2778 41.4264 12.7412 41.4264H23.6503M16.7082 18.3327L19.5155 23.9793C19.7306 24.4121 20.266 24.5742 20.685 24.3333L23.6503 22.6292M16.7082 18.3327L18.8442 14.5732M23.6503 22.6292L26.6156 24.3333C27.0347 24.5742 27.57 24.4121 27.7852 23.9793L30.5925 18.3327M23.6503 22.6292L21.0871 18.3327M23.6503 22.6292L26.4984 18.3327M23.6503 22.6292V41.4264M18.8442 14.5732H28.9904M18.8442 14.5732L21.0871 18.3327M30.5925 18.3327H34.5594C35.0229 18.3327 35.3986 18.7084 35.3986 19.1718V25.8516M30.5925 18.3327L28.9904 14.5732M28.9904 14.5732L26.4984 18.3327M21.0871 18.3327H26.4984M23.6503 41.4264H34.5594C35.0229 41.4264 35.3986 41.0507 35.3986 40.5872V33.3704M35.3986 25.8516H30.8976C30.4342 25.8516 30.0585 26.2273 30.0585 26.6907V28.5369M35.3986 25.8516V28.5369M30.0585 28.5369H35.3986M30.0585 28.5369V32.5313C30.0585 32.9947 30.4342 33.3704 30.8976 33.3704H35.3986M35.3986 28.5369V33.3704"
        stroke="#202223" stroke-width="0.839161" />
    <path
        d="M135.194 34.2935H113.505C112.079 34.2935 110.923 33.1375 110.923 31.7114C110.923 30.1273 111.813 28.6775 113.225 27.9602L117.913 25.5791L120.027 24.5058L122.14 23.4324L125.425 21.7641C125.477 21.7375 125.539 21.7755 125.539 21.8342C125.539 22.8329 126.349 23.6426 127.348 23.6426H132.489C133.532 23.6426 134.377 22.7972 134.377 21.7545C134.377 21.7277 134.399 21.7061 134.425 21.7061H134.66C136.381 21.7061 137.776 23.1011 137.776 24.8219V27.5156V31.7114C137.776 33.1375 136.62 34.2935 135.194 34.2935Z"
        fill="#E6FFFA" />
    <path
        d="M122.14 23.4324L125.425 21.7641C125.477 21.7375 125.539 21.7755 125.539 21.8342V21.8342C125.539 22.8329 126.349 23.6426 127.348 23.6426H132.489C133.532 23.6426 134.377 22.7972 134.377 21.7545V21.7545C134.377 21.7277 134.399 21.7061 134.425 21.7061H134.66C136.381 21.7061 137.776 23.1011 137.776 24.8219V27.5156M122.14 23.4324L124.52 25.9019M122.14 23.4324L120.027 24.5058M119.421 26.8701L117.913 25.5791M117.913 25.5791L113.225 27.9602C111.813 28.6775 110.923 30.1273 110.923 31.7114V31.7114M117.913 25.5791L120.027 24.5058M122.14 26.5474L120.027 24.5058M137.776 31.7114V31.7114C137.776 33.1375 136.62 34.2935 135.194 34.2935H113.505C112.079 34.2935 110.923 33.1375 110.923 31.7114V31.7114M137.776 31.7114H131.998M137.776 31.7114V27.5156M110.923 31.7114H131.998M131.998 31.7114C131.998 29.1294 134.717 27.5156 137.776 27.5156"
        stroke="#202223" stroke-width="1.00699" stroke-linecap="round" stroke-linejoin="round" />
    <path
        d="M100.154 17.0906V20.334C100.154 20.6504 99.8976 20.9069 99.5812 20.9069V27.9997V31.0843C99.5812 31.8191 99.2602 32.5171 98.7024 32.9954L97.217 34.2691L90.8189 39.7552C88.7307 41.5458 85.5516 41.1342 83.9881 38.871C82.6724 36.9664 82.9636 34.3832 84.6702 32.8192L89.7983 28.1198C90.0284 27.9089 90.1594 27.6111 90.1594 27.299V20.9069C89.7727 20.9069 89.4591 20.5934 89.4591 20.2066V17.0906C89.4591 16.6272 89.8349 16.2515 90.2983 16.2515H99.3149C99.7784 16.2515 100.154 16.6272 100.154 17.0906Z"
        fill="#E6FFFA" />
    <path
        d="M90.1594 20.9069V20.9069C89.7727 20.9069 89.4591 20.5934 89.4591 20.2066V17.0906C89.4591 16.6272 89.8348 16.2515 90.2983 16.2515H99.3149C99.7784 16.2515 100.154 16.6272 100.154 17.0906V20.334C100.154 20.6504 99.8976 20.9069 99.5812 20.9069V20.9069M90.1594 20.9069V27.299C90.1594 27.6112 90.0284 27.9089 89.7983 28.1198L84.6702 32.8192C82.9636 34.3832 82.6724 36.9664 83.9881 38.871V38.871C85.5516 41.1342 88.7307 41.5458 90.8189 39.7552L97.217 34.269M90.1594 20.9069H99.5812M99.5812 20.9069V27.9997M99.5812 27.9997V31.0843C99.5812 31.8191 99.2602 32.5171 98.7024 32.9954L97.217 34.269M99.5812 27.9997V27.9997C96.7803 27.9997 95.112 31.1237 96.6698 33.4514L97.217 34.269"
        stroke="#202223" stroke-width="0.839161" />
    <path
        d="M97.6365 15.4129V18.6562C97.6365 18.9727 97.38 19.2292 97.0636 19.2292V26.322V29.4066C97.0636 30.1413 96.7426 30.8394 96.1848 31.3177L94.6995 32.5913L88.3013 38.0775C86.2131 39.868 83.034 39.4565 81.4705 37.1932C80.1549 35.2887 80.446 32.7054 82.1526 31.1415L87.2807 26.4421C87.5108 26.2312 87.6418 25.9334 87.6418 25.6213V19.2292C87.2551 19.2292 86.9416 18.9157 86.9416 18.5289V15.4129C86.9416 14.9494 87.3173 14.5737 87.7807 14.5737H96.7974C97.2608 14.5737 97.6365 14.9494 97.6365 15.4129Z"
        fill="#E6FFFA" />
    <path
        d="M87.6418 19.2292V19.2292C87.2551 19.2292 86.9416 18.9157 86.9416 18.5289V15.4129C86.9416 14.9494 87.3173 14.5737 87.7807 14.5737H96.7974C97.2608 14.5737 97.6365 14.9494 97.6365 15.4129V18.6562C97.6365 18.9727 97.38 19.2292 97.0636 19.2292V19.2292M87.6418 19.2292V25.6213C87.6418 25.9334 87.5108 26.2312 87.2807 26.4421L82.1526 31.1415C80.446 32.7054 80.1549 35.2887 81.4705 37.1932V37.1932C83.034 39.4565 86.2131 39.868 88.3013 38.0775L94.6995 32.5913M87.6418 19.2292H97.0636M97.0636 19.2292V26.322M97.0636 26.322V29.4066C97.0636 30.1413 96.7426 30.8394 96.1848 31.3177L94.6995 32.5913M97.0636 26.322V26.322C94.2627 26.322 92.5944 29.446 94.1522 31.7736L94.6995 32.5913"
        stroke="#202223" stroke-width="0.839161" />
    <rect width="35.3566" height="10" transform="translate(7.00735 0.306641)" fill="#F6F6F7" />
    <path
        d="M10.9287 5.4451V7.06972C10.9287 7.1251 10.9564 7.15895 11.0118 7.17126C11.1411 7.19587 11.298 7.20818 11.4826 7.20818C11.9195 7.20818 12.2395 7.12818 12.4426 6.96818C12.6457 6.80203 12.7472 6.54972 12.7472 6.21126C12.7472 5.6451 12.2857 5.36203 11.3626 5.36203H11.0026C10.9534 5.36203 10.9287 5.38972 10.9287 5.4451ZM10.9287 2.8051V4.16202C10.9287 4.21126 10.9534 4.23587 11.0026 4.23587H11.2334C12.1318 4.23587 12.5811 3.96818 12.5811 3.43279C12.5811 2.92203 12.2057 2.66664 11.4549 2.66664C11.2764 2.66664 11.1257 2.67895 11.0026 2.70356C10.9534 2.71587 10.9287 2.74972 10.9287 2.8051ZM9.90413 8.3251C9.75644 8.31279 9.63336 8.24818 9.5349 8.13126C9.43644 8.01433 9.38721 7.88203 9.38721 7.73433V2.14049C9.38721 1.98664 9.43644 1.85433 9.5349 1.74356C9.63952 1.62664 9.76567 1.56203 9.91336 1.54972C10.3934 1.50049 10.8641 1.47587 11.3257 1.47587C13.1103 1.47587 14.0026 2.05126 14.0026 3.20202C14.0026 3.58972 13.8764 3.91895 13.6241 4.18972C13.378 4.46049 13.0457 4.63279 12.6272 4.70664C12.6211 4.70664 12.618 4.71279 12.618 4.7251C12.618 4.73126 12.6241 4.73433 12.6364 4.73433C13.1226 4.80203 13.5072 4.98664 13.7903 5.28818C14.0795 5.58972 14.2241 5.94972 14.2241 6.36818C14.2241 7.05126 13.9964 7.56203 13.5411 7.90049C13.0918 8.23279 12.3841 8.39895 11.418 8.39895C10.9318 8.39895 10.4272 8.37433 9.90413 8.3251ZM16.6136 8.39895C16.0721 8.39895 15.6782 8.24818 15.4321 7.94664C15.1921 7.6451 15.0721 7.12818 15.0721 6.39587V4.03279C15.0721 3.89126 15.1244 3.76818 15.229 3.66356C15.3336 3.55895 15.4567 3.50664 15.5982 3.50664H16.0044C16.1459 3.50664 16.269 3.55895 16.3736 3.66356C16.4782 3.76818 16.5305 3.89126 16.5305 4.03279V6.29433C16.5305 6.65126 16.5767 6.89741 16.669 7.03279C16.7674 7.16203 16.9336 7.22664 17.1674 7.22664C17.3828 7.22664 17.5798 7.14049 17.7582 6.96818C17.9367 6.78972 18.0259 6.59895 18.0259 6.39587V4.03279C18.0259 3.89126 18.0782 3.76818 18.1828 3.66356C18.2874 3.55895 18.4105 3.50664 18.5521 3.50664H18.9951C19.1367 3.50664 19.2598 3.55895 19.3644 3.66356C19.469 3.76818 19.5213 3.89126 19.5213 4.03279V7.78049C19.5213 7.92203 19.469 8.0451 19.3644 8.14972C19.2598 8.25433 19.1367 8.30664 18.9951 8.30664H18.6167C18.469 8.30664 18.3428 8.25741 18.2382 8.15895C18.1398 8.05433 18.0874 7.92818 18.0813 7.78049V7.70664C18.0813 7.70049 18.0782 7.69741 18.0721 7.69741L18.0536 7.71587C17.6536 8.17126 17.1736 8.39895 16.6136 8.39895ZM22.0263 8.23279L20.4663 3.99587C20.4171 3.87895 20.4294 3.76818 20.5032 3.66356C20.5771 3.55895 20.6786 3.50664 20.8078 3.50664H21.3894C21.5371 3.50664 21.6724 3.55587 21.7955 3.65433C21.9186 3.74664 21.9986 3.86664 22.0355 4.01433L22.7371 6.8851C22.7371 6.89126 22.7401 6.89433 22.7463 6.89433C22.7524 6.89433 22.7555 6.89126 22.7555 6.8851L23.5955 4.0051C23.6324 3.85741 23.7124 3.73741 23.8355 3.6451C23.9648 3.55279 24.1094 3.50664 24.2694 3.50664H24.7771C24.9001 3.50664 24.9986 3.55895 25.0724 3.66356C25.1463 3.76818 25.1617 3.87895 25.1186 3.99587L22.9401 9.84818C22.8848 9.99587 22.7924 10.1128 22.6632 10.1989C22.534 10.2913 22.3924 10.3374 22.2386 10.3374H21.7309C21.6017 10.3374 21.5032 10.2851 21.4355 10.1805C21.3678 10.082 21.3586 9.97433 21.4078 9.85741L22.0263 8.38049C22.0324 8.35587 22.0355 8.33126 22.0355 8.30664C22.0355 8.28203 22.0324 8.25741 22.0263 8.23279ZM31.0961 2.93433L30.4223 5.58356C30.4161 5.60203 30.4192 5.62049 30.4315 5.63895C30.4499 5.65126 30.4684 5.65741 30.4869 5.65741H31.7238C31.7423 5.65741 31.7576 5.65126 31.7699 5.63895C31.7884 5.62049 31.7946 5.60203 31.7884 5.58356L31.1146 2.93433C31.1146 2.92818 31.1115 2.9251 31.1053 2.9251C31.0992 2.9251 31.0961 2.92818 31.0961 2.93433ZM28.6315 8.30664C28.5023 8.30664 28.3976 8.25433 28.3176 8.14972C28.2438 8.0451 28.2284 7.93126 28.2715 7.80818L30.1361 2.06664C30.1853 1.91895 30.2715 1.79895 30.3946 1.70664C30.5238 1.61433 30.6653 1.56818 30.8192 1.56818H31.4284C31.5884 1.56818 31.733 1.61433 31.8623 1.70664C31.9915 1.79895 32.0776 1.91895 32.1207 2.06664L33.9761 7.80818C34.0192 7.93126 34.0007 8.0451 33.9207 8.14972C33.8469 8.25433 33.7453 8.30664 33.6161 8.30664H32.9976C32.8438 8.30664 32.7053 8.26049 32.5823 8.16818C32.4592 8.06972 32.3792 7.94664 32.3423 7.79895L32.1207 6.92203C32.1146 6.87279 32.0838 6.84818 32.0284 6.84818H30.1823C30.133 6.84818 30.1023 6.87279 30.0899 6.92203L29.8684 7.79895C29.8315 7.94664 29.7515 8.06972 29.6284 8.16818C29.5053 8.26049 29.3669 8.30664 29.213 8.30664H28.6315ZM35.4905 8.30664C35.349 8.30664 35.2259 8.25433 35.1213 8.14972C35.0167 8.0451 34.9644 7.92203 34.9644 7.78049V1.90972C34.9644 1.76818 35.0167 1.6451 35.1213 1.54049C35.2259 1.43587 35.349 1.38356 35.4905 1.38356H36.0074C36.149 1.38356 36.2721 1.43587 36.3767 1.54049C36.4813 1.6451 36.5336 1.76818 36.5336 1.90972V7.78049C36.5336 7.92203 36.4813 8.0451 36.3767 8.14972C36.2721 8.25433 36.149 8.30664 36.0074 8.30664H35.4905ZM38.5554 8.30664C38.4139 8.30664 38.2908 8.25433 38.1862 8.14972C38.0816 8.0451 38.0293 7.92203 38.0293 7.78049V1.90972C38.0293 1.76818 38.0816 1.6451 38.1862 1.54049C38.2908 1.43587 38.4139 1.38356 38.5554 1.38356H39.0724C39.2139 1.38356 39.337 1.43587 39.4416 1.54049C39.5462 1.6451 39.5985 1.76818 39.5985 1.90972V7.78049C39.5985 7.92203 39.5462 8.0451 39.4416 8.14972C39.337 8.25433 39.2139 8.30664 39.0724 8.30664H38.5554Z"
        fill="#202223" />
    <rect width="47.3566" height="10" transform="translate(94.7554 0.306641)" fill="#F6F6F7" />
    <path
        d="M99.1014 5.61126C98.326 5.3651 97.766 5.06049 97.4214 4.69741C97.0768 4.32818 96.9045 3.87895 96.9045 3.34972C96.9045 2.77126 97.1045 2.31587 97.5045 1.98356C97.9106 1.6451 98.4891 1.47587 99.2399 1.47587C99.806 1.47587 100.32 1.54049 100.781 1.66972C100.929 1.71279 101.046 1.80203 101.132 1.93741C101.224 2.06664 101.271 2.21126 101.271 2.37126V2.63895C101.271 2.76202 101.218 2.85741 101.114 2.9251C101.009 2.99279 100.898 3.0051 100.781 2.96202C100.258 2.77741 99.7753 2.6851 99.3322 2.6851C98.766 2.6851 98.4829 2.90664 98.4829 3.34972C98.4829 3.7251 98.7291 3.99279 99.2214 4.15279C100.071 4.41126 100.658 4.71279 100.984 5.05741C101.317 5.40203 101.483 5.85433 101.483 6.41433C101.483 7.73741 100.649 8.39895 98.9814 8.39895C98.4522 8.39895 97.9722 8.31587 97.5414 8.14972C97.3937 8.09433 97.2768 7.99895 97.1906 7.86356C97.1106 7.72203 97.0706 7.56818 97.0706 7.40203V7.10664C97.0706 6.99587 97.1199 6.91279 97.2183 6.85741C97.3168 6.79587 97.4153 6.78972 97.5137 6.83895C97.9629 7.06049 98.4214 7.17126 98.8891 7.17126C99.2153 7.17126 99.4614 7.10972 99.6276 6.98664C99.7999 6.85741 99.886 6.67587 99.886 6.44203C99.886 6.23895 99.8276 6.07279 99.7106 5.94356C99.5937 5.81433 99.3906 5.70356 99.1014 5.61126ZM104.731 6.10972C103.98 6.10972 103.605 6.34049 103.605 6.80203C103.605 6.96818 103.654 7.10049 103.753 7.19895C103.851 7.29126 103.983 7.33741 104.15 7.33741C104.445 7.33741 104.685 7.2451 104.87 7.06049C105.054 6.86972 105.147 6.61741 105.147 6.30356V6.19279C105.147 6.13741 105.119 6.10972 105.063 6.10972H104.731ZM103.697 8.39895C103.273 8.39895 102.922 8.26356 102.645 7.99279C102.374 7.71587 102.239 7.35895 102.239 6.92203C102.239 5.80203 103.07 5.24203 104.731 5.24203H105.063C105.119 5.24203 105.147 5.21741 105.147 5.16818V5.12203C105.147 4.88818 105.085 4.71895 104.962 4.61433C104.845 4.50972 104.645 4.45741 104.362 4.45741C103.987 4.45741 103.537 4.51587 103.014 4.63279C102.885 4.65741 102.768 4.62972 102.663 4.54972C102.565 4.46972 102.516 4.3651 102.516 4.23587V4.21741C102.516 4.06356 102.562 3.9251 102.654 3.80202C102.753 3.67279 102.876 3.59587 103.023 3.57126C103.565 3.46664 104.033 3.41433 104.427 3.41433C105.233 3.41433 105.802 3.55895 106.134 3.84818C106.473 4.13741 106.642 4.61741 106.642 5.28818V7.78049C106.642 7.92203 106.59 8.0451 106.485 8.14972C106.38 8.25433 106.257 8.30664 106.116 8.30664H105.774C105.627 8.30664 105.5 8.25741 105.396 8.15895C105.291 8.05433 105.236 7.92818 105.23 7.78049V7.67895C105.23 7.67279 105.227 7.66972 105.22 7.66972C105.208 7.66972 105.202 7.67279 105.202 7.67895C104.814 8.15895 104.313 8.39895 103.697 8.39895ZM108.512 7.80818L107.33 4.0051C107.293 3.88203 107.312 3.76818 107.386 3.66356C107.466 3.55895 107.57 3.50664 107.7 3.50664H108.253C108.407 3.50664 108.543 3.55587 108.66 3.65433C108.783 3.74664 108.86 3.86664 108.89 4.01433L109.666 7.43895C109.666 7.4451 109.669 7.44818 109.675 7.44818C109.681 7.44818 109.684 7.4451 109.684 7.43895L110.46 4.01433C110.49 3.86664 110.564 3.74664 110.681 3.65433C110.804 3.55587 110.943 3.50664 111.096 3.50664H111.613C111.743 3.50664 111.844 3.55895 111.918 3.66356C111.998 3.76818 112.02 3.88203 111.983 4.0051L110.801 7.80818C110.752 7.95587 110.663 8.07587 110.533 8.16818C110.41 8.26049 110.272 8.30664 110.118 8.30664H109.195C109.035 8.30664 108.89 8.26049 108.761 8.16818C108.638 8.07587 108.555 7.95587 108.512 7.80818ZM114.723 4.42049C114.446 4.42049 114.237 4.49433 114.096 4.64203C113.954 4.78356 113.865 5.02972 113.828 5.38049C113.828 5.42972 113.85 5.45433 113.893 5.45433H115.453C115.508 5.45433 115.536 5.42664 115.536 5.37126C115.511 4.73741 115.24 4.42049 114.723 4.42049ZM114.954 8.39895C114.117 8.39895 113.471 8.18664 113.016 7.76203C112.566 7.33741 112.342 6.71895 112.342 5.90664C112.342 5.10049 112.542 4.4851 112.942 4.06049C113.348 3.62972 113.933 3.41433 114.696 3.41433C116.16 3.41433 116.905 4.21433 116.93 5.81433C116.93 5.96203 116.871 6.08818 116.754 6.19279C116.643 6.29126 116.514 6.34049 116.366 6.34049H113.902C113.84 6.34049 113.816 6.36818 113.828 6.42356C113.877 6.76203 114.006 7.0051 114.216 7.15279C114.431 7.29433 114.751 7.3651 115.176 7.3651C115.453 7.3651 115.751 7.3251 116.071 7.2451C116.2 7.21433 116.314 7.23895 116.413 7.31895C116.517 7.39895 116.57 7.50356 116.57 7.63279V7.65126C116.57 7.8051 116.52 7.94664 116.422 8.07587C116.33 8.19895 116.21 8.27279 116.062 8.29741C115.705 8.3651 115.336 8.39895 114.954 8.39895Z"
        fill="#202223" />
    <path
        d="M121.198 8.30664C121.057 8.30664 120.934 8.25433 120.829 8.14972C120.725 8.0451 120.672 7.92203 120.672 7.78049V7.56818C120.672 7.22356 120.811 6.94356 121.088 6.72818C122.122 5.91587 122.805 5.29741 123.137 4.87279C123.475 4.44818 123.645 4.03279 123.645 3.62664C123.645 3.06049 123.331 2.77741 122.703 2.77741C122.322 2.77741 121.854 2.88203 121.3 3.09126C121.183 3.13433 121.072 3.12203 120.968 3.05433C120.863 2.98664 120.811 2.89126 120.811 2.76818V2.38049C120.811 2.22049 120.857 2.07895 120.949 1.95587C121.042 1.82664 121.165 1.74049 121.318 1.69741C121.878 1.54972 122.417 1.47587 122.934 1.47587C123.678 1.47587 124.251 1.65433 124.651 2.01126C125.057 2.36203 125.26 2.85126 125.26 3.47895C125.26 4.02049 125.088 4.53741 124.743 5.02972C124.405 5.51587 123.74 6.17741 122.749 7.01433C122.743 7.02049 122.74 7.02664 122.74 7.03279C122.74 7.03895 122.743 7.04203 122.749 7.04203H124.771C124.912 7.04203 125.032 7.09433 125.131 7.19895C125.235 7.30356 125.288 7.42664 125.288 7.56818V7.78049C125.288 7.92203 125.235 8.0451 125.131 8.14972C125.032 8.25433 124.912 8.30664 124.771 8.30664H121.198ZM129.768 3.17433C129.596 2.83587 129.325 2.66664 128.956 2.66664C128.587 2.66664 128.313 2.83587 128.134 3.17433C127.962 3.51279 127.876 4.10049 127.876 4.93741C127.876 5.77433 127.962 6.36203 128.134 6.70049C128.313 7.03895 128.587 7.20818 128.956 7.20818C129.325 7.20818 129.596 7.03895 129.768 6.70049C129.947 6.36203 130.036 5.77433 130.036 4.93741C130.036 4.10049 129.947 3.51279 129.768 3.17433ZM130.968 7.58664C130.531 8.12818 129.861 8.39895 128.956 8.39895C128.051 8.39895 127.377 8.12818 126.934 7.58664C126.497 7.0451 126.279 6.16203 126.279 4.93741C126.279 3.71279 126.497 2.82972 126.934 2.28818C127.377 1.74664 128.051 1.47587 128.956 1.47587C129.861 1.47587 130.531 1.74664 130.968 2.28818C131.411 2.82972 131.633 3.71279 131.633 4.93741C131.633 6.16203 131.411 7.0451 130.968 7.58664ZM137.895 1.56818C138.012 1.56818 138.101 1.62049 138.163 1.7251C138.23 1.82972 138.236 1.93433 138.181 2.03895L135.236 7.83587C135.076 8.14972 134.824 8.30664 134.48 8.30664H134.387C134.27 8.30664 134.178 8.25433 134.11 8.14972C134.049 8.0451 134.046 7.94049 134.101 7.83587L137.046 2.03895C137.206 1.7251 137.458 1.56818 137.803 1.56818H137.895ZM138.79 6.53433C138.79 5.93741 138.615 5.63895 138.264 5.63895C137.913 5.63895 137.738 5.93741 137.738 6.53433C137.738 7.13741 137.913 7.43895 138.264 7.43895C138.615 7.43895 138.79 7.13741 138.79 6.53433ZM139.566 7.90972C139.258 8.23587 138.824 8.39895 138.264 8.39895C137.704 8.39895 137.267 8.23587 136.953 7.90972C136.646 7.58356 136.492 7.1251 136.492 6.53433C136.492 5.94356 136.646 5.48818 136.953 5.16818C137.267 4.84203 137.704 4.67895 138.264 4.67895C138.824 4.67895 139.258 4.84203 139.566 5.16818C139.88 5.48818 140.036 5.94356 140.036 6.53433C140.036 7.1251 139.88 7.58356 139.566 7.90972ZM134.544 3.34049C134.544 2.73741 134.369 2.43587 134.018 2.43587C133.667 2.43587 133.492 2.73741 133.492 3.34049C133.492 3.93741 133.667 4.23587 134.018 4.23587C134.369 4.23587 134.544 3.93741 134.544 3.34049ZM135.32 4.71587C135.012 5.03587 134.578 5.19587 134.018 5.19587C133.458 5.19587 133.021 5.03587 132.707 4.71587C132.4 4.38972 132.246 3.93126 132.246 3.34049C132.246 2.74972 132.4 2.29126 132.707 1.9651C133.021 1.63895 133.458 1.47587 134.018 1.47587C134.578 1.47587 135.012 1.63895 135.32 1.9651C135.633 2.29126 135.79 2.74972 135.79 3.34049C135.79 3.93126 135.633 4.38972 135.32 4.71587Z"
        fill="#D40707" />
</svg>