<svg width="200" height="105" viewBox="0 0 200 105" fill="none" xmlns="http://www.w3.org/2000/svg">
<path d="M135.5 2C135.5 0.89543 136.395 0 137.5 0H182.5C183.605 0 184.5 0.895431 184.5 2V15H135.5V2Z" fill="#004BFF"/>
<path d="M144.162 5.85511C144.139 5.62595 144.042 5.44792 143.869 5.32102C143.697 5.19413 143.463 5.13068 143.168 5.13068C142.967 5.13068 142.797 5.15909 142.659 5.21591C142.521 5.27083 142.415 5.34754 142.341 5.44602C142.269 5.54451 142.233 5.65625 142.233 5.78125C142.229 5.88542 142.251 5.97633 142.298 6.05398C142.348 6.13163 142.415 6.19886 142.5 6.25568C142.585 6.31061 142.684 6.3589 142.795 6.40057C142.907 6.44034 143.027 6.47443 143.153 6.50284L143.676 6.62784C143.93 6.68466 144.163 6.76042 144.375 6.85511C144.587 6.94981 144.771 7.06629 144.926 7.20455C145.081 7.3428 145.202 7.50568 145.287 7.69318C145.374 7.88068 145.419 8.09564 145.42 8.33807C145.419 8.69413 145.328 9.00284 145.148 9.2642C144.97 9.52367 144.712 9.72538 144.375 9.86932C144.04 10.0114 143.635 10.0824 143.162 10.0824C142.692 10.0824 142.283 10.0104 141.935 9.86648C141.588 9.72254 141.317 9.50947 141.122 9.22727C140.929 8.94318 140.828 8.59186 140.818 8.1733H142.009C142.022 8.36837 142.078 8.53125 142.176 8.66193C142.277 8.79072 142.41 8.88826 142.577 8.95455C142.745 9.01894 142.936 9.05114 143.148 9.05114C143.356 9.05114 143.537 9.02083 143.69 8.96023C143.846 8.89962 143.966 8.81534 144.051 8.70739C144.136 8.59943 144.179 8.47538 144.179 8.33523C144.179 8.20455 144.14 8.0947 144.062 8.00568C143.987 7.91667 143.875 7.84091 143.727 7.77841C143.581 7.71591 143.402 7.65909 143.19 7.60795L142.557 7.44886C142.066 7.32955 141.679 7.14299 141.395 6.8892C141.111 6.63542 140.97 6.29356 140.972 5.86364C140.97 5.51136 141.063 5.2036 141.253 4.94034C141.444 4.67708 141.706 4.47159 142.04 4.32386C142.373 4.17614 142.752 4.10227 143.176 4.10227C143.608 4.10227 143.985 4.17614 144.307 4.32386C144.631 4.47159 144.883 4.67708 145.062 4.94034C145.242 5.2036 145.335 5.50852 145.341 5.85511H144.162ZM147.469 10.0824C147.191 10.0824 146.943 10.0341 146.725 9.9375C146.507 9.83902 146.335 9.69413 146.208 9.50284C146.083 9.30966 146.021 9.06913 146.021 8.78125C146.021 8.53883 146.065 8.33523 146.154 8.17045C146.243 8.00568 146.364 7.87311 146.518 7.77273C146.671 7.67235 146.845 7.59659 147.04 7.54545C147.237 7.49432 147.444 7.45833 147.66 7.4375C147.914 7.41098 148.118 7.38636 148.273 7.36364C148.429 7.33902 148.541 7.30303 148.612 7.25568C148.682 7.20833 148.717 7.13826 148.717 7.04545V7.02841C148.717 6.84848 148.66 6.70928 148.546 6.6108C148.434 6.51231 148.275 6.46307 148.069 6.46307C147.851 6.46307 147.678 6.51136 147.549 6.60795C147.42 6.70265 147.335 6.82197 147.293 6.96591L146.174 6.875C146.231 6.60985 146.343 6.38068 146.509 6.1875C146.676 5.99242 146.891 5.8428 147.154 5.73864C147.419 5.63258 147.726 5.57955 148.075 5.57955C148.317 5.57955 148.549 5.60795 148.771 5.66477C148.994 5.72159 149.192 5.80966 149.364 5.92898C149.539 6.0483 149.676 6.2017 149.776 6.3892C149.877 6.57481 149.927 6.79735 149.927 7.05682V10H148.779V9.39489H148.745C148.675 9.53125 148.581 9.65152 148.464 9.75568C148.346 9.85795 148.205 9.93845 148.04 9.99716C147.876 10.054 147.685 10.0824 147.469 10.0824ZM147.816 9.24716C147.994 9.24716 148.151 9.21212 148.288 9.14205C148.424 9.07008 148.531 8.97348 148.609 8.85227C148.686 8.73106 148.725 8.59375 148.725 8.44034V7.97727C148.687 8.00189 148.635 8.02462 148.569 8.04545C148.504 8.06439 148.432 8.08239 148.35 8.09943C148.269 8.11458 148.187 8.12879 148.106 8.14205C148.024 8.15341 147.951 8.16383 147.884 8.1733C147.742 8.19413 147.618 8.22727 147.512 8.27273C147.406 8.31818 147.324 8.37973 147.265 8.45739C147.206 8.53314 147.177 8.62784 147.177 8.74148C147.177 8.90625 147.237 9.0322 147.356 9.11932C147.477 9.20455 147.63 9.24716 147.816 9.24716ZM154.778 5.63636L153.252 10H151.888L150.363 5.63636H151.641L152.548 8.75852H152.593L153.496 5.63636H154.778ZM157.245 10.0852C156.796 10.0852 156.41 9.99432 156.086 9.8125C155.764 9.62879 155.516 9.36932 155.342 9.03409C155.167 8.69697 155.08 8.2983 155.08 7.83807C155.08 7.3892 155.167 6.99527 155.342 6.65625C155.516 6.31723 155.761 6.05303 156.077 5.86364C156.396 5.67424 156.769 5.57955 157.197 5.57955C157.485 5.57955 157.753 5.62595 158.001 5.71875C158.251 5.80966 158.469 5.94697 158.654 6.13068C158.842 6.31439 158.987 6.54545 159.092 6.82386C159.196 7.10038 159.248 7.42424 159.248 7.79545V8.12784H155.563V7.37784H158.109C158.109 7.2036 158.071 7.04924 157.995 6.91477C157.919 6.7803 157.814 6.67519 157.68 6.59943C157.547 6.52178 157.393 6.48295 157.217 6.48295C157.033 6.48295 156.87 6.52557 156.728 6.6108C156.588 6.69413 156.478 6.80682 156.398 6.94886C156.319 7.08902 156.278 7.24527 156.276 7.41761V8.13068C156.276 8.34659 156.316 8.53314 156.396 8.69034C156.477 8.84754 156.592 8.96875 156.739 9.05398C156.887 9.1392 157.062 9.18182 157.265 9.18182C157.399 9.18182 157.522 9.16288 157.634 9.125C157.746 9.08712 157.842 9.0303 157.921 8.95455C158.001 8.87879 158.061 8.78598 158.103 8.67614L159.222 8.75C159.165 9.01894 159.049 9.25379 158.873 9.45455C158.699 9.65341 158.473 9.80871 158.197 9.92045C157.922 10.0303 157.605 10.0852 157.245 10.0852ZM161.878 10V9.11364L163.949 7.19602C164.125 7.02557 164.273 6.87216 164.392 6.7358C164.513 6.59943 164.605 6.46591 164.668 6.33523C164.73 6.20265 164.761 6.05966 164.761 5.90625C164.761 5.7358 164.723 5.58902 164.645 5.46591C164.567 5.34091 164.461 5.24527 164.327 5.17898C164.192 5.1108 164.04 5.0767 163.869 5.0767C163.691 5.0767 163.536 5.11269 163.403 5.18466C163.271 5.25663 163.169 5.35985 163.097 5.49432C163.025 5.62879 162.989 5.78883 162.989 5.97443H161.821C161.821 5.59375 161.907 5.26326 162.08 4.98295C162.252 4.70265 162.493 4.4858 162.804 4.33239C163.115 4.17898 163.473 4.10227 163.878 4.10227C164.295 4.10227 164.657 4.17614 164.966 4.32386C165.277 4.4697 165.518 4.67235 165.69 4.93182C165.863 5.19129 165.949 5.48864 165.949 5.82386C165.949 6.04356 165.905 6.26042 165.818 6.47443C165.733 6.68845 165.58 6.92614 165.361 7.1875C165.141 7.44697 164.831 7.75852 164.432 8.12216L163.582 8.95455V8.99432H166.026V10H161.878ZM169.198 10.1278C168.71 10.1259 168.289 10.0057 167.937 9.76705C167.586 9.52841 167.317 9.18277 167.127 8.73011C166.94 8.27746 166.847 7.73295 166.849 7.09659C166.849 6.46212 166.942 5.9214 167.13 5.47443C167.319 5.02746 167.589 4.6875 167.94 4.45455C168.292 4.2197 168.711 4.10227 169.198 4.10227C169.685 4.10227 170.103 4.2197 170.454 4.45455C170.806 4.68939 171.077 5.0303 171.266 5.47727C171.456 5.92235 171.549 6.46212 171.548 7.09659C171.548 7.73485 171.453 8.2803 171.263 8.73295C171.076 9.18561 170.807 9.53125 170.457 9.76989C170.106 10.0085 169.687 10.1278 169.198 10.1278ZM169.198 9.10795C169.531 9.10795 169.798 8.94034 169.996 8.60511C170.195 8.26989 170.294 7.76705 170.292 7.09659C170.292 6.6553 170.246 6.28788 170.156 5.99432C170.067 5.70076 169.94 5.48011 169.775 5.33239C169.612 5.18466 169.42 5.1108 169.198 5.1108C168.867 5.1108 168.602 5.27652 168.403 5.60795C168.204 5.93939 168.103 6.43561 168.102 7.09659C168.102 7.54356 168.146 7.91667 168.235 8.21591C168.326 8.51326 168.454 8.73674 168.619 8.88636C168.783 9.03409 168.977 9.10795 169.198 9.10795ZM175.609 8.90909V8.60227C175.609 8.36932 175.659 8.1553 175.757 7.96023C175.857 7.76326 176.002 7.60606 176.192 7.48864C176.383 7.36932 176.616 7.30966 176.891 7.30966C177.169 7.30966 177.403 7.36837 177.592 7.4858C177.784 7.60322 177.928 7.76042 178.024 7.95739C178.123 8.15246 178.172 8.36742 178.172 8.60227V8.90909C178.172 9.14205 178.123 9.35701 178.024 9.55398C177.926 9.74905 177.781 9.9053 177.589 10.0227C177.398 10.142 177.165 10.2017 176.891 10.2017C176.612 10.2017 176.378 10.142 176.189 10.0227C176 9.9053 175.856 9.74905 175.757 9.55398C175.659 9.35701 175.609 9.14205 175.609 8.90909ZM176.436 8.60227V8.90909C176.436 9.04356 176.468 9.17045 176.533 9.28977C176.599 9.40909 176.718 9.46875 176.891 9.46875C177.063 9.46875 177.18 9.41004 177.243 9.29261C177.307 9.17519 177.339 9.04735 177.339 8.90909V8.60227C177.339 8.46402 177.309 8.33523 177.249 8.21591C177.188 8.09659 177.069 8.03693 176.891 8.03693C176.72 8.03693 176.602 8.09659 176.536 8.21591C176.469 8.33523 176.436 8.46402 176.436 8.60227ZM172.624 5.57955V5.27273C172.624 5.03788 172.674 4.82292 172.774 4.62784C172.875 4.43087 173.019 4.27367 173.209 4.15625C173.4 4.03883 173.631 3.98011 173.902 3.98011C174.182 3.98011 174.417 4.03883 174.607 4.15625C174.796 4.27367 174.94 4.43087 175.038 4.62784C175.137 4.82292 175.186 5.03788 175.186 5.27273V5.57955C175.186 5.81439 175.136 6.02936 175.036 6.22443C174.937 6.41951 174.792 6.57576 174.601 6.69318C174.411 6.80871 174.179 6.86648 173.902 6.86648C173.625 6.86648 173.392 6.80777 173.2 6.69034C173.011 6.57102 172.867 6.41477 172.768 6.22159C172.672 6.02651 172.624 5.8125 172.624 5.57955ZM173.456 5.27273V5.57955C173.456 5.7178 173.488 5.84564 173.553 5.96307C173.619 6.08049 173.735 6.1392 173.902 6.1392C174.076 6.1392 174.195 6.08049 174.257 5.96307C174.321 5.84564 174.354 5.7178 174.354 5.57955V5.27273C174.354 5.13447 174.323 5.00568 174.263 4.88636C174.202 4.76705 174.082 4.70739 173.902 4.70739C173.733 4.70739 173.617 4.76799 173.553 4.8892C173.488 5.01042 173.456 5.13826 173.456 5.27273ZM172.999 10L176.999 4.18182H177.743L173.743 10H172.999Z" fill="white"/>
<path d="M16.5 3C16.5 1.89543 17.3954 1 18.5 1H54.5C55.6046 1 56.5 1.89543 56.5 3V15H16.5V3Z" fill="#6678A6"/>
<path d="M23.5739 11V5.18182H25.8011C26.2216 5.18182 26.571 5.24811 26.8494 5.38068C27.1297 5.51136 27.339 5.69034 27.4773 5.91761C27.6174 6.14489 27.6875 6.40246 27.6875 6.69034C27.6875 6.92708 27.642 7.12973 27.5511 7.2983C27.4602 7.46496 27.3381 7.60038 27.1847 7.70455C27.0312 7.80871 26.8598 7.88352 26.6705 7.92898V7.9858C26.8769 7.99716 27.0748 8.06061 27.2642 8.17614C27.4555 8.28977 27.6117 8.45076 27.733 8.65909C27.8542 8.86742 27.9148 9.11932 27.9148 9.41477C27.9148 9.71591 27.8419 9.98674 27.696 10.2273C27.5502 10.4659 27.3305 10.6544 27.0369 10.7926C26.7434 10.9309 26.3741 11 25.929 11H23.5739ZM24.6278 10.1193H25.7614C26.1439 10.1193 26.4195 10.0464 26.5881 9.90057C26.7585 9.75284 26.8438 9.56345 26.8438 9.33239C26.8438 9.16004 26.8011 9.00473 26.7159 8.86648C26.6307 8.72633 26.5095 8.61648 26.3523 8.53693C26.1951 8.45549 26.0076 8.41477 25.7898 8.41477H24.6278V10.1193ZM24.6278 7.65625H25.6705C25.8523 7.65625 26.0161 7.62311 26.1619 7.55682C26.3078 7.48864 26.4223 7.39299 26.5057 7.26989C26.5909 7.14489 26.6335 6.99716 26.6335 6.8267C26.6335 6.60133 26.554 6.41572 26.3949 6.26989C26.2377 6.12405 26.0038 6.05114 25.6932 6.05114H24.6278V7.65625ZM31.5675 9.16477V6.63636H32.5959V11H31.5987V10.2244H31.5533C31.4548 10.4687 31.2929 10.6686 31.0675 10.8239C30.844 10.9792 30.5684 11.0568 30.2408 11.0568C29.9548 11.0568 29.7019 10.9934 29.4822 10.8665C29.2644 10.7377 29.094 10.5511 28.9709 10.3068C28.8478 10.0606 28.7862 9.76326 28.7862 9.41477V6.63636H29.8146V9.25568C29.8146 9.5322 29.8904 9.75189 30.0419 9.91477C30.1934 10.0777 30.3923 10.1591 30.6385 10.1591C30.79 10.1591 30.9368 10.1222 31.0788 10.0483C31.2209 9.97443 31.3374 9.86458 31.4283 9.71875C31.5211 9.57102 31.5675 9.38636 31.5675 9.16477ZM34.2926 12.6364C34.1525 12.6364 34.0227 12.625 33.9034 12.6023C33.786 12.5814 33.6922 12.5568 33.6222 12.5284L33.8608 11.7273C34.0104 11.7708 34.1439 11.7917 34.2614 11.7898C34.3788 11.7879 34.482 11.7509 34.571 11.679C34.6619 11.6089 34.7386 11.4915 34.8011 11.3267L34.8892 11.0909L33.3068 6.63636H34.3977L35.4034 9.93182H35.4489L36.4574 6.63636H37.5511L35.804 11.5284C35.7225 11.7595 35.6146 11.9574 35.4801 12.1222C35.3456 12.2888 35.1809 12.4157 34.9858 12.5028C34.7926 12.5919 34.5616 12.6364 34.2926 12.6364ZM41.0398 11H39.9148L41.9631 5.18182H43.2642L45.3153 11H44.1903L42.6364 6.375H42.5909L41.0398 11ZM41.0767 8.71875H44.1449V9.56534H41.0767V8.71875ZM47.0646 5.18182V11H46.0362V5.18182H47.0646ZM49.1506 5.18182V11H48.1222V5.18182H49.1506Z" fill="white"/>
<rect x="0.5" y="15" width="199" height="89" rx="5.5" fill="white"/>
<rect x="0.5" y="15" width="199" height="89" rx="5.5" stroke="#DEDEDE"/>
<rect x="16.5" y="79.5" width="18" height="4" rx="0.8" fill="#DADBDD"/>
<rect x="16.5" y="86.5" width="42" height="4" rx="0.8" fill="#E9E9E9"/>
<rect x="16" y="29.5" width="46" height="46" rx="4" fill="#F1F1F1"/>
<path d="M47.6108 45.2322H46.4807V47.3359C46.4806 47.6239 46.3653 47.9 46.1602 48.1037C45.9551 48.3074 45.6769 48.422 45.3867 48.4224C45.3061 48.4222 45.2258 48.4133 45.1471 48.3957L39.3615 47.1095C39.227 47.0798 39.0994 47.0254 38.9852 46.9489C38.8709 47.0252 38.7433 47.0797 38.6089 47.1095L32.8232 48.3957C32.7444 48.4132 32.6639 48.4222 32.5832 48.4224C32.2931 48.4218 32.0151 48.3071 31.8101 48.1034C31.6051 47.8998 31.4898 47.6237 31.4896 47.3359V45.7184H30.6204C30.3234 45.7184 30.0385 45.8355 29.8285 46.044C29.6185 46.2524 29.5005 46.5351 29.5005 46.8298V61.8786C29.5006 62.043 29.5665 62.2007 29.6836 62.317C29.8008 62.4332 29.9597 62.4986 30.1254 62.4987H38.531V47.9944L39.51 47.9788V62.4987H47.8743C48.0401 62.4987 48.199 62.4334 48.3162 62.3171C48.4334 62.2008 48.4992 62.0431 48.4992 61.8786V46.1147C48.4992 45.8808 48.4056 45.6564 48.2391 45.491C48.0725 45.3255 47.8465 45.2324 47.6108 45.2322ZM41.7597 51.9187H46.1521V52.8903H41.7597V51.9187Z" fill="#7BA2FE"/>
<path d="M32.8699 42.541L38.6551 45.7814C38.7097 45.812 38.7537 45.8584 38.7812 45.9143C38.8087 45.9702 38.8185 46.0331 38.8093 46.0947C38.8001 46.1562 38.7723 46.2136 38.7296 46.2592C38.6869 46.3047 38.6312 46.3364 38.57 46.3499L32.7852 47.6366C32.7398 47.6467 32.6927 47.6465 32.6474 47.6361C32.6021 47.6257 32.5597 47.6052 32.5234 47.5764C32.4871 47.5475 32.4578 47.5109 32.4377 47.4693C32.4176 47.4276 32.4072 47.382 32.4072 47.3359V42.8071C32.4076 42.7535 32.4221 42.7009 32.4492 42.6545C32.4763 42.6082 32.5152 42.5697 32.5619 42.5428C32.6087 42.5159 32.6617 42.5016 32.7157 42.5013C32.7697 42.501 32.8229 42.5146 32.8699 42.541Z" fill="#004BFF"/>
<path d="M39.4477 45.7814L45.2333 42.541C45.2804 42.5147 45.3336 42.501 45.3876 42.5013C45.4417 42.5017 45.4947 42.516 45.5415 42.5428C45.5882 42.5697 45.6271 42.6082 45.6543 42.6546C45.6815 42.7009 45.696 42.7535 45.6965 42.8071V47.3359C45.6965 47.382 45.6861 47.4276 45.666 47.4693C45.6459 47.5109 45.6166 47.5475 45.5803 47.5764C45.544 47.6052 45.5016 47.6257 45.4563 47.6361C45.411 47.6465 45.3639 47.6467 45.3185 47.6366L39.5324 46.35C39.4712 46.3363 39.4156 46.3046 39.373 46.259C39.3303 46.2134 39.3025 46.1561 39.2934 46.0945C39.2842 46.033 39.294 45.9701 39.3216 45.9142C39.3491 45.8583 39.3931 45.812 39.4477 45.7814Z" fill="#004BFF"/>
<rect x="77" y="29.5" width="46" height="46" rx="4" fill="#F1F1F1"/>
<path d="M91.6379 45.4102L89.9561 49.6724L91.6379 62.5H102.374V45.4102H91.6379ZM99.8754 50.1815C99.88 50.5992 99.8017 51.0136 99.645 51.4008C99.4884 51.788 99.2565 52.1403 98.9627 52.4373C98.669 52.7342 98.3193 52.97 97.9338 53.1309C97.5484 53.2918 97.1348 53.3747 96.7171 53.3747C96.2994 53.3747 95.8859 53.2918 95.5004 53.1309C95.1149 52.97 94.7652 52.7342 94.4715 52.4373C94.1778 52.1403 93.9459 51.788 93.7892 51.4008C93.6325 51.0136 93.5542 50.5992 93.5588 50.1815V47.0055C93.5588 46.9061 93.5983 46.8109 93.6685 46.7407C93.7387 46.6704 93.834 46.631 93.9333 46.631H99.5013C99.6006 46.631 99.6959 46.6704 99.7661 46.7407C99.8363 46.8109 99.8758 46.9061 99.8758 47.0055L99.8754 50.1815Z" fill="#7BA2FE"/>
<path d="M102.338 42.5H91.6736V44.4244H102.338V42.5Z" fill="#7BA2FE"/>
<path d="M103.269 62.5L110.044 53.9551L104.71 50.4099L103.269 52.2996V62.5Z" fill="#7BA2FE"/>
<path d="M94.3088 47.3815H99.1273V50.183C99.1314 50.502 99.072 50.8185 98.9527 51.1143C98.8335 51.4102 98.6566 51.6794 98.4325 51.9063C98.2084 52.1333 97.9414 52.3135 97.6471 52.4365C97.3528 52.5595 97.037 52.6228 96.7181 52.6228C96.3991 52.6228 96.0833 52.5595 95.789 52.4365C95.4947 52.3135 95.2277 52.1333 95.0036 51.9063C94.7795 51.6794 94.6027 51.4102 94.4834 51.1143C94.3641 50.8185 94.3048 50.502 94.3088 50.183V47.3815Z" fill="#004BFF"/>
<rect x="77.5" y="79.5" width="18" height="4" rx="0.8" fill="#DADBDD"/>
<rect x="77.5" y="86.5" width="42" height="4" rx="0.8" fill="#E9E9E9"/>
<rect x="138" y="29.5" width="46" height="46" rx="4" fill="#F1F1F1"/>
<path d="M172.125 53.4111L172.016 57.3246C172.012 57.4156 171.973 57.5015 171.907 57.5642C171.841 57.6268 171.753 57.6612 171.662 57.66H166.069C165.974 57.6603 165.883 57.6231 165.816 57.5566C165.783 57.5242 165.758 57.4855 165.74 57.4429C165.723 57.4002 165.715 57.3546 165.716 57.3087L165.734 56.4332C159.988 57.66 157.808 58 155.757 58C155.324 58 154.907 57.9852 154.483 57.9549C153.22 57.8642 151.964 57.6835 150.727 57.4141L150.237 57.3087C150.178 57.2968 150.122 57.2731 150.072 57.2393C150.022 57.2054 149.98 57.1619 149.947 57.1114C149.914 57.0609 149.892 57.0043 149.882 56.9451C149.871 56.8858 149.872 56.8251 149.886 56.7664L150.104 55.8158C150.117 55.7574 150.142 55.7022 150.177 55.6535C150.212 55.6048 150.257 55.5636 150.308 55.5323L150.318 55.527L150.331 55.5194C150.431 55.4646 150.548 55.4482 150.659 55.4732L151.027 55.5536L151.147 55.5797C152.292 55.829 153.454 55.9961 154.623 56.0796L154.721 56.0872C155.925 56.1755 157.575 56.2956 166.467 54.3499C167.766 54.0652 169.086 53.7613 170.389 53.4459C170.556 53.4058 170.726 53.3592 170.894 53.3076L171.432 53.1435L171.665 53.0726C171.712 53.0585 171.761 53.0539 171.809 53.059C171.873 53.0655 171.933 53.0889 171.985 53.1268C172.051 53.175 172.097 53.2451 172.116 53.3247C172.123 53.3529 172.126 53.382 172.125 53.4111Z" fill="#004BFF"/>
<path d="M172.115 50.2389C172.046 48.7619 171.608 47.7269 170.782 47.0757C170.72 47.0267 170.644 47 170.565 47C170.486 47 170.409 47.0267 170.348 47.0757C169.68 47.6113 168.561 48.2506 165.822 48.4371C163.929 48.5675 162.453 47.7928 161.907 47.4517C161.83 47.4039 161.738 47.3876 161.65 47.4061C161.562 47.4246 161.484 47.4765 161.434 47.551C161.15 47.9698 160.819 48.3549 160.448 48.6986L161.022 49.1178L161.635 49.5669C161.672 49.594 161.703 49.6281 161.727 49.6672C161.751 49.7063 161.767 49.7498 161.774 49.795C161.781 49.8403 161.779 49.8865 161.768 49.931C161.757 49.9755 161.737 50.0174 161.71 50.0543C161.683 50.0912 161.649 50.1225 161.61 50.1462C161.571 50.17 161.527 50.1858 161.482 50.1928C161.437 50.1997 161.391 50.1977 161.346 50.1868C161.302 50.1759 161.26 50.1564 161.223 50.1293L160.479 49.5847L159.89 49.1542C159.542 49.4045 159.169 49.6188 158.778 49.7935L159.419 50.2593L159.889 50.6035C159.926 50.6305 159.957 50.6645 159.981 50.7036C160.005 50.7427 160.021 50.7861 160.028 50.8313C160.035 50.8766 160.033 50.9227 160.022 50.9672C160.011 51.0116 159.992 51.0535 159.965 51.0905C159.938 51.1274 159.904 51.1586 159.865 51.1824C159.825 51.2062 159.782 51.222 159.737 51.229C159.692 51.236 159.645 51.2341 159.601 51.2232C159.557 51.2124 159.515 51.1929 159.478 51.1659L158.69 50.5879L158.015 50.1017C157.842 50.1684 157.665 50.2242 157.485 50.2688C155.7 50.6372 154.604 50.6967 153.801 50.7407C152.686 50.8013 152.126 50.832 151.409 51.7321C150.691 52.6322 150.481 53.7776 150.375 54.6527L151.057 54.8388L151.177 54.8653C152.328 55.1172 153.495 55.2862 154.669 55.3709L154.767 55.3781C155.976 55.4671 157.633 55.5888 166.565 53.6218C167.87 53.3341 169.196 53.0268 170.506 52.708C170.674 52.6675 170.844 52.6205 171.013 52.5686L171.553 52.4026L171.788 52.3306C171.834 52.3163 171.883 52.3116 171.932 52.3169C172.091 51.6364 172.152 50.9367 172.115 50.2389Z" fill="#7BA2FE"/>
<rect x="138.5" y="79.5" width="18" height="4" rx="0.8" fill="#DADBDD"/>
<rect x="138.5" y="86.5" width="42" height="4" rx="0.8" fill="#E9E9E9"/>
</svg>
