<svg width="200" height="105" viewBox="0 0 200 105" fill="none" xmlns="http://www.w3.org/2000/svg">
<path d="M135.5 2C135.5 0.89543 136.395 0 137.5 0H181.5C182.605 0 183.5 0.895431 183.5 2V15H135.5V2Z" fill="#004BFF"/>
<path d="M144.236 5.78125C144.209 5.53314 144.098 5.33996 143.901 5.2017C143.705 5.06345 143.452 4.99432 143.139 4.99432C142.92 4.99432 142.731 5.02746 142.574 5.09375C142.417 5.16004 142.296 5.25 142.213 5.36364C142.13 5.47727 142.087 5.60701 142.085 5.75284C142.085 5.87405 142.113 5.97917 142.168 6.06818C142.224 6.1572 142.301 6.23295 142.398 6.29545C142.494 6.35606 142.601 6.4072 142.719 6.44886C142.836 6.49053 142.955 6.52557 143.074 6.55398L143.619 6.69034C143.839 6.74148 144.05 6.81061 144.253 6.89773C144.457 6.98485 144.64 7.0947 144.801 7.22727C144.964 7.35985 145.093 7.51989 145.188 7.70739C145.282 7.89489 145.33 8.11458 145.33 8.36648C145.33 8.70739 145.242 9.00758 145.068 9.26705C144.894 9.52462 144.642 9.72633 144.312 9.87216C143.985 10.0161 143.588 10.0881 143.122 10.0881C142.67 10.0881 142.277 10.018 141.943 9.87784C141.612 9.73769 141.352 9.53314 141.165 9.2642C140.979 8.99527 140.879 8.66761 140.864 8.28125H141.901C141.916 8.4839 141.978 8.65246 142.088 8.78693C142.198 8.9214 142.341 9.02178 142.517 9.08807C142.695 9.15436 142.894 9.1875 143.114 9.1875C143.343 9.1875 143.544 9.15341 143.716 9.08523C143.89 9.01515 144.027 8.91856 144.125 8.79545C144.223 8.67045 144.274 8.52462 144.276 8.35795C144.274 8.20644 144.229 8.08144 144.142 7.98295C144.055 7.88258 143.933 7.79924 143.776 7.73295C143.62 7.66477 143.438 7.60417 143.23 7.55114L142.568 7.38068C142.089 7.25758 141.71 7.07102 141.432 6.82102C141.155 6.56913 141.017 6.23485 141.017 5.81818C141.017 5.47538 141.11 5.17519 141.295 4.91761C141.483 4.66004 141.738 4.46023 142.06 4.31818C142.382 4.17424 142.746 4.10227 143.153 4.10227C143.566 4.10227 143.928 4.17424 144.239 4.31818C144.551 4.46023 144.796 4.65814 144.974 4.91193C145.152 5.16383 145.244 5.4536 145.25 5.78125H144.236ZM147.479 10.0881C147.203 10.0881 146.954 10.0388 146.732 9.94034C146.513 9.83996 146.338 9.69223 146.21 9.49716C146.083 9.30208 146.019 9.06155 146.019 8.77557C146.019 8.52936 146.065 8.32576 146.156 8.16477C146.246 8.00379 146.371 7.875 146.528 7.77841C146.685 7.68182 146.862 7.6089 147.059 7.55966C147.258 7.50852 147.463 7.47159 147.675 7.44886C147.931 7.42235 148.138 7.39867 148.298 7.37784C148.457 7.35511 148.572 7.32102 148.644 7.27557C148.718 7.22822 148.755 7.1553 148.755 7.05682V7.03977C148.755 6.82576 148.692 6.66004 148.565 6.54261C148.438 6.42519 148.255 6.36648 148.016 6.36648C147.764 6.36648 147.565 6.4214 147.417 6.53125C147.271 6.6411 147.173 6.77083 147.121 6.92045L146.161 6.78409C146.237 6.51894 146.362 6.29735 146.536 6.11932C146.71 5.93939 146.924 5.80492 147.175 5.71591C147.427 5.625 147.706 5.57955 148.011 5.57955C148.221 5.57955 148.43 5.60417 148.638 5.65341C148.847 5.70265 149.037 5.78409 149.21 5.89773C149.382 6.00947 149.52 6.16193 149.624 6.35511C149.73 6.5483 149.783 6.78977 149.783 7.07955V10H148.795V9.40057H148.761C148.698 9.52178 148.61 9.63542 148.496 9.74148C148.385 9.84564 148.244 9.92992 148.073 9.99432C147.905 10.0568 147.707 10.0881 147.479 10.0881ZM147.746 9.33239C147.953 9.33239 148.132 9.29167 148.283 9.21023C148.435 9.12689 148.551 9.01705 148.633 8.88068C148.716 8.74432 148.758 8.59564 148.758 8.43466V7.92045C148.726 7.94697 148.671 7.97159 148.593 7.99432C148.517 8.01705 148.432 8.03693 148.337 8.05398C148.243 8.07102 148.149 8.08617 148.056 8.09943C147.963 8.11269 147.883 8.12405 147.815 8.13352C147.661 8.15436 147.524 8.18845 147.403 8.2358C147.281 8.28314 147.186 8.34943 147.116 8.43466C147.046 8.51799 147.011 8.62595 147.011 8.75852C147.011 8.94792 147.08 9.09091 147.218 9.1875C147.356 9.28409 147.532 9.33239 147.746 9.33239ZM154.559 5.63636L153.005 10H151.869L150.315 5.63636H151.411L152.414 8.87784H152.46L153.465 5.63636H154.559ZM157.054 10.0852C156.616 10.0852 156.239 9.99432 155.92 9.8125C155.604 9.62879 155.361 9.36932 155.19 9.03409C155.02 8.69697 154.935 8.30019 154.935 7.84375C154.935 7.39489 155.02 7.00095 155.19 6.66193C155.363 6.32102 155.603 6.05587 155.912 5.86648C156.221 5.67519 156.583 5.57955 157 5.57955C157.269 5.57955 157.523 5.62311 157.761 5.71023C158.002 5.79545 158.214 5.92803 158.398 6.10795C158.583 6.28788 158.729 6.51705 158.835 6.79545C158.941 7.07197 158.994 7.40152 158.994 7.78409V8.09943H155.418V7.40625H158.009C158.007 7.20928 157.964 7.03409 157.881 6.88068C157.797 6.72538 157.681 6.60322 157.531 6.5142C157.384 6.42519 157.211 6.38068 157.014 6.38068C156.804 6.38068 156.619 6.43182 156.46 6.53409C156.301 6.63447 156.177 6.76705 156.088 6.93182C156.001 7.0947 155.956 7.27367 155.955 7.46875V8.07386C155.955 8.32765 156.001 8.54545 156.094 8.72727C156.187 8.9072 156.316 9.04545 156.483 9.14205C156.65 9.23674 156.845 9.28409 157.068 9.28409C157.218 9.28409 157.353 9.26326 157.474 9.22159C157.596 9.17803 157.701 9.11458 157.79 9.03125C157.879 8.94792 157.946 8.8447 157.991 8.72159L158.952 8.82955C158.891 9.08333 158.776 9.30492 158.605 9.49432C158.437 9.68182 158.221 9.82765 157.957 9.93182C157.694 10.0341 157.393 10.0852 157.054 10.0852ZM164.44 4.18182V10H163.036V5.49432H163.002L161.701 6.28977V5.07386L163.136 4.18182H164.44ZM168.132 10.142C167.625 10.142 167.187 10.0218 166.82 9.78125C166.452 9.53883 166.169 9.19129 165.97 8.73864C165.771 8.28409 165.673 7.73769 165.675 7.09943C165.677 6.46117 165.776 5.91951 165.973 5.47443C166.172 5.02746 166.454 4.6875 166.82 4.45455C167.187 4.2197 167.625 4.10227 168.132 4.10227C168.64 4.10227 169.077 4.2197 169.445 4.45455C169.814 4.6875 170.098 5.02746 170.297 5.47443C170.496 5.9214 170.594 6.46307 170.592 7.09943C170.592 7.73958 170.493 8.28693 170.294 8.74148C170.095 9.19602 169.812 9.54356 169.445 9.78409C169.079 10.0227 168.642 10.142 168.132 10.142ZM168.132 8.99148C168.435 8.99148 168.68 8.83712 168.868 8.52841C169.055 8.2178 169.148 7.74148 169.146 7.09943C169.146 6.67898 169.104 6.33239 169.018 6.05966C168.933 5.78504 168.815 5.58049 168.663 5.44602C168.512 5.31155 168.335 5.24432 168.132 5.24432C167.831 5.24432 167.588 5.39678 167.402 5.7017C167.216 6.00473 167.123 6.47064 167.121 7.09943C167.119 7.52557 167.16 7.87879 167.243 8.15909C167.328 8.43939 167.447 8.64867 167.601 8.78693C167.754 8.9233 167.931 8.99148 168.132 8.99148ZM174.656 8.90909V8.60227C174.656 8.36364 174.707 8.14299 174.81 7.94034C174.914 7.73769 175.064 7.57481 175.261 7.4517C175.458 7.3286 175.699 7.26705 175.983 7.26705C176.273 7.26705 176.516 7.3286 176.713 7.4517C176.912 7.57292 177.062 7.73485 177.162 7.9375C177.264 8.13826 177.315 8.35985 177.315 8.60227V8.90909C177.315 9.14773 177.264 9.36837 177.162 9.57102C177.06 9.77367 176.909 9.93655 176.71 10.0597C176.511 10.1828 176.269 10.2443 175.983 10.2443C175.695 10.2443 175.453 10.1828 175.256 10.0597C175.059 9.93655 174.909 9.77367 174.807 9.57102C174.706 9.36837 174.656 9.14773 174.656 8.90909ZM175.562 8.60227V8.90909C175.562 9.0303 175.592 9.14678 175.651 9.25852C175.711 9.37027 175.822 9.42614 175.983 9.42614C176.148 9.42614 176.259 9.37216 176.315 9.2642C176.372 9.15436 176.401 9.03598 176.401 8.90909V8.60227C176.401 8.47538 176.373 8.35606 176.318 8.24432C176.265 8.13068 176.153 8.07386 175.983 8.07386C175.824 8.07386 175.714 8.13068 175.653 8.24432C175.593 8.35606 175.562 8.47538 175.562 8.60227ZM171.639 5.57955V5.27273C171.639 5.0303 171.691 4.80871 171.795 4.60795C171.902 4.4053 172.053 4.24337 172.25 4.12216C172.447 3.99905 172.686 3.9375 172.966 3.9375C173.256 3.9375 173.499 3.99905 173.696 4.12216C173.895 4.24337 174.045 4.4053 174.148 4.60795C174.25 4.80871 174.301 5.0303 174.301 5.27273V5.57955C174.301 5.82197 174.249 6.04356 174.145 6.24432C174.043 6.44508 173.892 6.60511 173.693 6.72443C173.494 6.84375 173.252 6.90341 172.966 6.90341C172.68 6.90341 172.438 6.8428 172.239 6.72159C172.042 6.60038 171.892 6.43939 171.79 6.23864C171.689 6.03788 171.639 5.81818 171.639 5.57955ZM172.554 5.27273V5.57955C172.554 5.70644 172.583 5.82481 172.642 5.93466C172.703 6.04261 172.811 6.09659 172.966 6.09659C173.133 6.09659 173.243 6.04261 173.298 5.93466C173.355 5.82481 173.384 5.70644 173.384 5.57955V5.27273C173.384 5.14583 173.357 5.02651 173.304 4.91477C173.251 4.80114 173.138 4.74432 172.966 4.74432C172.807 4.74432 172.698 4.80208 172.639 4.91761C172.582 5.03314 172.554 5.15152 172.554 5.27273ZM172.068 10L176.068 4.18182H176.844L172.844 10H172.068Z" fill="white"/>
<path d="M90.5 0.5C91.8807 0.5 93 1.61929 93 3V15.5H15V3L15.0127 2.74414C15.1408 1.48361 16.2057 0.5 17.5 0.5H90.5Z" fill="white"/>
<path d="M90.5 0.5C91.8807 0.5 93 1.61929 93 3V15.5H15V3L15.0127 2.74414C15.1408 1.48361 16.2057 0.5 17.5 0.5H90.5Z" stroke="#DEDEDE"/>
<path d="M22.5739 11V5.18182H24.8011C25.2216 5.18182 25.571 5.24811 25.8494 5.38068C26.1297 5.51136 26.339 5.69034 26.4773 5.91761C26.6174 6.14489 26.6875 6.40246 26.6875 6.69034C26.6875 6.92708 26.642 7.12973 26.5511 7.2983C26.4602 7.46496 26.3381 7.60038 26.1847 7.70455C26.0312 7.80871 25.8598 7.88352 25.6705 7.92898V7.9858C25.8769 7.99716 26.0748 8.06061 26.2642 8.17614C26.4555 8.28977 26.6117 8.45076 26.733 8.65909C26.8542 8.86742 26.9148 9.11932 26.9148 9.41477C26.9148 9.71591 26.8419 9.98674 26.696 10.2273C26.5502 10.4659 26.3305 10.6544 26.0369 10.7926C25.7434 10.9309 25.3741 11 24.929 11H22.5739ZM23.6278 10.1193H24.7614C25.1439 10.1193 25.4195 10.0464 25.5881 9.90057C25.7585 9.75284 25.8438 9.56345 25.8438 9.33239C25.8438 9.16004 25.8011 9.00473 25.7159 8.86648C25.6307 8.72633 25.5095 8.61648 25.3523 8.53693C25.1951 8.45549 25.0076 8.41477 24.7898 8.41477H23.6278V10.1193ZM23.6278 7.65625H24.6705C24.8523 7.65625 25.0161 7.62311 25.1619 7.55682C25.3078 7.48864 25.4223 7.39299 25.5057 7.26989C25.5909 7.14489 25.6335 6.99716 25.6335 6.8267C25.6335 6.60133 25.554 6.41572 25.3949 6.26989C25.2377 6.12405 25.0038 6.05114 24.6932 6.05114H23.6278V7.65625ZM29.6896 11.0852C29.2635 11.0852 28.8942 10.9915 28.5817 10.804C28.2692 10.6165 28.0268 10.3542 27.8544 10.017C27.6839 9.67992 27.5987 9.28598 27.5987 8.83523C27.5987 8.38447 27.6839 7.98958 27.8544 7.65057C28.0268 7.31155 28.2692 7.0483 28.5817 6.8608C28.8942 6.6733 29.2635 6.57955 29.6896 6.57955C30.1158 6.57955 30.4851 6.6733 30.7976 6.8608C31.1101 7.0483 31.3516 7.31155 31.522 7.65057C31.6944 7.98958 31.7805 8.38447 31.7805 8.83523C31.7805 9.28598 31.6944 9.67992 31.522 10.017C31.3516 10.3542 31.1101 10.6165 30.7976 10.804C30.4851 10.9915 30.1158 11.0852 29.6896 11.0852ZM29.6953 10.2614C29.9264 10.2614 30.1196 10.1979 30.2749 10.071C30.4302 9.94223 30.5457 9.76989 30.6214 9.55398C30.6991 9.33807 30.7379 9.09754 30.7379 8.83239C30.7379 8.56534 30.6991 8.32386 30.6214 8.10795C30.5457 7.89015 30.4302 7.71686 30.2749 7.58807C30.1196 7.45928 29.9264 7.39489 29.6953 7.39489C29.4586 7.39489 29.2616 7.45928 29.1044 7.58807C28.9491 7.71686 28.8326 7.89015 28.755 8.10795C28.6792 8.32386 28.6413 8.56534 28.6413 8.83239C28.6413 9.09754 28.6792 9.33807 28.755 9.55398C28.8326 9.76989 28.9491 9.94223 29.1044 10.071C29.2616 10.1979 29.4586 10.2614 29.6953 10.2614ZM35.4347 9.16477V6.63636H36.4631V11H35.4659V10.2244H35.4205C35.322 10.4687 35.16 10.6686 34.9347 10.8239C34.7112 10.9792 34.4356 11.0568 34.108 11.0568C33.822 11.0568 33.5691 10.9934 33.3494 10.8665C33.1316 10.7377 32.9612 10.5511 32.8381 10.3068C32.715 10.0606 32.6534 9.76326 32.6534 9.41477V6.63636H33.6818V9.25568C33.6818 9.5322 33.7576 9.75189 33.9091 9.91477C34.0606 10.0777 34.2595 10.1591 34.5057 10.1591C34.6572 10.1591 34.804 10.1222 34.946 10.0483C35.0881 9.97443 35.2045 9.86458 35.2955 9.71875C35.3883 9.57102 35.4347 9.38636 35.4347 9.16477ZM39.4183 12.7273C39.049 12.7273 38.7318 12.6771 38.4666 12.5767C38.2015 12.4782 37.9884 12.3456 37.8274 12.179C37.6664 12.0123 37.5547 11.8277 37.4922 11.625L38.4183 11.4006C38.46 11.4858 38.5206 11.5701 38.6001 11.6534C38.6797 11.7386 38.7867 11.8087 38.9212 11.8636C39.0575 11.9205 39.2289 11.9489 39.4354 11.9489C39.727 11.9489 39.9685 11.8778 40.1598 11.7358C40.3511 11.5956 40.4467 11.3646 40.4467 11.0426V10.2159H40.3956C40.3426 10.322 40.2649 10.4309 40.1626 10.5426C40.0623 10.6544 39.9287 10.7481 39.7621 10.8239C39.5973 10.8996 39.3899 10.9375 39.1399 10.9375C38.8047 10.9375 38.5007 10.8589 38.228 10.7017C37.9571 10.5426 37.7412 10.3059 37.5803 9.99148C37.4212 9.67519 37.3416 9.27936 37.3416 8.80398C37.3416 8.32481 37.4212 7.92045 37.5803 7.59091C37.7412 7.25947 37.9581 7.00852 38.2308 6.83807C38.5036 6.66572 38.8075 6.57955 39.1428 6.57955C39.3984 6.57955 39.6087 6.62311 39.7734 6.71023C39.9401 6.79545 40.0727 6.89867 40.1712 7.01989C40.2696 7.1392 40.3445 7.25189 40.3956 7.35795H40.4524V6.63636H41.4666V11.071C41.4666 11.4441 41.3776 11.7528 41.1996 11.9972C41.0215 12.2415 40.7782 12.4242 40.4695 12.5455C40.1607 12.6667 39.8104 12.7273 39.4183 12.7273ZM39.4268 10.1307C39.6446 10.1307 39.8303 10.0777 39.9837 9.97159C40.1371 9.86553 40.2536 9.71307 40.3331 9.5142C40.4126 9.31534 40.4524 9.0767 40.4524 8.7983C40.4524 8.52367 40.4126 8.28314 40.3331 8.0767C40.2554 7.87027 40.1399 7.71023 39.9865 7.59659C39.835 7.48106 39.6484 7.4233 39.4268 7.4233C39.1977 7.4233 39.0064 7.48295 38.853 7.60227C38.6996 7.72159 38.584 7.88542 38.5064 8.09375C38.4287 8.30019 38.3899 8.53504 38.3899 8.7983C38.3899 9.06534 38.4287 9.29924 38.5064 9.5C38.5859 9.69886 38.7024 9.85417 38.8558 9.96591C39.0111 10.0758 39.2015 10.1307 39.4268 10.1307ZM43.549 8.44318V11H42.5206V5.18182H43.5263V7.37784H43.5774C43.6797 7.13163 43.8378 6.9375 44.0518 6.79545C44.2678 6.65152 44.5424 6.57955 44.8757 6.57955C45.1787 6.57955 45.4429 6.64299 45.6683 6.76989C45.8937 6.89678 46.0679 7.08239 46.1911 7.3267C46.3161 7.57102 46.3786 7.86932 46.3786 8.22159V11H45.3501V8.38068C45.3501 8.08712 45.2744 7.8589 45.1229 7.69602C44.9732 7.53125 44.763 7.44886 44.4922 7.44886C44.3104 7.44886 44.1475 7.48864 44.0036 7.56818C43.8615 7.64583 43.7498 7.75852 43.6683 7.90625C43.5888 8.05398 43.549 8.23295 43.549 8.44318ZM49.6058 6.63636V7.43182H47.0973V6.63636H49.6058ZM47.7166 5.59091H48.745V9.6875C48.745 9.82576 48.7659 9.93182 48.8075 10.0057C48.8511 10.0777 48.9079 10.1269 48.978 10.1534C49.0481 10.1799 49.1257 10.1932 49.2109 10.1932C49.2753 10.1932 49.334 10.1884 49.3871 10.179C49.442 10.1695 49.4837 10.161 49.5121 10.1534L49.6854 10.9574C49.6304 10.9763 49.5518 10.9972 49.4496 11.0199C49.3492 11.0426 49.2261 11.0559 49.0803 11.0597C48.8227 11.0672 48.5907 11.0284 48.3842 10.9432C48.1778 10.8561 48.014 10.7216 47.8928 10.5398C47.7734 10.358 47.7147 10.1307 47.7166 9.85795V5.59091ZM54.6293 6.63636V7.43182H52.1207V6.63636H54.6293ZM52.7401 5.59091H53.7685V9.6875C53.7685 9.82576 53.7893 9.93182 53.831 10.0057C53.8745 10.0777 53.9313 10.1269 54.0014 10.1534C54.0715 10.1799 54.1491 10.1932 54.2344 10.1932C54.2988 10.1932 54.3575 10.1884 54.4105 10.179C54.4654 10.1695 54.5071 10.161 54.5355 10.1534L54.7088 10.9574C54.6539 10.9763 54.5753 10.9972 54.473 11.0199C54.3726 11.0426 54.2495 11.0559 54.1037 11.0597C53.8461 11.0672 53.6141 11.0284 53.4077 10.9432C53.2012 10.8561 53.0374 10.7216 52.9162 10.5398C52.7969 10.358 52.7382 10.1307 52.7401 9.85795V5.59091ZM57.3459 11.0852C56.9197 11.0852 56.5504 10.9915 56.2379 10.804C55.9254 10.6165 55.683 10.3542 55.5107 10.017C55.3402 9.67992 55.255 9.28598 55.255 8.83523C55.255 8.38447 55.3402 7.98958 55.5107 7.65057C55.683 7.31155 55.9254 7.0483 56.2379 6.8608C56.5504 6.6733 56.9197 6.57955 57.3459 6.57955C57.772 6.57955 58.1413 6.6733 58.4538 6.8608C58.7663 7.0483 59.0078 7.31155 59.1783 7.65057C59.3506 7.98958 59.4368 8.38447 59.4368 8.83523C59.4368 9.28598 59.3506 9.67992 59.1783 10.017C59.0078 10.3542 58.7663 10.6165 58.4538 10.804C58.1413 10.9915 57.772 11.0852 57.3459 11.0852ZM57.3516 10.2614C57.5826 10.2614 57.7758 10.1979 57.9311 10.071C58.0864 9.94223 58.2019 9.76989 58.2777 9.55398C58.3554 9.33807 58.3942 9.09754 58.3942 8.83239C58.3942 8.56534 58.3554 8.32386 58.2777 8.10795C58.2019 7.89015 58.0864 7.71686 57.9311 7.58807C57.7758 7.45928 57.5826 7.39489 57.3516 7.39489C57.1148 7.39489 56.9179 7.45928 56.7607 7.58807C56.6054 7.71686 56.4889 7.89015 56.4112 8.10795C56.3355 8.32386 56.2976 8.56534 56.2976 8.83239C56.2976 9.09754 56.3355 9.33807 56.4112 9.55398C56.4889 9.76989 56.6054 9.94223 56.7607 10.071C56.9179 10.1979 57.1148 10.2614 57.3516 10.2614ZM62.2074 12.7273C61.8381 12.7273 61.5208 12.6771 61.2557 12.5767C60.9905 12.4782 60.7775 12.3456 60.6165 12.179C60.4555 12.0123 60.3438 11.8277 60.2812 11.625L61.2074 11.4006C61.2491 11.4858 61.3097 11.5701 61.3892 11.6534C61.4688 11.7386 61.5758 11.8087 61.7102 11.8636C61.8466 11.9205 62.018 11.9489 62.2244 11.9489C62.5161 11.9489 62.7576 11.8778 62.9489 11.7358C63.1402 11.5956 63.2358 11.3646 63.2358 11.0426V10.2159H63.1847C63.1316 10.322 63.054 10.4309 62.9517 10.5426C62.8513 10.6544 62.7178 10.7481 62.5511 10.8239C62.3864 10.8996 62.179 10.9375 61.929 10.9375C61.5938 10.9375 61.2898 10.8589 61.017 10.7017C60.7462 10.5426 60.5303 10.3059 60.3693 9.99148C60.2102 9.67519 60.1307 9.27936 60.1307 8.80398C60.1307 8.32481 60.2102 7.92045 60.3693 7.59091C60.5303 7.25947 60.7472 7.00852 61.0199 6.83807C61.2926 6.66572 61.5966 6.57955 61.9318 6.57955C62.1875 6.57955 62.3977 6.62311 62.5625 6.71023C62.7292 6.79545 62.8617 6.89867 62.9602 7.01989C63.0587 7.1392 63.1335 7.25189 63.1847 7.35795H63.2415V6.63636H64.2557V11.071C64.2557 11.4441 64.1667 11.7528 63.9886 11.9972C63.8106 12.2415 63.5672 12.4242 63.2585 12.5455C62.9498 12.6667 62.5994 12.7273 62.2074 12.7273ZM62.2159 10.1307C62.4337 10.1307 62.6193 10.0777 62.7727 9.97159C62.9261 9.86553 63.0426 9.71307 63.1222 9.5142C63.2017 9.31534 63.2415 9.0767 63.2415 8.7983C63.2415 8.52367 63.2017 8.28314 63.1222 8.0767C63.0445 7.87027 62.929 7.71023 62.7756 7.59659C62.6241 7.48106 62.4375 7.4233 62.2159 7.4233C61.9867 7.4233 61.7955 7.48295 61.642 7.60227C61.4886 7.72159 61.3731 7.88542 61.2955 8.09375C61.2178 8.30019 61.179 8.53504 61.179 8.7983C61.179 9.06534 61.2178 9.29924 61.2955 9.5C61.375 9.69886 61.4915 9.85417 61.6449 9.96591C61.8002 10.0758 61.9905 10.1307 62.2159 10.1307ZM67.2415 11.0852C66.804 11.0852 66.4261 10.9943 66.108 10.8125C65.7917 10.6288 65.5483 10.3693 65.3778 10.0341C65.2074 9.69697 65.1222 9.30019 65.1222 8.84375C65.1222 8.39489 65.2074 8.00095 65.3778 7.66193C65.5502 7.32102 65.7907 7.05587 66.0994 6.86648C66.4081 6.67519 66.7708 6.57955 67.1875 6.57955C67.4564 6.57955 67.7102 6.62311 67.9489 6.71023C68.1894 6.79545 68.4015 6.92803 68.5852 7.10795C68.7708 7.28788 68.9167 7.51705 69.0227 7.79545C69.1288 8.07197 69.1818 8.40152 69.1818 8.78409V9.09943H65.6051V8.40625H68.196C68.1941 8.20928 68.1515 8.03409 68.0682 7.88068C67.9848 7.72538 67.8684 7.60322 67.7188 7.5142C67.571 7.42519 67.3987 7.38068 67.2017 7.38068C66.9915 7.38068 66.8068 7.43182 66.6477 7.53409C66.4886 7.63447 66.3646 7.76705 66.2756 7.93182C66.1884 8.0947 66.1439 8.27367 66.142 8.46875V9.07386C66.142 9.32765 66.1884 9.54545 66.2812 9.72727C66.3741 9.9072 66.5038 10.0455 66.6705 10.142C66.8371 10.2367 67.0322 10.2841 67.2557 10.2841C67.4053 10.2841 67.5407 10.2633 67.6619 10.2216C67.7831 10.178 67.8883 10.1146 67.9773 10.0312C68.0663 9.94792 68.1335 9.8447 68.179 9.72159L69.1392 9.82955C69.0786 10.0833 68.9631 10.3049 68.7926 10.4943C68.6241 10.6818 68.4081 10.8277 68.1449 10.9318C67.8816 11.0341 67.5805 11.0852 67.2415 11.0852ZM72.2308 6.63636V7.43182H69.7223V6.63636H72.2308ZM70.3416 5.59091H71.37V9.6875C71.37 9.82576 71.3909 9.93182 71.4325 10.0057C71.4761 10.0777 71.5329 10.1269 71.603 10.1534C71.6731 10.1799 71.7507 10.1932 71.8359 10.1932C71.9003 10.1932 71.959 10.1884 72.0121 10.179C72.067 10.1695 72.1087 10.161 72.1371 10.1534L72.3104 10.9574C72.2554 10.9763 72.1768 10.9972 72.0746 11.0199C71.9742 11.0426 71.8511 11.0559 71.7053 11.0597C71.4477 11.0672 71.2157 11.0284 71.0092 10.9432C70.8028 10.8561 70.639 10.7216 70.5178 10.5398C70.3984 10.358 70.3397 10.1307 70.3416 9.85795V5.59091ZM74.2131 8.44318V11H73.1847V5.18182H74.1903V7.37784H74.2415C74.3438 7.13163 74.5019 6.9375 74.7159 6.79545C74.9318 6.65152 75.2064 6.57955 75.5398 6.57955C75.8428 6.57955 76.107 6.64299 76.3324 6.76989C76.5578 6.89678 76.732 7.08239 76.8551 7.3267C76.9801 7.57102 77.0426 7.86932 77.0426 8.22159V11H76.0142V8.38068C76.0142 8.08712 75.9384 7.8589 75.7869 7.69602C75.6373 7.53125 75.4271 7.44886 75.1562 7.44886C74.9744 7.44886 74.8116 7.48864 74.6676 7.56818C74.5256 7.64583 74.4138 7.75852 74.3324 7.90625C74.2528 8.05398 74.2131 8.23295 74.2131 8.44318ZM80.0227 11.0852C79.5852 11.0852 79.2074 10.9943 78.8892 10.8125C78.5729 10.6288 78.3295 10.3693 78.1591 10.0341C77.9886 9.69697 77.9034 9.30019 77.9034 8.84375C77.9034 8.39489 77.9886 8.00095 78.1591 7.66193C78.3314 7.32102 78.572 7.05587 78.8807 6.86648C79.1894 6.67519 79.5521 6.57955 79.9688 6.57955C80.2377 6.57955 80.4915 6.62311 80.7301 6.71023C80.9706 6.79545 81.1828 6.92803 81.3665 7.10795C81.5521 7.28788 81.6979 7.51705 81.804 7.79545C81.91 8.07197 81.9631 8.40152 81.9631 8.78409V9.09943H78.3864V8.40625H80.9773C80.9754 8.20928 80.9328 8.03409 80.8494 7.88068C80.7661 7.72538 80.6496 7.60322 80.5 7.5142C80.3523 7.42519 80.1799 7.38068 79.983 7.38068C79.7727 7.38068 79.5881 7.43182 79.429 7.53409C79.2699 7.63447 79.1458 7.76705 79.0568 7.93182C78.9697 8.0947 78.9252 8.27367 78.9233 8.46875V9.07386C78.9233 9.32765 78.9697 9.54545 79.0625 9.72727C79.1553 9.9072 79.285 10.0455 79.4517 10.142C79.6184 10.2367 79.8134 10.2841 80.0369 10.2841C80.1866 10.2841 80.322 10.2633 80.4432 10.2216C80.5644 10.178 80.6695 10.1146 80.7585 10.0312C80.8475 9.94792 80.9148 9.8447 80.9602 9.72159L81.9205 9.82955C81.8598 10.0833 81.7443 10.3049 81.5739 10.4943C81.4053 10.6818 81.1894 10.8277 80.9261 10.9318C80.6629 11.0341 80.3617 11.0852 80.0227 11.0852ZM82.8331 11V6.63636H83.8303V7.36364H83.8757C83.9553 7.11174 84.0916 6.91761 84.2848 6.78125C84.4799 6.64299 84.7024 6.57386 84.9524 6.57386C85.0092 6.57386 85.0727 6.5767 85.1428 6.58239C85.2147 6.58617 85.2744 6.5928 85.3217 6.60227V7.5483C85.2782 7.53314 85.209 7.51989 85.1143 7.50852C85.0215 7.49527 84.9316 7.48864 84.8445 7.48864C84.657 7.48864 84.4884 7.52936 84.3388 7.6108C84.1911 7.69034 84.0746 7.80114 83.9893 7.94318C83.9041 8.08523 83.8615 8.24905 83.8615 8.43466V11H82.8331Z" fill="#303030"/>
<rect x="0.5" y="15" width="199" height="89" rx="5.5" fill="white"/>
<rect x="0.5" y="15" width="199" height="89" rx="5.5" stroke="#DEDEDE"/>
<rect x="64" y="46.5" width="10" height="10" rx="5" fill="#6678A6"/>
<path d="M69 49.5V53.5M67 51.5H71" stroke="white" stroke-width="1.33333" stroke-linecap="round" stroke-linejoin="round"/>
<rect x="125" y="46.5" width="10" height="10" rx="5" fill="#6678A6"/>
<path d="M130 49.5V53.5M128 51.5H132" stroke="white" stroke-width="1.33333" stroke-linecap="round" stroke-linejoin="round"/>
<rect x="16" y="79.5" width="18" height="4" rx="0.8" fill="#DADBDD"/>
<rect x="16" y="86.5" width="42" height="4" rx="0.8" fill="#E9E9E9"/>
<rect x="15.5" y="29.5" width="46" height="46" rx="4" fill="#F1F1F1"/>
<path d="M47.1108 45.2322H45.9807V47.3359C45.9806 47.6239 45.8653 47.9 45.6602 48.1037C45.4551 48.3074 45.1769 48.422 44.8867 48.4224C44.8061 48.4222 44.7258 48.4133 44.6471 48.3958L38.8615 47.1095C38.727 47.0798 38.5994 47.0254 38.4852 46.949C38.3709 47.0252 38.2433 47.0797 38.1089 47.1095L32.3232 48.3958C32.2444 48.4132 32.1639 48.4222 32.0832 48.4224C31.7931 48.4218 31.5151 48.3071 31.3101 48.1035C31.1051 47.8998 30.9898 47.6238 30.9896 47.3359V45.7184H30.1204C29.8234 45.7184 29.5385 45.8355 29.3285 46.044C29.1185 46.2524 29.0005 46.5351 29.0005 46.8298V61.8786C29.0006 62.0431 29.0665 62.2007 29.1836 62.317C29.3008 62.4333 29.4597 62.4986 29.6254 62.4987H38.031V47.9945L39.01 47.9788V62.4987H47.3743C47.5401 62.4987 47.699 62.4334 47.8162 62.3171C47.9334 62.2008 47.9992 62.0431 47.9992 61.8786V46.1147C47.9992 45.8808 47.9056 45.6565 47.7391 45.491C47.5725 45.3255 47.3465 45.2325 47.1108 45.2322ZM41.2597 51.9188H45.6521V52.8903H41.2597V51.9188Z" fill="#7BA2FE"/>
<path d="M32.3699 42.541L38.1551 45.7814C38.2097 45.812 38.2537 45.8584 38.2812 45.9143C38.3087 45.9702 38.3185 46.0331 38.3093 46.0947C38.3001 46.1562 38.2723 46.2136 38.2296 46.2592C38.1869 46.3047 38.1312 46.3364 38.07 46.35L32.2852 47.6367C32.2398 47.6467 32.1927 47.6465 32.1474 47.6361C32.1021 47.6257 32.0597 47.6053 32.0234 47.5764C31.9871 47.5475 31.9578 47.5109 31.9377 47.4693C31.9176 47.4276 31.9072 47.3821 31.9072 47.3359V42.8071C31.9076 42.7535 31.9221 42.7009 31.9492 42.6546C31.9763 42.6082 32.0152 42.5697 32.0619 42.5428C32.1087 42.5159 32.1617 42.5016 32.2157 42.5013C32.2697 42.501 32.3229 42.5146 32.3699 42.541Z" fill="#004BFF"/>
<path d="M38.9477 45.7814L44.7333 42.541C44.7804 42.5147 44.8336 42.501 44.8876 42.5013C44.9417 42.5017 44.9947 42.516 45.0415 42.5429C45.0882 42.5697 45.1271 42.6082 45.1543 42.6546C45.1815 42.7009 45.196 42.7535 45.1965 42.8071V47.3359C45.1965 47.3821 45.1861 47.4276 45.166 47.4693C45.1459 47.5109 45.1166 47.5475 45.0803 47.5764C45.044 47.6053 45.0016 47.6257 44.9563 47.6361C44.911 47.6465 44.8639 47.6467 44.8185 47.6367L39.0324 46.35C38.9712 46.3363 38.9156 46.3046 38.873 46.259C38.8303 46.2134 38.8025 46.1561 38.7934 46.0945C38.7842 46.033 38.794 45.9701 38.8216 45.9142C38.8491 45.8583 38.8931 45.812 38.9477 45.7814Z" fill="#004BFF"/>
<rect x="76.5" y="29.5" width="46" height="46" rx="4" fill="#F1F1F1"/>
<path d="M106.3 51.86L110.576 49.7916C110.602 49.7789 110.626 49.761 110.645 49.7389C110.665 49.7168 110.679 49.6911 110.689 49.6632C110.698 49.6351 110.701 49.6054 110.699 49.5758C110.697 49.5463 110.689 49.5175 110.675 49.4912L107.78 43.9124C107.25 44.4156 106.3 45.66 106.3 48.1V51.86Z" fill="#004BFF"/>
<path d="M88.4242 49.7928L92.7002 51.86V48.1C92.7002 45.66 91.7502 44.416 91.2202 43.9112L88.325 49.4924C88.3114 49.5187 88.3032 49.5475 88.3009 49.5771C88.2987 49.6066 88.3024 49.6363 88.3118 49.6644C88.3209 49.6923 88.3355 49.7181 88.3548 49.7402C88.3741 49.7622 88.3978 49.7801 88.4242 49.7928Z" fill="#004BFF"/>
<path d="M93.4998 52.508C93.4998 52.5148 93.4998 52.5208 93.4998 52.5272V62.9C93.4998 63.1122 93.5841 63.3156 93.7341 63.4657C93.8841 63.6157 94.0876 63.7 94.2998 63.7H104.7C104.912 63.7 105.115 63.6157 105.265 63.4657C105.416 63.3156 105.5 63.1122 105.5 62.9V52.5264C105.5 52.5208 105.5 52.5152 105.5 52.5096V48.1C105.5 45.4328 106.557 43.9936 107.199 43.3644L103.432 41.4724C103.235 42.488 102.471 44.5 99.4998 44.5C96.5286 44.5 95.7642 42.4876 95.5678 41.472L91.7998 43.3644C92.4418 43.9936 93.4998 45.4336 93.4998 48.1V52.508Z" fill="#7BA2FE"/>
<path d="M99.5001 43.7C101.88 43.7 102.489 42.1624 102.645 41.3644C101.611 41.5799 100.557 41.6923 99.5001 41.7C98.4431 41.6922 97.3894 41.5798 96.3545 41.3644C96.5109 42.162 97.1197 43.7 99.5001 43.7Z" fill="#004BFF"/>
<rect x="77" y="79.5" width="18" height="4" rx="0.8" fill="#DADBDD"/>
<rect x="77" y="86.5" width="42" height="4" rx="0.8" fill="#E9E9E9"/>
<rect x="137.5" y="29.5" width="46" height="46" rx="4" fill="#F1F1F1"/>
<path d="M170.851 59.8386C170.851 60.1525 170.798 60.3775 170.708 60.4411C170.653 60.4808 170.454 60.559 169.831 60.4238C169.27 60.3017 168.563 60.0524 167.741 59.7642C165.859 59.1042 163.284 58.2 160.5 58.2C157.716 58.2 155.141 59.1042 153.26 59.7642C152.438 60.0524 151.729 60.3017 151.169 60.4238C150.546 60.559 150.349 60.4808 150.293 60.4411C150.203 60.3775 150.149 60.1525 150.149 59.8386C150.149 58.4395 151.179 57.0965 153.047 56.0539C155.027 54.9509 157.674 54.3437 160.5 54.3437C163.326 54.3437 165.973 54.9518 167.955 56.0539C169.822 57.0965 170.851 58.4395 170.851 59.8386Z" fill="#004BFF"/>
<path d="M160.529 44.5C155.391 44.5 151.211 48.68 151.211 53.8179V55.8013C151.604 55.4998 152.018 55.2281 152.451 54.9883C154.611 53.7861 157.47 53.1238 160.5 53.1238C163.53 53.1238 166.389 53.7861 168.548 54.9883C169.003 55.2395 169.437 55.5264 169.847 55.8462V53.8179C169.847 48.68 165.667 44.5 160.529 44.5ZM160.529 52.5348C159.931 52.5349 159.347 52.3578 158.85 52.0259C158.353 51.694 157.966 51.2221 157.737 50.6701C157.508 50.118 157.449 49.5105 157.565 48.9244C157.682 48.3383 157.969 47.7999 158.392 47.3773C158.814 46.9547 159.353 46.6669 159.939 46.5503C160.525 46.4337 161.132 46.4935 161.685 46.7222C162.237 46.9508 162.708 47.3381 163.041 47.8349C163.373 48.3318 163.55 48.916 163.55 49.5135C163.549 50.3145 163.23 51.0824 162.664 51.6488C162.098 52.2152 161.33 52.5339 160.529 52.5348Z" fill="#7BA2FE"/>
<path d="M162.328 49.5135C162.328 49.8695 162.222 50.2174 162.025 50.5133C161.827 50.8093 161.546 51.0399 161.217 51.1761C160.888 51.3123 160.526 51.3479 160.177 51.2784C159.828 51.2089 159.508 51.0375 159.256 50.7858C159.004 50.5341 158.833 50.2134 158.764 49.8643C158.694 49.5152 158.73 49.1534 158.866 48.8246C159.002 48.4958 159.233 48.2147 159.529 48.0171C159.825 47.8194 160.173 47.7139 160.529 47.714C161.006 47.7145 161.463 47.9043 161.801 48.2417C162.138 48.579 162.328 49.0365 162.328 49.5135Z" fill="#004BFF"/>
<rect x="138" y="79.5" width="18" height="4" rx="0.8" fill="#DADBDD"/>
<rect x="138" y="86.5" width="42" height="4" rx="0.8" fill="#E9E9E9"/>
</svg>
