<svg width="20" height="20" viewBox="0 0 20 20" fill="none" xmlns="http://www.w3.org/2000/svg">
<rect width="20" height="20" rx="10" fill="#D1F1FF"/>
<path d="M6.98142 5.37718C7.17231 5.143 7.45912 5.00684 7.76227 5.00684H9.25091L6.82876 8.11837H4.6207C4.6527 7.96576 4.72072 7.81925 4.8244 7.69206L6.98142 5.37718Z" fill="#0090CE"/>
<path d="M4.60156 8.38894H6.80745L9.78024 14.9939C9.55123 14.9434 9.337 14.8129 9.18442 14.6023L4.78964 8.9098C4.67605 8.753 4.61355 8.57213 4.60156 8.38894Z" fill="#0090CE"/>
<path d="M10 14.8241L12.8963 8.38894H7.10367L10 14.8241Z" fill="#0090CE"/>
<path d="M7.17121 8.11837H12.8288L10.4066 5.00684H9.59336L7.17121 8.11837Z" fill="#0090CE"/>
<path d="M10.2198 14.9939L13.1926 8.38894H15.3984C15.3865 8.57213 15.324 8.753 15.2104 8.9098L10.8156 14.6023C10.663 14.8129 10.4488 14.9434 10.2198 14.9939Z" fill="#0090CE"/>
<path d="M13.1712 8.11837H15.3793C15.3473 7.96576 15.2793 7.81925 15.1756 7.69206L13.0186 5.37718C12.8277 5.143 12.5409 5.00684 12.2377 5.00684H10.7491L13.1712 8.11837Z" fill="#0090CE"/>
</svg>
