<svg width="20" height="20" viewBox="0 0 20 20" fill="none" xmlns="http://www.w3.org/2000/svg">
<rect width="20" height="20" rx="10" fill="#CBF4F7"/>
<path d="M15.1993 8.41789L14.7312 11.2264C14.6735 11.5753 14.4926 11.8919 14.2214 12.1188C13.9502 12.3458 13.6066 12.4679 13.253 12.4632H8.51298C8.17152 12.463 7.84065 12.3447 7.57657 12.1282C7.3125 11.9117 7.13151 11.6105 7.06436 11.2757L6.25136 7.20085V7.17621L5.98528 6.39278C5.95223 6.29491 5.88925 6.20991 5.80525 6.14978C5.72126 6.08966 5.62049 6.05745 5.51719 6.05772H5.24126C5.11058 6.05772 4.98526 6.00581 4.89285 5.9134C4.80045 5.821 4.74854 5.69567 4.74854 5.56499C4.74854 5.43431 4.80045 5.30899 4.89285 5.21658C4.98526 5.12418 5.11058 5.07227 5.24126 5.07227H5.51719C5.82685 5.07284 6.1285 5.17066 6.37958 5.35189C6.63066 5.53313 6.81848 5.78864 6.91654 6.08236L7.07421 6.57509H13.7704C13.9979 6.57464 14.2225 6.62674 14.4267 6.72733C14.6308 6.82791 14.8089 6.97427 14.9472 7.155C15.0855 7.33573 15.1802 7.54594 15.2239 7.76926C15.2676 7.99259 15.2592 8.22299 15.1993 8.44252V8.41789ZM8.69036 12.9559C8.49545 12.9559 8.30493 13.0137 8.14287 13.122C7.98081 13.2303 7.8545 13.3842 7.77992 13.5642C7.70533 13.7443 7.68581 13.9425 7.72384 14.1336C7.76186 14.3248 7.85572 14.5004 7.99354 14.6382C8.13135 14.776 8.30695 14.8699 8.4981 14.9079C8.68926 14.9459 8.88741 14.9264 9.06747 14.8518C9.24754 14.7772 9.40145 14.6509 9.50973 14.4889C9.61802 14.3268 9.67581 14.1363 9.67581 13.9414C9.67581 13.68 9.57199 13.4294 9.38718 13.2445C9.20237 13.0597 8.95172 12.9559 8.69036 12.9559ZM13.1249 12.9559C12.93 12.9559 12.7395 13.0137 12.5774 13.122C12.4154 13.2303 12.2891 13.3842 12.2145 13.5642C12.1399 13.7443 12.1204 13.9425 12.1584 14.1336C12.1964 14.3248 12.2903 14.5004 12.4281 14.6382C12.5659 14.776 12.7415 14.8699 12.9327 14.9079C13.1238 14.9459 13.322 14.9264 13.502 14.8518C13.6821 14.7772 13.836 14.6509 13.9443 14.4889C14.0526 14.3268 14.1104 14.1363 14.1104 13.9414C14.1104 13.68 14.0065 13.4294 13.8217 13.2445C13.6369 13.0597 13.3863 12.9559 13.1249 12.9559Z" fill="#00C4D0"/>
</svg>
