<svg width="20" height="20" viewBox="0 0 20 20" fill="none" xmlns="http://www.w3.org/2000/svg">
<rect width="20" height="20" rx="10" fill="#FFE5DD"/>
<path d="M13.5316 6.6945C13.41 6.69439 13.2933 6.64602 13.2073 6.56003C13.1214 6.47403 13.073 6.35742 13.0729 6.23581V4.85973H11.6968C11.5751 4.85973 11.4585 4.8114 11.3725 4.72538C11.2864 4.63936 11.2381 4.52269 11.2381 4.40104C11.2381 4.27939 11.2864 4.16272 11.3725 4.07669C11.4585 3.99067 11.5751 3.94235 11.6968 3.94235H13.5316C13.6532 3.94246 13.7698 3.99082 13.8558 4.07682C13.9418 4.16282 13.9901 4.27942 13.9903 4.40104V6.23581C13.9901 6.35742 13.9418 6.47403 13.8558 6.56003C13.7698 6.64602 13.6532 6.69439 13.5316 6.6945Z" fill="#FD6128"/>
<path d="M5.45877 9.99708C5.36451 9.9971 5.27254 9.96807 5.19536 9.91396C5.11818 9.85985 5.05955 9.78327 5.02744 9.69465C4.99533 9.60603 4.9913 9.50967 5.0159 9.41868C5.0405 9.32768 5.09253 9.24648 5.16492 9.18611L7.15611 7.52675C7.29325 7.41345 7.46314 7.34717 7.64077 7.33765C7.8184 7.32814 7.9944 7.3759 8.14285 7.47391L9.24622 8.20961L13.2005 4.08372C13.242 4.03981 13.2919 4.00456 13.3471 3.97999C13.4024 3.95542 13.462 3.94202 13.5224 3.94056C13.5829 3.9391 13.643 3.94961 13.6994 3.97148C13.7558 3.99335 13.8073 4.02615 13.8509 4.068C13.8946 4.10984 13.9295 4.15991 13.9537 4.21531C13.978 4.27072 13.991 4.33036 13.9921 4.39082C13.9932 4.45128 13.9823 4.51136 13.9601 4.56761C13.9379 4.62385 13.9048 4.67515 13.8627 4.71855L9.85558 8.89981C9.7215 9.04003 9.54228 9.1285 9.34943 9.14967C9.15658 9.17084 8.96244 9.12335 8.80113 9.01555L7.69077 8.27519L5.75226 9.89066C5.66984 9.95928 5.56602 9.99692 5.45877 9.99708Z" fill="#FD6128"/>
<path d="M6.89155 11.3732H5.49345C5.27154 11.3732 5.09164 11.5531 5.09164 11.775V14.907C5.09164 15.1289 5.27154 15.3088 5.49345 15.3088H6.89155C7.11346 15.3088 7.29336 15.1289 7.29336 14.907V11.775C7.29336 11.5531 7.11346 11.3732 6.89155 11.3732Z" fill="#FD6128"/>
<path d="M13.4967 8.43753H12.0986C11.8767 8.43753 11.6968 8.61743 11.6968 8.83934V14.907C11.6968 15.1289 11.8767 15.3088 12.0986 15.3088H13.4967C13.7186 15.3088 13.8985 15.1289 13.8985 14.907V8.83934C13.8985 8.61743 13.7186 8.43753 13.4967 8.43753Z" fill="#FD6128"/>
<path d="M10.1941 10.2723H8.79603C8.57412 10.2723 8.39422 10.4522 8.39422 10.6741V14.907C8.39422 15.1289 8.57412 15.3088 8.79603 15.3088H10.1941C10.416 15.3088 10.5959 15.1289 10.5959 14.907V10.6741C10.5959 10.4522 10.416 10.2723 10.1941 10.2723Z" fill="#FD6128"/>
</svg>
