<svg width="31" height="31" viewBox="0 0 31 31" fill="none" xmlns="http://www.w3.org/2000/svg">
<rect width="31" height="31" fill="#D9D9D9"/>
<path fill-rule="evenodd" clip-rule="evenodd" d="M14.6791 11.2333C14.6791 12.185 13.9004 12.9637 12.9487 12.9637C11.9969 12.9637 11.2183 12.185 11.2183 11.2333C11.2183 10.2816 11.9969 9.50293 12.9487 9.50293C13.9004 9.50293 14.6791 10.2816 14.6791 11.2333ZM15.1982 17.3329L18.2177 12.4964C18.5724 11.9341 19.3943 11.96 19.7144 12.5397L23.9366 20.3351C24.248 20.9147 23.8327 21.6155 23.1752 21.6155H7.93928C7.28174 21.6155 6.8578 20.9061 7.19522 20.3264L9.86 15.5852C10.1282 15.118 10.7425 14.9969 11.1578 15.3343L13.9263 17.5492C14.3243 17.8693 14.9213 17.7741 15.1982 17.3329Z" fill="white"/>
</svg>
