<svg fill="none" height="44" viewBox="0 0 44 44" width="44" xmlns="http://www.w3.org/2000/svg"><rect fill="#affebf" height="44" rx="6" width="44"/><g fill="#047b5d"><path clip-rule="evenodd" d="m16 13.6c-.6365 0-1.247.2528-1.6971.7029s-.7029 1.0606-.7029 1.6971v2.4c0 .6365.2528 1.2469.7029 1.697s1.0606.703 1.6971.703h2.4c.6365 0 1.2469-.2529 1.697-.703s.703-1.0605.703-1.697v-2.4c0-.6365-.2529-1.247-.703-1.6971s-1.0605-.7029-1.697-.7029zm-.6 2.4c0-.1592.0632-.3118.1757-.4243s.2651-.1757.4243-.1757h2.4c.1591 0 .3117.0632.4242.1757.1126.1125.1758.2651.1758.4243v2.4c0 .1591-.0632.3117-.1758.4242-.1125.1126-.2651.1758-.4242.1758h-2.4c-.1592 0-.3118-.0632-.4243-.1758-.1125-.1125-.1757-.2651-.1757-.4242z" fill-rule="evenodd"/><path clip-rule="evenodd" d="m16 23.2c-.6365 0-1.247.2528-1.6971.7029s-.7029 1.0605-.7029 1.6971v2.4c0 .6365.2528 1.2469.7029 1.697s1.0606.703 1.6971.703h2.4c.6365 0 1.2469-.2529 1.697-.703s.703-1.0605.703-1.697v-2.4c0-.6366-.2529-1.247-.703-1.6971s-1.0605-.7029-1.697-.7029zm-.6 2.4c0-.1592.0632-.3118.1757-.4243s.2651-.1757.4243-.1757h2.4c.1591 0 .3117.0632.4242.1757.1126.1125.1758.2651.1758.4243v2.4c0 .1591-.0632.3117-.1758.4242-.1125.1125-.2651.1758-.4242.1758h-2.4c-.1592 0-.3118-.0633-.4243-.1758s-.1757-.2651-.1757-.4242z" fill-rule="evenodd"/><path d="m22 15.7c0-.2386.0948-.4676.2636-.6363.1688-.1688.3977-.2637.6364-.2637h6.6c.2387 0 .4676.0949.6364.2637.1688.1687.2636.3977.2636.6363 0 .2387-.0948.4677-.2636.6364-.1688.1688-.3977.2636-.6364.2636h-6.6c-.2387 0-.4676-.0948-.6364-.2636-.1688-.1687-.2636-.3977-.2636-.6364z"/><path d="m22.9 17.8c-.2387 0-.4676.0949-.6364.2637-.1688.1687-.2636.3977-.2636.6363 0 .2387.0948.4677.2636.6364.1688.1688.3977.2636.6364.2636h5.4c.2387 0 .4676-.0948.6364-.2636.1688-.1687.2636-.3977.2636-.6364 0-.2386-.0948-.4676-.2636-.6363-.1688-.1688-.3977-.2637-.6364-.2637z"/><path d="m22 25.3c0-.2387.0948-.4676.2636-.6364s.3977-.2636.6364-.2636h6.6c.2387 0 .4676.0948.6364.2636s.2636.3977.2636.6364-.0948.4676-.2636.6364-.3977.2636-.6364.2636h-6.6c-.2387 0-.4676-.0948-.6364-.2636s-.2636-.3977-.2636-.6364z"/><path d="m22.9 27.4c-.2387 0-.4676.0948-.6364.2636s-.2636.3977-.2636.6364.0948.4676.2636.6364.3977.2636.6364.2636h4.2c.2387 0 .4676-.0948.6364-.2636s.2636-.3977.2636-.6364-.0948-.4676-.2636-.6364-.3977-.2636-.6364-.2636z"/></g></svg>