<svg width="200" height="105" viewBox="0 0 200 105" fill="none" xmlns="http://www.w3.org/2000/svg">
<path d="M134.5 2C134.5 0.89543 135.395 0 136.5 0H181.5C182.605 0 183.5 0.895431 183.5 2V15H134.5V2Z" fill="#004BFF"/>
<path d="M143.236 5.78125C143.209 5.53314 143.098 5.33996 142.901 5.2017C142.705 5.06345 142.452 4.99432 142.139 4.99432C141.92 4.99432 141.731 5.02746 141.574 5.09375C141.417 5.16004 141.296 5.25 141.213 5.36364C141.13 5.47727 141.087 5.60701 141.085 5.75284C141.085 5.87405 141.113 5.97917 141.168 6.06818C141.224 6.1572 141.301 6.23295 141.398 6.29545C141.494 6.35606 141.601 6.4072 141.719 6.44886C141.836 6.49053 141.955 6.52557 142.074 6.55398L142.619 6.69034C142.839 6.74148 143.05 6.81061 143.253 6.89773C143.457 6.98485 143.64 7.0947 143.801 7.22727C143.964 7.35985 144.093 7.51989 144.188 7.70739C144.282 7.89489 144.33 8.11458 144.33 8.36648C144.33 8.70739 144.242 9.00758 144.068 9.26705C143.894 9.52462 143.642 9.72633 143.312 9.87216C142.985 10.0161 142.588 10.0881 142.122 10.0881C141.67 10.0881 141.277 10.018 140.943 9.87784C140.612 9.73769 140.352 9.53314 140.165 9.2642C139.979 8.99527 139.879 8.66761 139.864 8.28125H140.901C140.916 8.4839 140.978 8.65246 141.088 8.78693C141.198 8.9214 141.341 9.02178 141.517 9.08807C141.695 9.15436 141.894 9.1875 142.114 9.1875C142.343 9.1875 142.544 9.15341 142.716 9.08523C142.89 9.01515 143.027 8.91856 143.125 8.79545C143.223 8.67045 143.274 8.52462 143.276 8.35795C143.274 8.20644 143.229 8.08144 143.142 7.98295C143.055 7.88258 142.933 7.79924 142.776 7.73295C142.62 7.66477 142.438 7.60417 142.23 7.55114L141.568 7.38068C141.089 7.25758 140.71 7.07102 140.432 6.82102C140.155 6.56913 140.017 6.23485 140.017 5.81818C140.017 5.47538 140.11 5.17519 140.295 4.91761C140.483 4.66004 140.738 4.46023 141.06 4.31818C141.382 4.17424 141.746 4.10227 142.153 4.10227C142.566 4.10227 142.928 4.17424 143.239 4.31818C143.551 4.46023 143.796 4.65814 143.974 4.91193C144.152 5.16383 144.244 5.4536 144.25 5.78125H143.236ZM146.479 10.0881C146.203 10.0881 145.954 10.0388 145.732 9.94034C145.513 9.83996 145.338 9.69223 145.21 9.49716C145.083 9.30208 145.019 9.06155 145.019 8.77557C145.019 8.52936 145.065 8.32576 145.156 8.16477C145.246 8.00379 145.371 7.875 145.528 7.77841C145.685 7.68182 145.862 7.6089 146.059 7.55966C146.258 7.50852 146.463 7.47159 146.675 7.44886C146.931 7.42235 147.138 7.39867 147.298 7.37784C147.457 7.35511 147.572 7.32102 147.644 7.27557C147.718 7.22822 147.755 7.1553 147.755 7.05682V7.03977C147.755 6.82576 147.692 6.66004 147.565 6.54261C147.438 6.42519 147.255 6.36648 147.016 6.36648C146.764 6.36648 146.565 6.4214 146.417 6.53125C146.271 6.6411 146.173 6.77083 146.121 6.92045L145.161 6.78409C145.237 6.51894 145.362 6.29735 145.536 6.11932C145.71 5.93939 145.924 5.80492 146.175 5.71591C146.427 5.625 146.706 5.57955 147.011 5.57955C147.221 5.57955 147.43 5.60417 147.638 5.65341C147.847 5.70265 148.037 5.78409 148.21 5.89773C148.382 6.00947 148.52 6.16193 148.624 6.35511C148.73 6.5483 148.783 6.78977 148.783 7.07955V10H147.795V9.40057H147.761C147.698 9.52178 147.61 9.63542 147.496 9.74148C147.385 9.84564 147.244 9.92992 147.073 9.99432C146.905 10.0568 146.707 10.0881 146.479 10.0881ZM146.746 9.33239C146.953 9.33239 147.132 9.29167 147.283 9.21023C147.435 9.12689 147.551 9.01705 147.633 8.88068C147.716 8.74432 147.758 8.59564 147.758 8.43466V7.92045C147.726 7.94697 147.671 7.97159 147.593 7.99432C147.517 8.01705 147.432 8.03693 147.337 8.05398C147.243 8.07102 147.149 8.08617 147.056 8.09943C146.963 8.11269 146.883 8.12405 146.815 8.13352C146.661 8.15436 146.524 8.18845 146.403 8.2358C146.281 8.28314 146.186 8.34943 146.116 8.43466C146.046 8.51799 146.011 8.62595 146.011 8.75852C146.011 8.94792 146.08 9.09091 146.218 9.1875C146.356 9.28409 146.532 9.33239 146.746 9.33239ZM153.559 5.63636L152.005 10H150.869L149.315 5.63636H150.411L151.414 8.87784H151.46L152.465 5.63636H153.559ZM156.054 10.0852C155.616 10.0852 155.239 9.99432 154.92 9.8125C154.604 9.62879 154.361 9.36932 154.19 9.03409C154.02 8.69697 153.935 8.30019 153.935 7.84375C153.935 7.39489 154.02 7.00095 154.19 6.66193C154.363 6.32102 154.603 6.05587 154.912 5.86648C155.221 5.67519 155.583 5.57955 156 5.57955C156.269 5.57955 156.523 5.62311 156.761 5.71023C157.002 5.79545 157.214 5.92803 157.398 6.10795C157.583 6.28788 157.729 6.51705 157.835 6.79545C157.941 7.07197 157.994 7.40152 157.994 7.78409V8.09943H154.418V7.40625H157.009C157.007 7.20928 156.964 7.03409 156.881 6.88068C156.797 6.72538 156.681 6.60322 156.531 6.5142C156.384 6.42519 156.211 6.38068 156.014 6.38068C155.804 6.38068 155.619 6.43182 155.46 6.53409C155.301 6.63447 155.177 6.76705 155.088 6.93182C155.001 7.0947 154.956 7.27367 154.955 7.46875V8.07386C154.955 8.32765 155.001 8.54545 155.094 8.72727C155.187 8.9072 155.316 9.04545 155.483 9.14205C155.65 9.23674 155.845 9.28409 156.068 9.28409C156.218 9.28409 156.353 9.26326 156.474 9.22159C156.596 9.17803 156.701 9.11458 156.79 9.03125C156.879 8.94792 156.946 8.8447 156.991 8.72159L157.952 8.82955C157.891 9.08333 157.776 9.30492 157.605 9.49432C157.437 9.68182 157.221 9.82765 156.957 9.93182C156.694 10.0341 156.393 10.0852 156.054 10.0852ZM160.749 10V8.98864L162.871 7.13068C163.031 6.98674 163.166 6.85511 163.278 6.7358C163.389 6.61458 163.475 6.49337 163.533 6.37216C163.592 6.24905 163.621 6.11553 163.621 5.97159C163.621 5.81061 163.586 5.6733 163.516 5.55966C163.446 5.44413 163.35 5.35511 163.227 5.29261C163.103 5.23011 162.962 5.19886 162.803 5.19886C162.642 5.19886 162.501 5.23201 162.38 5.2983C162.259 5.36269 162.164 5.45644 162.096 5.57955C162.03 5.70265 161.996 5.85227 161.996 6.02841H160.664C160.664 5.63258 160.753 5.29072 160.931 5.00284C161.109 4.71496 161.359 4.49337 161.681 4.33807C162.005 4.18087 162.381 4.10227 162.809 4.10227C163.25 4.10227 163.634 4.17614 163.96 4.32386C164.285 4.47159 164.537 4.67803 164.715 4.94318C164.895 5.20644 164.985 5.51231 164.985 5.8608C164.985 6.08239 164.941 6.30208 164.852 6.51989C164.763 6.73769 164.603 6.97822 164.371 7.24148C164.142 7.50473 163.817 7.82008 163.394 8.1875L162.698 8.82955V8.86648H165.056V10H160.749ZM168.257 10.142C167.75 10.142 167.312 10.0218 166.945 9.78125C166.577 9.53883 166.294 9.19129 166.095 8.73864C165.896 8.28409 165.798 7.73769 165.8 7.09943C165.802 6.46117 165.901 5.91951 166.098 5.47443C166.297 5.02746 166.579 4.6875 166.945 4.45455C167.312 4.2197 167.75 4.10227 168.257 4.10227C168.765 4.10227 169.202 4.2197 169.57 4.45455C169.939 4.6875 170.223 5.02746 170.422 5.47443C170.621 5.9214 170.719 6.46307 170.717 7.09943C170.717 7.73958 170.618 8.28693 170.419 8.74148C170.22 9.19602 169.937 9.54356 169.57 9.78409C169.204 10.0227 168.767 10.142 168.257 10.142ZM168.257 8.99148C168.56 8.99148 168.805 8.83712 168.993 8.52841C169.18 8.2178 169.273 7.74148 169.271 7.09943C169.271 6.67898 169.229 6.33239 169.143 6.05966C169.058 5.78504 168.94 5.58049 168.788 5.44602C168.637 5.31155 168.46 5.24432 168.257 5.24432C167.956 5.24432 167.713 5.39678 167.527 5.7017C167.341 6.00473 167.248 6.47064 167.246 7.09943C167.244 7.52557 167.285 7.87879 167.368 8.15909C167.453 8.43939 167.572 8.64867 167.726 8.78693C167.879 8.9233 168.056 8.99148 168.257 8.99148ZM174.781 8.90909V8.60227C174.781 8.36364 174.832 8.14299 174.935 7.94034C175.039 7.73769 175.189 7.57481 175.386 7.4517C175.583 7.3286 175.824 7.26705 176.108 7.26705C176.398 7.26705 176.641 7.3286 176.838 7.4517C177.037 7.57292 177.187 7.73485 177.287 7.9375C177.389 8.13826 177.44 8.35985 177.44 8.60227V8.90909C177.44 9.14773 177.389 9.36837 177.287 9.57102C177.185 9.77367 177.034 9.93655 176.835 10.0597C176.636 10.1828 176.394 10.2443 176.108 10.2443C175.82 10.2443 175.578 10.1828 175.381 10.0597C175.184 9.93655 175.034 9.77367 174.932 9.57102C174.831 9.36837 174.781 9.14773 174.781 8.90909ZM175.688 8.60227V8.90909C175.688 9.0303 175.717 9.14678 175.776 9.25852C175.836 9.37027 175.947 9.42614 176.108 9.42614C176.273 9.42614 176.384 9.37216 176.44 9.2642C176.497 9.15436 176.526 9.03598 176.526 8.90909V8.60227C176.526 8.47538 176.498 8.35606 176.443 8.24432C176.39 8.13068 176.278 8.07386 176.108 8.07386C175.949 8.07386 175.839 8.13068 175.778 8.24432C175.718 8.35606 175.688 8.47538 175.688 8.60227ZM171.764 5.57955V5.27273C171.764 5.0303 171.816 4.80871 171.92 4.60795C172.027 4.4053 172.178 4.24337 172.375 4.12216C172.572 3.99905 172.811 3.9375 173.091 3.9375C173.381 3.9375 173.624 3.99905 173.821 4.12216C174.02 4.24337 174.17 4.4053 174.273 4.60795C174.375 4.80871 174.426 5.0303 174.426 5.27273V5.57955C174.426 5.82197 174.374 6.04356 174.27 6.24432C174.168 6.44508 174.017 6.60511 173.818 6.72443C173.619 6.84375 173.377 6.90341 173.091 6.90341C172.805 6.90341 172.563 6.8428 172.364 6.72159C172.167 6.60038 172.017 6.43939 171.915 6.23864C171.814 6.03788 171.764 5.81818 171.764 5.57955ZM172.679 5.27273V5.57955C172.679 5.70644 172.708 5.82481 172.767 5.93466C172.828 6.04261 172.936 6.09659 173.091 6.09659C173.258 6.09659 173.368 6.04261 173.423 5.93466C173.48 5.82481 173.509 5.70644 173.509 5.57955V5.27273C173.509 5.14583 173.482 5.02651 173.429 4.91477C173.376 4.80114 173.263 4.74432 173.091 4.74432C172.932 4.74432 172.823 4.80208 172.764 4.91761C172.707 5.03314 172.679 5.15152 172.679 5.27273ZM172.193 10L176.193 4.18182H176.969L172.969 10H172.193Z" fill="white"/>
<path d="M53.5 0.5C54.8807 0.5 56 1.61929 56 3V15.5H15V3L15.0127 2.74414C15.1408 1.48361 16.2057 0.5 17.5 0.5H53.5Z" fill="white"/>
<path d="M53.5 0.5C54.8807 0.5 56 1.61929 56 3V15.5H15V3L15.0127 2.74414C15.1408 1.48361 16.2057 0.5 17.5 0.5H53.5Z" stroke="#DEDEDE"/>
<path d="M22.5739 11V5.18182H24.8011C25.2216 5.18182 25.571 5.24811 25.8494 5.38068C26.1297 5.51136 26.339 5.69034 26.4773 5.91761C26.6174 6.14489 26.6875 6.40246 26.6875 6.69034C26.6875 6.92708 26.642 7.12973 26.5511 7.2983C26.4602 7.46496 26.3381 7.60038 26.1847 7.70455C26.0312 7.80871 25.8598 7.88352 25.6705 7.92898V7.9858C25.8769 7.99716 26.0748 8.06061 26.2642 8.17614C26.4555 8.28977 26.6117 8.45076 26.733 8.65909C26.8542 8.86742 26.9148 9.11932 26.9148 9.41477C26.9148 9.71591 26.8419 9.98674 26.696 10.2273C26.5502 10.4659 26.3305 10.6544 26.0369 10.7926C25.7434 10.9309 25.3741 11 24.929 11H22.5739ZM23.6278 10.1193H24.7614C25.1439 10.1193 25.4195 10.0464 25.5881 9.90057C25.7585 9.75284 25.8438 9.56345 25.8438 9.33239C25.8438 9.16004 25.8011 9.00473 25.7159 8.86648C25.6307 8.72633 25.5095 8.61648 25.3523 8.53693C25.1951 8.45549 25.0076 8.41477 24.7898 8.41477H23.6278V10.1193ZM23.6278 7.65625H24.6705C24.8523 7.65625 25.0161 7.62311 25.1619 7.55682C25.3078 7.48864 25.4223 7.39299 25.5057 7.26989C25.5909 7.14489 25.6335 6.99716 25.6335 6.8267C25.6335 6.60133 25.554 6.41572 25.3949 6.26989C25.2377 6.12405 25.0038 6.05114 24.6932 6.05114H23.6278V7.65625ZM30.5675 9.16477V6.63636H31.5959V11H30.5987V10.2244H30.5533C30.4548 10.4687 30.2929 10.6686 30.0675 10.8239C29.844 10.9792 29.5684 11.0568 29.2408 11.0568C28.9548 11.0568 28.7019 10.9934 28.4822 10.8665C28.2644 10.7377 28.094 10.5511 27.9709 10.3068C27.8478 10.0606 27.7862 9.76326 27.7862 9.41477V6.63636H28.8146V9.25568C28.8146 9.5322 28.8904 9.75189 29.0419 9.91477C29.1934 10.0777 29.3923 10.1591 29.6385 10.1591C29.79 10.1591 29.9368 10.1222 30.0788 10.0483C30.2209 9.97443 30.3374 9.86458 30.4283 9.71875C30.5211 9.57102 30.5675 9.38636 30.5675 9.16477ZM33.2926 12.6364C33.1525 12.6364 33.0227 12.625 32.9034 12.6023C32.786 12.5814 32.6922 12.5568 32.6222 12.5284L32.8608 11.7273C33.0104 11.7708 33.1439 11.7917 33.2614 11.7898C33.3788 11.7879 33.482 11.7509 33.571 11.679C33.6619 11.6089 33.7386 11.4915 33.8011 11.3267L33.8892 11.0909L32.3068 6.63636H33.3977L34.4034 9.93182H34.4489L35.4574 6.63636H36.5511L34.804 11.5284C34.7225 11.7595 34.6146 11.9574 34.4801 12.1222C34.3456 12.2888 34.1809 12.4157 33.9858 12.5028C33.7926 12.5919 33.5616 12.6364 33.2926 12.6364ZM40.0398 11H38.9148L40.9631 5.18182H42.2642L44.3153 11H43.1903L41.6364 6.375H41.5909L40.0398 11ZM40.0767 8.71875H43.1449V9.56534H40.0767V8.71875ZM46.0646 5.18182V11H45.0362V5.18182H46.0646ZM48.1506 5.18182V11H47.1222V5.18182H48.1506Z" fill="#303030"/>
<rect x="0.5" y="15" width="199" height="89" rx="5.5" fill="white"/>
<rect x="0.5" y="15" width="199" height="89" rx="5.5" stroke="#DEDEDE"/>
<rect x="64" y="47.5" width="10" height="10" rx="5" fill="#6678A6"/>
<path d="M69 50.5V54.5M67 52.5H71" stroke="white" stroke-width="1.33333" stroke-linecap="round" stroke-linejoin="round"/>
<rect x="125" y="47.5" width="10" height="10" rx="5" fill="#6678A6"/>
<path d="M130 50.5V54.5M128 52.5H132" stroke="white" stroke-width="1.33333" stroke-linecap="round" stroke-linejoin="round"/>
<rect x="16" y="79.5" width="18" height="4" rx="0.8" fill="#DADBDD"/>
<rect x="16" y="86.5" width="42" height="4" rx="0.8" fill="#E9E9E9"/>
<rect x="15.5" y="29.5" width="46" height="46" rx="4" fill="#F1F1F1"/>
<path d="M47.3281 43.4766H29.6719C29.0258 43.4766 28.5 44.0023 28.5 44.6484V56.2891C28.5 56.9352 29.0258 57.4609 29.6719 57.4609H47.3281C47.9742 57.4609 48.5 56.9352 48.5 56.2891V44.6484C48.5 44.0023 47.9742 43.4766 47.3281 43.4766Z" fill="#7BA2FE"/>
<path d="M44.75 60.3516H41.5859V58.6328H35.4141V60.3516H32.25C31.9266 60.3516 31.6641 60.6141 31.6641 60.9375C31.6641 61.2609 31.9266 61.5234 32.25 61.5234H44.75C45.0734 61.5234 45.3359 61.2609 45.3359 60.9375C45.3359 60.6141 45.0734 60.3516 44.75 60.3516Z" fill="#004BFF"/>
<rect x="76.5" y="29.5" width="46" height="46" rx="4" fill="#F1F1F1"/>
<path d="M99.1251 48.1251C98.9114 48.0484 98.7267 47.9078 98.5958 47.7224C98.4649 47.5369 98.3944 47.3157 98.3937 47.0887V45.1463C98.3882 44.9185 98.4564 44.6949 98.5881 44.5089C98.7199 44.323 98.9082 44.1845 99.1251 44.1143V42C99.1251 41.9005 99.1646 41.8052 99.2349 41.7348C99.3052 41.6645 99.4006 41.625 99.5001 41.625C97.6299 41.6271 95.837 42.3709 94.5146 43.6933C93.1922 45.0157 92.4484 46.8086 92.4463 48.6788V49.7421C94.5506 50.6821 96.8209 51.1942 99.1251 51.2485V48.1251Z" fill="#004BFF"/>
<path d="M99.875 42V44.1138C100.092 44.1836 100.281 44.322 100.413 44.5082C100.545 44.6944 100.612 44.9183 100.606 45.1463V47.0887C100.606 47.3157 100.535 47.5369 100.404 47.7224C100.273 47.9078 100.089 48.0484 99.875 48.1251V51.2436C102.177 51.152 104.441 50.6336 106.554 49.7148C106.554 49.1151 106.554 48.7145 106.554 48.6811C106.661 45.0052 103.355 41.5341 99.5001 41.625C99.5995 41.625 99.6948 41.6645 99.7652 41.7348C99.8355 41.8052 99.875 41.9006 99.875 42Z" fill="#004BFF"/>
<path d="M99.4999 44.79C99.4054 44.7901 99.3148 44.8277 99.248 44.8945C99.1812 44.9613 99.1437 45.0518 99.1436 45.1463V47.0887C99.1436 47.1832 99.1811 47.2738 99.2479 47.3406C99.3147 47.4075 99.4054 47.445 99.4999 47.445C99.5944 47.445 99.685 47.4075 99.7518 47.3406C99.8187 47.2738 99.8562 47.1832 99.8562 47.0887V45.1463C99.8561 45.0518 99.8186 44.9612 99.7518 44.8944C99.685 44.8276 99.5944 44.79 99.4999 44.79Z" fill="#7BA2FE"/>
<path d="M106.554 55.2119C106.554 53.9802 106.554 51.9733 106.554 50.5083L106.49 50.5364C104.267 51.5069 101.868 52.0077 99.4435 52.0076C97.036 52.0055 94.6545 51.5095 92.4463 50.5503V56.3212C92.4463 58.1819 93.1814 59.9672 94.4917 61.2884C95.802 62.6095 97.5812 63.3595 99.4418 63.3748C101.302 63.3902 103.094 62.6697 104.426 61.3704C105.758 60.0711 106.522 58.2981 106.553 56.4377C106.559 56.179 106.548 56.0152 106.554 55.2119Z" fill="#7BA2FE"/>
<rect x="77" y="79.5" width="18" height="4" rx="0.8" fill="#DADBDD"/>
<rect x="77" y="86.5" width="42" height="4" rx="0.8" fill="#E9E9E9"/>
<rect x="137.5" y="29.5" width="46" height="46" rx="4" fill="#F1F1F1"/>
<g clip-path="url(#clip0_71_14117)">
<path d="M154.324 52.8602C153.577 52.8602 152.971 53.3702 152.971 53.9993V54.6361H152.951C151.873 54.6361 150.999 55.3724 150.999 56.2806V58.4863C150.999 59.3947 151.873 60.131 152.951 60.131H152.971V60.7677C152.971 61.3969 153.577 61.9069 154.324 61.9069C155.071 61.9069 155.676 61.3969 155.676 60.7677V53.9993C155.676 53.3702 155.071 52.8602 154.324 52.8602Z" fill="#004BFF"/>
<path d="M168.049 54.6361H168.029V53.9994C168.029 53.3702 167.424 52.8602 166.677 52.8602C165.93 52.8602 165.324 53.3702 165.324 53.9994V60.7677C165.324 61.397 165.93 61.9069 166.677 61.9069C167.424 61.9069 168.029 61.397 168.029 60.7677V60.131H168.049C169.128 60.131 170.002 59.3948 170.002 58.4864V56.2806C170.002 55.3724 169.128 54.6361 168.049 54.6361Z" fill="#004BFF"/>
<path d="M160.5 43.0931C154.977 43.0931 150.5 47.5702 150.5 53.0931C150.5 53.5476 150.531 53.9948 150.589 54.4332C150.66 54.3594 150.736 54.2886 150.815 54.2215C151.112 53.9713 151.456 53.7787 151.828 53.6503C151.914 53.1336 152.19 52.6536 152.612 52.2976C152.634 52.2797 152.655 52.2626 152.677 52.2455C153.1 48.2986 156.441 45.2247 160.5 45.2247C164.559 45.2247 167.9 48.2986 168.323 52.2455C168.345 52.2627 168.366 52.2797 168.388 52.2976C168.81 52.6537 169.086 53.1336 169.172 53.6503C169.544 53.7787 169.888 53.9713 170.185 54.2215C170.264 54.2886 170.34 54.3594 170.411 54.4332C170.469 53.9948 170.5 53.5476 170.5 53.0931C170.5 47.5702 166.023 43.0931 160.5 43.0931Z" fill="#7BA2FE"/>
</g>
<rect x="138" y="79.5" width="18" height="4" rx="0.8" fill="#DADBDD"/>
<rect x="138" y="86.5" width="42" height="4" rx="0.8" fill="#E9E9E9"/>
<defs>
<clipPath id="clip0_71_14117">
<rect width="20" height="20" fill="white" transform="translate(150.5 42.5)"/>
</clipPath>
</defs>
</svg>
