<svg fill="none" height="44" viewBox="0 0 44 44" width="44" xmlns="http://www.w3.org/2000/svg"><rect fill="#f1f1f1" height="44" rx="22" width="44"/><path d="m21.3266 17.7961h2.8905c.9571-.0021.9597-1.4633-.0001-1.4661h-1.2463v-.6644c0-.4052-.3286-.7331-.7334-.7331-.4049 0-.7331.3279-.7331.7331v.6644c-3.106-.1196-3.2828 4.4316-.1775 4.5374h1.3551c1.0488.0181 1.0592 1.5756 0 1.5936h-2.8904c-.9616.0142-.9647 1.4508 0 1.4661h1.7128v.6644c.0034.956 1.4624.9608 1.4665-.0001v-.6934c2.7809-.4006 2.5215-4.4415-.2889-4.4968h-1.3552c-1.0534-.018-1.0544-1.5867 0-1.6051z" fill="#004bff"/><path d="m16.3812 27.2496c.6323.0202.9863-.8224.5129-1.2571-4.6639-4.4897-1.3673-12.5682 5.1103-12.5261 4.0282 0 7.3049 3.2766 7.3049 7.305.0184.63-.3191 1.6118.5771 1.7461.9664.0769.8711-1.0772.889-1.7461.0001-4.8366-3.9345-8.7712-8.7712-8.7712-7.7777-.0497-11.7355 9.6496-6.136 15.0404.1429.1396.3279.209.513.209z" fill="#004bff"/><path d="m32.7634 24.2662c-.0193-.3604-.3391-.5987-.6798-.6447 0-.0001-5.2225-.2514-5.2225-.2514-.9549-.0254-1.0375 1.3996-.0702 1.4648 0 0 3.2488.1564 3.2488.1564l-6.7266 5.2179-2.772-3.7156c-.2328-.3267-.7352-.3924-1.0427-.1367 0 0-7.9916 6.3279-7.9916 6.3279-.7481.5968.1559 1.7427.9099 1.1497 0 0 7.4003-5.8597 7.4003-5.8597l2.7673 3.7098c.1177.1583.2942.2621.4889.2885.1933.0251.3924-.0272.5484-.1474l7.3218-5.6796-.6367 3.1918c-.1836.9361 1.2425 1.2302 1.4376.2863-.0001.0001 1.023-5.1272 1.023-5.1272.0067-.0762.0088-.1533-.0039-.2308z" fill="#1a1a1a"/></svg>