<svg width="20" height="20" viewBox="0 0 20 20" fill="none" xmlns="http://www.w3.org/2000/svg">
<rect width="20" height="20" rx="10" fill="#D2F6E1"/>
<path d="M11.9256 9.36648C11.3823 9.06623 10.8047 8.83747 10.2328 8.60013C9.90106 8.46287 9.58365 8.30274 9.30342 8.0797C8.75154 7.63934 8.85734 6.92446 9.50359 6.64137C9.68659 6.5613 9.87818 6.53557 10.0726 6.52413C10.8218 6.48409 11.5338 6.62135 12.2115 6.94733C12.549 7.11033 12.6605 7.05886 12.7749 6.70714C12.895 6.3354 12.995 5.95794 13.1066 5.58335C13.1809 5.33171 13.0894 5.16586 12.8521 5.06006C12.4174 4.86847 11.9713 4.73122 11.5024 4.65687C10.8904 4.5625 10.8904 4.55964 10.8876 3.94485C10.8847 3.07842 10.8847 3.07842 10.0154 3.07842C9.88962 3.07842 9.7638 3.07556 9.63798 3.07842C9.23193 3.08986 9.1633 3.16135 9.15187 3.57025C9.14615 3.75326 9.15187 3.93627 9.14901 4.12214C9.14615 4.66545 9.14329 4.65687 8.62286 4.8456C7.36467 5.30312 6.58689 6.16097 6.50396 7.53353C6.42961 8.74882 7.06443 9.5695 8.06239 10.1671C8.67719 10.536 9.35775 10.7533 10.0097 11.0422C10.2642 11.1537 10.5073 11.2824 10.7189 11.4596C11.3451 11.9772 11.2307 12.8379 10.4873 13.1639C10.0898 13.3383 9.66944 13.3812 9.23765 13.3269C8.57139 13.244 7.93372 13.0695 7.33322 12.7579C6.9815 12.5748 6.87856 12.6235 6.75846 13.0038C6.65552 13.3326 6.56401 13.6643 6.47251 13.996C6.34955 14.4421 6.3953 14.5479 6.82137 14.7567C7.36467 15.0197 7.94515 15.1541 8.53707 15.2485C9.00031 15.3228 9.01461 15.3429 9.02033 15.8232C9.02319 16.0406 9.02319 16.2608 9.02605 16.4781C9.02891 16.7526 9.16045 16.9127 9.44354 16.9184C9.7638 16.9242 10.0869 16.9242 10.4072 16.9156C10.6703 16.9099 10.8047 16.7669 10.8047 16.501C10.8047 16.2036 10.819 15.9033 10.8075 15.6059C10.7932 15.3028 10.9248 15.1484 11.2164 15.0683C11.8884 14.8853 12.4603 14.525 12.9007 13.9874C14.1246 12.5005 13.6585 10.3244 11.9256 9.36648Z" fill="#15BF5F"/>
</svg>
