<svg width="160" height="97" viewBox="0 0 160 97" fill="none" xmlns="http://www.w3.org/2000/svg">
<g filter="url(#filter0_d_4_1)">
<g clip-path="url(#clip0_4_1)">
<path d="M34.305 8C34.305 3.582 37.887 0 42.305 0H150.305C154.724 0 158.305 3.582 158.305 8V87C158.305 91.418 154.724 95 150.305 95H42.305C37.887 95 34.305 91.418 34.305 87V8Z" fill="white"/>
<rect width="124" height="18" transform="translate(34.305)" fill="#303030"/>
<circle cx="42.305" cy="9" r="2.5" fill="#FF5F57"/>
<circle cx="49.305" cy="9" r="2.5" fill="#FEBC2E"/>
<circle cx="56.305" cy="9" r="2.5" fill="#28C840"/>
<rect x="75.305" y="5" width="40" height="8" rx="4" fill="#4A4A4A"/>
<rect x="42.305" y="24" width="108" height="4" rx="2" fill="#F1F1F1"/>
<rect x="42.305" y="32" width="80" height="4" rx="2" fill="#F1F1F1"/>
<rect x="42.305" y="42" width="48" height="40" rx="3" fill="#F1F1F1"/>
<rect x="96.305" y="42" width="48" height="40" rx="3" fill="#F1F1F1"/>
<rect x="48.305" y="48" width="36" height="20" rx="2" fill="#D4D4D4"/>
<path d="M60.305 56L64.305 60L72.305 52" stroke="#2667FF" stroke-width="2" stroke-linecap="round" stroke-linejoin="round"/>
<rect x="48.305" y="72" width="30" height="3" rx="1" fill="#D4D4D4"/>
<rect x="102.305" y="48" width="36" height="20" rx="2" fill="#D4D4D4"/>
<rect x="102.305" y="72" width="30" height="3" rx="1" fill="#D4D4D4"/>
</g>
</g>
<g filter="url(#filter1_d_4_1)">
<rect x="2.305" y="50" width="40" height="28" rx="3" fill="white" stroke="#303030" stroke-width="0.5"/>
<rect x="7.305" y="55" width="30" height="3" rx="1" fill="#D4D4D4"/>
<rect x="7.305" y="61" width="22" height="3" rx="1" fill="#D4D4D4"/>
<rect x="7.305" y="68" width="16" height="6" rx="3" fill="#2667FF"/>
</g>
<path d="M2.62 25.945L6.865 31.716" stroke="#2667FF" stroke-linecap="round"/>
<path d="M0.5 32.115L4.744 33.885" stroke="#2667FF" stroke-linecap="round"/>
<path d="M10.264 26.352L9.518 30.648" stroke="#2667FF" stroke-linecap="round"/>
<defs>
<filter id="filter0_d_4_1" x="33.305" y="0" width="126" height="97" filterUnits="userSpaceOnUse" color-interpolation-filters="sRGB">
<feFlood flood-opacity="0" result="BackgroundImageFix"/>
<feColorMatrix in="SourceAlpha" type="matrix" values="0 0 0 0 0 0 0 0 0 0 0 0 0 0 0 0 0 0 127 0" result="hardAlpha"/>
<feOffset dy="1"/>
<feGaussianBlur stdDeviation="0.5"/>
<feComposite in2="hardAlpha" operator="out"/>
<feColorMatrix type="matrix" values="0 0 0 0 0.816 0 0 0 0 0.816 0 0 0 0 0.816 0 0 0 1 0"/>
<feBlend mode="normal" in2="BackgroundImageFix" result="effect1_dropShadow"/>
<feBlend mode="normal" in="SourceGraphic" in2="effect1_dropShadow" result="shape"/>
</filter>
<filter id="filter1_d_4_1" x="2.055" y="49.75" width="43.5" height="31.5" filterUnits="userSpaceOnUse" color-interpolation-filters="sRGB">
<feFlood flood-opacity="0" result="BackgroundImageFix"/>
<feColorMatrix in="SourceAlpha" type="matrix" values="0 0 0 0 0 0 0 0 0 0 0 0 0 0 0 0 0 0 127 0" result="hardAlpha"/>
<feOffset dx="3" dy="3"/>
<feComposite in2="hardAlpha" operator="out"/>
<feColorMatrix type="matrix" values="0 0 0 0 0 0 0 0 0 0 0 0 0 0 0 0 0 0 0.14 0"/>
<feBlend mode="normal" in2="BackgroundImageFix" result="effect1_dropShadow"/>
<feBlend mode="normal" in="SourceGraphic" in2="effect1_dropShadow" result="shape"/>
</filter>
<clipPath id="clip0_4_1">
<path d="M34.305 8C34.305 3.582 37.887 0 42.305 0H150.305C154.724 0 158.305 3.582 158.305 8V87C158.305 91.418 154.724 95 150.305 95H42.305C37.887 95 34.305 91.418 34.305 87V8Z" fill="white"/>
</clipPath>
</defs>
</svg>
