<svg width="160" height="97" viewBox="0 0 160 97" fill="none" xmlns="http://www.w3.org/2000/svg">
<g filter="url(#filter0_d_15_152)">
<g clip-path="url(#clip0_15_152)">
<path d="M34.3053 8C34.3053 3.58172 37.887 0 42.3053 0H150.305C154.724 0 158.305 3.58172 158.305 8V87C158.305 91.4183 154.724 95 150.305 95H42.3053C37.887 95 34.3053 91.4183 34.3053 87V8Z" fill="white"/>
<rect width="124" height="18" transform="translate(34.3053)" fill="#303030"/>
<path d="M44.7638 10.0656C46.0781 8.45736 49.2637 6.20588 51.4921 10.0656" stroke="white" stroke-linecap="round"/>
<path d="M51.4921 10.0656C52.8063 8.45736 55.9919 6.20588 58.2203 10.0656" stroke="white" stroke-linecap="round"/>
<path d="M58.2203 10.0656C59.5346 8.45736 62.7202 6.20588 64.9486 10.0656" stroke="white" stroke-linecap="round"/>
</g>
</g>
<g filter="url(#filter1_d_15_152)">
<path d="M7.3053 36C7.3053 34.5272 8.49921 33.3333 9.97196 33.3333H42.6386C44.1114 33.3333 45.3053 34.5272 45.3053 36V76.6666C45.3053 78.1394 44.1114 79.3333 42.6386 79.3333H9.97197C8.49921 79.3333 7.3053 78.1394 7.3053 76.6666V36Z" fill="white"/>
<path d="M9.97229 33.5999H42.6383C43.9638 33.5999 45.0387 34.6748 45.0387 36.0003V76.6663C45.0387 77.9918 43.9638 79.0667 42.6383 79.0667H9.97229C8.64681 79.0667 7.5719 77.9918 7.5719 76.6663V36.0003C7.5719 34.6748 8.64681 33.5999 9.97229 33.5999Z" stroke="#303030" stroke-width="0.533333"/>
<rect x="13.3053" y="39.5" width="26" height="16" rx="1" fill="#D4D4D4"/>
<path fill-rule="evenodd" clip-rule="evenodd" d="M25.8335 45.1817C25.8335 45.6917 25.4162 46.109 24.9062 46.109C24.3962 46.109 23.9789 45.6917 23.9789 45.1817C23.9789 44.6717 24.3962 44.2544 24.9062 44.2544C25.4162 44.2544 25.8335 44.6717 25.8335 45.1817ZM26.1117 48.4505L27.7299 45.8586C27.92 45.5572 28.3605 45.5711 28.5321 45.8818L30.7947 50.0594C30.9617 50.3701 30.7391 50.7456 30.3867 50.7456H22.2216C21.8692 50.7456 21.6421 50.3654 21.8229 50.0548L23.251 47.5139C23.3947 47.2635 23.7239 47.1986 23.9465 47.3794L25.4302 48.5664C25.6434 48.738 25.9634 48.687 26.1117 48.4505Z" fill="white"/>
<rect x="13.3053" y="63.1667" width="10" height="2" rx="0.8" fill="#D4D4D4"/>
<rect x="13.3053" y="59.5" width="19" height="2" rx="0.8" fill="#D4D4D4"/>
<rect x="13.3053" y="69.1667" width="15" height="4" rx="0.8" fill="#D0D0D0"/>
</g>
<g filter="url(#filter2_d_15_152)">
<path d="M59.3053 36C59.3053 34.5272 60.4992 33.3333 61.972 33.3333H94.6386C96.1114 33.3333 97.3053 34.5272 97.3053 36V78.6666C97.3053 80.1394 96.1114 81.3333 94.6386 81.3333H61.972C60.4992 81.3333 59.3053 80.1394 59.3053 78.6666V36Z" fill="white"/>
<path d="M61.9723 33.5999H94.6383C95.9638 33.5999 97.0387 34.6748 97.0387 36.0003V78.6663C97.0387 79.9918 95.9638 81.0667 94.6383 81.0667H61.9723C60.6468 81.0667 59.5719 79.9918 59.5719 78.6663V36.0003C59.5719 34.6748 60.6468 33.5999 61.9723 33.5999Z" stroke="#303030" stroke-width="0.533333"/>
<rect x="65.3053" y="39.5" width="26" height="16" rx="1" fill="#D4D4D4"/>
<path fill-rule="evenodd" clip-rule="evenodd" d="M77.8359 45.015C77.8359 45.525 77.4186 45.9423 76.9085 45.9423C76.3985 45.9423 75.9812 45.525 75.9812 45.015C75.9812 44.505 76.3985 44.0877 76.9085 44.0877C77.4186 44.0877 77.8359 44.505 77.8359 45.015ZM78.1141 48.2838L79.7322 45.6919C79.9223 45.3905 80.3628 45.4045 80.5344 45.7151L82.7971 49.8927C82.964 50.2034 82.7414 50.5789 82.389 50.5789H74.2239C73.8716 50.5789 73.6444 50.1987 73.8252 49.8881L75.2533 47.3472C75.397 47.0968 75.7262 47.0319 75.9488 47.2128L77.4325 48.3997C77.6458 48.5713 77.9657 48.5203 78.1141 48.2838Z" fill="white"/>
<rect x="65.3053" y="63.1667" width="10" height="2" rx="0.8" fill="#D4D4D4"/>
<rect x="65.3053" y="59.5" width="19" height="2" rx="0.8" fill="#D4D4D4"/>
<rect x="65.3053" y="69.1667" width="15" height="4" rx="0.8" fill="#D0D0D0"/>
</g>
<g filter="url(#filter3_d_15_152)">
<path d="M111.305 36C111.305 34.5272 112.499 33.3333 113.972 33.3333H146.639C148.111 33.3333 149.305 34.5272 149.305 36V78.6666C149.305 80.1394 148.111 81.3333 146.639 81.3333H113.972C112.499 81.3333 111.305 80.1394 111.305 78.6666V36Z" fill="white"/>
<path d="M113.972 33.5999H146.638C147.964 33.5999 149.039 34.6748 149.039 36.0003V78.6663C149.039 79.9918 147.964 81.0667 146.638 81.0667H113.972C112.647 81.0667 111.572 79.9918 111.572 78.6663V36.0003C111.572 34.6748 112.647 33.5999 113.972 33.5999Z" stroke="#303030" stroke-width="0.533333"/>
<rect x="117.305" y="39.5" width="26" height="16" rx="1" fill="#D4D4D4"/>
<path fill-rule="evenodd" clip-rule="evenodd" d="M129.836 45.015C129.836 45.525 129.419 45.9423 128.909 45.9423C128.398 45.9423 127.981 45.525 127.981 45.015C127.981 44.505 128.398 44.0877 128.909 44.0877C129.419 44.0877 129.836 44.505 129.836 45.015ZM130.114 48.2838L131.732 45.6919C131.922 45.3905 132.363 45.4045 132.534 45.7151L134.797 49.8927C134.964 50.2034 134.741 50.5789 134.389 50.5789H126.224C125.872 50.5789 125.644 50.1987 125.825 49.8881L127.253 47.3472C127.397 47.0968 127.726 47.0319 127.949 47.2128L129.432 48.3997C129.646 48.5713 129.966 48.5203 130.114 48.2838Z" fill="white"/>
<rect x="117.305" y="63.1667" width="10" height="2" rx="0.8" fill="#D4D4D4"/>
<rect x="117.305" y="59.5" width="19" height="2" rx="0.8" fill="#D4D4D4"/>
<rect x="117.305" y="69.1667" width="15" height="4" rx="0.8" fill="#D0D0D0"/>
</g>
<path d="M2.62183 25.7785L6.86523 31.5495" stroke="#2667FF" stroke-linecap="round"/>
<path d="M0.500122 31.9478L4.74353 33.7178" stroke="#2667FF" stroke-linecap="round"/>
<path d="M10.2644 26.1857L9.51775 30.4809" stroke="#2667FF" stroke-linecap="round"/>
<rect x="47.3053" y="52.3333" width="10" height="10" rx="5" fill="#2667FF"/>
<path d="M52.3054 55.5129V59.1537M50.485 57.3333H54.1257" stroke="white" stroke-linecap="round" stroke-linejoin="round"/>
<rect x="99.3053" y="52.3333" width="10" height="10" rx="5" fill="#2667FF"/>
<path d="M104.305 55.5129V59.1537M102.485 57.3333H106.126" stroke="white" stroke-linecap="round" stroke-linejoin="round"/>
<defs>
<filter id="filter0_d_15_152" x="33.3053" y="0" width="126" height="97" filterUnits="userSpaceOnUse" color-interpolation-filters="sRGB">
<feFlood flood-opacity="0" result="BackgroundImageFix"/>
<feColorMatrix in="SourceAlpha" type="matrix" values="0 0 0 0 0 0 0 0 0 0 0 0 0 0 0 0 0 0 127 0" result="hardAlpha"/>
<feOffset dy="1"/>
<feGaussianBlur stdDeviation="0.5"/>
<feComposite in2="hardAlpha" operator="out"/>
<feColorMatrix type="matrix" values="0 0 0 0 0.815686 0 0 0 0 0.815686 0 0 0 0 0.815686 0 0 0 1 0"/>
<feBlend mode="normal" in2="BackgroundImageFix" result="effect1_dropShadow_15_152"/>
<feBlend mode="normal" in="SourceGraphic" in2="effect1_dropShadow_15_152" result="shape"/>
</filter>
<filter id="filter1_d_15_152" x="7.3053" y="33.3333" width="41" height="49" filterUnits="userSpaceOnUse" color-interpolation-filters="sRGB">
<feFlood flood-opacity="0" result="BackgroundImageFix"/>
<feColorMatrix in="SourceAlpha" type="matrix" values="0 0 0 0 0 0 0 0 0 0 0 0 0 0 0 0 0 0 127 0" result="hardAlpha"/>
<feOffset dx="3" dy="3"/>
<feComposite in2="hardAlpha" operator="out"/>
<feColorMatrix type="matrix" values="0 0 0 0 0 0 0 0 0 0 0 0 0 0 0 0 0 0 0.14 0"/>
<feBlend mode="normal" in2="BackgroundImageFix" result="effect1_dropShadow_15_152"/>
<feBlend mode="normal" in="SourceGraphic" in2="effect1_dropShadow_15_152" result="shape"/>
</filter>
<filter id="filter2_d_15_152" x="59.3053" y="33.3333" width="41" height="51" filterUnits="userSpaceOnUse" color-interpolation-filters="sRGB">
<feFlood flood-opacity="0" result="BackgroundImageFix"/>
<feColorMatrix in="SourceAlpha" type="matrix" values="0 0 0 0 0 0 0 0 0 0 0 0 0 0 0 0 0 0 127 0" result="hardAlpha"/>
<feOffset dx="3" dy="3"/>
<feComposite in2="hardAlpha" operator="out"/>
<feColorMatrix type="matrix" values="0 0 0 0 0 0 0 0 0 0 0 0 0 0 0 0 0 0 0.14 0"/>
<feBlend mode="normal" in2="BackgroundImageFix" result="effect1_dropShadow_15_152"/>
<feBlend mode="normal" in="SourceGraphic" in2="effect1_dropShadow_15_152" result="shape"/>
</filter>
<filter id="filter3_d_15_152" x="111.305" y="33.3333" width="41" height="51" filterUnits="userSpaceOnUse" color-interpolation-filters="sRGB">
<feFlood flood-opacity="0" result="BackgroundImageFix"/>
<feColorMatrix in="SourceAlpha" type="matrix" values="0 0 0 0 0 0 0 0 0 0 0 0 0 0 0 0 0 0 127 0" result="hardAlpha"/>
<feOffset dx="3" dy="3"/>
<feComposite in2="hardAlpha" operator="out"/>
<feColorMatrix type="matrix" values="0 0 0 0 0 0 0 0 0 0 0 0 0 0 0 0 0 0 0.14 0"/>
<feBlend mode="normal" in2="BackgroundImageFix" result="effect1_dropShadow_15_152"/>
<feBlend mode="normal" in="SourceGraphic" in2="effect1_dropShadow_15_152" result="shape"/>
</filter>
<clipPath id="clip0_15_152">
<path d="M34.3053 8C34.3053 3.58172 37.887 0 42.3053 0H150.305C154.724 0 158.305 3.58172 158.305 8V87C158.305 91.4183 154.724 95 150.305 95H42.3053C37.887 95 34.3053 91.4183 34.3053 87V8Z" fill="white"/>
</clipPath>
</defs>
</svg>
