<svg width="159" height="97" viewBox="0 0 159 97" fill="none" xmlns="http://www.w3.org/2000/svg">
<g filter="url(#filter0_d_15_62)">
<g clip-path="url(#clip0_15_62)">
<path d="M33.3053 8C33.3053 3.58172 36.887 0 41.3053 0H149.305C153.724 0 157.305 3.58172 157.305 8V87C157.305 91.4183 153.724 95 149.305 95H41.3053C36.887 95 33.3053 91.4183 33.3053 87V8Z" fill="white"/>
<rect x="95.3053" y="32.3333" width="52" height="15" rx="2" fill="#F1F1F1"/>
<rect x="99.3053" y="35.8333" width="8" height="8" rx="1" fill="#D4D4D4"/>
<rect x="109.305" y="36.3333" width="33" height="2" rx="0.6" fill="#D4D4D4"/>
<rect x="109.305" y="40.3333" width="22" height="2" rx="0.6" fill="#D4D4D4"/>
<rect x="95.3053" y="61.8333" width="52" height="15" rx="2" fill="#F1F1F1"/>
<rect x="99.3053" y="65.3333" width="8" height="8" rx="1" fill="#D4D4D4"/>
<rect x="109.305" y="65.8333" width="33" height="2" rx="0.6" fill="#D4D4D4"/>
<rect x="109.305" y="69.8333" width="22" height="2" rx="0.6" fill="#D4D4D4"/>
<rect x="117.305" y="51.3333" width="8" height="8" rx="4" fill="#2667FF"/>
<path d="M121.305 53.877V56.7896M119.849 55.3333H122.762" stroke="white" stroke-width="0.8" stroke-linecap="round" stroke-linejoin="round"/>
<rect width="124" height="18" transform="translate(33.3053)" fill="#303030"/>
<path d="M43.7638 10.0656C45.0781 8.45738 48.2637 6.20589 50.4921 10.0656" stroke="white" stroke-linecap="round"/>
<path d="M50.4921 10.0656C51.8063 8.45738 54.9919 6.20589 57.2203 10.0656" stroke="white" stroke-linecap="round"/>
<path d="M57.2203 10.0656C58.5346 8.45738 61.7202 6.20589 63.9486 10.0656" stroke="white" stroke-linecap="round"/>
</g>
</g>
<g filter="url(#filter1_d_15_62)">
<path d="M7.3053 33C7.3053 31.5272 8.49921 30.3333 9.97196 30.3333H86.6386C88.1114 30.3333 89.3053 31.5272 89.3053 33V76.6666C89.3053 78.1394 88.1114 79.3333 86.6386 79.3333H9.97196C8.4992 79.3333 7.3053 78.1394 7.3053 76.6666V33Z" fill="white"/>
<path d="M9.97229 30.5999H86.6383C87.9638 30.5999 89.0387 31.6748 89.0387 33.0003V76.6663C89.0387 77.9918 87.9638 79.0667 86.6383 79.0667H9.97229C8.64681 79.0667 7.5719 77.9918 7.5719 76.6663V33.0003C7.5719 31.6748 8.64681 30.5999 9.97229 30.5999Z" stroke="#303030" stroke-width="0.533333"/>
<rect x="45.3053" y="63.0833" width="6" height="6" rx="3" fill="#BEBEBE"/>
<rect x="54.3053" y="65.0833" width="28" height="2" rx="1" fill="#D4D4D4"/>
<rect x="45.3053" y="52.0833" width="6" height="6" rx="3" fill="#A4BFFF"/>
<rect x="54.3053" y="54.0833" width="28" height="2" rx="1" fill="#D4D4D4"/>
<rect x="45.3053" y="41.0833" width="6" height="6" rx="3" fill="#2667FF"/>
<rect x="54.3053" y="43.0833" width="28" height="2" rx="1" fill="#D4D4D4"/>
<g clip-path="url(#clip1_15_62)">
<path d="M33.5685 65.8675C32.2766 66.5029 30.8791 66.8962 29.4453 67.0281C29.064 67.0636 28.6827 67.0821 28.3015 67.0833C27.9202 67.0833 27.539 67.0643 27.1577 67.0281C25.6187 66.886 24.1225 66.4432 22.7542 65.7246C22.0773 65.377 21.4385 64.96 20.848 64.4802C19.7619 63.6272 18.8357 62.5884 18.1125 61.4121C17.7042 60.7663 17.3631 60.0805 17.0945 59.3654C16.6187 58.1244 16.3558 56.812 16.3167 55.4835C16.3053 55.352 16.3053 55.2205 16.3053 55.0891C16.3046 54.46 16.3524 53.8318 16.4483 53.2101C16.647 51.9455 17.0494 50.7214 17.6397 49.5855C17.9843 48.9012 18.3996 48.2548 18.8788 47.6569C19.6455 46.6785 20.5623 45.8275 21.5952 45.1357L23.0974 47.7427C21.8802 48.6023 20.8967 49.7518 20.236 51.0871C19.8978 51.7597 19.6486 52.4733 19.4945 53.2101C19.3566 53.8268 19.2882 54.4571 19.2905 55.0891C19.2882 55.2226 19.2927 55.3562 19.3039 55.4892C19.3699 57.0635 19.8549 58.5917 20.7088 59.9161C21.1639 60.638 21.7227 61.289 22.3673 61.8485C23.7146 63.0372 25.3883 63.7935 27.1711 64.019C27.9305 64.1162 28.6992 64.1162 29.4586 64.019C30.3664 63.9015 31.2505 63.6444 32.0797 63.2568L33.5685 65.8675Z" fill="#2667FF"/>
<path d="M40.3053 55.089C40.3053 55.2262 40.3053 55.3577 40.2939 55.4892C40.2567 56.8792 39.9687 58.2511 39.4437 59.5388C39.1692 60.25 38.8203 60.9303 38.4029 61.5683C37.6316 62.7704 36.6508 63.8244 35.5072 64.6803L33.9937 62.0524C35.292 60.9973 36.2697 59.6007 36.8168 58.02C37.105 57.2036 37.2689 56.3486 37.3029 55.4835C37.3144 55.352 37.3144 55.2205 37.3144 55.0833C37.3167 54.4514 37.2483 53.8211 37.1104 53.2043C36.9442 52.4079 36.6683 51.6383 36.2907 50.9175L38.889 49.4159C39.5217 50.5982 39.9521 51.8781 40.1624 53.2024C40.2587 53.8267 40.3065 54.4574 40.3053 55.089Z" fill="#BEBEBE"/>
<path d="M37.6194 47.5159L34.9868 49.0404C34.4757 48.4766 33.8947 47.9803 33.2578 47.5635C32.1092 46.8115 30.8063 46.3269 29.4453 46.1457C28.6857 46.0511 27.9173 46.0511 27.1578 46.1457C26.4524 46.2322 25.7607 46.407 25.099 46.666L23.593 44.0457C24.7312 43.5586 25.9384 43.2519 27.1711 43.1367C27.5524 43.1005 27.9336 43.0833 28.3149 43.0833C28.6961 43.0833 29.0774 43.1005 29.4586 43.1367C30.5776 43.2424 31.6754 43.5088 32.7184 43.9275C33.4298 44.2024 34.1113 44.5491 34.7523 44.9623C35.8388 45.6543 36.8069 46.5165 37.6194 47.5159Z" fill="#A4BFFF"/>
</g>
</g>
<path d="M2.62183 20.7785L6.86523 26.5495" stroke="#2667FF" stroke-linecap="round"/>
<path d="M0.500122 26.9478L4.74353 28.7178" stroke="#2667FF" stroke-linecap="round"/>
<path d="M10.2644 21.1857L9.51775 25.4809" stroke="#2667FF" stroke-linecap="round"/>
<defs>
<filter id="filter0_d_15_62" x="32.3053" y="0" width="126" height="97" filterUnits="userSpaceOnUse" color-interpolation-filters="sRGB">
<feFlood flood-opacity="0" result="BackgroundImageFix"/>
<feColorMatrix in="SourceAlpha" type="matrix" values="0 0 0 0 0 0 0 0 0 0 0 0 0 0 0 0 0 0 127 0" result="hardAlpha"/>
<feOffset dy="1"/>
<feGaussianBlur stdDeviation="0.5"/>
<feComposite in2="hardAlpha" operator="out"/>
<feColorMatrix type="matrix" values="0 0 0 0 0.815686 0 0 0 0 0.815686 0 0 0 0 0.815686 0 0 0 1 0"/>
<feBlend mode="normal" in2="BackgroundImageFix" result="effect1_dropShadow_15_62"/>
<feBlend mode="normal" in="SourceGraphic" in2="effect1_dropShadow_15_62" result="shape"/>
</filter>
<filter id="filter1_d_15_62" x="7.3053" y="30.3333" width="85" height="52" filterUnits="userSpaceOnUse" color-interpolation-filters="sRGB">
<feFlood flood-opacity="0" result="BackgroundImageFix"/>
<feColorMatrix in="SourceAlpha" type="matrix" values="0 0 0 0 0 0 0 0 0 0 0 0 0 0 0 0 0 0 127 0" result="hardAlpha"/>
<feOffset dx="3" dy="3"/>
<feComposite in2="hardAlpha" operator="out"/>
<feColorMatrix type="matrix" values="0 0 0 0 0 0 0 0 0 0 0 0 0 0 0 0 0 0 0.14 0"/>
<feBlend mode="normal" in2="BackgroundImageFix" result="effect1_dropShadow_15_62"/>
<feBlend mode="normal" in="SourceGraphic" in2="effect1_dropShadow_15_62" result="shape"/>
</filter>
<clipPath id="clip0_15_62">
<path d="M33.3053 8C33.3053 3.58172 36.887 0 41.3053 0H149.305C153.724 0 157.305 3.58172 157.305 8V87C157.305 91.4183 153.724 95 149.305 95H41.3053C36.887 95 33.3053 91.4183 33.3053 87V8Z" fill="white"/>
</clipPath>
<clipPath id="clip1_15_62">
<rect width="24" height="24" fill="white" transform="translate(16.3053 43.0833)"/>
</clipPath>
</defs>
</svg>
