<svg width="160" height="97" viewBox="0 0 160 97" fill="none" xmlns="http://www.w3.org/2000/svg">
<g filter="url(#filter0_d_5_1)">
<g clip-path="url(#clip0_5_1)">
<path d="M34.305 8C34.305 3.582 37.887 0 42.305 0H150.305C154.724 0 158.305 3.582 158.305 8V87C158.305 91.418 154.724 95 150.305 95H42.305C37.887 95 34.305 91.418 34.305 87V8Z" fill="white"/>
<rect width="124" height="18" transform="translate(34.305)" fill="#303030"/>
<rect x="42.305" y="24" width="40" height="4" rx="2" fill="#D4D4D4"/>
<rect x="42.305" y="32" width="24" height="3" rx="1" fill="#F1F1F1"/>
<rect x="42.305" y="40" width="108" height="48" rx="3" fill="#F7F7F7"/>
<line x1="42.305" y1="84" x2="150.305" y2="84" stroke="#E8E8E8" stroke-width="0.5"/>
<line x1="66.305" y1="40" x2="66.305" y2="84" stroke="#F1F1F1" stroke-width="0.5" stroke-dasharray="2 2"/>
<line x1="90.305" y1="40" x2="90.305" y2="84" stroke="#F1F1F1" stroke-width="0.5" stroke-dasharray="2 2"/>
<line x1="114.305" y1="40" x2="114.305" y2="84" stroke="#F1F1F1" stroke-width="0.5" stroke-dasharray="2 2"/>
<line x1="138.305" y1="40" x2="138.305" y2="84" stroke="#F1F1F1" stroke-width="0.5" stroke-dasharray="2 2"/>
<path d="M48.305 76L60.305 68L72.305 72L84.305 58L96.305 52L108.305 56L120.305 48L132.305 44L144.305 46" stroke="#2667FF" stroke-width="2" stroke-linecap="round" stroke-linejoin="round"/>
<path d="M48.305 76L60.305 72L72.305 74L84.305 66L96.305 62L108.305 64L120.305 60L132.305 56L144.305 58" stroke="#D4D4D4" stroke-width="1.5" stroke-linecap="round" stroke-linejoin="round" stroke-dasharray="3 3"/>
</g>
</g>
<g filter="url(#filter1_d_5_1)">
<rect x="2.305" y="44" width="38" height="32" rx="3" fill="white" stroke="#303030" stroke-width="0.5"/>
<rect x="7.305" y="49" width="14" height="4" rx="2" fill="#2667FF"/>
<rect x="7.305" y="57" width="28" height="3" rx="1" fill="#D4D4D4"/>
<rect x="7.305" y="63" width="20" height="3" rx="1" fill="#D4D4D4"/>
<rect x="7.305" y="69" width="24" height="3" rx="1" fill="#D4D4D4"/>
</g>
<path d="M2.62 25.945L6.865 31.716" stroke="#2667FF" stroke-linecap="round"/>
<path d="M0.5 32.115L4.744 33.885" stroke="#2667FF" stroke-linecap="round"/>
<path d="M10.264 26.352L9.518 30.648" stroke="#2667FF" stroke-linecap="round"/>
<defs>
<filter id="filter0_d_5_1" x="33.305" y="0" width="126" height="97" filterUnits="userSpaceOnUse" color-interpolation-filters="sRGB">
<feFlood flood-opacity="0" result="BackgroundImageFix"/>
<feColorMatrix in="SourceAlpha" type="matrix" values="0 0 0 0 0 0 0 0 0 0 0 0 0 0 0 0 0 0 127 0" result="hardAlpha"/>
<feOffset dy="1"/>
<feGaussianBlur stdDeviation="0.5"/>
<feComposite in2="hardAlpha" operator="out"/>
<feColorMatrix type="matrix" values="0 0 0 0 0.816 0 0 0 0 0.816 0 0 0 0 0.816 0 0 0 1 0"/>
<feBlend mode="normal" in2="BackgroundImageFix" result="effect1_dropShadow"/>
<feBlend mode="normal" in="SourceGraphic" in2="effect1_dropShadow" result="shape"/>
</filter>
<filter id="filter1_d_5_1" x="2.055" y="43.75" width="41.5" height="35.5" filterUnits="userSpaceOnUse" color-interpolation-filters="sRGB">
<feFlood flood-opacity="0" result="BackgroundImageFix"/>
<feColorMatrix in="SourceAlpha" type="matrix" values="0 0 0 0 0 0 0 0 0 0 0 0 0 0 0 0 0 0 127 0" result="hardAlpha"/>
<feOffset dx="3" dy="3"/>
<feComposite in2="hardAlpha" operator="out"/>
<feColorMatrix type="matrix" values="0 0 0 0 0 0 0 0 0 0 0 0 0 0 0 0 0 0 0.14 0"/>
<feBlend mode="normal" in2="BackgroundImageFix" result="effect1_dropShadow"/>
<feBlend mode="normal" in="SourceGraphic" in2="effect1_dropShadow" result="shape"/>
</filter>
<clipPath id="clip0_5_1">
<path d="M34.305 8C34.305 3.582 37.887 0 42.305 0H150.305C154.724 0 158.305 3.582 158.305 8V87C158.305 91.418 154.724 95 150.305 95H42.305C37.887 95 34.305 91.418 34.305 87V8Z" fill="white"/>
</clipPath>
</defs>
</svg>
