<svg fill="none" height="44" viewBox="0 0 44 44" width="44" xmlns="http://www.w3.org/2000/svg" xmlns:xlink="http://www.w3.org/1999/xlink"><clipPath id="a"><path d="m11.1982 11.115h22v22h-22z"/></clipPath><rect fill="#f1f1f1" height="44" rx="22" width="44"/><g clip-path="url(#a)" clip-rule="evenodd" fill-rule="evenodd"><path d="m23.2663 33.115c-.3475.0035-.6865-.1067-.9655-.3138h-.0724-.0724c-.279.2071-.618.3173-.9654.3138h-8.3028c-.2219 0-.4416-.0437-.6466-.1286s-.3912-.2094-.5481-.3662c-.1569-.1569-.2813-.3432-.3663-.5482-.0849-.205-.1286-.4247-.1286-.6465v-8.2425c0-.2219.0437-.4416.1286-.6465.085-.205.2094-.3913.3663-.5482.1569-.1568.3431-.2813.5481-.3662s.4247-.1286.6466-.1286h3.5238v-.1328c-.0059-.0843-.0059-.169 0-.2534v-8.3028c-.0002-.4398.1712-.8624.4777-1.1779s.7239-.499 1.1636-.5116h8.2786c.4481 0 .8779.178 1.1947.4948.3169.3169.4949.7466.4949 1.1947v8.2787c.0059.0844.0059.169 0 .2534v.1328h3.5238c.4481 0 .8778.178 1.1947.4948.3168.3169.4948.7466.4948 1.1947v8.2666c0 .4481-.178.8778-.4948 1.1947-.3169.3168-.7466.4948-1.1947.4948zm-.4345-10.2095c.006.0843.006.169 0 .2534v8.2666c-.0016.0501.0069.1001.025.1469.018.0467.0453.0894.0802.1254.0349.0361.0767.0647.1229.0843.0462.0195.0959.0296.146.0296h8.2787c.0501 0 .0998-.0101.146-.0296.0462-.0196.088-.0482.1229-.0843.0349-.036.0622-.0787.0803-.1254.018-.0468.0265-.0968.0249-.1469v-8.2425c.0016-.0501-.0069-.1001-.0249-.1469-.0181-.0467-.0454-.0894-.0803-.1255-.0349-.036-.0767-.0646-.1229-.0842-.0462-.0195-.0959-.0296-.146-.0296h-8.6769zm-9.944-.1328c-.1025 0-.2007.0407-.2731.1131s-.1131.1707-.1131.2731v8.2666c0 .1024.0407.2006.1131.273.0724.0725.1706.1132.2731.1132h8.2666c.1024 0 .2006-.0407.273-.1132.0724-.0724.1131-.1706.1131-.273v-8.2425c-.0065-.0763-.0065-.153 0-.2293v-.1569h-.1327zm5.1651-10.3423c-.0992 0-.1944.0394-.2646.1096-.0701.0701-.1095.1653-.1095.2645v8.2787c-.0016.0501.0068.1001.0249.1469.0181.0467.0454.0894.0803.1255.0349.036.0767.0646.1229.0842.0462.0195.0958.0296.146.0296h8.2786c.1025 0 .2007-.0407.2731-.1131.0724-.0725.1131-.1707.1131-.2731v-8.2787c-.0031-.1003-.0452-.1954-.1173-.2653-.0721-.0698-.1685-.1088-.2689-.1088z" fill="#1a1a1a"/><g fill="#004bff"><path d="m20.1286 16.5697c-.17.0003-.3335-.0646-.457-.1814-.1235-.1167-.1975-.2764-.2068-.4461v-1.062c.0216-.1591.1002-.305.2211-.4106.121-.1056.2761-.1638.4367-.1638.1605 0 .3156.0582.4366.1638.1209.1056.1995.2515.2211.4106v.3741h2.8239v-.3741c.0216-.1591.1001-.305.2211-.4106.1209-.1056.276-.1638.4366-.1638.1605 0 .3157.0582.4366.1638s.1995.2515.2211.4106v1.062c-.0031.1719-.0728.3358-.1943.4574-.1216.1215-.2855.1912-.4574.1943z"/><path d="m14.9515 26.912c-.1719-.0031-.3359-.0727-.4574-.1943-.1215-.1215-.1912-.2855-.1943-.4573v-1.0379c0-.1728.0687-.3386.1909-.4608s.2879-.1909.4608-.1909c.1728 0 .3386.0687.4608.1909s.1909.288.1909.4608v.3741h2.8359v-.3741c.0031-.1719.0728-.3358.1943-.4574.1216-.1215.2855-.1912.4574-.1943.1728 0 .3386.0687.4608.1909s.1909.288.1909.4608v1.0379c0 .1728-.0687.3386-.1909.4608s-.288.1908-.4608.1908z"/><path d="m25.2935 26.912c-.1718-.0031-.3358-.0727-.4574-.1943-.1215-.1215-.1912-.2855-.1943-.4573v-1.0379c0-.1728.0687-.3386.1909-.4608s.288-.1909.4608-.1909c.174 0 .341.0683.4651.1902.1242.1218.1955.2876.1987.4615v.3741h2.8239v-.3741c0-.1728.0686-.3386.1908-.4608.1223-.1222.288-.1909.4608-.1909.174 0 .341.0683.4652.1902.1241.1218.1954.2876.1986.4615v1.0379c-.0032.1739-.0745.3396-.1986.4615-.1242.1219-.2912.1902-.4652.1901z"/></g></g></svg>