<svg fill="none" height="44" viewBox="0 0 44 44" width="44" xmlns="http://www.w3.org/2000/svg"><rect fill="#f1f1f1" height="44" rx="22" width="44"/><path d="m22.0161 29.43c-6.09 0-10.9-6.21-11.43-6.86-.1236-.1594-.1842-.3588-.17-.56-.0036-.1829.0525-.3619.16-.51.21-.28 5.09-6.93 11.44-6.93s11.4 6.86 11.4 6.93c.1123.1461.1722.3257.17.51-.0015.1806-.0611.356-.17.5 0 .06-5 6.92-11.4 6.92zm-9.6-7.43c1.19 1.43 5.14 5.72 9.65 5.72s8.46-4.29 9.64-5.72c-1.23-1.43-5.18-5.71-9.69-5.71s-8.46 4.28-9.6 5.71z" fill="#1a1a1a"/><path d="m22.0161 25.84c-.2515-.0035-.5023-.0269-.75-.07-.7585-.1432-1.4557-.5127-2-1.06-.5499-.5409-.9171-1.2402-1.05-2-.141-.7424-.0574-1.51.2401-2.2047.2974-.6947.7953-1.285 1.4299-1.6953.6281-.4268 1.3706-.6534 2.13-.65.505-.0026 1.0055.0949 1.4726.2869s.8915.4748 1.2486.8319.6398.7815.8319 1.2486c.192.4671.2895.9676.2869 1.4726.0034.7594-.2232 1.5019-.65 2.13-.412.6451-1.0125 1.1479-1.72 1.44-.4666.191-.9659.2895-1.47.29zm0-6.2c-.1564-.0144-.3137-.0144-.47 0-.4628.0951-.8872.3247-1.22.66-.3368.3338-.5663.7605-.6589 1.2255-.0927.4651-.0443.9472.1389 1.3845.1763.4438.4805.8252.874 1.0959.3935.2706.8585.4182 1.336.4241.6332-.0032 1.2399-.2545 1.69-.7.3377-.3337.5684-.7604.6626-1.2258.0942-.4653.0477-.9481-.1336-1.3869-.1814-.4388-.4892-.8137-.8844-1.0768s-.8599-.4025-1.3346-.4005z" fill="#2667ff"/></svg>