<svg fill="none" height="44" viewBox="0 0 44 44" width="44" xmlns="http://www.w3.org/2000/svg" xmlns:xlink="http://www.w3.org/1999/xlink"><clipPath id="a"><path d="m10.3333 11h23v23h-23z"/></clipPath><rect fill="#f1f1f1" height="44" rx="22" width="44"/><g clip-path="url(#a)"><path d="m25.9133 19.17c-.22 0-.45 0-.67 0v-4.17c0-1.17-.83-2.23-2.35-3-1.5902-.7092-3.3197-1.051-5.06-1-1.7601-.0329-3.5055.3257-5.11 1.05-1.54.76-2.39 1.82-2.39 2.95v12.26c0 1.17.85 2.23 2.39 3 1.6052.7208 3.3506 1.0761 5.11 1.04.747.0013 1.4928-.0589 2.23-.18.7767.9844 1.7906 1.7556 2.9467 2.2414 1.1561.4857 2.4166.6702 3.6634.536s2.4391-.5826 3.4654-1.3033c1.0262-.7206 1.8528-1.6899 2.4023-2.8171s.8039-2.3754.7395-3.6277c-.0644-1.2524-.4456-2.4679-1.1078-3.5327-.6623-1.0649-1.584-1.9443-2.6787-2.5558-1.0948-.6115-2.3269-.9352-3.5808-.9408zm-12.58-5.91c1.4153-.63 2.9509-.944 4.5-.92 3.57 0 6.06 1.42 6.06 2.7s-2.49 2.69-6.06 2.69c-1.5483.0271-3.0839-.2834-4.5-.91-1.06-.52-1.66-1.16-1.66-1.82s.6-1.23 1.66-1.74zm-1.66 4.13c.3329.2314.684.4354 1.05.61 1.6084.7071 3.3536 1.0486 5.11 1 1.7407.0558 3.4713-.2862 5.06-1 .3535-.1681.6887-.3726 1-.61v2c-1.3271.3778-2.522 1.119-3.45 2.14-.8575.1868-1.7325.2807-2.61.28-1.541.0587-3.0763-.2177-4.5-.81-1.06-.56-1.66-1.21-1.66-1.83zm6.16 12.61c-1.555-.0011-3.0909-.3425-4.5-1-1.05-.52-1.65-1.16-1.65-1.78v-1.7c.3295.2453.681.4595 1.05.64 1.5974.74 3.3394 1.1158 5.1 1.1h.7c.078.9156.3291 1.8081.74 2.63-.4772.0671-.9582.1039-1.44.11zm.7-4.06h-.7c-1.551.0226-3.0878-.2984-4.5-.94-1.05-.51-1.65-1.16-1.65-1.77v-1.7c.3295.2453.681.4595 1.05.64 1.6014.7228 3.3432 1.0814 5.1 1.05.5013-.0007 1.0021-.0307 1.5-.09-.4447.8588-.7165 1.7965-.8 2.76zm7.38 6.76c-1.2006 0-2.3742-.356-3.3724-1.023s-1.7762-1.615-2.2356-2.7241c-.4594-1.1092-.5796-2.3296-.3454-3.5071s.8123-2.259 1.6612-3.1079 1.9305-1.4271 3.108-1.6613c1.1774-.2342 2.3979-.114 3.507.3454 1.1092.4595 2.0572 1.2375 2.7242 2.2357s1.023 2.1718 1.023 3.3723c-.0132 1.6012-.6586 3.1323-1.7955 4.2598-1.1369 1.1276-2.6733 1.7602-4.2745 1.7602z" fill="#1a1a1a"/><path d="m27.9433 27.93c.0039.4198-.1244.8301-.3667 1.1729s-.5863.6007-.9833.7371v1.45h-1.35v-1.45c-.397-.1364-.741-.3943-.9833-.7371s-.3706-.7531-.3667-1.1729h1.35c-.002.1353.0364.2682.1104.3815s.18.202.3047.2547.2622.0671.395.0411c.1329-.0259.2549-.0908.3506-.1865s.1607-.2178.1866-.3507c.0259-.1328.0116-.2703-.0411-.395-.0527-.1246-.1414-.2307-.2547-.3047-.1134-.0739-.2462-.1124-.3815-.1104-.5003.0438-.9988-.1023-1.3964-.4091-.3976-.3069-.6652-.7521-.7496-1.2472s.0206-1.0038.294-1.425c.2735-.4213.6954-.7242 1.182-.8487v-1.46h1.35v1.46c.3953.1359.7382.3922.9804.733.2421.3408.3714.7489.3696 1.167h-1.35c0-.1345-.0399-.266-.1146-.3778s-.1809-.199-.3052-.2504c-.1243-.0515-.261-.065-.3929-.0387-.1319.0262-.2531.091-.3482.1861s-.1598.2162-.1861.3481c-.0262.1319-.0127.2687.0387.3929.0515.1243.1387.2305.2505.3052s.2433.1146.3778.1146c.2668-.004.5318.0454.7792.1454.2475.0999.4724.2484.6616.4367.1892.1882.3388.4124.4399.6594.1012.2469.152.5116.1493.7785z" fill="#2667ff"/></g></svg>