<svg width="20" height="20" viewBox="0 0 20 20" fill="none" xmlns="http://www.w3.org/2000/svg">
<rect width="20" height="20" rx="10" fill="#FFEFD7"/>
<path d="M14.4866 9.75739C14.7274 9.52274 14.8124 9.17835 14.7085 8.85877C14.6047 8.53907 14.3335 8.31044 14.0007 8.26208L11.9461 7.96354C11.8418 7.94832 11.7517 7.88285 11.7051 7.7884L10.7862 5.92643C10.6374 5.62507 10.3362 5.43787 10 5.43787C9.66391 5.43787 9.36266 5.62507 9.21388 5.92643L8.29502 7.78838C8.24839 7.88287 8.15827 7.94834 8.05413 7.96352L5.99937 8.26206C5.66658 8.31044 5.3954 8.53907 5.29169 8.85861C5.18768 9.17835 5.27268 9.52276 5.51346 9.75733L7.00028 11.2068C7.0757 11.2803 7.11011 11.3861 7.09235 11.4898L6.74129 13.5364C6.68457 13.8678 6.8182 14.1963 7.09005 14.3938C7.36195 14.5913 7.71575 14.6169 8.01342 14.4606L9.85115 13.4943C9.94437 13.4454 10.0557 13.4454 10.1488 13.4943L11.9867 14.4606C12.2844 14.6169 12.6382 14.5913 12.9101 14.3938C13.1819 14.1963 13.3155 13.8678 13.2588 13.5364L12.9077 11.4899C12.89 11.3861 12.9244 11.2803 12.9999 11.2067L14.4866 9.75739Z" fill="#FF9900"/>
</svg>
