<svg width="14" height="15" viewBox="0 0 14 15" fill="none" xmlns="http://www.w3.org/2000/svg">
<path fill-rule="evenodd" clip-rule="evenodd" d="M12.15 5.48075C13.5504 6.28955 13.5504 8.31035 12.15 9.11795L3.15 14.3139C1.7496 15.1227 0 14.1123 0 12.4959V2.10395C0 0.486347 1.7496 -0.524053 3.15 0.284747L12.15 5.48075ZM11.25 7.55915C11.2956 7.53282 11.3335 7.49495 11.3598 7.44934C11.3861 7.40374 11.4 7.35201 11.4 7.29935C11.4 7.24669 11.3861 7.19496 11.3598 7.14935C11.3335 7.10375 11.2956 7.06588 11.25 7.03955L2.25 1.84355C2.20435 1.81719 2.15256 1.80333 2.09985 1.80335C2.04714 1.80338 1.99537 1.81729 1.94974 1.84369C1.90412 1.8701 1.86626 1.90805 1.83997 1.95374C1.81368 1.99943 1.7999 2.05124 1.8 2.10395V12.4959C1.80011 12.5486 1.81405 12.6002 1.84042 12.6457C1.86679 12.6913 1.90467 12.729 1.95026 12.7553C1.99585 12.7816 2.04754 12.7954 2.10015 12.7953C2.15276 12.7953 2.20444 12.7815 2.25 12.7551L11.25 7.55915Z" fill="#E40004"/>
</svg>
