<svg fill="none" height="44" viewBox="0 0 44 44" width="44" xmlns="http://www.w3.org/2000/svg"><rect fill="#dfd9ff" height="44" rx="6" width="44"/><g clip-rule="evenodd" fill="#7126ff" fill-rule="evenodd"><path d="m14.8 21.4c.2387 0 .4676.0948.6364.2636s.2636.3977.2636.6364v7.2c0 .2387-.0948.4676-.2636.6364s-.3977.2636-.6364.2636-.4676-.0948-.6364-.2636-.2636-.3977-.2636-.6364v-7.2c0-.2387.0948-.4676.2636-.6364s.3977-.2636.6364-.2636z"/><path d="m29.2 21.4c.2387 0 .4677.0948.6364.2636.1688.1688.2636.3977.2636.6364v7.2c0 .2387-.0948.4676-.2636.6364-.1687.1688-.3977.2636-.6364.2636-.2386 0-.4676-.0948-.6363-.2636-.1688-.1688-.2637-.3977-.2637-.6364v-7.2c0-.2387.0949-.4676.2637-.6364.1687-.1688.3977-.2636.6363-.2636z"/><path d="m19.6 21.4c.2386 0 .4676.0948.6363.2636.1688.1688.2637.3977.2637.6364v7.2c0 .2387-.0949.4676-.2637.6364-.1687.1688-.3977.2636-.6363.2636-.2387 0-.4677-.0948-.6364-.2636-.1688-.1688-.2636-.3977-.2636-.6364v-7.2c0-.2387.0948-.4676.2636-.6364.1687-.1688.3977-.2636.6364-.2636z"/><path d="m24.4 13.6c.2387 0 .4676.0948.6364.2636s.2636.3977.2636.6364v15c0 .2387-.0948.4676-.2636.6364s-.3977.2636-.6364.2636-.4676-.0948-.6364-.2636-.2636-.3977-.2636-.6364v-15c0-.2387.0948-.4676.2636-.6364s.3977-.2636.6364-.2636z"/></g></svg>