<svg width="205" height="104" viewBox="0 0 205 104" fill="none" xmlns="http://www.w3.org/2000/svg">
<path d="M134 2C134 0.89543 134.895 0 136 0H182C183.105 0 184 0.895431 184 2V14H134V2Z" fill="#004BFF"/>
<path d="M143.662 5.85511C143.639 5.62595 143.542 5.44792 143.369 5.32102C143.197 5.19413 142.963 5.13068 142.668 5.13068C142.467 5.13068 142.297 5.15909 142.159 5.21591C142.021 5.27083 141.915 5.34754 141.841 5.44602C141.769 5.54451 141.733 5.65625 141.733 5.78125C141.729 5.88542 141.751 5.97633 141.798 6.05398C141.848 6.13163 141.915 6.19886 142 6.25568C142.085 6.31061 142.184 6.3589 142.295 6.40057C142.407 6.44034 142.527 6.47443 142.653 6.50284L143.176 6.62784C143.43 6.68466 143.663 6.76042 143.875 6.85511C144.087 6.94981 144.271 7.06629 144.426 7.20455C144.581 7.3428 144.702 7.50568 144.787 7.69318C144.874 7.88068 144.919 8.09564 144.92 8.33807C144.919 8.69413 144.828 9.00284 144.648 9.2642C144.47 9.52367 144.212 9.72538 143.875 9.86932C143.54 10.0114 143.135 10.0824 142.662 10.0824C142.192 10.0824 141.783 10.0104 141.435 9.86648C141.088 9.72254 140.817 9.50947 140.622 9.22727C140.429 8.94318 140.328 8.59186 140.318 8.1733H141.509C141.522 8.36837 141.578 8.53125 141.676 8.66193C141.777 8.79072 141.91 8.88826 142.077 8.95455C142.245 9.01894 142.436 9.05114 142.648 9.05114C142.856 9.05114 143.037 9.02083 143.19 8.96023C143.346 8.89962 143.466 8.81534 143.551 8.70739C143.636 8.59943 143.679 8.47538 143.679 8.33523C143.679 8.20455 143.64 8.0947 143.562 8.00568C143.487 7.91667 143.375 7.84091 143.227 7.77841C143.081 7.71591 142.902 7.65909 142.69 7.60795L142.057 7.44886C141.566 7.32955 141.179 7.14299 140.895 6.8892C140.611 6.63542 140.47 6.29356 140.472 5.86364C140.47 5.51136 140.563 5.2036 140.753 4.94034C140.944 4.67708 141.206 4.47159 141.54 4.32386C141.873 4.17614 142.252 4.10227 142.676 4.10227C143.108 4.10227 143.485 4.17614 143.807 4.32386C144.131 4.47159 144.383 4.67708 144.562 4.94034C144.742 5.2036 144.835 5.50852 144.841 5.85511H143.662ZM146.969 10.0824C146.691 10.0824 146.443 10.0341 146.225 9.9375C146.007 9.83902 145.835 9.69413 145.708 9.50284C145.583 9.30966 145.521 9.06913 145.521 8.78125C145.521 8.53883 145.565 8.33523 145.654 8.17045C145.743 8.00568 145.864 7.87311 146.018 7.77273C146.171 7.67235 146.345 7.59659 146.54 7.54545C146.737 7.49432 146.944 7.45833 147.16 7.4375C147.414 7.41098 147.618 7.38636 147.773 7.36364C147.929 7.33902 148.041 7.30303 148.112 7.25568C148.182 7.20833 148.217 7.13826 148.217 7.04545V7.02841C148.217 6.84848 148.16 6.70928 148.046 6.6108C147.934 6.51231 147.775 6.46307 147.569 6.46307C147.351 6.46307 147.178 6.51136 147.049 6.60795C146.92 6.70265 146.835 6.82197 146.793 6.96591L145.674 6.875C145.731 6.60985 145.843 6.38068 146.009 6.1875C146.176 5.99242 146.391 5.8428 146.654 5.73864C146.919 5.63258 147.226 5.57955 147.575 5.57955C147.817 5.57955 148.049 5.60795 148.271 5.66477C148.494 5.72159 148.692 5.80966 148.864 5.92898C149.039 6.0483 149.176 6.2017 149.276 6.3892C149.377 6.57481 149.427 6.79735 149.427 7.05682V10H148.279V9.39489H148.245C148.175 9.53125 148.081 9.65152 147.964 9.75568C147.846 9.85795 147.705 9.93845 147.54 9.99716C147.376 10.054 147.185 10.0824 146.969 10.0824ZM147.316 9.24716C147.494 9.24716 147.651 9.21212 147.788 9.14205C147.924 9.07008 148.031 8.97348 148.109 8.85227C148.186 8.73106 148.225 8.59375 148.225 8.44034V7.97727C148.187 8.00189 148.135 8.02462 148.069 8.04545C148.004 8.06439 147.932 8.08239 147.85 8.09943C147.769 8.11458 147.687 8.12879 147.606 8.14205C147.524 8.15341 147.451 8.16383 147.384 8.1733C147.242 8.19413 147.118 8.22727 147.012 8.27273C146.906 8.31818 146.824 8.37973 146.765 8.45739C146.706 8.53314 146.677 8.62784 146.677 8.74148C146.677 8.90625 146.737 9.0322 146.856 9.11932C146.977 9.20455 147.13 9.24716 147.316 9.24716ZM154.278 5.63636L152.752 10H151.388L149.863 5.63636H151.141L152.048 8.75852H152.093L152.996 5.63636H154.278ZM156.745 10.0852C156.296 10.0852 155.91 9.99432 155.586 9.8125C155.264 9.62879 155.016 9.36932 154.842 9.03409C154.667 8.69697 154.58 8.2983 154.58 7.83807C154.58 7.3892 154.667 6.99527 154.842 6.65625C155.016 6.31723 155.261 6.05303 155.577 5.86364C155.896 5.67424 156.269 5.57955 156.697 5.57955C156.985 5.57955 157.253 5.62595 157.501 5.71875C157.751 5.80966 157.969 5.94697 158.154 6.13068C158.342 6.31439 158.487 6.54545 158.592 6.82386C158.696 7.10038 158.748 7.42424 158.748 7.79545V8.12784H155.063V7.37784H157.609C157.609 7.2036 157.571 7.04924 157.495 6.91477C157.419 6.7803 157.314 6.67519 157.18 6.59943C157.047 6.52178 156.893 6.48295 156.717 6.48295C156.533 6.48295 156.37 6.52557 156.228 6.6108C156.088 6.69413 155.978 6.80682 155.898 6.94886C155.819 7.08902 155.778 7.24527 155.776 7.41761V8.13068C155.776 8.34659 155.816 8.53314 155.896 8.69034C155.977 8.84754 156.092 8.96875 156.239 9.05398C156.387 9.1392 156.562 9.18182 156.765 9.18182C156.899 9.18182 157.022 9.16288 157.134 9.125C157.246 9.08712 157.342 9.0303 157.421 8.95455C157.501 8.87879 157.561 8.78598 157.603 8.67614L158.722 8.75C158.665 9.01894 158.549 9.25379 158.373 9.45455C158.199 9.65341 157.973 9.80871 157.697 9.92045C157.422 10.0303 157.105 10.0852 156.745 10.0852ZM161.378 10V9.11364L163.449 7.19602C163.625 7.02557 163.773 6.87216 163.892 6.7358C164.013 6.59943 164.105 6.46591 164.168 6.33523C164.23 6.20265 164.261 6.05966 164.261 5.90625C164.261 5.7358 164.223 5.58902 164.145 5.46591C164.067 5.34091 163.961 5.24527 163.827 5.17898C163.692 5.1108 163.54 5.0767 163.369 5.0767C163.191 5.0767 163.036 5.11269 162.903 5.18466C162.771 5.25663 162.669 5.35985 162.597 5.49432C162.525 5.62879 162.489 5.78883 162.489 5.97443H161.321C161.321 5.59375 161.407 5.26326 161.58 4.98295C161.752 4.70265 161.993 4.4858 162.304 4.33239C162.615 4.17898 162.973 4.10227 163.378 4.10227C163.795 4.10227 164.157 4.17614 164.466 4.32386C164.777 4.4697 165.018 4.67235 165.19 4.93182C165.363 5.19129 165.449 5.48864 165.449 5.82386C165.449 6.04356 165.405 6.26042 165.318 6.47443C165.233 6.68845 165.08 6.92614 164.861 7.1875C164.641 7.44697 164.331 7.75852 163.932 8.12216L163.082 8.95455V8.99432H165.526V10H161.378ZM168.698 10.1278C168.21 10.1259 167.789 10.0057 167.437 9.76705C167.086 9.52841 166.817 9.18277 166.627 8.73011C166.44 8.27746 166.347 7.73295 166.349 7.09659C166.349 6.46212 166.442 5.9214 166.63 5.47443C166.819 5.02746 167.089 4.6875 167.44 4.45455C167.792 4.2197 168.211 4.10227 168.698 4.10227C169.185 4.10227 169.603 4.2197 169.954 4.45455C170.306 4.68939 170.577 5.0303 170.766 5.47727C170.956 5.92235 171.049 6.46212 171.048 7.09659C171.048 7.73485 170.953 8.2803 170.763 8.73295C170.576 9.18561 170.307 9.53125 169.957 9.76989C169.606 10.0085 169.187 10.1278 168.698 10.1278ZM168.698 9.10795C169.031 9.10795 169.298 8.94034 169.496 8.60511C169.695 8.26989 169.794 7.76705 169.792 7.09659C169.792 6.6553 169.746 6.28788 169.656 5.99432C169.567 5.70076 169.44 5.48011 169.275 5.33239C169.112 5.18466 168.92 5.1108 168.698 5.1108C168.367 5.1108 168.102 5.27652 167.903 5.60795C167.704 5.93939 167.603 6.43561 167.602 7.09659C167.602 7.54356 167.646 7.91667 167.735 8.21591C167.826 8.51326 167.954 8.73674 168.119 8.88636C168.283 9.03409 168.477 9.10795 168.698 9.10795ZM175.109 8.90909V8.60227C175.109 8.36932 175.159 8.1553 175.257 7.96023C175.357 7.76326 175.502 7.60606 175.692 7.48864C175.883 7.36932 176.116 7.30966 176.391 7.30966C176.669 7.30966 176.903 7.36837 177.092 7.4858C177.284 7.60322 177.428 7.76042 177.524 7.95739C177.623 8.15246 177.672 8.36742 177.672 8.60227V8.90909C177.672 9.14205 177.623 9.35701 177.524 9.55398C177.426 9.74905 177.281 9.9053 177.089 10.0227C176.898 10.142 176.665 10.2017 176.391 10.2017C176.112 10.2017 175.878 10.142 175.689 10.0227C175.5 9.9053 175.356 9.74905 175.257 9.55398C175.159 9.35701 175.109 9.14205 175.109 8.90909ZM175.936 8.60227V8.90909C175.936 9.04356 175.968 9.17045 176.033 9.28977C176.099 9.40909 176.218 9.46875 176.391 9.46875C176.563 9.46875 176.68 9.41004 176.743 9.29261C176.807 9.17519 176.839 9.04735 176.839 8.90909V8.60227C176.839 8.46402 176.809 8.33523 176.749 8.21591C176.688 8.09659 176.569 8.03693 176.391 8.03693C176.22 8.03693 176.102 8.09659 176.036 8.21591C175.969 8.33523 175.936 8.46402 175.936 8.60227ZM172.124 5.57955V5.27273C172.124 5.03788 172.174 4.82292 172.274 4.62784C172.375 4.43087 172.519 4.27367 172.709 4.15625C172.9 4.03883 173.131 3.98011 173.402 3.98011C173.682 3.98011 173.917 4.03883 174.107 4.15625C174.296 4.27367 174.44 4.43087 174.538 4.62784C174.637 4.82292 174.686 5.03788 174.686 5.27273V5.57955C174.686 5.81439 174.636 6.02936 174.536 6.22443C174.437 6.41951 174.292 6.57576 174.101 6.69318C173.911 6.80871 173.679 6.86648 173.402 6.86648C173.125 6.86648 172.892 6.80777 172.7 6.69034C172.511 6.57102 172.367 6.41477 172.268 6.22159C172.172 6.02651 172.124 5.8125 172.124 5.57955ZM172.956 5.27273V5.57955C172.956 5.7178 172.988 5.84564 173.053 5.96307C173.119 6.08049 173.235 6.1392 173.402 6.1392C173.576 6.1392 173.695 6.08049 173.757 5.96307C173.821 5.84564 173.854 5.7178 173.854 5.57955V5.27273C173.854 5.13447 173.823 5.00568 173.763 4.88636C173.702 4.76705 173.582 4.70739 173.402 4.70739C173.233 4.70739 173.117 4.76799 173.053 4.8892C172.988 5.01042 172.956 5.13826 172.956 5.27273ZM172.499 10L176.499 4.18182H177.243L173.243 10H172.499Z" fill="white"/>
<rect x="113.5" y="13.5" width="91" height="90" rx="5.5" fill="white"/>
<rect x="113.5" y="13.5" width="91" height="90" rx="5.5" stroke="#DEDEDE"/>
<rect x="147.5" y="78" width="18" height="4" rx="0.8" fill="#DADBDD"/>
<rect x="147.5" y="85" width="42" height="4" rx="0.8" fill="#E9E9E9"/>
<rect x="147" y="28" width="46" height="46" rx="4" fill="#F1F1F1"/>
<path d="M158.051 55.3113V55.7866C158.051 56.1082 158.179 56.4166 158.406 56.644C158.634 56.8714 158.942 56.9992 159.264 56.9992H180.689C181.011 56.9992 181.319 56.8716 181.546 56.6446C181.773 56.4176 181.901 56.1096 181.902 55.7883V55.3113H158.051Z" fill="#004BFF"/>
<path d="M158.429 45.8014H159.812H159.846C159.868 45.8036 159.888 45.8076 159.909 45.8131L159.926 45.8181C159.936 45.8211 159.945 45.8244 159.953 45.8282C159.962 45.8315 159.971 45.8353 159.979 45.8395C159.985 45.8425 159.991 45.8459 159.997 45.8496L160.014 45.8592C160.024 45.8661 160.034 45.8735 160.044 45.8814L160.062 45.8969C160.081 45.9132 160.097 45.9315 160.112 45.9514L160.129 45.9728C161.023 47.1564 162.538 47.7465 164.186 47.5516C166.179 47.3169 167.229 45.798 167.512 45.3223C167.546 45.2653 167.569 45.2234 167.581 45.2003C167.613 45.1408 167.66 45.0909 167.718 45.0558C167.775 45.0207 167.841 45.0017 167.909 45.0008C167.952 45.0029 167.994 45.0124 168.034 45.0289L168.142 45.0708L169.902 45.7917L169.501 46.4439L169.015 47.2335C168.949 47.3403 168.928 47.4688 168.957 47.5908C168.986 47.7128 169.063 47.8182 169.169 47.884C169.276 47.9497 169.405 47.9704 169.527 47.9414C169.649 47.9124 169.754 47.8361 169.82 47.7293L170.387 46.8073L170.789 46.1543L171.965 46.6404L171.564 47.293L171.076 48.0856C171.044 48.1384 171.022 48.1972 171.012 48.2584C171.002 48.3197 171.004 48.3823 171.019 48.4427C171.033 48.503 171.059 48.56 171.096 48.6102C171.132 48.6605 171.178 48.7031 171.231 48.7357C171.284 48.7682 171.342 48.79 171.404 48.7998C171.465 48.8097 171.527 48.8073 171.588 48.793C171.648 48.7786 171.705 48.7525 171.755 48.7161C171.806 48.6798 171.848 48.6338 171.881 48.581L172.45 47.6564L172.852 47.0038L174.028 47.4862L173.626 48.1392L173.137 48.9356C173.104 48.9886 173.083 49.0475 173.073 49.1089C173.063 49.1703 173.066 49.233 173.08 49.2935C173.095 49.3539 173.121 49.4109 173.157 49.4613C173.194 49.5116 173.24 49.5542 173.293 49.5867C173.346 49.6192 173.405 49.6409 173.466 49.6507C173.528 49.6604 173.59 49.658 173.651 49.6435C173.711 49.629 173.768 49.6027 173.819 49.5662C173.869 49.5297 173.912 49.4836 173.944 49.4306L174.515 48.5026L174.916 47.8509L176.094 48.3329L175.693 48.9855L175.202 49.7843C175.169 49.8371 175.147 49.8959 175.137 49.9572C175.127 50.0185 175.129 50.0812 175.143 50.1417C175.158 50.2021 175.184 50.2592 175.22 50.3096C175.256 50.36 175.302 50.4028 175.355 50.4354C175.408 50.4681 175.467 50.49 175.528 50.5C175.589 50.5099 175.652 50.5077 175.713 50.4935C175.773 50.4792 175.83 50.4532 175.88 50.4169C175.931 50.3805 175.974 50.3347 176.006 50.2818L176.579 49.3509L176.977 48.7042L176.98 48.6984L179.534 49.7462C180.147 49.9965 180.68 50.4075 181.078 50.9358C181.476 51.464 181.724 52.09 181.796 52.7475L181.947 54.1432C181.953 54.1962 181.948 54.2498 181.932 54.3005C181.915 54.3512 181.889 54.3979 181.853 54.4375C181.817 54.4771 181.774 54.5087 181.725 54.5302C181.676 54.5517 181.623 54.5627 181.57 54.5623H164.348V53.2576C164.348 52.6848 164.12 52.1355 163.715 51.7304C163.31 51.3254 162.761 51.0976 162.188 51.097H158.05V46.1794C158.05 46.1297 158.06 46.0804 158.079 46.0344C158.098 45.9884 158.126 45.9467 158.161 45.9115C158.196 45.8764 158.238 45.8486 158.284 45.8297C158.33 45.8108 158.379 45.8011 158.429 45.8014ZM162.189 52.0673C162.505 52.0672 162.808 52.1925 163.032 52.4156C163.255 52.6388 163.382 52.9416 163.382 53.2576V54.5611H158.051V52.0673H162.189Z" fill="#7BA2FE"/>
<path d="M126.878 55.6193C126.244 55.6193 125.682 55.5128 125.19 55.2997C124.702 55.0866 124.318 54.7955 124.04 54.4261C123.764 54.054 123.628 53.6321 123.631 53.1605C123.628 52.794 123.707 52.4574 123.869 52.1506C124.031 51.8438 124.25 51.5881 124.526 51.3835C124.804 51.1761 125.114 51.044 125.455 50.9872V50.9276C125.006 50.8281 124.642 50.5994 124.364 50.2415C124.088 49.8807 123.952 49.4645 123.955 48.9929C123.952 48.544 124.077 48.1435 124.33 47.7912C124.582 47.4389 124.929 47.1619 125.369 46.9602C125.81 46.7557 126.313 46.6534 126.878 46.6534C127.438 46.6534 127.936 46.7557 128.374 46.9602C128.814 47.1619 129.161 47.4389 129.413 47.7912C129.669 48.1435 129.797 48.544 129.797 48.9929C129.797 49.4645 129.656 49.8807 129.375 50.2415C129.097 50.5994 128.737 50.8281 128.297 50.9276V50.9872C128.638 51.044 128.945 51.1761 129.217 51.3835C129.493 51.5881 129.712 51.8438 129.874 52.1506C130.038 52.4574 130.121 52.794 130.121 53.1605C130.121 53.6321 129.982 54.054 129.703 54.4261C129.425 54.7955 129.041 55.0866 128.553 55.2997C128.067 55.5128 127.509 55.6193 126.878 55.6193ZM126.878 54.4006C127.205 54.4006 127.489 54.3452 127.73 54.2344C127.972 54.1207 128.159 53.9616 128.293 53.7571C128.426 53.5526 128.494 53.3168 128.497 53.0497C128.494 52.7713 128.422 52.5256 128.28 52.3125C128.141 52.0966 127.949 51.9276 127.705 51.8054C127.463 51.6832 127.188 51.6222 126.878 51.6222C126.565 51.6222 126.287 51.6832 126.043 51.8054C125.798 51.9276 125.605 52.0966 125.463 52.3125C125.324 52.5256 125.256 52.7713 125.259 53.0497C125.256 53.3168 125.321 53.5526 125.455 53.7571C125.588 53.9588 125.776 54.1165 126.017 54.2301C126.261 54.3437 126.548 54.4006 126.878 54.4006ZM126.878 50.4247C127.145 50.4247 127.381 50.3707 127.585 50.2628C127.793 50.1548 127.956 50.0043 128.075 49.8111C128.195 49.6179 128.256 49.3949 128.259 49.142C128.256 48.892 128.196 48.6733 128.08 48.4858C127.963 48.2955 127.801 48.1491 127.594 48.0469C127.386 47.9418 127.148 47.8892 126.878 47.8892C126.602 47.8892 126.359 47.9418 126.149 48.0469C125.942 48.1491 125.78 48.2955 125.663 48.4858C125.55 48.6733 125.494 48.892 125.497 49.142C125.494 49.3949 125.551 49.6179 125.668 49.8111C125.787 50.0014 125.95 50.152 126.158 50.2628C126.368 50.3707 126.608 50.4247 126.878 50.4247ZM135.777 48.9545L137.098 51.3707L138.44 48.9545H140.072L138.099 52.2273L140.106 55.5H138.483L137.098 53.1435L135.725 55.5H134.089L136.083 52.2273L134.14 48.9545H135.777Z" fill="#6678A6"/>
<path d="M22 2C22 0.89543 22.8954 0 24 0H68C69.1046 0 70 0.895431 70 2V14H22V2Z" fill="#004BFF"/>
<path d="M31.1619 4.85511C31.1392 4.62595 31.0417 4.44792 30.8693 4.32102C30.697 4.19413 30.4631 4.13068 30.1676 4.13068C29.9669 4.13068 29.7973 4.15909 29.6591 4.21591C29.5208 4.27083 29.4148 4.34754 29.3409 4.44602C29.2689 4.54451 29.233 4.65625 29.233 4.78125C29.2292 4.88542 29.2509 4.97633 29.2983 5.05398C29.3475 5.13163 29.4148 5.19886 29.5 5.25568C29.5852 5.31061 29.6837 5.3589 29.7955 5.40057C29.9072 5.44034 30.0265 5.47443 30.1534 5.50284L30.6761 5.62784C30.9299 5.68466 31.1629 5.76042 31.375 5.85511C31.5871 5.94981 31.7708 6.06629 31.9261 6.20455C32.0814 6.3428 32.2017 6.50568 32.2869 6.69318C32.3741 6.88068 32.4186 7.09564 32.4205 7.33807C32.4186 7.69413 32.3277 8.00284 32.1477 8.2642C31.9697 8.52367 31.7121 8.72538 31.375 8.86932C31.0398 9.01136 30.6354 9.08239 30.1619 9.08239C29.6922 9.08239 29.2831 9.01042 28.9347 8.86648C28.5881 8.72254 28.3172 8.50947 28.1222 8.22727C27.929 7.94318 27.8277 7.59186 27.8182 7.1733H29.0085C29.0218 7.36837 29.0777 7.53125 29.1761 7.66193C29.2765 7.79072 29.41 7.88826 29.5767 7.95455C29.7453 8.01894 29.9356 8.05114 30.1477 8.05114C30.3561 8.05114 30.5369 8.02083 30.6903 7.96023C30.8456 7.89962 30.9659 7.81534 31.0511 7.70739C31.1364 7.59943 31.179 7.47538 31.179 7.33523C31.179 7.20455 31.1402 7.0947 31.0625 7.00568C30.9867 6.91667 30.875 6.84091 30.7273 6.77841C30.5814 6.71591 30.4025 6.65909 30.1903 6.60795L29.5568 6.44886C29.0663 6.32955 28.679 6.14299 28.3949 5.8892C28.1108 5.63542 27.9697 5.29356 27.9716 4.86364C27.9697 4.51136 28.0634 4.2036 28.2528 3.94034C28.4441 3.67708 28.7064 3.47159 29.0398 3.32386C29.3731 3.17614 29.7519 3.10227 30.1761 3.10227C30.608 3.10227 30.9848 3.17614 31.3068 3.32386C31.6307 3.47159 31.8826 3.67708 32.0625 3.94034C32.2424 4.2036 32.3352 4.50852 32.3409 4.85511H31.1619ZM34.4695 9.08239C34.1911 9.08239 33.9429 9.03409 33.7251 8.9375C33.5073 8.83902 33.335 8.69413 33.2081 8.50284C33.0831 8.30966 33.0206 8.06913 33.0206 7.78125C33.0206 7.53883 33.0651 7.33523 33.1541 7.17045C33.2431 7.00568 33.3643 6.87311 33.5178 6.77273C33.6712 6.67235 33.8454 6.59659 34.0405 6.54545C34.2375 6.49432 34.4439 6.45833 34.6598 6.4375C34.9136 6.41098 35.1181 6.38636 35.2734 6.36364C35.4287 6.33902 35.5414 6.30303 35.6115 6.25568C35.6816 6.20833 35.7166 6.13826 35.7166 6.04545V6.02841C35.7166 5.84848 35.6598 5.70928 35.5462 5.6108C35.4344 5.51231 35.2753 5.46307 35.0689 5.46307C34.8511 5.46307 34.6778 5.51136 34.549 5.60795C34.4202 5.70265 34.335 5.82197 34.2933 5.96591L33.174 5.875C33.2308 5.60985 33.3426 5.38068 33.5092 5.1875C33.6759 4.99242 33.8909 4.8428 34.1541 4.73864C34.4193 4.63258 34.7261 4.57955 35.0746 4.57955C35.317 4.57955 35.549 4.60795 35.7706 4.66477C35.9941 4.72159 36.192 4.80966 36.3643 4.92898C36.5386 5.0483 36.6759 5.2017 36.7763 5.3892C36.8767 5.57481 36.9268 5.79735 36.9268 6.05682V9H35.7791V8.39489H35.745C35.675 8.53125 35.5812 8.65152 35.4638 8.75568C35.3464 8.85795 35.2053 8.93845 35.0405 8.99716C34.8757 9.05398 34.6854 9.08239 34.4695 9.08239ZM34.8161 8.24716C34.9941 8.24716 35.1513 8.21212 35.2876 8.14205C35.424 8.07008 35.531 7.97348 35.6087 7.85227C35.6863 7.73106 35.7251 7.59375 35.7251 7.44034V6.97727C35.6873 7.00189 35.6352 7.02462 35.5689 7.04545C35.5045 7.06439 35.4316 7.08239 35.3501 7.09943C35.2687 7.11458 35.1873 7.12879 35.1058 7.14205C35.0244 7.15341 34.9505 7.16383 34.8842 7.1733C34.7422 7.19413 34.6181 7.22727 34.5121 7.27273C34.406 7.31818 34.3236 7.37973 34.2649 7.45739C34.2062 7.53314 34.1768 7.62784 34.1768 7.74148C34.1768 7.90625 34.2365 8.0322 34.3558 8.11932C34.477 8.20455 34.6304 8.24716 34.8161 8.24716ZM41.7777 4.63636L40.2521 9H38.8885L37.3629 4.63636H38.6413L39.5476 7.75852H39.593L40.4964 4.63636H41.7777ZM44.245 9.08523C43.7962 9.08523 43.4098 8.99432 43.0859 8.8125C42.764 8.62879 42.5159 8.36932 42.3416 8.03409C42.1674 7.69697 42.0803 7.2983 42.0803 6.83807C42.0803 6.3892 42.1674 5.99527 42.3416 5.65625C42.5159 5.31723 42.7611 5.05303 43.0774 4.86364C43.3956 4.67424 43.7687 4.57955 44.1967 4.57955C44.4846 4.57955 44.7526 4.62595 45.0007 4.71875C45.2507 4.80966 45.4685 4.94697 45.6541 5.13068C45.8416 5.31439 45.9875 5.54545 46.0916 5.82386C46.1958 6.10038 46.2479 6.42424 46.2479 6.79545V7.12784H42.5632V6.37784H45.1087C45.1087 6.2036 45.0708 6.04924 44.995 5.91477C44.9193 5.7803 44.8142 5.67519 44.6797 5.59943C44.5471 5.52178 44.3928 5.48295 44.2166 5.48295C44.0329 5.48295 43.87 5.52557 43.728 5.6108C43.5878 5.69413 43.478 5.80682 43.3984 5.94886C43.3189 6.08902 43.2782 6.24527 43.2763 6.41761V7.13068C43.2763 7.34659 43.3161 7.53314 43.3956 7.69034C43.477 7.84754 43.5916 7.96875 43.7393 8.05398C43.8871 8.1392 44.0623 8.18182 44.2649 8.18182C44.3994 8.18182 44.5225 8.16288 44.6342 8.125C44.746 8.08712 44.8416 8.0303 44.9212 7.95455C45.0007 7.87879 45.0613 7.78598 45.103 7.67614L46.2223 7.75C46.1655 8.01894 46.049 8.25379 45.8729 8.45455C45.6986 8.65341 45.4732 8.80871 45.1967 8.92045C44.9221 9.0303 44.6049 9.08523 44.245 9.08523ZM51.4091 3.18182V9H50.179V4.34943H50.1449L48.8125 5.18466V4.09375L50.2528 3.18182H51.4091ZM54.9169 9.07955C54.5154 9.07955 54.1574 9.00568 53.843 8.85795C53.5305 8.71023 53.2824 8.50663 53.0987 8.24716C52.915 7.98769 52.8194 7.69034 52.8118 7.35511H54.005C54.0182 7.58049 54.1129 7.76326 54.2891 7.90341C54.4652 8.04356 54.6745 8.11364 54.9169 8.11364C55.1101 8.11364 55.2805 8.07102 55.4283 7.9858C55.5779 7.89867 55.6944 7.77841 55.7777 7.625C55.8629 7.4697 55.9055 7.29167 55.9055 7.09091C55.9055 6.88636 55.862 6.70644 55.7749 6.55114C55.6896 6.39583 55.5713 6.27462 55.4197 6.1875C55.2682 6.10038 55.0949 6.05587 54.8999 6.05398C54.7294 6.05398 54.5637 6.08902 54.4027 6.15909C54.2436 6.22917 54.1196 6.32481 54.0305 6.44602L52.9368 6.25L53.2124 3.18182H56.7692V4.1875H54.2266L54.076 5.64489H54.1101C54.2124 5.50095 54.3667 5.38163 54.5732 5.28693C54.7796 5.19223 55.0107 5.14489 55.2663 5.14489C55.6167 5.14489 55.9292 5.22727 56.2038 5.39205C56.4785 5.55682 56.6953 5.78314 56.8544 6.07102C57.0135 6.35701 57.0921 6.68655 57.0902 7.05966C57.0921 7.4517 57.0012 7.80019 56.8175 8.10511C56.6357 8.40814 56.3809 8.64678 56.0533 8.82102C55.7275 8.99337 55.3487 9.07955 54.9169 9.07955ZM61.1328 7.90909V7.60227C61.1328 7.36932 61.1821 7.1553 61.2805 6.96023C61.3809 6.76326 61.5258 6.60606 61.7152 6.48864C61.9065 6.36932 62.1394 6.30966 62.4141 6.30966C62.6925 6.30966 62.9264 6.36837 63.1158 6.4858C63.3071 6.60322 63.451 6.76042 63.5476 6.95739C63.6461 7.15246 63.6953 7.36742 63.6953 7.60227V7.90909C63.6953 8.14205 63.6461 8.35701 63.5476 8.55398C63.4491 8.74905 63.3042 8.9053 63.1129 9.02273C62.9216 9.14205 62.6887 9.2017 62.4141 9.2017C62.1357 9.2017 61.9018 9.14205 61.7124 9.02273C61.523 8.9053 61.379 8.74905 61.2805 8.55398C61.1821 8.35701 61.1328 8.14205 61.1328 7.90909ZM61.9595 7.60227V7.90909C61.9595 8.04356 61.9917 8.17045 62.0561 8.28977C62.1224 8.40909 62.2417 8.46875 62.4141 8.46875C62.5864 8.46875 62.7038 8.41004 62.7663 8.29261C62.8307 8.17519 62.8629 8.04735 62.8629 7.90909V7.60227C62.8629 7.46402 62.8326 7.33523 62.772 7.21591C62.7114 7.09659 62.5921 7.03693 62.4141 7.03693C62.2436 7.03693 62.1252 7.09659 62.0589 7.21591C61.9927 7.33523 61.9595 7.46402 61.9595 7.60227ZM58.147 4.57955V4.27273C58.147 4.03788 58.1972 3.82292 58.2976 3.62784C58.398 3.43087 58.5429 3.27367 58.7322 3.15625C58.9235 3.03883 59.1546 2.98011 59.4254 2.98011C59.7057 2.98011 59.9406 3.03883 60.13 3.15625C60.3194 3.27367 60.4633 3.43087 60.5618 3.62784C60.6603 3.82292 60.7095 4.03788 60.7095 4.27273V4.57955C60.7095 4.81439 60.6593 5.02936 60.5589 5.22443C60.4605 5.41951 60.3156 5.57576 60.1243 5.69318C59.9349 5.80871 59.7019 5.86648 59.4254 5.86648C59.1489 5.86648 58.915 5.80777 58.7237 5.69034C58.5343 5.57102 58.3904 5.41477 58.2919 5.22159C58.1953 5.02651 58.147 4.8125 58.147 4.57955ZM58.9794 4.27273V4.57955C58.9794 4.7178 59.0116 4.84564 59.076 4.96307C59.1423 5.08049 59.2588 5.1392 59.4254 5.1392C59.5997 5.1392 59.718 5.08049 59.7805 4.96307C59.8449 4.84564 59.8771 4.7178 59.8771 4.57955V4.27273C59.8771 4.13447 59.8468 4.00568 59.7862 3.88636C59.7256 3.76705 59.6054 3.70739 59.4254 3.70739C59.2569 3.70739 59.1404 3.76799 59.076 3.8892C59.0116 4.01042 58.9794 4.13826 58.9794 4.27273ZM58.522 9L62.522 3.18182H63.2663L59.2663 9H58.522Z" fill="white"/>
<rect x="0.5" y="13.5" width="91" height="90" rx="5.5" fill="white"/>
<rect x="0.5" y="13.5" width="91" height="90" rx="5.5" stroke="#DEDEDE"/>
<rect x="33.5" y="85" width="42" height="4" rx="0.8" fill="#E9E9E9"/>
<rect x="33.5" y="78" width="18" height="4" rx="0.8" fill="#DADBDD"/>
<rect x="33" y="28" width="46" height="46" rx="4" fill="#F1F1F1"/>
<path d="M44.0511 55.3113V55.7866C44.0511 56.1082 44.1788 56.4166 44.4062 56.644C44.6336 56.8714 44.942 56.9992 45.2636 56.9992H66.6893C67.0106 56.9992 67.3188 56.8716 67.5461 56.6446C67.7735 56.4176 67.9014 56.1096 67.9019 55.7883V55.3113H44.0511Z" fill="#004BFF"/>
<path d="M44.4289 45.8014H45.8121H45.8464C45.8675 45.8036 45.8884 45.8076 45.9089 45.8131L45.9265 45.8181C45.9357 45.8211 45.9445 45.8244 45.9533 45.8282C45.962 45.8315 45.9705 45.8353 45.9789 45.8395C45.9852 45.8425 45.9913 45.8459 45.9973 45.8496L46.0137 45.8592C46.0242 45.8661 46.0344 45.8735 46.0443 45.8814L46.0623 45.8969C46.0807 45.9132 46.0973 45.9315 46.1117 45.9514L46.1285 45.9728C47.0233 47.1564 48.5376 47.7465 50.1865 47.5516C52.1794 47.3169 53.2293 45.798 53.5122 45.3223C53.5462 45.2653 53.5688 45.2234 53.581 45.2003C53.6128 45.1408 53.66 45.0909 53.7176 45.0558C53.7752 45.0207 53.8413 45.0017 53.9087 45.0008C53.952 45.0029 53.9945 45.0124 54.0345 45.0289L54.1418 45.0708L55.9021 45.7917L55.501 46.4439L55.0148 47.2335C54.9491 47.3403 54.9284 47.4688 54.9574 47.5908C54.9864 47.7128 55.0627 47.8182 55.1695 47.884C55.2762 47.9497 55.4048 47.9704 55.5267 47.9414C55.6487 47.9124 55.7542 47.8361 55.82 47.7293L56.3866 46.8073L56.7886 46.1543L57.965 46.6404L57.5635 47.293L57.0761 48.0856C57.0435 48.1384 57.0217 48.1972 57.0119 48.2584C57.0021 48.3197 57.0044 48.3823 57.0188 48.4427C57.0331 48.503 57.0592 48.56 57.0956 48.6102C57.132 48.6605 57.1779 48.7031 57.2307 48.7357C57.2836 48.7682 57.3423 48.79 57.4036 48.7998C57.4648 48.8097 57.5274 48.8073 57.5878 48.793C57.6482 48.7786 57.7051 48.7525 57.7554 48.7161C57.8057 48.6798 57.8483 48.6338 57.8808 48.581L58.4496 47.6564L58.8519 47.0038L60.028 47.4862L59.626 48.1392L59.1369 48.9356C59.1044 48.9886 59.0827 49.0475 59.0729 49.1089C59.0632 49.1703 59.0656 49.233 59.0801 49.2935C59.0946 49.3539 59.1209 49.4109 59.1574 49.4613C59.194 49.5116 59.24 49.5542 59.293 49.5867C59.346 49.6192 59.4049 49.6409 59.4663 49.6507C59.5277 49.6604 59.5905 49.658 59.6509 49.6435C59.7114 49.629 59.7684 49.6027 59.8187 49.5662C59.869 49.5297 59.9117 49.4836 59.9442 49.4306L60.5146 48.5026L60.9161 47.8509L62.0943 48.3329L61.6932 48.9855L61.2015 49.7843C61.1689 49.8371 61.1469 49.8959 61.137 49.9572C61.127 50.0185 61.1292 50.0812 61.1435 50.1417C61.1578 50.2021 61.1838 50.2592 61.2201 50.3096C61.2564 50.36 61.3023 50.4028 61.3551 50.4354C61.408 50.4681 61.4667 50.49 61.5281 50.5C61.5894 50.5099 61.6521 50.5077 61.7125 50.4935C61.773 50.4792 61.83 50.4532 61.8804 50.4169C61.9308 50.3805 61.9736 50.3347 62.0063 50.2818L62.5792 49.3509L62.977 48.7042L62.9803 48.6984L65.5345 49.7462C66.1467 49.9965 66.68 50.4075 67.078 50.9358C67.476 51.464 67.7239 52.09 67.7956 52.7475L67.9474 54.1432C67.9533 54.1962 67.9479 54.2498 67.9316 54.3005C67.9154 54.3512 67.8885 54.3979 67.8529 54.4375C67.8172 54.4771 67.7736 54.5087 67.7249 54.5302C67.6762 54.5517 67.6234 54.5627 67.5702 54.5623H50.3483V53.2576C50.3477 52.6848 50.1199 52.1355 49.7148 51.7304C49.3098 51.3254 48.7605 51.0976 48.1877 51.097H44.0501V46.1794C44.0499 46.1297 44.0597 46.0804 44.0787 46.0344C44.0977 45.9884 44.1256 45.9467 44.1608 45.9115C44.1961 45.8764 44.2379 45.8486 44.2839 45.8297C44.3299 45.8108 44.3792 45.8011 44.4289 45.8014ZM48.1889 52.0673C48.5049 52.0672 48.8081 52.1925 49.0318 52.4156C49.2555 52.6388 49.3815 52.9416 49.3822 53.2576V54.5611H44.0513V52.0673H48.1889Z" fill="#7BA2FE"/>
<path d="M10.6179 53.8807V52.6236L14.321 46.7727H15.3693V48.5625H14.7301L12.2372 52.5128V52.581H17.4062V53.8807H10.6179ZM14.7812 55.5V53.4972L14.7983 52.9347V46.7727H16.2898V55.5H14.7812ZM23.0227 48.9545L24.3438 51.3707L25.6861 48.9545H27.3182L25.3452 52.2273L27.3523 55.5H25.7287L24.3438 53.1435L22.9716 55.5H21.3352L23.3295 52.2273L21.3864 48.9545H23.0227Z" fill="#6678A6"/>
<rect x="96" y="45" width="13" height="13" rx="6.5" fill="#6678A6"/>
<path d="M100.932 54.0852C100.506 54.0852 100.136 53.9915 99.8239 53.804C99.5114 53.6165 99.2689 53.3542 99.0966 53.017C98.9261 52.6799 98.8409 52.286 98.8409 51.8352C98.8409 51.3845 98.9261 50.9896 99.0966 50.6506C99.2689 50.3116 99.5114 50.0483 99.8239 49.8608C100.136 49.6733 100.506 49.5795 100.932 49.5795C101.358 49.5795 101.727 49.6733 102.04 49.8608C102.352 50.0483 102.594 50.3116 102.764 50.6506C102.937 50.9896 103.023 51.3845 103.023 51.8352C103.023 52.286 102.937 52.6799 102.764 53.017C102.594 53.3542 102.352 53.6165 102.04 53.804C101.727 53.9915 101.358 54.0852 100.932 54.0852ZM100.938 53.2614C101.169 53.2614 101.362 53.1979 101.517 53.071C101.672 52.9422 101.788 52.7699 101.864 52.554C101.941 52.3381 101.98 52.0975 101.98 51.8324C101.98 51.5653 101.941 51.3239 101.864 51.108C101.788 50.8902 101.672 50.7169 101.517 50.5881C101.362 50.4593 101.169 50.3949 100.938 50.3949C100.701 50.3949 100.504 50.4593 100.347 50.5881C100.191 50.7169 100.075 50.8902 99.9972 51.108C99.9214 51.3239 99.8835 51.5653 99.8835 51.8324C99.8835 52.0975 99.9214 52.3381 99.9972 52.554C100.075 52.7699 100.191 52.9422 100.347 53.071C100.504 53.1979 100.701 53.2614 100.938 53.2614ZM103.896 54V49.6364H104.893V50.3636H104.938C105.018 50.1117 105.154 49.9176 105.347 49.7812C105.542 49.643 105.765 49.5739 106.015 49.5739C106.072 49.5739 106.135 49.5767 106.205 49.5824C106.277 49.5862 106.337 49.5928 106.384 49.6023V50.5483C106.341 50.5331 106.272 50.5199 106.177 50.5085C106.084 50.4953 105.994 50.4886 105.907 50.4886C105.719 50.4886 105.551 50.5294 105.401 50.6108C105.254 50.6903 105.137 50.8011 105.052 50.9432C104.967 51.0852 104.924 51.2491 104.924 51.4347V54H103.896Z" fill="white"/>
</svg>
