<svg width="158" height="50" viewBox="0 0 158 50" fill="none" xmlns="http://www.w3.org/2000/svg">
    <rect x="1.13585" y="7.0208" width="65.0518" height="41.958" rx="4.1958" stroke="#8C9196" stroke-width="1.67832" />
    <path
        d="M35.1387 40.5872V19.1718C35.1387 18.7084 35.5144 18.3327 35.9779 18.3327H39.9448L42.0809 14.5732H52.2271L53.8291 18.3327H57.7961C58.2595 18.3327 58.6352 18.7084 58.6352 19.1718V25.8516V28.5369V33.3704V40.5872C58.6352 41.0507 58.2595 41.4264 57.7961 41.4264H46.887H35.9779C35.5144 41.4264 35.1387 41.0507 35.1387 40.5872Z"
        fill="#E6FFFA" />
    <path
        d="M39.9448 18.3327H35.9779C35.5144 18.3327 35.1387 18.7084 35.1387 19.1718V40.5872C35.1387 41.0507 35.5144 41.4264 35.9779 41.4264H46.887M39.9448 18.3327L42.7521 23.9793C42.9673 24.4121 43.5026 24.5742 43.9217 24.3333L46.887 22.6292M39.9448 18.3327L42.0809 14.5732M46.887 22.6292L49.8523 24.3333C50.2713 24.5742 50.8067 24.4121 51.0218 23.9793L53.8291 18.3327M46.887 22.6292L44.3237 18.3327M46.887 22.6292L49.735 18.3327M46.887 22.6292V41.4264M42.0809 14.5732H52.2271M42.0809 14.5732L44.3237 18.3327M53.8291 18.3327H57.7961C58.2595 18.3327 58.6352 18.7084 58.6352 19.1718V25.8516M53.8291 18.3327L52.2271 14.5732M52.2271 14.5732L49.735 18.3327M44.3237 18.3327H49.735M46.887 41.4264H57.7961C58.2595 41.4264 58.6352 41.0507 58.6352 40.5872V33.3704M58.6352 25.8516H54.1343C53.6708 25.8516 53.2951 26.2273 53.2951 26.6907V28.5369M58.6352 25.8516V28.5369M53.2951 28.5369H58.6352M53.2951 28.5369V32.5313C53.2951 32.9947 53.6708 33.3704 54.1343 33.3704H58.6352M58.6352 28.5369V33.3704"
        stroke="#202223" stroke-width="0.839161" />
    <path
        d="M21.9084 31.2637L23.5717 29.6005L25.2349 31.2637C25.6769 31.7056 26.3934 31.7056 26.8353 31.2637C27.2772 30.8218 27.2772 30.1053 26.8353 29.6634L25.172 28.0001L26.8353 26.3369C27.2772 25.895 27.2772 25.1785 26.8353 24.7366C26.3934 24.2946 25.6769 24.2946 25.2349 24.7366L23.5717 26.3998L21.9084 24.7366C21.4665 24.2946 20.75 24.2946 20.3081 24.7366C19.8662 25.1785 19.8662 25.895 20.3081 26.3369L21.9714 28.0001L20.3081 29.6634C19.8662 30.1053 19.8662 30.8218 20.3081 31.2637C20.75 31.7056 21.4665 31.7056 21.9084 31.2637Z"
        fill="white" stroke="black" stroke-width="0.839161" />
    <path
        d="M6.94154 22.1244L6.94154 22.1244C6.71466 22.3513 6.5904 22.6355 6.5904 22.9582V23.267C6.5904 23.5896 6.71466 23.8739 6.94154 24.1007L7.23701 23.8053L6.94154 24.1007C7.16843 24.3276 7.45265 24.4519 7.77529 24.4519H9.71546L8.62946 25.3926C8.62928 25.3927 8.62909 25.3929 8.62891 25.3931C8.15313 25.8027 7.9062 26.3343 7.9062 26.9593V26.9862C7.9062 27.3088 8.03046 27.593 8.25735 27.8199L8.25721 27.82L8.26647 27.8288C8.49461 28.0435 8.7752 28.1571 9.0888 28.1576C9.52814 28.162 9.88685 28.1871 10.1692 28.2301C10.4575 28.2739 10.6402 28.3328 10.7444 28.3891C10.915 28.4813 11.0212 28.6313 11.0212 28.9464C11.0212 29.2727 10.918 29.483 10.7405 29.6327C10.5544 29.7897 10.2608 29.8964 9.80271 29.8964C9.28802 29.8964 8.66234 29.7832 7.91862 29.541L7.91865 29.5409L7.90929 29.5381C7.60808 29.4478 7.30954 29.4954 7.05208 29.6763C6.79239 29.8558 6.65753 30.1254 6.65753 30.4368V30.8933C6.65753 31.2128 6.75158 31.5085 6.93708 31.7682L6.94373 31.7775L6.95087 31.7864C7.1493 32.0345 7.40653 32.2037 7.71381 32.2805L7.7138 32.2805L7.72086 32.2822C8.48429 32.4591 9.2411 32.5481 9.99068 32.5481C11.2413 32.5481 12.2674 32.2568 13.0057 31.6121C13.753 30.9595 14.1026 30.0353 14.1026 28.9062C14.1026 27.9987 13.8387 27.2314 13.2722 26.6534C12.9045 26.2721 12.4582 26.023 11.9465 25.8976L13.2236 24.8404C13.224 24.8401 13.2243 24.8399 13.2246 24.8396C13.7155 24.4375 13.9683 23.9022 13.9683 23.267V22.9582C13.9683 22.6355 13.844 22.3513 13.6172 22.1244L13.3205 22.4211L13.6172 22.1244C13.3903 21.8976 13.1061 21.7733 12.7834 21.7733H7.77529C7.45265 21.7733 7.16843 21.8976 6.94154 22.1244Z"
        fill="white" stroke="black" stroke-width="0.839161" />
    <rect width="47.3566" height="10" transform="translate(7.00958 0.306641)" fill="#F6F6F7" />
    <path
        d="M11.3556 5.61126C10.5802 5.3651 10.0202 5.06049 9.67559 4.69741C9.33097 4.32818 9.15867 3.87895 9.15867 3.34972C9.15867 2.77126 9.35867 2.31587 9.75867 1.98356C10.1648 1.6451 10.7433 1.47587 11.4941 1.47587C12.0602 1.47587 12.5741 1.54049 13.0356 1.66972C13.1833 1.71279 13.3002 1.80203 13.3864 1.93741C13.4787 2.06664 13.5248 2.21126 13.5248 2.37126V2.63895C13.5248 2.76202 13.4725 2.85741 13.3679 2.9251C13.2633 2.99279 13.1525 3.0051 13.0356 2.96202C12.5125 2.77741 12.0294 2.6851 11.5864 2.6851C11.0202 2.6851 10.7371 2.90664 10.7371 3.34972C10.7371 3.7251 10.9833 3.99279 11.4756 4.15279C12.3248 4.41126 12.9125 4.71279 13.2387 5.05741C13.571 5.40203 13.7371 5.85433 13.7371 6.41433C13.7371 7.73741 12.9033 8.39895 11.2356 8.39895C10.7064 8.39895 10.2264 8.31587 9.79559 8.14972C9.6479 8.09433 9.53097 7.99895 9.44482 7.86356C9.36482 7.72203 9.32482 7.56818 9.32482 7.40203V7.10664C9.32482 6.99587 9.37405 6.91279 9.47251 6.85741C9.57097 6.79587 9.66944 6.78972 9.7679 6.83895C10.2171 7.06049 10.6756 7.17126 11.1433 7.17126C11.4694 7.17126 11.7156 7.10972 11.8817 6.98664C12.0541 6.85741 12.1402 6.67587 12.1402 6.44203C12.1402 6.23895 12.0817 6.07279 11.9648 5.94356C11.8479 5.81433 11.6448 5.70356 11.3556 5.61126ZM16.9853 6.10972C16.2346 6.10972 15.8592 6.34049 15.8592 6.80203C15.8592 6.96818 15.9084 7.10049 16.0069 7.19895C16.1053 7.29126 16.2377 7.33741 16.4038 7.33741C16.6992 7.33741 16.9392 7.2451 17.1238 7.06049C17.3084 6.86972 17.4007 6.61741 17.4007 6.30356V6.19279C17.4007 6.13741 17.373 6.10972 17.3177 6.10972H16.9853ZM15.9515 8.39895C15.5269 8.39895 15.1761 8.26356 14.8992 7.99279C14.6284 7.71587 14.493 7.35895 14.493 6.92203C14.493 5.80203 15.3238 5.24203 16.9853 5.24203H17.3177C17.373 5.24203 17.4007 5.21741 17.4007 5.16818V5.12203C17.4007 4.88818 17.3392 4.71895 17.2161 4.61433C17.0992 4.50972 16.8992 4.45741 16.6161 4.45741C16.2407 4.45741 15.7915 4.51587 15.2684 4.63279C15.1392 4.65741 15.0223 4.62972 14.9177 4.54972C14.8192 4.46972 14.77 4.3651 14.77 4.23587V4.21741C14.77 4.06356 14.8161 3.9251 14.9084 3.80202C15.0069 3.67279 15.13 3.59587 15.2777 3.57126C15.8192 3.46664 16.2869 3.41433 16.6807 3.41433C17.4869 3.41433 18.0561 3.55895 18.3884 3.84818C18.7269 4.13741 18.8961 4.61741 18.8961 5.28818V7.78049C18.8961 7.92203 18.8438 8.0451 18.7392 8.14972C18.6346 8.25433 18.5115 8.30664 18.37 8.30664H18.0284C17.8807 8.30664 17.7546 8.25741 17.65 8.15895C17.5453 8.05433 17.49 7.92818 17.4838 7.78049V7.67895C17.4838 7.67279 17.4807 7.66972 17.4746 7.66972C17.4623 7.66972 17.4561 7.67279 17.4561 7.67895C17.0684 8.15895 16.5669 8.39895 15.9515 8.39895ZM20.766 7.80818L19.5845 4.0051C19.5475 3.88203 19.566 3.76818 19.6398 3.66356C19.7198 3.55895 19.8245 3.50664 19.9537 3.50664H20.5075C20.6614 3.50664 20.7968 3.55587 20.9137 3.65433C21.0368 3.74664 21.1137 3.86664 21.1445 4.01433L21.9198 7.43895C21.9198 7.4451 21.9229 7.44818 21.9291 7.44818C21.9352 7.44818 21.9383 7.4451 21.9383 7.43895L22.7137 4.01433C22.7445 3.86664 22.8183 3.74664 22.9352 3.65433C23.0583 3.55587 23.1968 3.50664 23.3506 3.50664H23.8675C23.9968 3.50664 24.0983 3.55895 24.1722 3.66356C24.2522 3.76818 24.2737 3.88203 24.2368 4.0051L23.0552 7.80818C23.006 7.95587 22.9168 8.07587 22.7875 8.16818C22.6645 8.26049 22.526 8.30664 22.3722 8.30664H21.4491C21.2891 8.30664 21.1445 8.26049 21.0152 8.16818C20.8922 8.07587 20.8091 7.95587 20.766 7.80818ZM26.9776 4.42049C26.7007 4.42049 26.4914 4.49433 26.3499 4.64203C26.2084 4.78356 26.1191 5.02972 26.0822 5.38049C26.0822 5.42972 26.1037 5.45433 26.1468 5.45433H27.7068C27.7622 5.45433 27.7899 5.42664 27.7899 5.37126C27.7653 4.73741 27.4945 4.42049 26.9776 4.42049ZM27.2084 8.39895C26.3714 8.39895 25.7253 8.18664 25.2699 7.76203C24.8207 7.33741 24.596 6.71895 24.596 5.90664C24.596 5.10049 24.796 4.4851 25.196 4.06049C25.6022 3.62972 26.1868 3.41433 26.9499 3.41433C28.4145 3.41433 29.1591 4.21433 29.1837 5.81433C29.1837 5.96203 29.1253 6.08818 29.0084 6.19279C28.8976 6.29126 28.7684 6.34049 28.6207 6.34049H26.156C26.0945 6.34049 26.0699 6.36818 26.0822 6.42356C26.1314 6.76203 26.2607 7.0051 26.4699 7.15279C26.6853 7.29433 27.0053 7.3651 27.4299 7.3651C27.7068 7.3651 28.0053 7.3251 28.3253 7.2451C28.4545 7.21433 28.5684 7.23895 28.6668 7.31895C28.7714 7.39895 28.8237 7.50356 28.8237 7.63279V7.65126C28.8237 7.8051 28.7745 7.94664 28.676 8.07587C28.5837 8.19895 28.4637 8.27279 28.316 8.29741C27.9591 8.3651 27.5899 8.39895 27.2084 8.39895Z"
        fill="black" />
    <path
        d="M33.5173 4.27279C33.4311 4.34049 33.3388 4.34972 33.2404 4.30049C33.1481 4.25126 33.1019 4.17126 33.1019 4.06049V3.38664C33.1019 3.03587 33.2434 2.75895 33.5265 2.55587L34.4588 1.87279C34.7358 1.66972 35.0527 1.56818 35.4096 1.56818H35.9911C36.1327 1.56818 36.2558 1.62049 36.3604 1.7251C36.465 1.82972 36.5173 1.95279 36.5173 2.09433V7.78049C36.5173 7.92203 36.465 8.0451 36.3604 8.14972C36.2558 8.25433 36.1327 8.30664 35.9911 8.30664H35.4096C35.2681 8.30664 35.145 8.25433 35.0404 8.14972C34.9358 8.0451 34.8834 7.92203 34.8834 7.78049V3.29433H34.8742H34.865L33.5173 4.27279Z"
        fill="#D40707" />
    <path
        d="M42.0224 3.17433C41.8501 2.83587 41.5794 2.66664 41.2101 2.66664C40.8409 2.66664 40.5671 2.83587 40.3886 3.17433C40.2163 3.51279 40.1301 4.10049 40.1301 4.93741C40.1301 5.77433 40.2163 6.36203 40.3886 6.70049C40.5671 7.03895 40.8409 7.20818 41.2101 7.20818C41.5794 7.20818 41.8501 7.03895 42.0224 6.70049C42.2009 6.36203 42.2901 5.77433 42.2901 4.93741C42.2901 4.10049 42.2009 3.51279 42.0224 3.17433ZM43.2224 7.58664C42.7855 8.12818 42.1147 8.39895 41.2101 8.39895C40.3055 8.39895 39.6317 8.12818 39.1886 7.58664C38.7517 7.0451 38.5332 6.16203 38.5332 4.93741C38.5332 3.71279 38.7517 2.82972 39.1886 2.28818C39.6317 1.74664 40.3055 1.47587 41.2101 1.47587C42.1147 1.47587 42.7855 1.74664 43.2224 2.28818C43.6655 2.82972 43.8871 3.71279 43.8871 4.93741C43.8871 6.16203 43.6655 7.0451 43.2224 7.58664ZM50.1491 1.56818C50.266 1.56818 50.3553 1.62049 50.4168 1.7251C50.4845 1.82972 50.4907 1.93433 50.4353 2.03895L47.4907 7.83587C47.3307 8.14972 47.0784 8.30664 46.7337 8.30664H46.6414C46.5245 8.30664 46.4322 8.25433 46.3645 8.14972C46.303 8.0451 46.2999 7.94049 46.3553 7.83587L49.2999 2.03895C49.4599 1.7251 49.7122 1.56818 50.0568 1.56818H50.1491ZM51.0445 6.53433C51.0445 5.93741 50.8691 5.63895 50.5184 5.63895C50.1676 5.63895 49.9922 5.93741 49.9922 6.53433C49.9922 7.13741 50.1676 7.43895 50.5184 7.43895C50.8691 7.43895 51.0445 7.13741 51.0445 6.53433ZM51.8199 7.90972C51.5122 8.23587 51.0784 8.39895 50.5184 8.39895C49.9584 8.39895 49.5214 8.23587 49.2076 7.90972C48.8999 7.58356 48.746 7.1251 48.746 6.53433C48.746 5.94356 48.8999 5.48818 49.2076 5.16818C49.5214 4.84203 49.9584 4.67895 50.5184 4.67895C51.0784 4.67895 51.5122 4.84203 51.8199 5.16818C52.1337 5.48818 52.2907 5.94356 52.2907 6.53433C52.2907 7.1251 52.1337 7.58356 51.8199 7.90972ZM46.7984 3.34049C46.7984 2.73741 46.623 2.43587 46.2722 2.43587C45.9214 2.43587 45.746 2.73741 45.746 3.34049C45.746 3.93741 45.9214 4.23587 46.2722 4.23587C46.623 4.23587 46.7984 3.93741 46.7984 3.34049ZM47.5737 4.71587C47.266 5.03587 46.8322 5.19587 46.2722 5.19587C45.7122 5.19587 45.2753 5.03587 44.9614 4.71587C44.6537 4.38972 44.4999 3.93126 44.4999 3.34049C44.4999 2.74972 44.6537 2.29126 44.9614 1.9651C45.2753 1.63895 45.7122 1.47587 46.2722 1.47587C46.8322 1.47587 47.266 1.63895 47.5737 1.9651C47.8876 2.29126 48.0445 2.74972 48.0445 3.34049C48.0445 3.93126 47.8876 4.38972 47.5737 4.71587Z"
        fill="#D40707" />
    <path
        d="M75.8958 26.9443L75.8957 26.9444L75.9008 26.9509C76.0216 27.1076 76.1238 27.4269 76.1238 28.0001C76.1238 28.5732 76.0216 28.8925 75.9008 29.0492L75.9007 29.0491L75.8958 29.0558C75.7953 29.1916 75.6307 29.2883 75.3144 29.2883C75.0011 29.2883 74.828 29.193 74.7181 29.0525C74.6023 28.8934 74.5049 28.5715 74.5049 28.0001C74.5049 27.4286 74.6023 27.1067 74.7181 26.9476C74.828 26.8071 75.0011 26.7118 75.3144 26.7118C75.6307 26.7118 75.7953 26.8085 75.8958 26.9443ZM79.6831 30.9505L79.683 30.9506L79.6925 30.959C79.9112 31.1506 80.1755 31.2479 80.4656 31.2479H81.136C81.4242 31.2479 81.6878 31.1515 81.9014 30.9548C82.1178 30.7632 82.2507 30.5093 82.2507 30.2083V28.4352C82.2507 28.0048 82.3915 27.6859 82.6608 27.4392C82.9462 27.1781 83.3703 26.9985 83.9778 26.9387C84.2572 26.9172 84.5121 26.8163 84.7194 26.6254C84.9359 26.4337 85.0688 26.1798 85.0688 25.8788V25.7918C85.0688 25.4892 84.9404 25.2301 84.7194 25.0344C84.4925 24.8256 84.2093 24.7424 83.9079 24.7765C83.2171 24.8528 82.6133 25.0617 82.1105 25.4109C82.0501 25.2722 81.9571 25.1496 81.8393 25.0453C81.6257 24.8486 81.3621 24.7522 81.0739 24.7522H80.4656C80.1755 24.7522 79.9112 24.8495 79.6925 25.0411L79.6924 25.041L79.6831 25.0496C79.4735 25.2448 79.3508 25.498 79.3508 25.7918V30.2083C79.3508 30.5021 79.4735 30.7553 79.6831 30.9505ZM75.3144 31.3567C76.4091 31.3567 77.3205 31.0813 77.9913 30.4764C78.6687 29.8656 78.9865 29.0204 78.9865 28.0001C78.9865 26.9797 78.6687 26.1345 77.9913 25.5237C77.3205 24.9188 76.4091 24.6434 75.3144 24.6434C74.2197 24.6434 73.3083 24.9188 72.6374 25.5237C71.9601 26.1345 71.6422 26.9797 71.6422 28.0001C71.6422 29.0204 71.9601 29.8656 72.6374 30.4764C73.3083 31.0813 74.2197 31.3567 75.3144 31.3567Z"
        fill="white" stroke="#202223" stroke-width="0.839161" />
    <rect x="90.5233" y="7.0208" width="66.3408" height="41.958" rx="4.1958" stroke="#8C9196" stroke-width="1.67832" />
    <path
        d="M125.815 40.5872V19.1718C125.815 18.7084 126.191 18.3327 126.654 18.3327H130.621L132.757 14.5732H142.904L144.506 18.3327H148.473C148.936 18.3327 149.312 18.7084 149.312 19.1718V25.8516V28.5369V33.3704V40.5872C149.312 41.0507 148.936 41.4264 148.473 41.4264H137.563H126.654C126.191 41.4264 125.815 41.0507 125.815 40.5872Z"
        fill="#E6FFFA" />
    <path
        d="M130.621 18.3327H126.654C126.191 18.3327 125.815 18.7084 125.815 19.1718V40.5872C125.815 41.0507 126.191 41.4264 126.654 41.4264H137.563M130.621 18.3327L133.429 23.9793C133.644 24.4121 134.179 24.5742 134.598 24.3333L137.563 22.6292M130.621 18.3327L132.757 14.5732M137.563 22.6292L140.529 24.3333C140.948 24.5742 141.483 24.4121 141.698 23.9793L144.506 18.3327M137.563 22.6292L135 18.3327M137.563 22.6292L140.411 18.3327M137.563 22.6292V41.4264M132.757 14.5732H142.904M132.757 14.5732L135 18.3327M144.506 18.3327H148.473C148.936 18.3327 149.312 18.7084 149.312 19.1718V25.8516M144.506 18.3327L142.904 14.5732M142.904 14.5732L140.411 18.3327M135 18.3327H140.411M137.563 41.4264H148.473C148.936 41.4264 149.312 41.0507 149.312 40.5872V33.3704M149.312 25.8516H144.811C144.347 25.8516 143.972 26.2273 143.972 26.6907V28.5369M149.312 25.8516V28.5369M143.972 28.5369H149.312M143.972 28.5369V32.5313C143.972 32.9947 144.347 33.3704 144.811 33.3704H149.312M149.312 28.5369V33.3704"
        stroke="#202223" stroke-width="0.839161" />
    <path
        d="M112.585 31.2637L114.248 29.6005L115.911 31.2637C116.353 31.7056 117.07 31.7056 117.512 31.2637C117.954 30.8218 117.954 30.1053 117.512 29.6634L115.848 28.0001L117.512 26.3369C117.954 25.895 117.954 25.1785 117.512 24.7366C117.07 24.2946 116.353 24.2946 115.911 24.7366L114.248 26.3998L112.585 24.7366C112.143 24.2946 111.426 24.2946 110.985 24.7366C110.543 25.1785 110.543 25.895 110.985 26.3369L112.648 28.0001L110.985 29.6634C110.543 30.1053 110.543 30.8218 110.985 31.2637C111.426 31.7056 112.143 31.7056 112.585 31.2637Z"
        fill="white" stroke="black" stroke-width="0.839161" />
    <path
        d="M99.1945 27.9766L100.342 26.3227V27.9766H99.1945ZM96.3068 30.2412L96.3066 30.2414L96.3156 30.2504C96.5425 30.4773 96.8267 30.6015 97.1494 30.6015H100.342V31.2963C100.342 31.6109 100.455 31.8923 100.67 32.121L100.67 32.1211L100.679 32.1301C100.906 32.357 101.19 32.4812 101.513 32.4812H102.184C102.506 32.4812 102.789 32.3576 103.009 32.1256C103.233 31.8995 103.356 31.6169 103.356 31.2963V30.6015H103.594C103.917 30.6015 104.201 30.4773 104.428 30.2504C104.655 30.0235 104.779 29.7393 104.779 29.4166V29.1615C104.779 28.8389 104.655 28.5546 104.428 28.3278C104.201 28.1009 103.917 27.9766 103.594 27.9766H103.356V23.0256C103.356 22.705 103.233 22.4224 103.009 22.1963C102.789 21.9643 102.506 21.8407 102.184 21.8407H101.513C100.875 21.8407 100.35 22.1131 99.9771 22.6333L99.9771 22.6333L99.9759 22.6351L96.4984 27.5358L96.4984 27.5358L96.4972 27.5375C96.1535 28.0269 95.9779 28.5716 95.9779 29.1615V29.4166C95.9779 29.7311 96.0915 30.0125 96.3068 30.2412Z"
        fill="white" stroke="black" stroke-width="0.839161" />
    <rect width="47.3566" height="10" transform="translate(96.399 0.306641)" fill="#F6F6F7" />
    <path
        d="M100.745 5.61126C99.9697 5.3651 99.4097 5.06049 99.065 4.69741C98.7204 4.32818 98.5481 3.87895 98.5481 3.34972C98.5481 2.77126 98.7481 2.31587 99.1481 1.98356C99.5543 1.6451 100.133 1.47587 100.884 1.47587C101.45 1.47587 101.964 1.54049 102.425 1.66972C102.573 1.71279 102.69 1.80203 102.776 1.93741C102.868 2.06664 102.914 2.21126 102.914 2.37126V2.63895C102.914 2.76202 102.862 2.85741 102.757 2.9251C102.653 2.99279 102.542 3.0051 102.425 2.96202C101.902 2.77741 101.419 2.6851 100.976 2.6851C100.41 2.6851 100.127 2.90664 100.127 3.34972C100.127 3.7251 100.373 3.99279 100.865 4.15279C101.714 4.41126 102.302 4.71279 102.628 5.05741C102.96 5.40203 103.127 5.85433 103.127 6.41433C103.127 7.73741 102.293 8.39895 100.625 8.39895C100.096 8.39895 99.6158 8.31587 99.185 8.14972C99.0374 8.09433 98.9204 7.99895 98.8343 7.86356C98.7543 7.72203 98.7143 7.56818 98.7143 7.40203V7.10664C98.7143 6.99587 98.7635 6.91279 98.862 6.85741C98.9604 6.79587 99.0589 6.78972 99.1574 6.83895C99.6066 7.06049 100.065 7.17126 100.533 7.17126C100.859 7.17126 101.105 7.10972 101.271 6.98664C101.444 6.85741 101.53 6.67587 101.53 6.44203C101.53 6.23895 101.471 6.07279 101.354 5.94356C101.237 5.81433 101.034 5.70356 100.745 5.61126ZM106.375 6.10972C105.624 6.10972 105.249 6.34049 105.249 6.80203C105.249 6.96818 105.298 7.10049 105.396 7.19895C105.495 7.29126 105.627 7.33741 105.793 7.33741C106.089 7.33741 106.329 7.2451 106.513 7.06049C106.698 6.86972 106.79 6.61741 106.79 6.30356V6.19279C106.79 6.13741 106.762 6.10972 106.707 6.10972H106.375ZM105.341 8.39895C104.916 8.39895 104.566 8.26356 104.289 7.99279C104.018 7.71587 103.882 7.35895 103.882 6.92203C103.882 5.80203 104.713 5.24203 106.375 5.24203H106.707C106.762 5.24203 106.79 5.21741 106.79 5.16818V5.12203C106.79 4.88818 106.729 4.71895 106.606 4.61433C106.489 4.50972 106.289 4.45741 106.006 4.45741C105.63 4.45741 105.181 4.51587 104.658 4.63279C104.529 4.65741 104.412 4.62972 104.307 4.54972C104.209 4.46972 104.159 4.3651 104.159 4.23587V4.21741C104.159 4.06356 104.206 3.9251 104.298 3.80202C104.396 3.67279 104.519 3.59587 104.667 3.57126C105.209 3.46664 105.676 3.41433 106.07 3.41433C106.876 3.41433 107.446 3.55895 107.778 3.84818C108.116 4.13741 108.286 4.61741 108.286 5.28818V7.78049C108.286 7.92203 108.233 8.0451 108.129 8.14972C108.024 8.25433 107.901 8.30664 107.759 8.30664H107.418C107.27 8.30664 107.144 8.25741 107.039 8.15895C106.935 8.05433 106.879 7.92818 106.873 7.78049V7.67895C106.873 7.67279 106.87 7.66972 106.864 7.66972C106.852 7.66972 106.846 7.67279 106.846 7.67895C106.458 8.15895 105.956 8.39895 105.341 8.39895ZM110.155 7.80818L108.974 4.0051C108.937 3.88203 108.955 3.76818 109.029 3.66356C109.109 3.55895 109.214 3.50664 109.343 3.50664H109.897C110.051 3.50664 110.186 3.55587 110.303 3.65433C110.426 3.74664 110.503 3.86664 110.534 4.01433L111.309 7.43895C111.309 7.4451 111.312 7.44818 111.319 7.44818C111.325 7.44818 111.328 7.4451 111.328 7.43895L112.103 4.01433C112.134 3.86664 112.208 3.74664 112.325 3.65433C112.448 3.55587 112.586 3.50664 112.74 3.50664H113.257C113.386 3.50664 113.488 3.55895 113.562 3.66356C113.642 3.76818 113.663 3.88203 113.626 4.0051L112.445 7.80818C112.395 7.95587 112.306 8.07587 112.177 8.16818C112.054 8.26049 111.915 8.30664 111.762 8.30664H110.839C110.679 8.30664 110.534 8.26049 110.405 8.16818C110.282 8.07587 110.199 7.95587 110.155 7.80818ZM116.367 4.42049C116.09 4.42049 115.881 4.49433 115.739 4.64203C115.598 4.78356 115.509 5.02972 115.472 5.38049C115.472 5.42972 115.493 5.45433 115.536 5.45433H117.096C117.152 5.45433 117.179 5.42664 117.179 5.37126C117.155 4.73741 116.884 4.42049 116.367 4.42049ZM116.598 8.39895C115.761 8.39895 115.115 8.18664 114.659 7.76203C114.21 7.33741 113.986 6.71895 113.986 5.90664C113.986 5.10049 114.186 4.4851 114.586 4.06049C114.992 3.62972 115.576 3.41433 116.339 3.41433C117.804 3.41433 118.549 4.21433 118.573 5.81433C118.573 5.96203 118.515 6.08818 118.398 6.19279C118.287 6.29126 118.158 6.34049 118.01 6.34049H115.546C115.484 6.34049 115.459 6.36818 115.472 6.42356C115.521 6.76203 115.65 7.0051 115.859 7.15279C116.075 7.29433 116.395 7.3651 116.819 7.3651C117.096 7.3651 117.395 7.3251 117.715 7.2451C117.844 7.21433 117.958 7.23895 118.056 7.31895C118.161 7.39895 118.213 7.50356 118.213 7.63279V7.65126C118.213 7.8051 118.164 7.94664 118.066 8.07587C117.973 8.19895 117.853 8.27279 117.706 8.29741C117.349 8.3651 116.979 8.39895 116.598 8.39895Z"
        fill="black" />
    <path
        d="M122.842 8.30664C122.701 8.30664 122.578 8.25433 122.473 8.14972C122.368 8.0451 122.316 7.92203 122.316 7.78049V7.56818C122.316 7.22356 122.454 6.94356 122.731 6.72818C123.765 5.91587 124.448 5.29741 124.781 4.87279C125.119 4.44818 125.288 4.03279 125.288 3.62664C125.288 3.06049 124.974 2.77741 124.347 2.77741C123.965 2.77741 123.498 2.88203 122.944 3.09126C122.827 3.13433 122.716 3.12203 122.611 3.05433C122.507 2.98664 122.454 2.89126 122.454 2.76818V2.38049C122.454 2.22049 122.501 2.07895 122.593 1.95587C122.685 1.82664 122.808 1.74049 122.962 1.69741C123.522 1.54972 124.061 1.47587 124.578 1.47587C125.322 1.47587 125.894 1.65433 126.294 2.01126C126.701 2.36203 126.904 2.85126 126.904 3.47895C126.904 4.02049 126.731 4.53741 126.387 5.02972C126.048 5.51587 125.384 6.17741 124.393 7.01433C124.387 7.02049 124.384 7.02664 124.384 7.03279C124.384 7.03895 124.387 7.04203 124.393 7.04203H126.414C126.556 7.04203 126.676 7.09433 126.774 7.19895C126.879 7.30356 126.931 7.42664 126.931 7.56818V7.78049C126.931 7.92203 126.879 8.0451 126.774 8.14972C126.676 8.25433 126.556 8.30664 126.414 8.30664H122.842Z"
        fill="#D40707" />
    <path
        d="M131.412 3.17433C131.24 2.83587 130.969 2.66664 130.6 2.66664C130.23 2.66664 129.957 2.83587 129.778 3.17433C129.606 3.51279 129.52 4.10049 129.52 4.93741C129.52 5.77433 129.606 6.36203 129.778 6.70049C129.957 7.03895 130.23 7.20818 130.6 7.20818C130.969 7.20818 131.24 7.03895 131.412 6.70049C131.59 6.36203 131.68 5.77433 131.68 4.93741C131.68 4.10049 131.59 3.51279 131.412 3.17433ZM132.612 7.58664C132.175 8.12818 131.504 8.39895 130.6 8.39895C129.695 8.39895 129.021 8.12818 128.578 7.58664C128.141 7.0451 127.923 6.16203 127.923 4.93741C127.923 3.71279 128.141 2.82972 128.578 2.28818C129.021 1.74664 129.695 1.47587 130.6 1.47587C131.504 1.47587 132.175 1.74664 132.612 2.28818C133.055 2.82972 133.277 3.71279 133.277 4.93741C133.277 6.16203 133.055 7.0451 132.612 7.58664ZM139.539 1.56818C139.656 1.56818 139.745 1.62049 139.806 1.7251C139.874 1.82972 139.88 1.93433 139.825 2.03895L136.88 7.83587C136.72 8.14972 136.468 8.30664 136.123 8.30664H136.031C135.914 8.30664 135.822 8.25433 135.754 8.14972C135.692 8.0451 135.689 7.94049 135.745 7.83587L138.689 2.03895C138.849 1.7251 139.102 1.56818 139.446 1.56818H139.539ZM140.434 6.53433C140.434 5.93741 140.259 5.63895 139.908 5.63895C139.557 5.63895 139.382 5.93741 139.382 6.53433C139.382 7.13741 139.557 7.43895 139.908 7.43895C140.259 7.43895 140.434 7.13741 140.434 6.53433ZM141.209 7.90972C140.902 8.23587 140.468 8.39895 139.908 8.39895C139.348 8.39895 138.911 8.23587 138.597 7.90972C138.289 7.58356 138.136 7.1251 138.136 6.53433C138.136 5.94356 138.289 5.48818 138.597 5.16818C138.911 4.84203 139.348 4.67895 139.908 4.67895C140.468 4.67895 140.902 4.84203 141.209 5.16818C141.523 5.48818 141.68 5.94356 141.68 6.53433C141.68 7.1251 141.523 7.58356 141.209 7.90972ZM136.188 3.34049C136.188 2.73741 136.012 2.43587 135.662 2.43587C135.311 2.43587 135.136 2.73741 135.136 3.34049C135.136 3.93741 135.311 4.23587 135.662 4.23587C136.012 4.23587 136.188 3.93741 136.188 3.34049ZM136.963 4.71587C136.656 5.03587 136.222 5.19587 135.662 5.19587C135.102 5.19587 134.665 5.03587 134.351 4.71587C134.043 4.38972 133.889 3.93126 133.889 3.34049C133.889 2.74972 134.043 2.29126 134.351 1.9651C134.665 1.63895 135.102 1.47587 135.662 1.47587C136.222 1.47587 136.656 1.63895 136.963 1.9651C137.277 2.29126 137.434 2.74972 137.434 3.34049C137.434 3.93126 137.277 4.38972 136.963 4.71587Z"
        fill="#D40707" />
</svg>