<svg width="96" height="76" viewBox="0 0 96 76" fill="none" xmlns="http://www.w3.org/2000/svg">
<rect width="96" height="76" rx="3" fill="white"/>
<rect x="8" y="64.6235" width="79.959" height="5.12646" rx="1" fill="#004BFF"/>
<rect x="37.9795" y="66.1865" width="20" height="2" rx="0.6" fill="white"/>
<rect x="8" y="58.5" width="10" height="3" rx="0.6" fill="#D2D8E2"/>
<rect x="20" y="58.5" width="10" height="3" rx="0.6" fill="#D2D8E2"/>
<rect x="32" y="58.5" width="10" height="3" rx="0.6" fill="#D2D8E2"/>
<rect x="44" y="58.5" width="10" height="3" rx="0.6" fill="#D2D8E2"/>
<g clip-path="url(#clip0_357_7619)">
<rect x="8" y="7.5" width="80" height="27" rx="1.5" fill="#ECEEF2"/>
</g>
<rect x="8.25" y="48.75" width="79.5" height="5.5" rx="0.95" fill="white"/>
<rect x="8.25" y="48.75" width="79.5" height="5.5" rx="0.95" stroke="#DCDCDC" stroke-width="0.5"/>
<rect x="75.5" y="50.5" width="10" height="2" rx="0.5" fill="#004BFF"/>
<rect x="10" y="50.5" width="14" height="2" rx="0.5" fill="#BDC5D7"/>
<rect x="8.25" y="37.75" width="79.5" height="7.5" rx="1.25" fill="#F4F6F8"/>
<rect x="8.25" y="37.75" width="79.5" height="7.5" rx="1.25" stroke="#DCDCDC" stroke-width="0.5"/>
<rect x="43" y="40.5" width="10" height="2" rx="0.5" fill="#004BFF"/>
<rect x="11" y="40.3271" width="5" height="2" rx="0.5" fill="#BDC5D7"/>
<line x1="18.4863" y1="37.5" x2="18.4863" y2="45.3271" stroke="#DCDCDC" stroke-width="0.5"/>
<rect width="5" height="2" rx="0.5" transform="matrix(-1 0 0 1 85.2363 40.3271)" fill="#BDC5D7"/>
<line y1="-0.25" x2="7.82715" y2="-0.25" transform="matrix(4.37117e-08 1 1 -4.37117e-08 78 37.5)" stroke="#DCDCDC" stroke-width="0.5"/>
<defs>
<clipPath id="clip0_357_7619">
<rect x="8" y="7.5" width="80" height="27" rx="1.5" fill="white"/>
</clipPath>
</defs>
</svg>
