<svg width="96" height="76" viewBox="0 0 96 76" fill="none" xmlns="http://www.w3.org/2000/svg">
<rect width="96" height="76" rx="3" fill="white"/>
<rect x="8" y="64.6235" width="79.959" height="5.12646" rx="1" fill="#004BFF"/>
<rect x="37.9795" y="66.1865" width="20" height="2" rx="0.6" fill="white"/>
<rect x="8" y="57.5" width="80" height="2" rx="1" fill="#ECEEF2"/>
<rect x="8" y="57.5" width="26.2109" height="2" rx="1" fill="#BDC5D7"/>
<rect x="8.22949" y="53.3999" width="14" height="1.2" rx="0.5" fill="#BDC5D7"/>
<rect x="31" y="56.5" width="4" height="4" rx="2" fill="#004BFF"/>
<g clip-path="url(#clip0_355_7562)">
<rect x="8" y="7.5" width="80" height="25" rx="1.5" fill="#ECEEF2"/>
</g>
<rect x="8.25" y="36.75" width="79.5" height="13.5" rx="1.25" fill="white"/>
<rect x="8.25" y="36.75" width="79.5" height="13.5" rx="1.25" stroke="#DCDCDC" stroke-width="0.5"/>
<rect x="72.5" y="42.5" width="10" height="2" rx="0.5" fill="#004BFF"/>
<rect x="17" y="39.5" width="8" height="8" rx="1" fill="#7BA2FE"/>
<rect x="27.2295" y="41.3999" width="26" height="1.4" rx="0.5" fill="#BDC5D7"/>
<rect x="27.2295" y="44.3999" width="14" height="1.2" rx="0.5" fill="#BDC5D7"/>
<rect x="11" y="42" width="3" height="3" rx="0.5" fill="#BDC5D7"/>
<defs>
<clipPath id="clip0_355_7562">
<rect x="8" y="7.5" width="80" height="25" rx="1.5" fill="white"/>
</clipPath>
</defs>
</svg>
