<svg xmlns="http://www.w3.org/2000/svg" width="168" height="136" viewBox="0 0 168 136" fill="none">
  <rect width="168" height="136" rx="8" fill="#F9FAFB"/>
  <!-- Card 1 -->
  <rect x="6" y="8" width="46" height="80" rx="6" fill="#fff" stroke="#E5E7EB" stroke-width="1"/>
  <rect x="14" y="16" width="30" height="5" rx="2" fill="#374151" opacity="0.6"/>
  <rect x="18" y="24" width="22" height="4" rx="2" fill="#9CA3AF" opacity="0.5"/>
  <rect x="12" y="36" width="34" height="8" rx="2" fill="#374151" opacity="0.7"/>
  <rect x="14" y="50" width="30" height="12" rx="4" fill="#fff" stroke="#E5E7EB" stroke-width="1"/>
  <text x="22" y="59" font-size="6" fill="#9CA3AF" font-family="system-ui">Select</text>
  <!-- Card 2 (selected) -->
  <rect x="58" y="4" width="52" height="88" rx="6" fill="#EEF2FF" stroke="#6366F1" stroke-width="1.5"/>
  <rect x="67" y="6" width="34" height="10" rx="5" fill="#6366F1"/>
  <text x="70" y="13" font-size="5" fill="#fff" font-family="system-ui" font-weight="600">POPULAR</text>
  <rect x="68" y="22" width="32" height="5" rx="2" fill="#6366F1" opacity="0.7"/>
  <rect x="72" y="30" width="24" height="4" rx="2" fill="#9CA3AF" opacity="0.5"/>
  <rect x="66" y="42" width="36" height="8" rx="2" fill="#374151" opacity="0.8"/>
  <rect x="72" y="54" width="24" height="8" rx="10" fill="#E8F5E9"/>
  <text x="75" y="60" font-size="5" fill="#16A34A" font-family="system-ui" font-weight="600">-10%</text>
  <rect x="66" y="68" width="36" height="14" rx="5" fill="#6366F1"/>
  <text x="71" y="78" font-size="6" fill="#fff" font-family="system-ui" font-weight="500">Selected</text>
  <!-- Card 3 -->
  <rect x="116" y="8" width="46" height="80" rx="6" fill="#fff" stroke="#E5E7EB" stroke-width="1"/>
  <rect x="124" y="16" width="30" height="5" rx="2" fill="#374151" opacity="0.6"/>
  <rect x="128" y="24" width="22" height="4" rx="2" fill="#9CA3AF" opacity="0.5"/>
  <rect x="122" y="36" width="34" height="8" rx="2" fill="#374151" opacity="0.7"/>
  <rect x="126" y="50" width="26" height="8" rx="10" fill="#E8F5E9"/>
  <text x="129" y="56" font-size="5" fill="#16A34A" font-family="system-ui" font-weight="600">-20%</text>
  <rect x="124" y="64" width="30" height="12" rx="4" fill="#fff" stroke="#E5E7EB" stroke-width="1"/>
  <text x="132" y="73" font-size="6" fill="#9CA3AF" font-family="system-ui">Select</text>
  <!-- ATC -->
  <rect x="8" y="108" width="152" height="20" rx="5" fill="#303030"/>
  <text x="52" y="121" font-size="8" fill="#fff" font-family="system-ui" font-weight="500">Add to Cart</text>
</svg>
