<svg width="96" height="76" viewBox="0 0 96 76" fill="none" xmlns="http://www.w3.org/2000/svg">
<rect width="96" height="76" rx="3" fill="white"/>
<rect x="8" y="64.4365" width="13.2295" height="2" rx="0.6" fill="#BDC5D7"/>
<rect x="8.08594" y="67.9365" width="18" height="2" rx="0.6" fill="#BDC5D7"/>
<rect x="49.7441" y="64.6235" width="38.2148" height="5.12646" rx="1" fill="#004BFF"/>
<rect x="62.8516" y="66.1865" width="12" height="2" rx="0.6" fill="white"/>
<line x1="8.25" y1="61.04" x2="87.75" y2="61.04" stroke="#DCDCDC" stroke-width="0.5" stroke-linecap="round"/>
<line x1="8.25" y1="23.04" x2="87.75" y2="23.04" stroke="#DCDCDC" stroke-width="0.5" stroke-linecap="round"/>
<g clip-path="url(#clip0_355_7472)">
<rect x="7.87207" y="27.5" width="38" height="30" rx="1.5" fill="#ECEEF2"/>
<rect x="14.8721" y="49.3999" width="24" height="4" rx="0.6" fill="#A1ACC9"/>
<rect x="20.8721" y="50.8999" width="12" height="1" rx="0.2" fill="white"/>
<rect x="21.8721" y="43.3999" width="10" height="2" rx="0.5" fill="#004BFF"/>
<rect x="16.8721" y="33.3999" width="20" height="2" rx="0.5" fill="#A1ACC9"/>
<rect x="19.8721" y="37.3999" width="14" height="1.4" rx="0.5" fill="#A1ACC9"/>
</g>
<g clip-path="url(#clip1_355_7472)">
<rect x="50" y="27.5" width="38" height="30" rx="1.5" fill="#ECEEF2"/>
<rect x="57" y="49.3999" width="24" height="4" rx="0.6" fill="#A1ACC9"/>
<rect x="63" y="50.8999" width="12" height="1" rx="0.2" fill="white"/>
<rect x="64" y="43.3999" width="10" height="2" rx="0.5" fill="#004BFF"/>
<rect x="59" y="33.3999" width="20" height="2" rx="0.5" fill="#A1ACC9"/>
<rect x="62" y="37.3999" width="14" height="1.4" rx="0.5" fill="#A1ACC9"/>
</g>
<rect x="8" y="7.5" width="80" height="12" rx="1.5" fill="#ECEEF2"/>
<rect x="10" y="9.5" width="8" height="8" rx="1" fill="#7BA2FE"/>
<rect x="21.2295" y="11.3999" width="26" height="1.4" rx="0.5" fill="#BDC5D7"/>
<rect x="21.2295" y="14.3999" width="8" height="1.2" rx="0.5" fill="#004BFF"/>
<defs>
<clipPath id="clip0_355_7472">
<rect x="7.87207" y="27.5" width="38" height="30" rx="1.5" fill="white"/>
</clipPath>
<clipPath id="clip1_355_7472">
<rect x="50" y="27.5" width="38" height="30" rx="1.5" fill="white"/>
</clipPath>
</defs>
</svg>
