<svg fill="none" height="97" viewBox="0 0 160 97" width="160" xmlns="http://www.w3.org/2000/svg" xmlns:xlink="http://www.w3.org/1999/xlink"><filter id="a" color-interpolation-filters="sRGB" filterUnits="userSpaceOnUse" height="97" width="126" x="33.3052" y="0"><feFlood flood-opacity="0" result="BackgroundImageFix"/><feColorMatrix in="SourceAlpha" result="hardAlpha" type="matrix" values="0 0 0 0 0 0 0 0 0 0 0 0 0 0 0 0 0 0 127 0"/><feOffset dy="1"/><feGaussianBlur stdDeviation=".5"/><feComposite in2="hardAlpha" operator="out"/><feColorMatrix type="matrix" values="0 0 0 0 0.815686 0 0 0 0 0.815686 0 0 0 0 0.815686 0 0 0 1 0"/><feBlend in2="BackgroundImageFix" mode="normal" result="effect1_dropShadow_27_7414"/><feBlend in="SourceGraphic" in2="effect1_dropShadow_27_7414" mode="normal" result="shape"/></filter><filter id="b" color-interpolation-filters="sRGB" filterUnits="userSpaceOnUse" height="49" width="41" x="7.30518" y="33.3333"><feFlood flood-opacity="0" result="BackgroundImageFix"/><feColorMatrix in="SourceAlpha" result="hardAlpha" type="matrix" values="0 0 0 0 0 0 0 0 0 0 0 0 0 0 0 0 0 0 127 0"/><feOffset dx="3" dy="3"/><feComposite in2="hardAlpha" operator="out"/><feColorMatrix type="matrix" values="0 0 0 0 0 0 0 0 0 0 0 0 0 0 0 0 0 0 0.14 0"/><feBlend in2="BackgroundImageFix" mode="normal" result="effect1_dropShadow_27_7414"/><feBlend in="SourceGraphic" in2="effect1_dropShadow_27_7414" mode="normal" result="shape"/></filter><filter id="c" color-interpolation-filters="sRGB" filterUnits="userSpaceOnUse" height="51" width="41" x="59.3052" y="33.3333"><feFlood flood-opacity="0" result="BackgroundImageFix"/><feColorMatrix in="SourceAlpha" result="hardAlpha" type="matrix" values="0 0 0 0 0 0 0 0 0 0 0 0 0 0 0 0 0 0 127 0"/><feOffset dx="3" dy="3"/><feComposite in2="hardAlpha" operator="out"/><feColorMatrix type="matrix" values="0 0 0 0 0 0 0 0 0 0 0 0 0 0 0 0 0 0 0.14 0"/><feBlend in2="BackgroundImageFix" mode="normal" result="effect1_dropShadow_27_7414"/><feBlend in="SourceGraphic" in2="effect1_dropShadow_27_7414" mode="normal" result="shape"/></filter><filter id="d" color-interpolation-filters="sRGB" filterUnits="userSpaceOnUse" height="51" width="41" x="111.305" y="33.3333"><feFlood flood-opacity="0" result="BackgroundImageFix"/><feColorMatrix in="SourceAlpha" result="hardAlpha" type="matrix" values="0 0 0 0 0 0 0 0 0 0 0 0 0 0 0 0 0 0 127 0"/><feOffset dx="3" dy="3"/><feComposite in2="hardAlpha" operator="out"/><feColorMatrix type="matrix" values="0 0 0 0 0 0 0 0 0 0 0 0 0 0 0 0 0 0 0.14 0"/><feBlend in2="BackgroundImageFix" mode="normal" result="effect1_dropShadow_27_7414"/><feBlend in="SourceGraphic" in2="effect1_dropShadow_27_7414" mode="normal" result="shape"/></filter><clipPath id="e"><path d="m34.3052 8c0-4.41828 3.5817-8 8-8h107.9998c4.418 0 8 3.58172 8 8v79c0 4.4183-3.582 8-8 8h-107.9998c-4.4183 0-8-3.5817-8-8z"/></clipPath><g filter="url(#a)"><g clip-path="url(#e)"><path d="m34.3052 8c0-4.41828 3.5817-8 8-8h107.9998c4.418 0 8 3.58172 8 8v79c0 4.4183-3.582 8-8 8h-107.9998c-4.4183 0-8-3.5817-8-8z" fill="#fff"/><path d="m0 0h124v18h-124z" fill="#303030" transform="translate(34.3052)"/><g stroke="#fff" stroke-linecap="round"><path d="m44.7637 10.0656c1.3142-1.60822 4.4998-3.85971 6.7282 0"/><path d="m51.4917 10.0656c1.3143-1.60822 4.4999-3.85971 6.7283 0"/><path d="m58.2202 10.0656c1.3143-1.60822 4.4999-3.85971 6.7283 0"/></g></g></g><g filter="url(#b)"><path d="m7.30518 36c0-1.4728 1.1939-2.6667 2.66666-2.6667h32.66666c1.4728 0 2.6667 1.1939 2.6667 2.6667v40.6666c0 1.4728-1.1939 2.6667-2.6667 2.6667h-32.66666c-1.47276 0-2.66666-1.1939-2.66666-2.6667z" fill="#fff"/><path d="m9.97217 33.5999h32.66603c1.3255 0 2.4004 1.0749 2.4004 2.4004v40.666c0 1.3255-1.0749 2.4004-2.4004 2.4004h-32.66603c-1.32549 0-2.40039-1.0749-2.40039-2.4004v-40.666c0-1.3255 1.0749-2.4004 2.40039-2.4004z" stroke="#303030" stroke-width=".533333"/><rect fill="#d4d4d4" height="16" rx="1" width="26" x="13.3052" y="39.5"/><path clip-rule="evenodd" d="m25.8335 45.1817c0 .51-.4173.9273-.9273.9273s-.9273-.4173-.9273-.9273c0-.5101.4173-.9274.9273-.9274s.9273.4173.9273.9274zm.2782 3.2688 1.6182-2.5919c.1901-.3014.6306-.2875.8022.0232l2.2626 4.1776c.167.3106-.0556.6862-.408.6862h-8.1651c-.3524 0-.5795-.3802-.3987-.6909l1.4281-2.5408c.1437-.2504.4729-.3153.6955-.1345l1.4837 1.187c.2132.1715.5332.1205.6815-.1159z" fill="#fff" fill-rule="evenodd"/><rect fill="#d4d4d4" height="2" rx=".8" width="10" x="13.3052" y="63.1667"/><rect fill="#d4d4d4" height="2" rx=".8" width="19" x="13.3052" y="59.5"/><rect fill="#d0d0d0" height="4" rx=".8" width="15" x="13.3052" y="69.1667"/></g><g filter="url(#c)"><path d="m59.3052 36c0-1.4728 1.1939-2.6667 2.6666-2.6667h32.6667c1.4728 0 2.6667 1.1939 2.6667 2.6667v42.6666c0 1.4728-1.1939 2.6667-2.6667 2.6667h-32.6667c-1.4727 0-2.6666-1.1939-2.6666-2.6667z" fill="#fff"/><path d="m61.9722 33.5999h32.666c1.3255 0 2.4004 1.0749 2.4004 2.4004v42.666c0 1.3255-1.0749 2.4004-2.4004 2.4004h-32.666c-1.3255 0-2.4004-1.0749-2.4004-2.4004v-42.666c0-1.3255 1.0749-2.4004 2.4004-2.4004z" stroke="#303030" stroke-width=".533333"/><rect fill="#d4d4d4" height="16" rx="1" width="26" x="65.3052" y="39.5"/><path clip-rule="evenodd" d="m77.8355 45.015c0 .5101-.4173.9274-.9273.9274-.5101 0-.9274-.4173-.9274-.9274 0-.51.4173-.9273.9274-.9273.51 0 .9273.4173.9273.9273zm.2782 3.2689 1.6182-2.5919c.1901-.3014.6306-.2875.8021.0231l2.2627 4.1777c.1669.3106-.0557.6862-.408.6862h-8.1651c-.3524 0-.5796-.3802-.3988-.6909l1.4281-2.5408c.1437-.2504.4729-.3153.6955-.1345l1.4837 1.187c.2133.1715.5332.1205.6816-.1159z" fill="#fff" fill-rule="evenodd"/><rect fill="#d4d4d4" height="2" rx=".8" width="10" x="65.3052" y="63.1667"/><rect fill="#d4d4d4" height="2" rx=".8" width="19" x="65.3052" y="59.5"/><rect fill="#d0d0d0" height="4" rx=".8" width="15" x="65.3052" y="69.1667"/></g><g filter="url(#d)"><path d="m111.305 36c0-1.4728 1.194-2.6667 2.667-2.6667h32.667c1.472 0 2.666 1.1939 2.666 2.6667v42.6666c0 1.4728-1.194 2.6667-2.666 2.6667h-32.667c-1.473 0-2.667-1.1939-2.667-2.6667z" fill="#fff"/><path d="m113.972 33.5999h32.666c1.326 0 2.401 1.0749 2.401 2.4004v42.666c0 1.3255-1.075 2.4004-2.401 2.4004h-32.666c-1.325 0-2.4-1.0749-2.4-2.4004v-42.666c0-1.3255 1.075-2.4004 2.4-2.4004z" stroke="#303030" stroke-width=".533333"/><rect fill="#d4d4d4" height="16" rx="1" width="26" x="117.305" y="39.5"/><path clip-rule="evenodd" d="m129.835 45.015c0 .5101-.417.9274-.927.9274s-.927-.4173-.927-.9274c0-.51.417-.9273.927-.9273s.927.4173.927.9273zm.279 3.2689 1.618-2.5919c.19-.3014.63-.2875.802.0231l2.263 4.1777c.167.3106-.056.6862-.408.6862h-8.165c-.353 0-.58-.3802-.399-.6909l1.428-2.5408c.144-.2504.473-.3153.695-.1345l1.484 1.187c.213.1715.533.1205.682-.1159z" fill="#fff" fill-rule="evenodd"/><rect fill="#d4d4d4" height="2" rx=".8" width="10" x="117.305" y="63.1667"/><rect fill="#d4d4d4" height="2" rx=".8" width="19" x="117.305" y="59.5"/><rect fill="#d0d0d0" height="4" rx=".8" width="15" x="117.305" y="69.1667"/></g><g stroke="#2667ff"><path d="m2.62158 25.7785 4.24341 5.771" stroke-linecap="round"/><path d="m.5 31.9478 4.24341 1.77" stroke-linecap="round"/><path d="m10.2642 26.1857-.7467 4.2953" stroke-linecap="round"/></g><rect fill="#2667ff" height="10" rx="5" width="10" x="47.3052" y="52.3333"/><path d="m52.3052 55.5129v3.6408m-1.8203-1.8204h3.6407" stroke="#fff" stroke-linecap="round" stroke-linejoin="round"/><rect fill="#2667ff" height="10" rx="5" width="10" x="99.3052" y="52.3333"/><path d="m104.305 55.5129v3.6408m-1.82-1.8204h3.641" stroke="#fff" stroke-linecap="round" stroke-linejoin="round"/></svg>