<svg fill="none" height="97" viewBox="0 0 159 97" width="159" xmlns="http://www.w3.org/2000/svg" xmlns:xlink="http://www.w3.org/1999/xlink"><filter id="a" color-interpolation-filters="sRGB" filterUnits="userSpaceOnUse" height="97" width="126" x="32.3052" y="0"><feFlood flood-opacity="0" result="BackgroundImageFix"/><feColorMatrix in="SourceAlpha" result="hardAlpha" type="matrix" values="0 0 0 0 0 0 0 0 0 0 0 0 0 0 0 0 0 0 127 0"/><feOffset dy="1"/><feGaussianBlur stdDeviation=".5"/><feComposite in2="hardAlpha" operator="out"/><feColorMatrix type="matrix" values="0 0 0 0 0.815686 0 0 0 0 0.815686 0 0 0 0 0.815686 0 0 0 1 0"/><feBlend in2="BackgroundImageFix" mode="normal" result="effect1_dropShadow_27_7216"/><feBlend in="SourceGraphic" in2="effect1_dropShadow_27_7216" mode="normal" result="shape"/></filter><filter id="b" color-interpolation-filters="sRGB" filterUnits="userSpaceOnUse" height="52" width="74" x="6.95996" y="30.3334"><feFlood flood-opacity="0" result="BackgroundImageFix"/><feColorMatrix in="SourceAlpha" result="hardAlpha" type="matrix" values="0 0 0 0 0 0 0 0 0 0 0 0 0 0 0 0 0 0 127 0"/><feOffset dx="3" dy="3"/><feComposite in2="hardAlpha" operator="out"/><feColorMatrix type="matrix" values="0 0 0 0 0 0 0 0 0 0 0 0 0 0 0 0 0 0 0.14 0"/><feBlend in2="BackgroundImageFix" mode="normal" result="effect1_dropShadow_27_7216"/><feBlend in="SourceGraphic" in2="effect1_dropShadow_27_7216" mode="normal" result="shape"/></filter><clipPath id="c"><path d="m33.3052 8c0-4.41828 3.5817-8 8-8h107.9998c4.418 0 8 3.58172 8 8v79c0 4.4183-3.582 8-8 8h-107.9998c-4.4183 0-8-3.5817-8-8z"/></clipPath><clipPath id="d"><rect height="22" rx="2" width="24" x="88.3052" y="60.3333"/></clipPath><g filter="url(#a)"><g clip-path="url(#c)"><path d="m33.3052 8c0-4.41828 3.5817-8 8-8h107.9998c4.418 0 8 3.58172 8 8v79c0 4.4183-3.582 8-8 8h-107.9998c-4.4183 0-8-3.5817-8-8z" fill="#fff"/><rect fill="#f1f1f1" height="22" rx="2" width="24" x="88.3052" y="30.3333"/><path clip-rule="evenodd" d="m99.8335 39.015c0 .51-.4173.9273-.9273.9273s-.9273-.4173-.9273-.9273c0-.5101.4173-.9274.9273-.9274s.9273.4173.9273.9274zm.2785 3.2688 1.618-2.5919c.19-.3014.631-.2875.802.0232l2.263 4.1776c.167.3107-.056.6862-.408.6862h-8.1654c-.3524 0-.5795-.3802-.3987-.6908l1.4281-2.5409c.1437-.2504.4729-.3153.6955-.1345l1.4837 1.187c.2132.1716.5332.1206.6818-.1159z" fill="#c2c2c2" fill-rule="evenodd"/><rect fill="#c2c2c2" height="3" rx="1" width="10" x="117.96" y="45.8333"/><rect fill="#e6e6e6" height="3" rx="1" width="20" x="117.96" y="38.8333"/><rect fill="#e6e6e6" height="3" rx="1" width="28" x="117.96" y="33.8333"/><g clip-path="url(#d)"><rect fill="#f1f1f1" height="22" rx="2" width="24" x="88.3052" y="60.3333"/><path clip-rule="evenodd" d="m99.8335 69.015c0 .51-.4173.9273-.9273.9273s-.9273-.4173-.9273-.9273c0-.5101.4173-.9274.9273-.9274s.9273.4173.9273.9274zm.2785 3.2688 1.618-2.5919c.19-.3014.631-.2875.802.0232l2.263 4.1776c.167.3107-.056.6862-.408.6862h-8.1654c-.3524 0-.5795-.3802-.3987-.6908l1.4281-2.5409c.1437-.2504.4729-.3153.6955-.1345l1.4837 1.187c.2132.1716.5332.1206.6818-.1159z" fill="#c2c2c2" fill-rule="evenodd"/></g><rect fill="#c2c2c2" height="3" rx="1" width="10" x="117.96" y="75.8333"/><rect fill="#e6e6e6" height="3" rx="1" width="20" x="117.96" y="68.8333"/><rect fill="#e6e6e6" height="3" rx="1" width="28" x="117.96" y="63.8333"/><path d="m0 0h124v18h-124z" fill="#303030" transform="translate(33.3052)"/><g stroke="#fff" stroke-linecap="round"><path d="m43.7637 10.0656c1.3142-1.60822 4.4998-3.85971 6.7282 0"/><path d="m50.4917 10.0656c1.3143-1.60822 4.4999-3.85971 6.7283 0"/><path d="m57.2202 10.0656c1.3143-1.60822 4.4999-3.85971 6.7283 0"/></g></g></g><g filter="url(#b)"><path d="m6.95996 33c0-1.4727 1.19391-2.6666 2.66667-2.6666h65.66667c1.4728 0 2.6667 1.1939 2.6667 2.6666v43.6667c0 1.4728-1.1939 2.6667-2.6667 2.6667h-65.66667c-1.47276 0-2.66667-1.1939-2.66667-2.6667z" fill="#fff"/><path d="m9.62695 30.6h65.66605c1.3254 0 2.4004 1.0749 2.4004 2.4004v43.666c0 1.3255-1.075 2.4004-2.4004 2.4004h-65.66605c-1.32548 0-2.40039-1.0749-2.40039-2.4004v-43.666c0-1.3255 1.07491-2.4004 2.40039-2.4004z" stroke="#303030" stroke-width=".533333"/><rect fill="#d4d4d4" height="18" rx="1.4" width="20" x="49.96" y="37.3334"/><path clip-rule="evenodd" d="m59.4883 44.5151c0 .51-.4173.9273-.9273.9273s-.9273-.4173-.9273-.9273.4173-.9273.9273-.9273.9273.4173.9273.9273zm.2782 3.2688 1.6182-2.5919c.1901-.3014.6306-.2874.8021.0232l2.2627 4.1776c.1669.3107-.0556.6862-.408.6862h-8.1651c-.3524 0-.5796-.3802-.3987-.6908l1.428-2.5409c.1438-.2504.473-.3153.6955-.1344l1.4837 1.1869c.2133.1716.5333.1206.6816-.1159z" fill="#fff" fill-rule="evenodd"/><g fill="#d4d4d4"><rect height="2" rx=".6" width="17" x="49.96" y="58.3334"/><rect height="2" rx=".6" width="8" x="49.96" y="62.3334"/><rect height="18" rx="1.4" width="20" x="14.96" y="37.3334"/></g><path clip-rule="evenodd" d="m24.4883 44.5151c0 .51-.4173.9273-.9273.9273s-.9273-.4173-.9273-.9273.4173-.9273.9273-.9273.9273.4173.9273.9273zm.2782 3.2688 1.6182-2.5919c.1901-.3014.6306-.2874.8021.0232l2.2627 4.1776c.1669.3107-.0556.6862-.408.6862h-8.1651c-.3524 0-.5796-.3802-.3987-.6908l1.428-2.5409c.1438-.2504.473-.3153.6955-.1344l1.4837 1.1869c.2133.1716.5333.1206.6816-.1159z" fill="#fff" fill-rule="evenodd"/><rect fill="#d4d4d4" height="2" rx=".6" width="17" x="14.96" y="58.3334"/><rect fill="#d4d4d4" height="2" rx=".6" width="8" x="14.96" y="62.3334"/><rect fill="#2667ff" height="8" rx="4" width="8" x="37.96" y="43.3334"/><path d="m41.9597 45.8771v2.9126m-1.4563-1.4563h2.9126" stroke="#fff" stroke-linecap="round" stroke-linejoin="round" stroke-width=".8"/><rect fill="#c2c2c2" height="5" rx="1" width="55" x="14.96" y="68.3334"/></g><g stroke="#2667ff" stroke-linecap="round"><path d="m2.62158 20.7786 4.24341 5.771"/><path d="m.5 26.9479 4.24341 1.77"/><path d="m10.2642 21.1858-.7467 4.2952"/></g></svg>