<svg fill="none" height="97" viewBox="0 0 159 97" width="159" xmlns="http://www.w3.org/2000/svg" xmlns:xlink="http://www.w3.org/1999/xlink"><filter id="a" color-interpolation-filters="sRGB" filterUnits="userSpaceOnUse" height="97" width="126" x="32.3052" y="0"><feFlood flood-opacity="0" result="BackgroundImageFix"/><feColorMatrix in="SourceAlpha" result="hardAlpha" type="matrix" values="0 0 0 0 0 0 0 0 0 0 0 0 0 0 0 0 0 0 127 0"/><feOffset dy="1"/><feGaussianBlur stdDeviation=".5"/><feComposite in2="hardAlpha" operator="out"/><feColorMatrix type="matrix" values="0 0 0 0 0.815686 0 0 0 0 0.815686 0 0 0 0 0.815686 0 0 0 1 0"/><feBlend in2="BackgroundImageFix" mode="normal" result="effect1_dropShadow_27_6976"/><feBlend in="SourceGraphic" in2="effect1_dropShadow_27_6976" mode="normal" result="shape"/></filter><filter id="b" color-interpolation-filters="sRGB" filterUnits="userSpaceOnUse" height="52" width="83" x="6.95996" y="30.3333"><feFlood flood-opacity="0" result="BackgroundImageFix"/><feColorMatrix in="SourceAlpha" result="hardAlpha" type="matrix" values="0 0 0 0 0 0 0 0 0 0 0 0 0 0 0 0 0 0 127 0"/><feOffset dx="3" dy="3"/><feComposite in2="hardAlpha" operator="out"/><feColorMatrix type="matrix" values="0 0 0 0 0 0 0 0 0 0 0 0 0 0 0 0 0 0 0.14 0"/><feBlend in2="BackgroundImageFix" mode="normal" result="effect1_dropShadow_27_6976"/><feBlend in="SourceGraphic" in2="effect1_dropShadow_27_6976" mode="normal" result="shape"/></filter><clipPath id="c"><path d="m33.3052 8c0-4.41828 3.5817-8 8-8h107.9998c4.418 0 8 3.58172 8 8v79c0 4.4183-3.582 8-8 8h-107.9998c-4.4183 0-8-3.5817-8-8z"/></clipPath><g filter="url(#a)"><g clip-path="url(#c)"><path d="m33.3052 8c0-4.41828 3.5817-8 8-8h107.9998c4.418 0 8 3.58172 8 8v79c0 4.4183-3.582 8-8 8h-107.9998c-4.4183 0-8-3.5817-8-8z" fill="#fff"/><path d="m0 0h124v18h-124z" fill="#303030" transform="translate(33.3052)"/><g stroke="#fff" stroke-linecap="round"><path d="m43.7637 10.0656c1.3142-1.60822 4.4998-3.85971 6.7282 0"/><path d="m50.4917 10.0656c1.3143-1.60822 4.4999-3.85971 6.7283 0"/><path d="m57.2202 10.0656c1.3143-1.60822 4.4999-3.85971 6.7283 0"/></g><rect fill="#f1f1f1" height="15" rx="2" width="52" x="96.3052" y="29.3333"/><rect fill="#d4d4d4" height="8" rx="1" width="8" x="100.305" y="32.8333"/><rect fill="#d4d4d4" height="2" rx=".6" width="33" x="110.305" y="33.3333"/><rect fill="#b6b6b6" height="2" rx=".6" width="12" x="110.305" y="37.3333"/><rect fill="#f1f1f1" height="15" rx="2" width="52" x="96.3052" y="48.3333"/><rect fill="#d4d4d4" height="8" rx="1" width="8" x="100.305" y="51.8333"/><rect fill="#d4d4d4" height="2" rx=".6" width="33" x="110.305" y="52.3333"/><rect fill="#b6b6b6" height="2" rx=".6" width="12" x="110.305" y="56.3333"/><path d="m96.3052 69.3333c0-1.1046.8954-2 2-2h47.9998c1.105 0 2 .8954 2 2v11c0 1.1045-.895 2-2 2h-47.9998c-1.1046 0-2-.8955-2-2z" fill="#f1f1f1"/><rect fill="#d4d4d4" height="8" rx="1" width="8" x="100.305" y="70.8333"/><rect fill="#d4d4d4" height="2" rx=".6" width="33" x="110.305" y="71.3333"/><rect fill="#b6b6b6" height="2" rx=".6" width="12" x="110.305" y="75.3333"/></g></g><g filter="url(#b)"><path d="m6.95996 32.9999c0-1.4727 1.19391-2.6666 2.66667-2.6666h74.66667c1.4728 0 2.6667 1.1939 2.6667 2.6666v43.6667c0 1.4727-1.1939 2.6667-2.6667 2.6667h-74.66667c-1.47276 0-2.66667-1.194-2.66667-2.6667z" fill="#fff"/><path d="m9.62695 30.5999h74.66605c1.3255 0 2.4004 1.0749 2.4004 2.4003v43.6661c0 1.3254-1.075 2.4004-2.4004 2.4004h-74.66605c-1.32548 0-2.40039-1.075-2.40039-2.4004v-43.6661c0-1.3254 1.07491-2.4003 2.40039-2.4003z" stroke="#303030" stroke-width=".533333"/><g fill="#d4d4d4"><path d="m18.5098 54.874c1.0285 0 1.8623-.8824 1.8623-1.971 0-.4636-.1575-.8843-.4107-1.2209.0166-.0178.0388-.0264.0533-.0471l4.3218-6.1979c.034-.0377.054-.0827.0754-.1267.2001.0777.4135.1266.639.1266.368 0 .7089-.1166.9978-.3115.0217.0278.0362.0611.0633.0841l6.4533 5.4471c.0166.014.0362.0199.0539.0313-.1014.2432-.1599.5108-.1599.7937 0 1.0885.8338 1.971 1.8623 1.971 1.0286 0 1.8624-.8825 1.8624-1.971 0-.5896-.2496-1.1127-.6373-1.4739.0153-.0233.0328-.0444.0446-.0708l3.0022-6.6951c.0184-.0412.022-.0844.0298-.1272.0462.0036.0904.0147.1375.0147 1.0285 0 1.8623-.8824 1.8623-1.971s-.8338-1.971-1.8623-1.971c-1.0286 0-1.8624.8824-1.8624 1.971 0 .6683.316 1.2566.7967 1.6131-.0026.0053-.0074.0085-.0099.014l-3.0022 6.6951c-.0097.0217-.009.0447-.0157.067-.1123-.0224-.2273-.0369-.3457-.0369-.4051 0-.7772.1404-1.0828.3729-.0167-.0189-.0269-.0421-.0466-.0588l-6.4071-5.4079c-.0233-.0249-.0546-.0393-.0821-.0591.13-.2689.2102-.569.2102-.8918 0-1.0885-.8337-1.971-1.8623-1.971-1.0285 0-1.8623.8825-1.8623 1.971 0 .4707.1623.897.4224 1.236-.0006.0007-.0015.0009-.0022.0017-.0144.0159-.0347.0401-.0468.0578l-4.3559 6.2411c-.0141.0202-.0178.044-.0289.0654-.2078-.0847-.4314-.136-.6674-.136-1.0286 0-1.8623.8824-1.8623 1.971s.8337 1.971 1.8623 1.971z"/><rect height="2.6" rx=".6" width="63" x="15.8335" y="63.3333"/><rect height="2.6" rx=".6" width="33" x="15.8335" y="68.8333"/><rect height="2.5" rx=".6" width="30" x="46.96" y="40.3333"/><rect height="2.2" rx=".6" width="22" x="46.96" y="44.3333"/></g><rect fill="#2667ff" height="2.2" rx=".6" width="12" x="46.96" y="50.6333"/></g><g stroke="#2667ff" stroke-linecap="round"><path d="m2.62158 20.7786 4.24341 5.771"/><path d="m.5 26.9479 4.24341 1.77"/><path d="m10.2642 21.1858-.7467 4.2952"/></g></svg>