<svg fill="none" height="97" viewBox="0 0 159 97" width="159" xmlns="http://www.w3.org/2000/svg" xmlns:xlink="http://www.w3.org/1999/xlink"><filter id="a" color-interpolation-filters="sRGB" filterUnits="userSpaceOnUse" height="97" width="126" x="32.3052" y="0"><feFlood flood-opacity="0" result="BackgroundImageFix"/><feColorMatrix in="SourceAlpha" result="hardAlpha" type="matrix" values="0 0 0 0 0 0 0 0 0 0 0 0 0 0 0 0 0 0 127 0"/><feOffset dy="1"/><feGaussianBlur stdDeviation=".5"/><feComposite in2="hardAlpha" operator="out"/><feColorMatrix type="matrix" values="0 0 0 0 0.815686 0 0 0 0 0.815686 0 0 0 0 0.815686 0 0 0 1 0"/><feBlend in2="BackgroundImageFix" mode="normal" result="effect1_dropShadow_27_7139"/><feBlend in="SourceGraphic" in2="effect1_dropShadow_27_7139" mode="normal" result="shape"/></filter><filter id="b" color-interpolation-filters="sRGB" filterUnits="userSpaceOnUse" height="52" width="85" x="7.30518" y="30.3334"><feFlood flood-opacity="0" result="BackgroundImageFix"/><feColorMatrix in="SourceAlpha" result="hardAlpha" type="matrix" values="0 0 0 0 0 0 0 0 0 0 0 0 0 0 0 0 0 0 127 0"/><feOffset dx="3" dy="3"/><feComposite in2="hardAlpha" operator="out"/><feColorMatrix type="matrix" values="0 0 0 0 0 0 0 0 0 0 0 0 0 0 0 0 0 0 0.14 0"/><feBlend in2="BackgroundImageFix" mode="normal" result="effect1_dropShadow_27_7139"/><feBlend in="SourceGraphic" in2="effect1_dropShadow_27_7139" mode="normal" result="shape"/></filter><clipPath id="c"><path d="m33.3052 8c0-4.41828 3.5817-8 8-8h107.9998c4.418 0 8 3.58172 8 8v79c0 4.4183-3.582 8-8 8h-107.9998c-4.4183 0-8-3.5817-8-8z"/></clipPath><g filter="url(#a)"><g clip-path="url(#c)"><path d="m33.3052 8c0-4.41828 3.5817-8 8-8h107.9998c4.418 0 8 3.58172 8 8v79c0 4.4183-3.582 8-8 8h-107.9998c-4.4183 0-8-3.5817-8-8z" fill="#fff"/><path d="m0 0h124v18h-124z" fill="#303030" transform="translate(33.3052)"/><g stroke="#fff" stroke-linecap="round"><path d="m43.7637 10.0656c1.3142-1.60822 4.4998-3.85971 6.7282 0"/><path d="m50.4917 10.0656c1.3143-1.60822 4.4999-3.85971 6.7283 0"/><path d="m57.2202 10.0656c1.3143-1.60822 4.4999-3.85971 6.7283 0"/></g><path d="m107.627 30.5833h32.666c1.335 0 2.417 1.0823 2.417 2.4169v46.6661c0 1.3346-1.082 2.417-2.417 2.417h-32.666c-1.335 0-2.417-1.0824-2.417-2.417v-46.6661c0-1.3346 1.082-2.4169 2.417-2.4169z" fill="#fff"/><path d="m107.627 30.5833h32.666c1.335 0 2.417 1.0823 2.417 2.4169v46.6661c0 1.3346-1.082 2.417-2.417 2.417h-32.666c-1.335 0-2.417-1.0824-2.417-2.417v-46.6661c0-1.3346 1.082-2.4169 2.417-2.4169z" stroke="#d4d4d4" stroke-width=".5"/><rect fill="#d4d4d4" height="25" rx="2" width="30" x="108.96" y="34.3333"/><path clip-rule="evenodd" d="m123.316 43.6693c0 .6961-.569 1.2656-1.265 1.2656s-1.266-.5695-1.266-1.2656.57-1.2656 1.266-1.2656 1.265.5695 1.265 1.2656zm.38 4.4612 2.209-3.5374c.259-.4113.86-.3923 1.094.0317l3.088 5.7015c.228.424-.076.9366-.557.9366h-11.143c-.481 0-.791-.5189-.544-.9429l1.949-3.4677c.196-.3417.645-.4303.949-.1835l2.025 1.6199c.291.2342.728.1646.93-.1582z" fill="#fff" fill-rule="evenodd"/><rect fill="#d4d4d4" height="2" rx=".8" width="10" x="109.305" y="68.1666"/><rect fill="#d4d4d4" height="2" rx=".8" width="19" x="109.305" y="64.5"/><rect fill="#d0d0d0" height="4" rx=".8" width="15" x="109.305" y="74.1666"/></g></g><g filter="url(#b)"><path d="m7.30518 33c0-1.4727 1.1939-2.6666 2.66666-2.6666h76.66666c1.4728 0 2.6667 1.1939 2.6667 2.6666v43.6667c0 1.4728-1.1939 2.6667-2.6667 2.6667h-76.66666c-1.47276 0-2.66666-1.1939-2.66666-2.6667z" fill="#fff"/><path d="m9.97217 30.6h76.66603c1.3255 0 2.4004 1.0749 2.4004 2.4004v43.666c0 1.3255-1.0749 2.4004-2.4004 2.4004h-76.66603c-1.32548 0-2.40039-1.0749-2.40039-2.4004v-43.666c0-1.3255 1.0749-2.4004 2.40039-2.4004z" stroke="#303030" stroke-width=".533333"/><rect fill="#d4d4d4" height="13" rx="1" width="13" x="52.3052" y="57.3333"/><path d="m60.9363 64.7495c-.0407-.1377-.09-.2576-.148-.3594-.0579-.1018-.1409-.2012-.249-.2985-.1081-.0971-.2053-.1754-.2914-.2349-.0862-.0595-.2045-.1261-.3549-.1998-.1503-.0736-.2693-.1284-.357-.1645-.0878-.036-.2147-.0853-.3808-.148-.1473-.0564-.2569-.0995-.329-.1292-.0721-.0298-.1668-.0721-.2843-.1269s-.2052-.1034-.2632-.1457c-.0579-.0422-.1198-.0939-.1856-.155s-.112-.1261-.1387-.1951c-.0266-.0689-.0399-.1441-.0399-.2256 0-.213.094-.3869.2819-.5216.188-.1347.4309-.2021.7286-.2021.1315 0 .2656.018.4018.0541s.2529.0767.35.1221c.0973.0455.1889.0957.2751.1505.0861.0548.1472.0963.1833.1245.036.0282.0588.047.0681.0564.0408.0313.083.0423.1269.0329.047-.0031.083-.0282.1081-.0752l.3808-.6861c.0376-.0627.0298-.1222-.0235-.1786-.0188-.0188-.0422-.0408-.0706-.0658-.0281-.0251-.0893-.0705-.1833-.1364-.094-.0658-.1935-.1245-.2984-.1762-.105-.0517-.2413-.1042-.409-.1574-.1675-.0533-.3407-.0893-.5193-.1081v-.8272c0-.0438-.0141-.0799-.0422-.1081-.0282-.0281-.0642-.0423-.1082-.0423h-.6345c-.0407 0-.0759.0149-.1057.0447-.0298.0297-.0446.065-.0446.1057v.846c-.492.0939-.8914.3038-1.1985.6297-.307.3259-.4606.7049-.4606 1.1373 0 .1285.0134.2507.04.3665.0266.116.0596.2202.0987.3126.0392.0925.0948.1833.1669.2726.072.0893.1402.1661.2044.2303s.1481.1308.2514.1997c.1034.0689.192.1246.2656.1669.0737.0421.1716.0908.2937.1455.1222.0549.2186.0964.2891.1246s.1668.0674.2891.1174c.1691.0658.2945.1168.3759.1528.0816.0361.1849.0862.3103.1504.1253.0642.2169.1229.2749.1762s.1104.1191.1575.1974c.047.0783.0706.1614.0706.2491 0 .2476-.0964.4386-.2891.5733s-.416.2021-.6698.2021c-.1158 0-.2318-.0125-.3477-.0375-.4073-.0816-.788-.2774-1.142-.5876l-.0094-.0094c-.0282-.0344-.0658-.0485-.1128-.0422-.0501.0063-.0862.0251-.1081.0565l-.4841.6344c-.047.0626-.0438.1269.0094.1927.0157.0188.0431.047.0823.0846.0392.0377.1121.0963.2186.1764.1065.0799.2224.155.3477.2256.1254.0704.2844.1401.4771.2091.1927.0688.3924.1174.5992.1455v.8225c0 .0408.0149.076.0447.1058.0297.0298.065.0446.1057.0446h.6345c.0439 0 .08-.0141.1081-.0422.0282-.0282.0422-.0642.0422-.1082v-.8224c.4983-.0815.9033-.2953 1.215-.6416.3117-.3462.4676-.759.4676-1.2383-.0001-.1566-.0205-.3039-.0616-.4419z" fill="#fff"/><rect fill="#e6e6e6" height="2" rx="1" width="8" x="67.96" y="64.8333"/><rect fill="#e6e6e6" height="2" rx="1" width="12" x="67.96" y="60.8333"/><rect fill="#d4d4d4" height="13" rx="1" width="13" x="52.3052" y="38.3333"/><g fill="#fff"><path d="m57.4187 46.4211-.8989.9002c.5107.4671 1.1688.7405 1.8601.7727v-1.276c-.6592-.0595-.9357-.4253-.9612-.3969z"/><path d="m57.2216 46.2155c-.231-.2689-.3714-.6037-.4012-.957h-1.276c.0326.6916.306 1.3501.7727 1.8615z"/><path d="m57.2216 44.018-.9045-.9031c-.4671.5106-.7404 1.1688-.7727 1.8601h1.276c.0298-.3533.1702-.6881.4012-.957z"/><path d="m57.4229 43.8167c.2689-.2311.6038-.3715.957-.4012v-1.276c-.6916.0326-1.3501.3059-1.8615.7727z"/><path d="m59.8232 42.8115c-.0708-.1221-.0945-.2658-.0667-.4041-.3434-.1596-.7147-.2506-1.093-.2679v1.276c.1538.0121.3051.046.4494.1006z"/><path d="m59.6204 46.4168c-.2688.231-.6037.3714-.9569.4012v1.276c.6907-.031 1.3488-.3029 1.86-.7684z"/><path d="m59.8218 46.2155.9045.9045c.4667-.5114.74-1.1699.7726-1.8615h-1.2759c-.0298.3533-.1702.6881-.4012.957z"/><path d="m60.8269 43.8153c-.0141 0 .0071-.0086-.7088.7088.0561.1446.0914.2964.1049.4509h1.2759c-.0159-.3781-.1055-.7494-.2637-1.0931-.1396.03-.2854.0062-.4083-.0666z"/><path d="m59.1086 45.1323 1.5043-1.5042-.6026-.6025c-1.6304 1.6247-1.5879 1.5396-1.5879 1.7055.0004.0751.0304.147.0837.1999l-.1999.2013c-.0232.0272-.0354.062-.034.0977s.0162.0696.0414.0948c.0253.0253.0591.04.0948.0414s.0706-.0107.0977-.034l.2013-.1999c.0263.0264.0576.0473.092.0616.0345.0143.0714.0216.1086.0216.0373 0 .0742-.0073.1086-.0216s.0657-.0352.092-.0616z"/><path d="m61.4989 41.5724c-.3161 0-.4423.2084-.9924.7528-.0411-.0407-.0937-.0678-.1507-.0777s-.1157-.0022-.1681.0222c-.0525.0244-.0963.0642-.1254.1142-.0292.0499-.0424.1076-.0378.1653.0099.1418.0255.1219.7826.879.1205.1177.1616.173.2835.1801.0413.0047.0831-.0002.1222-.0142s.0744-.0368.1033-.0666c.0263-.0264.0472-.0577.0615-.0921s.0216-.0713.0216-.1086c0-.0372-.0073-.0741-.0216-.1085-.0143-.0345-.0352-.0657-.0615-.0921.5529-.5614.7499-.6734.7499-.9867 0-.1504-.0597-.2947-.1661-.401-.1063-.1064-.2506-.1661-.401-.1661z"/></g><rect fill="#e6e6e6" height="2" rx="1" width="8" x="67.96" y="45.8333"/><rect fill="#e6e6e6" height="2" rx="1" width="12" x="67.96" y="41.8333"/><rect fill="#d4d4d4" height="13" rx="1" width="13" x="15.3052" y="57.3333"/><path d="m24.9253 63.6577c.1676-.1699.2267-.4193.1544-.6506-.0722-.2315-.2608-.397-.4922-.4321l-1.429-.2161c-.0726-.011-.1352-.0584-.1677-.1268l-.639-1.3481c-.1035-.2182-.313-.3537-.5468-.3537s-.4433.1355-.5468.3537l-.639 1.3481c-.0325.0684-.0952.1158-.1676.1268l-1.4291.2161c-.2314.0351-.42.2006-.4921.4319-.0724.2315-.0133.4809.1542.6507l1.0341 1.0494c.0524.0532.0764.1299.064.205l-.2442 1.4817c-.0394.2399.0535.4778.2426.6208s.4352.1615.6422.0483l1.2781-.6995c.0649-.0355.1423-.0355.2071-.0001l1.2782.6996c.207.1132.4531.0947.6422-.0483s.282-.3809.2426-.6208l-.2442-1.4817c-.0124-.0751.0116-.1518.064-.205z" fill="#fff"/><rect fill="#e6e6e6" height="2" rx="1" width="8" x="30.96" y="64.8333"/><rect fill="#e6e6e6" height="2" rx="1" width="12" x="30.96" y="60.8333"/><rect fill="#d4d4d4" height="13" rx="1" width="13" x="15.3052" y="38.3333"/><path d="m23.3398 47.2813-1.8965-4.9056c-.0348-.0916-.1227-.1521-.2206-.1518h-.733c-.0978.0003-.1854.0605-.2206.1518l-1.8954 4.9056c-.0141.0365-.0093.0775.0127.1097.0221.0322.0585.0515.0976.0517h.7484c.0492-.0001.0934-.0302.1115-.076l.395-1.0342c.0176-.0457.0614-.0758.1103-.0759h2.0139c.0493 0 .0934.0301.1115.0759l.395 1.0342c.0176.0457.0614.0758.1103.076h.7484c.0391-.0002.0757-.0194.0979-.0516.0222-.0321.0273-.0731.0136-.1098zm-1.8538-1.855h-1.2597c-.0411.0002-.0797-.0201-.103-.054-.0232-.034-.0282-.0773-.0132-.1156l.6298-1.6475c.018-.0486.0644-.0809.1162-.0809.0519 0 .0983.0323.1163.0809l.631 1.6475c.0145.0385.0091.0817-.0143.1156-.0234.0338-.062.054-.1031.054z" fill="#fff"/><path d="m25.2364 47.2813-.962-2.5323c-.0349-.0921-.1232-.153-.2218-.153h-.3439c-.0986 0-.1868.0609-.2218.153l-.4318 1.1363.2871.7449c.0183-.0119.0398-.0181.0616-.0178h.9537c.0486-.0001.0923.0296.1103.0747l.2728.6808c.018.0452.0617.0748.1103.0747h.2751c.0391-.0001.0756-.0194.0976-.0516s.0268-.0732.0128-.1097zm-1.0711-1.1433h-.5681c-.0201.0001-.039-.0098-.0502-.0266-.0113-.0167-.0133-.0379-.0056-.0565l.2835-.7093c.0085-.0234.0308-.039.0558-.039.0249 0 .0472.0156.0557.039l.2847.7093c.0075.0186.0053.0397-.0059.0563-.0111.0167-.0298.0267-.0499.0268z" fill="#fff"/><rect fill="#e6e6e6" height="2" rx="1" width="8" x="30.96" y="45.8333"/><rect fill="#e6e6e6" height="2" rx="1" width="12" x="30.96" y="41.8333"/></g><g stroke="#2667ff" stroke-linecap="round"><path d="m2.62158 20.7786 4.24341 5.771"/><path d="m.5 26.9479 4.24341 1.77"/><path d="m10.2642 21.1858-.7467 4.2952"/></g></svg>