<svg fill="none" height="97" viewBox="0 0 160 97" width="160" xmlns="http://www.w3.org/2000/svg" xmlns:xlink="http://www.w3.org/1999/xlink"><filter id="a" color-interpolation-filters="sRGB" filterUnits="userSpaceOnUse" height="97" width="126" x="33.3052" y="0"><feFlood flood-opacity="0" result="BackgroundImageFix"/><feColorMatrix in="SourceAlpha" result="hardAlpha" type="matrix" values="0 0 0 0 0 0 0 0 0 0 0 0 0 0 0 0 0 0 127 0"/><feOffset dy="1"/><feGaussianBlur stdDeviation=".5"/><feComposite in2="hardAlpha" operator="out"/><feColorMatrix type="matrix" values="0 0 0 0 0.815686 0 0 0 0 0.815686 0 0 0 0 0.815686 0 0 0 1 0"/><feBlend in2="BackgroundImageFix" mode="normal" result="effect1_dropShadow_27_7486"/><feBlend in="SourceGraphic" in2="effect1_dropShadow_27_7486" mode="normal" result="shape"/></filter><filter id="b" color-interpolation-filters="sRGB" filterUnits="userSpaceOnUse" height="27" width="73" x="7.30518" y="34.5"><feFlood flood-opacity="0" result="BackgroundImageFix"/><feColorMatrix in="SourceAlpha" result="hardAlpha" type="matrix" values="0 0 0 0 0 0 0 0 0 0 0 0 0 0 0 0 0 0 127 0"/><feOffset dx="3" dy="3"/><feComposite in2="hardAlpha" operator="out"/><feColorMatrix type="matrix" values="0 0 0 0 0 0 0 0 0 0 0 0 0 0 0 0 0 0 0.14 0"/><feBlend in2="BackgroundImageFix" mode="normal" result="effect1_dropShadow_27_7486"/><feBlend in="SourceGraphic" in2="effect1_dropShadow_27_7486" mode="normal" result="shape"/></filter><clipPath id="c"><path d="m34.3052 8c0-4.41828 3.5817-8 8-8h107.9998c4.418 0 8 3.58172 8 8v79c0 4.4183-3.582 8-8 8h-107.9998c-4.4183 0-8-3.5817-8-8z"/></clipPath><g filter="url(#a)"><g clip-path="url(#c)"><path d="m34.3052 8c0-4.41828 3.5817-8 8-8h107.9998c4.418 0 8 3.58172 8 8v79c0 4.4183-3.582 8-8 8h-107.9998c-4.4183 0-8-3.5817-8-8z" fill="#fff"/><rect fill="#f1f1f1" height="15" rx="2" width="52" x="96.3052" y="28.5"/><g fill="#d4d4d4"><rect height="8" rx="1" width="8" x="100.305" y="32"/><rect height="2" rx=".6" width="33" x="110.305" y="32.5"/><rect height="2" rx=".6" width="22" x="110.305" y="36.5"/></g><rect fill="#f1f1f1" height="15" rx="2" width="52" x="96.3052" y="49"/><rect fill="#d4d4d4" height="8" rx="1" width="8" x="100.305" y="52.5"/><rect fill="#d4d4d4" height="2" rx=".6" width="33" x="110.305" y="53"/><rect fill="#d4d4d4" height="2" rx=".6" width="22" x="110.305" y="57"/><path d="m96.3052 71.5c0-1.1046.8954-2 2-2h47.9998c1.105 0 2 .8954 2 2v11c0 1.1046-.895 2-2 2h-47.9998c-1.1046 0-2-.8954-2-2z" fill="#f1f1f1"/><rect fill="#d4d4d4" height="8" rx="1" width="8" x="100.305" y="73"/><rect fill="#d4d4d4" height="2" rx=".6" width="33" x="110.305" y="73.5"/><rect fill="#d4d4d4" height="2" rx=".6" width="22" x="110.305" y="77.5"/><rect fill="#f1f1f1" height="56" rx="2" width="46" x="44.3052" y="28.5"/><path d="m60.8052 65.5h14c1.1045 0 2-.8954 2-2v-14c0-1.1046-.8955-2-2-2h-14c-1.1046 0-2 .8954-2 2v14c0 1.1046.8954 2 2 2zm0 0 11-11 5 5m-11-6.5c0 .8284-.6716 1.5-1.5 1.5-.8285 0-1.5-.6716-1.5-1.5s.6715-1.5 1.5-1.5c.8284 0 1.5.6716 1.5 1.5z" stroke="#d2d5d9" stroke-linecap="round" stroke-linejoin="round" stroke-width="1.4"/><path d="m0 0h124v18h-124z" fill="#303030" transform="translate(34.3052)"/><path d="m44.7637 10.0656c1.3142-1.60822 4.4998-3.85971 6.7282 0" stroke="#fff" stroke-linecap="round"/><path d="m51.4917 10.0656c1.3143-1.60822 4.4999-3.85971 6.7283 0" stroke="#fff" stroke-linecap="round"/><path d="m58.2202 10.0656c1.3143-1.60822 4.4999-3.85971 6.7283 0" stroke="#fff" stroke-linecap="round"/></g></g><g filter="url(#b)"><rect fill="#fff" height="24" rx="2.66667" width="70" x="7.30518" y="34.5"/><rect height="23.4667" rx="2.4" stroke="#303030" stroke-width=".533333" width="69.4667" x="7.57184" y="34.7667"/><rect fill="#2667ff" height="8" rx="4" width="14" x="56.3052" y="42.5"/><rect fill="#fff" height="5.73511" rx="2.86755" width="5.73511" x="63.1709" y="43.6735"/><g fill="#d4d4d4"><rect height="2.66667" rx=".8" width="30" x="15.3052" y="42.6667"/><rect height="2.66667" rx=".8" width="20" x="15.3052" y="48.3334"/></g></g><g stroke="#2667ff" stroke-linecap="round"><path d="m2.62158 25.9452 4.24341 5.771"/><path d="m.5 32.1145 4.24341 1.77"/><path d="m10.2642 26.3524-.7467 4.2952"/></g></svg>