<svg fill="none" height="97" viewBox="0 0 159 97" width="159" xmlns="http://www.w3.org/2000/svg" xmlns:xlink="http://www.w3.org/1999/xlink"><filter id="a" color-interpolation-filters="sRGB" filterUnits="userSpaceOnUse" height="97" width="126" x="32.3052" y="0"><feFlood flood-opacity="0" result="BackgroundImageFix"/><feColorMatrix in="SourceAlpha" result="hardAlpha" type="matrix" values="0 0 0 0 0 0 0 0 0 0 0 0 0 0 0 0 0 0 127 0"/><feOffset dy="1"/><feGaussianBlur stdDeviation=".5"/><feComposite in2="hardAlpha" operator="out"/><feColorMatrix type="matrix" values="0 0 0 0 0.815686 0 0 0 0 0.815686 0 0 0 0 0.815686 0 0 0 1 0"/><feBlend in2="BackgroundImageFix" mode="normal" result="effect1_dropShadow_27_7055"/><feBlend in="SourceGraphic" in2="effect1_dropShadow_27_7055" mode="normal" result="shape"/></filter><filter id="b" color-interpolation-filters="sRGB" filterUnits="userSpaceOnUse" height="53" width="43" x="6.95996" y="30.3333"><feFlood flood-opacity="0" result="BackgroundImageFix"/><feColorMatrix in="SourceAlpha" result="hardAlpha" type="matrix" values="0 0 0 0 0 0 0 0 0 0 0 0 0 0 0 0 0 0 127 0"/><feOffset dx="3" dy="3"/><feComposite in2="hardAlpha" operator="out"/><feColorMatrix type="matrix" values="0 0 0 0 0 0 0 0 0 0 0 0 0 0 0 0 0 0 0.14 0"/><feBlend in2="BackgroundImageFix" mode="normal" result="effect1_dropShadow_27_7055"/><feBlend in="SourceGraphic" in2="effect1_dropShadow_27_7055" mode="normal" result="shape"/></filter><clipPath id="c"><path d="m33.3052 8c0-4.41828 3.5817-8 8-8h107.9998c4.418 0 8 3.58172 8 8v79c0 4.4183-3.582 8-8 8h-107.9998c-4.4183 0-8-3.5817-8-8z"/></clipPath><g filter="url(#a)"><g clip-path="url(#c)"><path d="m33.3052 8c0-4.41828 3.5817-8 8-8h107.9998c4.418 0 8 3.58172 8 8v79c0 4.4183-3.582 8-8 8h-107.9998c-4.4183 0-8-3.5817-8-8z" fill="#fff"/><path d="m0 0h124v18h-124z" fill="#303030" transform="translate(33.3052)"/><g stroke="#fff" stroke-linecap="round"><path d="m43.7637 10.0656c1.3142-1.60822 4.4998-3.85971 6.7282 0"/><path d="m50.4917 10.0656c1.3143-1.60822 4.4999-3.85971 6.7283 0"/><path d="m57.2202 10.0656c1.3143-1.60822 4.4999-3.85971 6.7283 0"/></g><rect fill="#fff" height="14.6" rx="1.8" width="42.6" x="56.5052" y="68.5333"/><rect height="14.6" rx="1.8" stroke="#d4d4d4" stroke-width=".4" width="42.6" x="56.5052" y="68.5333"/><rect fill="#d4d4d4" height="8" rx="1" width="8" x="59.9956" y="71.8333"/><rect fill="#d4d4d4" height="2" rx=".6" width="20" x="70.9956" y="72.3333"/><rect fill="#b6b6b6" height="2" rx=".6" width="8" x="70.9956" y="76.3333"/><rect fill="#fff" height="14.6" rx="1.8" width="42.6" x="56.5052" y="49.5333"/><rect height="14.6" rx="1.8" stroke="#d4d4d4" stroke-width=".4" width="42.6" x="56.5052" y="49.5333"/><rect fill="#d4d4d4" height="8" rx="1" width="8" x="59.9956" y="52.8333"/><rect fill="#d4d4d4" height="2" rx=".6" width="20" x="70.9956" y="53.3333"/><rect fill="#b6b6b6" height="2" rx=".6" width="8" x="70.9956" y="57.3333"/><rect fill="#fff" height="14.6" rx="1.8" width="42.6" x="56.5052" y="30.5333"/><rect height="14.6" rx="1.8" stroke="#d4d4d4" stroke-width=".4" width="42.6" x="56.5052" y="30.5333"/><rect fill="#d4d4d4" height="8" rx="1" width="8" x="59.9956" y="33.8333"/><rect fill="#d4d4d4" height="2" rx=".6" width="20" x="70.9956" y="34.3333"/><rect fill="#b6b6b6" height="2" rx=".6" width="8" x="70.9956" y="38.3333"/><rect fill="#fff" height="14.6" rx="1.8" width="42.6" x="106.505" y="68.5333"/><rect height="14.6" rx="1.8" stroke="#d4d4d4" stroke-width=".4" width="42.6" x="106.505" y="68.5333"/><rect fill="#d4d4d4" height="8" rx="1" width="8" x="109.996" y="71.8333"/><rect fill="#d4d4d4" height="2" rx=".6" width="20" x="120.996" y="72.3333"/><rect fill="#b6b6b6" height="2" rx=".6" width="8" x="120.996" y="76.3333"/><rect fill="#fff" height="14.6" rx="1.8" width="42.6" x="106.505" y="49.5333"/><rect height="14.6" rx="1.8" stroke="#d4d4d4" stroke-width=".4" width="42.6" x="106.505" y="49.5333"/><rect fill="#d4d4d4" height="8" rx="1" width="8" x="109.996" y="52.8333"/><rect fill="#d4d4d4" height="2" rx=".6" width="20" x="120.996" y="53.3333"/><rect fill="#b6b6b6" height="2" rx=".6" width="8" x="120.996" y="57.3333"/><rect fill="#fff" height="14.6" rx="1.8" width="42.6" x="106.505" y="30.5333"/><rect height="14.6" rx="1.8" stroke="#d4d4d4" stroke-width=".4" width="42.6" x="106.505" y="30.5333"/><rect fill="#d4d4d4" height="8" rx="1" width="8" x="109.996" y="33.8333"/><rect fill="#d4d4d4" height="2" rx=".6" width="20" x="120.996" y="34.3333"/><rect fill="#b6b6b6" height="2" rx=".6" width="8" x="120.996" y="38.3333"/></g></g><g filter="url(#b)"><path d="m6.95996 32.9999c0-1.4727 1.19391-2.6666 2.66667-2.6666h34.66667c1.4728 0 2.6667 1.1939 2.6667 2.6666v44.6667c0 1.4727-1.1939 2.6667-2.6667 2.6667h-34.66667c-1.47276 0-2.66667-1.194-2.66667-2.6667z" fill="#fff"/><path d="m9.62695 30.5999h34.66605c1.3255 0 2.4004 1.0749 2.4004 2.4003v44.6661c0 1.3254-1.0749 2.4004-2.4004 2.4004h-34.66605c-1.32548 0-2.40039-1.075-2.40039-2.4004v-44.6661c0-1.3254 1.07491-2.4003 2.40039-2.4003z" stroke="#303030" stroke-width=".533333"/><rect fill="#d4d4d4" height="20" rx="1" width="26" x="13.96" y="36.3333"/><path clip-rule="evenodd" d="m26.4883 44.015c0 .51-.4173.9273-.9273.9273s-.9273-.4173-.9273-.9273c0-.5101.4173-.9274.9273-.9274s.9273.4173.9273.9274zm.2782 3.2688 1.6182-2.5919c.1901-.3014.6306-.2875.8021.0232l2.2627 4.1776c.1669.3107-.0556.6862-.408.6862h-8.1651c-.3524 0-.5796-.3802-.3987-.6908l1.428-2.5409c.1438-.2504.473-.3153.6955-.1345l1.4837 1.187c.2133.1716.5333.1206.6816-.1159z" fill="#fff" fill-rule="evenodd"/><rect fill="#d4d4d4" height="2" rx=".8" width="10" x="13.96" y="64.1666"/><rect fill="#d4d4d4" height="2" rx=".8" width="19" x="13.96" y="60.5"/><rect fill="#2667ff" height="4" rx=".8" width="15" x="13.96" y="69.1666"/></g><g stroke="#2667ff" stroke-linecap="round"><path d="m2.62158 20.7786 4.24341 5.771"/><path d="m.5 26.9479 4.24341 1.77"/><path d="m10.2642 21.1858-.7467 4.2952"/></g></svg>